<svg width="158" height="51" viewBox="0 0 158 51" fill="none" xmlns="http://www.w3.org/2000/svg">
<g filter="url(#filter0_d_23_136)">
<rect x="26" y="11" width="122" height="26" rx="5" fill="url(#paint0_linear_23_136)"/>
<rect x="26.5" y="11.5" width="121" height="25" rx="4.5" stroke="url(#paint1_linear_23_136)"/>
</g>
<g filter="url(#filter1_d_23_136)">
<path d="M42.6664 21.794V20.2727H49.834V21.794H47.1621V29H45.3382V21.794H42.6664ZM58.6358 24.6364C58.6358 25.5881 58.4554 26.3977 58.0946 27.0653C57.7367 27.733 57.248 28.2429 56.6287 28.5952C56.0123 28.9446 55.3191 29.1193 54.5492 29.1193C53.7736 29.1193 53.0776 28.9432 52.4611 28.5909C51.8446 28.2386 51.3574 27.7287 50.9995 27.0611C50.6415 26.3935 50.4625 25.5852 50.4625 24.6364C50.4625 23.6847 50.6415 22.875 50.9995 22.2074C51.3574 21.5398 51.8446 21.0312 52.4611 20.6818C53.0776 20.3295 53.7736 20.1534 54.5492 20.1534C55.3191 20.1534 56.0123 20.3295 56.6287 20.6818C57.248 21.0312 57.7367 21.5398 58.0946 22.2074C58.4554 22.875 58.6358 23.6847 58.6358 24.6364ZM56.7651 24.6364C56.7651 24.0199 56.6728 23.5 56.4881 23.0767C56.3063 22.6534 56.0492 22.3324 55.7168 22.1136C55.3844 21.8949 54.9952 21.7855 54.5492 21.7855C54.1032 21.7855 53.714 21.8949 53.3816 22.1136C53.0492 22.3324 52.7907 22.6534 52.606 23.0767C52.4242 23.5 52.3333 24.0199 52.3333 24.6364C52.3333 25.2528 52.4242 25.7727 52.606 26.196C52.7907 26.6193 53.0492 26.9403 53.3816 27.1591C53.714 27.3778 54.1032 27.4872 54.5492 27.4872C54.9952 27.4872 55.3844 27.3778 55.7168 27.1591C56.0492 26.9403 56.3063 26.6193 56.4881 26.196C56.6728 25.7727 56.7651 25.2528 56.7651 24.6364ZM52.329 19.5568L54.0463 18.2315H55.0265L56.7523 19.5568H55.4441L54.5449 18.8409L53.633 19.5568H52.329ZM56.3049 18.8068L57.302 17.2088H58.7083L57.3319 18.8068H56.3049ZM59.2718 21.794V20.2727H66.4395V21.794H63.7676V29H61.9437V21.794H59.2718ZM77.6969 20.2727V29H76.1032L72.3063 23.5071H72.2424V29H70.3972V20.2727H72.0165L75.7836 25.7614H75.8603V20.2727H77.6969ZM79.2214 29V20.2727H81.0666V23.8736H84.8123V20.2727H86.6532V29H84.8123V25.3949H81.0666V29H79.2214ZM89.6788 29H87.7015L90.7143 20.2727H93.0922L96.1007 29H94.1234L91.9373 22.267H91.8691L89.6788 29ZM89.5552 25.5696H94.2257V27.0099H89.5552V25.5696ZM89.6831 19.5568L91.4004 18.2315H92.3805L94.1064 19.5568H92.7981L91.899 18.8409L90.987 19.5568H89.6831ZM93.6589 18.8068L94.6561 17.2088H96.0623L94.6859 18.8068H93.6589ZM95.7523 21.794V20.2727H102.92V21.794H100.248V29H98.4242V21.794H95.7523ZM106.827 29V27.6705L109.933 24.794C110.197 24.5384 110.419 24.3082 110.598 24.1037C110.78 23.8991 110.917 23.6989 111.011 23.5028C111.105 23.304 111.152 23.0895 111.152 22.8594C111.152 22.6037 111.094 22.3835 110.977 22.1989C110.861 22.0114 110.702 21.8679 110.5 21.7685C110.298 21.6662 110.069 21.6151 109.814 21.6151C109.547 21.6151 109.314 21.669 109.115 21.777C108.916 21.8849 108.763 22.0398 108.655 22.2415C108.547 22.4432 108.493 22.6832 108.493 22.9616H106.741C106.741 22.3906 106.871 21.8949 107.129 21.4744C107.388 21.054 107.75 20.7287 108.216 20.4986C108.682 20.2685 109.219 20.1534 109.827 20.1534C110.452 20.1534 110.996 20.2642 111.459 20.4858C111.925 20.7045 112.287 21.0085 112.545 21.3977C112.804 21.7869 112.933 22.233 112.933 22.7358C112.933 23.0653 112.868 23.3906 112.737 23.7116C112.609 24.0327 112.381 24.3892 112.051 24.7812C111.721 25.1705 111.257 25.6378 110.657 26.1832L109.383 27.4318V27.4915H113.048V29H106.827ZM117.807 29.1918C117.074 29.1889 116.443 29.0085 115.915 28.6506C115.389 28.2926 114.985 27.7741 114.7 27.0952C114.419 26.4162 114.28 25.5994 114.283 24.6449C114.283 23.6932 114.423 22.8821 114.705 22.2116C114.989 21.5412 115.394 21.0312 115.919 20.6818C116.448 20.3295 117.077 20.1534 117.807 20.1534C118.537 20.1534 119.165 20.3295 119.691 20.6818C120.219 21.0341 120.625 21.5455 120.909 22.2159C121.193 22.8835 121.334 23.6932 121.331 24.6449C121.331 25.6023 121.189 26.4205 120.905 27.0994C120.624 27.7784 120.22 28.2969 119.695 28.6548C119.169 29.0128 118.54 29.1918 117.807 29.1918ZM117.807 27.6619C118.307 27.6619 118.706 27.4105 119.004 26.9077C119.303 26.4048 119.45 25.6506 119.448 24.6449C119.448 23.983 119.379 23.4318 119.243 22.9915C119.11 22.5511 118.919 22.2202 118.672 21.9986C118.428 21.777 118.139 21.6662 117.807 21.6662C117.31 21.6662 116.912 21.9148 116.614 22.4119C116.316 22.9091 116.165 23.6534 116.162 24.6449C116.162 25.3153 116.229 25.875 116.362 26.3239C116.499 26.7699 116.691 27.1051 116.938 27.3295C117.185 27.5511 117.475 27.6619 117.807 27.6619ZM122.647 29V27.6705L125.753 24.794C126.018 24.5384 126.239 24.3082 126.418 24.1037C126.6 23.8991 126.738 23.6989 126.831 23.5028C126.925 23.304 126.972 23.0895 126.972 22.8594C126.972 22.6037 126.914 22.3835 126.797 22.1989C126.681 22.0114 126.522 21.8679 126.32 21.7685C126.118 21.6662 125.89 21.6151 125.634 21.6151C125.367 21.6151 125.134 21.669 124.935 21.777C124.736 21.8849 124.583 22.0398 124.475 22.2415C124.367 22.4432 124.313 22.6832 124.313 22.9616H122.562C122.562 22.3906 122.691 21.8949 122.949 21.4744C123.208 21.054 123.57 20.7287 124.036 20.4986C124.502 20.2685 125.039 20.1534 125.647 20.1534C126.272 20.1534 126.816 20.2642 127.279 20.4858C127.745 20.7045 128.107 21.0085 128.366 21.3977C128.624 21.7869 128.753 22.233 128.753 22.7358C128.753 23.0653 128.688 23.3906 128.557 23.7116C128.43 24.0327 128.201 24.3892 127.871 24.7812C127.542 25.1705 127.077 25.6378 126.478 26.1832L125.204 27.4318V27.4915H128.868V29H122.647ZM133.627 29.1918C132.894 29.1889 132.264 29.0085 131.735 28.6506C131.21 28.2926 130.805 27.7741 130.521 27.0952C130.24 26.4162 130.1 25.5994 130.103 24.6449C130.103 23.6932 130.244 22.8821 130.525 22.2116C130.809 21.5412 131.214 21.0312 131.74 20.6818C132.268 20.3295 132.897 20.1534 133.627 20.1534C134.357 20.1534 134.985 20.3295 135.511 20.6818C136.039 21.0341 136.445 21.5455 136.73 22.2159C137.014 22.8835 137.154 23.6932 137.151 24.6449C137.151 25.6023 137.009 26.4205 136.725 27.0994C136.444 27.7784 136.041 28.2969 135.515 28.6548C134.99 29.0128 134.36 29.1918 133.627 29.1918ZM133.627 27.6619C134.127 27.6619 134.526 27.4105 134.825 26.9077C135.123 26.4048 135.271 25.6506 135.268 24.6449C135.268 23.983 135.2 23.4318 135.063 22.9915C134.93 22.5511 134.74 22.2202 134.492 21.9986C134.248 21.777 133.96 21.6662 133.627 21.6662C133.13 21.6662 132.732 21.9148 132.434 22.4119C132.136 22.9091 131.985 23.6534 131.982 24.6449C131.982 25.3153 132.049 25.875 132.183 26.3239C132.319 26.7699 132.511 27.1051 132.758 27.3295C133.005 27.5511 133.295 27.6619 133.627 27.6619Z" fill="white"/>
</g>
<path d="M39.4097 12.4954L30.6048 10.368C29.7857 10.1701 29.07 9.67352 28.5979 8.9756L23.5223 1.47286C22.9084 0.565389 21.9678 0.0784672 21 0C20.0322 0.0784672 19.0916 0.565389 18.4776 1.47286L13.402 8.9756C12.9299 9.67352 12.2141 10.1701 11.3951 10.368L2.59021 12.4954C0.201939 13.0726 -0.793509 15.9233 0.716621 17.8615L6.28365 25.0071C6.80147 25.6719 7.05265 26.5059 6.98773 27.3461L6.29015 36.3775C6.10097 38.8272 8.50458 40.6548 10.8146 39.8176L19.3308 36.7312C19.8689 36.5362 20.4428 36.4859 21 36.5721C21.5572 36.4859 22.1311 36.5362 22.6692 36.7312L31.1854 39.8176C33.4954 40.6548 35.899 38.8272 35.7099 36.3775L35.0123 27.3461C34.9474 26.5059 35.1984 25.6719 35.7164 25.0071L41.2834 17.8615C42.7934 15.9233 41.7981 13.0726 39.4097 12.4954V12.4954Z" fill="url(#paint2_linear_23_136)"/>
<path d="M22.6692 36.7311L31.1854 39.8175C33.4954 40.6546 35.899 38.8271 35.7099 36.3773L35.0123 27.346C34.9474 26.5058 35.1984 25.6718 35.7164 25.007L41.2834 17.8614C42.7934 15.9231 41.7981 13.0725 39.4098 12.4953L30.6049 10.3679C29.7858 10.17 29.0701 9.67341 28.598 8.97549L23.5224 1.47274C22.9084 0.565389 21.9678 0.0784672 21 0V36.572C21.5572 36.4858 22.1311 36.5361 22.6692 36.7311V36.7311Z" fill="url(#paint3_linear_23_136)"/>
<path d="M39.4093 12.4954L30.6044 10.368C30.3038 10.2953 30.0175 10.1817 29.7517 10.0335L7.30664 39.0655C8.18713 39.9166 9.51548 40.2882 10.8142 39.8175L19.3304 36.7311C19.8685 36.5361 20.4423 36.4858 20.9996 36.572C21.5568 36.4858 22.1307 36.5361 22.6688 36.7311L31.185 39.8175C33.495 40.6547 35.8986 38.8271 35.7094 36.3774L35.0118 27.346C34.9469 26.5058 35.198 25.6718 35.7159 25.007L41.283 17.8614C42.793 15.9233 41.7976 13.0726 39.4093 12.4954V12.4954Z" fill="url(#paint4_linear_23_136)"/>
<path d="M2.59023 12.4954L11.3951 10.368C11.6957 10.2953 11.9819 10.1817 12.2477 10.0335L34.693 39.0655C33.8125 39.9166 32.4841 40.2882 31.1854 39.8175L22.6692 36.7311C22.1311 36.5361 21.5573 36.4858 21 36.572C20.4428 36.4858 19.8689 36.5361 19.3308 36.7311L10.8146 39.8175C8.5046 40.6547 6.101 38.8271 6.29017 36.3774L6.98776 27.346C7.05268 26.5058 6.80161 25.6718 6.28368 25.007L0.716645 17.8614C-0.793485 15.9233 0.201851 13.0726 2.59023 12.4954V12.4954Z" fill="url(#paint5_linear_23_136)"/>
<path d="M0.24664 14.5357C-0.172113 15.5915 -0.0717062 16.8497 0.716548 17.8614L6.28358 25.007C6.8014 25.6718 7.05258 26.5058 6.98766 27.346L6.29007 36.3773C6.1009 38.8271 8.50451 40.6546 10.8145 39.8175L19.3307 36.731C19.8688 36.5361 20.4427 36.4858 20.9999 36.572C21.5572 36.4858 22.1311 36.5361 22.6691 36.731L31.1853 39.8175C33.4954 40.6546 35.899 38.8271 35.7098 36.3773L35.0122 27.346C34.9762 26.8798 35.0409 26.4166 35.191 25.982L0.24664 14.5357Z" fill="url(#paint6_linear_23_136)"/>
<path d="M41.7568 14.5357C42.1756 15.5915 42.0752 16.8497 41.2869 17.8614L35.7199 25.007C35.2021 25.6718 34.9509 26.5058 35.0158 27.346L35.7134 36.3773C35.9026 38.8271 33.499 40.6546 31.189 39.8175L22.6727 36.731C22.1347 36.5361 21.5608 36.4858 21.0036 36.572C20.4463 36.4858 19.8724 36.5361 19.3344 36.731L10.8181 39.8175C8.50812 40.6546 6.10452 38.8271 6.29369 36.3773L6.99128 27.346C7.02732 26.8798 6.96262 26.4166 6.81251 25.982L41.7568 14.5357Z" fill="url(#paint7_linear_23_136)"/>
<path d="M10.8936 27.6478C11.034 25.8304 10.4944 24.0376 9.37422 22.5994L5.67261 17.8482C5.03726 17.0327 5.45601 15.8333 6.46086 15.5906L12.3151 14.176C14.0867 13.7482 15.6252 12.681 16.6467 11.1711L19.8212 6.47839C20.3855 5.64425 21.614 5.64425 22.1784 6.47839L25.3528 11.1708C26.3746 12.6809 27.9131 13.7481 29.6848 14.1761L35.5388 15.5906C36.5437 15.8333 36.9625 17.0327 36.3271 17.8482L32.6257 22.5991C31.5051 24.0375 30.9656 25.8304 31.1061 27.6479L31.5698 33.6525C31.6494 34.6832 30.6382 35.4521 29.6663 35.0998L24.0041 33.0477C23.2093 32.7597 22.3755 32.6135 21.5259 32.6135C21.3793 32.6135 21.232 32.6179 21.0848 32.6268C21.0282 32.6301 20.9715 32.6301 20.915 32.6268C20.7678 32.6179 20.6206 32.6135 20.4738 32.6135C19.6243 32.6135 18.7905 32.7595 17.9957 33.0477L12.3334 35.0998C11.3615 35.4521 10.3502 34.6831 10.4299 33.6525L10.8936 27.6478Z" fill="url(#paint8_linear_23_136)"/>
<path d="M12.5684 27.7771C12.741 25.5417 12.0774 23.3366 10.6995 21.5676L7.95375 18.0432C7.62007 17.6148 7.84003 16.9849 8.36781 16.8574L12.7101 15.8081C14.8892 15.2819 16.7814 13.9692 18.038 12.1121L20.3814 8.64798C20.6778 8.20975 21.3231 8.20975 21.6195 8.64798L23.9626 12.1117C25.2195 13.9692 27.1118 15.2819 29.2912 15.8083L33.6332 16.8574C34.161 16.9849 34.3811 17.615 34.0473 18.0432L31.3017 21.5672C29.9236 23.3362 29.2598 25.5416 29.4326 27.7773L29.7765 32.231C29.8182 32.7725 29.2871 33.1763 28.7766 32.9913L24.5766 31.4691C23.5977 31.1143 22.5715 30.9345 21.5263 30.9345C21.3645 30.9345 21.2001 30.9389 21.0366 30.9478C21.0124 30.9491 20.9883 30.9491 20.9641 30.9478C20.8009 30.9389 20.6362 30.9344 20.4743 30.9344C19.429 30.9344 18.4027 31.1142 17.4239 31.4691L13.224 32.9912C12.7135 33.1762 12.1824 32.7723 12.2241 32.2309L12.5684 27.7771Z" fill="url(#paint9_linear_23_136)"/>
<path d="M22.3061 15.8731L18.7241 18.5969L20.5524 20.4251L20.2585 27.013L24.7934 31.5479L28.7763 32.9914C29.2869 33.1764 29.818 32.7726 29.7762 32.2311L29.4324 27.7774C29.3225 26.3558 29.5522 24.9469 30.0873 23.6543L22.3061 15.8731Z" fill="url(#paint10_linear_23_136)"/>
<path d="M20.0615 18.4072L19.5958 18.6963C19.4511 18.7927 19.3066 18.8248 19.1943 18.8248C18.7285 18.8248 18.4072 18.3269 18.4072 17.829C18.4072 17.4918 18.5518 17.1705 18.8731 16.9777L20.9933 15.6928C21.1218 15.6125 21.2824 15.5804 21.4591 15.5804C21.9731 15.5804 22.5673 15.8856 22.5673 16.3675V26.583C22.5673 27.097 21.9409 27.354 21.3145 27.354C20.688 27.354 20.0616 27.097 20.0616 26.583V18.4072H20.0615Z" fill="url(#paint11_linear_23_136)"/>
<path d="M38.488 21.4492H3.51172L6.28359 25.007C6.80141 25.6718 7.0526 26.5058 6.98767 27.346L6.29009 36.3773C6.10091 38.8271 8.50452 40.6546 10.8145 39.8175L19.3308 36.731C19.8688 36.536 20.4427 36.4857 21 36.5719C21.5572 36.4857 22.1311 36.536 22.6691 36.731L31.1854 39.8175C33.4954 40.6546 35.899 38.8271 35.7097 36.3773L35.0121 27.346C34.9472 26.5058 35.1983 25.6718 35.7162 25.007L38.488 21.4492Z" fill="url(#paint12_linear_23_136)"/>
<defs>
<filter id="filter0_d_23_136" x="16" y="5" width="142" height="46" filterUnits="userSpaceOnUse" color-interpolation-filters="sRGB">
<feFlood flood-opacity="0" result="BackgroundImageFix"/>
<feColorMatrix in="SourceAlpha" type="matrix" values="0 0 0 0 0 0 0 0 0 0 0 0 0 0 0 0 0 0 127 0" result="hardAlpha"/>
<feOffset dy="4"/>
<feGaussianBlur stdDeviation="5"/>
<feComposite in2="hardAlpha" operator="out"/>
<feColorMatrix type="matrix" values="0 0 0 0 0.341667 0 0 0 0 0.152615 0 0 0 0 0.00284722 0 0 0 0.1 0"/>
<feBlend mode="normal" in2="BackgroundImageFix" result="effect1_dropShadow_23_136"/>
<feBlend mode="normal" in="SourceGraphic" in2="effect1_dropShadow_23_136" result="shape"/>
</filter>
<filter id="filter1_d_23_136" x="38.6665" y="15.2088" width="102.489" height="19.983" filterUnits="userSpaceOnUse" color-interpolation-filters="sRGB">
<feFlood flood-opacity="0" result="BackgroundImageFix"/>
<feColorMatrix in="SourceAlpha" type="matrix" values="0 0 0 0 0 0 0 0 0 0 0 0 0 0 0 0 0 0 127 0" result="hardAlpha"/>
<feOffset dy="2"/>
<feGaussianBlur stdDeviation="2"/>
<feComposite in2="hardAlpha" operator="out"/>
<feColorMatrix type="matrix" values="0 0 0 0 0.725 0 0 0 0 0.725 0 0 0 0 0.725 0 0 0 0.25 0"/>
<feBlend mode="normal" in2="BackgroundImageFix" result="effect1_dropShadow_23_136"/>
<feBlend mode="normal" in="SourceGraphic" in2="effect1_dropShadow_23_136" result="shape"/>
</filter>
<linearGradient id="paint0_linear_23_136" x1="87" y1="11" x2="87" y2="37" gradientUnits="userSpaceOnUse">
<stop stop-color="#E6414B"/>
<stop offset="1" stop-color="#B60D00"/>
</linearGradient>
<linearGradient id="paint1_linear_23_136" x1="87" y1="11" x2="87" y2="37" gradientUnits="userSpaceOnUse">
<stop stop-color="#FDC069"/>
<stop offset="1" stop-color="#F59306"/>
</linearGradient>
<linearGradient id="paint2_linear_23_136" x1="11.6479" y1="13.7173" x2="28.5125" y2="30.582" gradientUnits="userSpaceOnUse">
<stop stop-color="#FEF0AE"/>
<stop offset="1" stop-color="#FBC56D"/>
</linearGradient>
<linearGradient id="paint3_linear_23_136" x1="30.763" y1="19.2265" x2="19.5693" y2="21.4652" gradientUnits="userSpaceOnUse">
<stop stop-color="#F6A96C" stop-opacity="0"/>
<stop offset="0.9957" stop-color="#F6A96C" stop-opacity="0.996"/>
<stop offset="1" stop-color="#F6A96C"/>
</linearGradient>
<linearGradient id="paint4_linear_23_136" x1="27.5373" y1="27.7409" x2="17.7616" y2="23.338" gradientUnits="userSpaceOnUse">
<stop stop-color="#F6A96C" stop-opacity="0"/>
<stop offset="0.9957" stop-color="#F6A96C" stop-opacity="0.996"/>
<stop offset="1" stop-color="#F6A96C"/>
</linearGradient>
<linearGradient id="paint5_linear_23_136" x1="15.42" y1="27.4102" x2="24.5241" y2="22.9327" gradientUnits="userSpaceOnUse">
<stop stop-color="#F6A96C" stop-opacity="0"/>
<stop offset="0.9957" stop-color="#F6A96C" stop-opacity="0.996"/>
<stop offset="1" stop-color="#F6A96C"/>
</linearGradient>
<linearGradient id="paint6_linear_23_136" x1="15.0687" y1="30.3689" x2="20.7401" y2="22.0857" gradientUnits="userSpaceOnUse">
<stop stop-color="#F6A96C" stop-opacity="0"/>
<stop offset="0.9957" stop-color="#F6A96C" stop-opacity="0.996"/>
<stop offset="1" stop-color="#F6A96C"/>
</linearGradient>
<linearGradient id="paint7_linear_23_136" x1="24.154" y1="26.4594" x2="23.4704" y2="13.5677" gradientUnits="userSpaceOnUse">
<stop stop-color="#F6A96C" stop-opacity="0"/>
<stop offset="0.9957" stop-color="#F6A96C" stop-opacity="0.996"/>
<stop offset="1" stop-color="#F6A96C"/>
</linearGradient>
<linearGradient id="paint8_linear_23_136" x1="28.3849" y1="30.2254" x2="11.0755" y2="12.916" gradientUnits="userSpaceOnUse">
<stop stop-color="#FEF0AE"/>
<stop offset="1" stop-color="#FBC56D"/>
</linearGradient>
<linearGradient id="paint9_linear_23_136" x1="14.1446" y1="15.8669" x2="26.5383" y2="28.2605" gradientUnits="userSpaceOnUse">
<stop stop-color="#FEF0AE"/>
<stop offset="1" stop-color="#FBC56D"/>
</linearGradient>
<linearGradient id="paint10_linear_23_136" x1="27.6307" y1="25.8325" x2="17.8362" y2="20.7394" gradientUnits="userSpaceOnUse">
<stop stop-color="#DC8758" stop-opacity="0"/>
<stop offset="0.9957" stop-color="#DC8758" stop-opacity="0.996"/>
<stop offset="1" stop-color="#DC8758"/>
</linearGradient>
<linearGradient id="paint11_linear_23_136" x1="18.7595" y1="20.3999" x2="22.3414" y2="21.8923" gradientUnits="userSpaceOnUse">
<stop stop-color="#FBC56D"/>
<stop offset="1" stop-color="#C5715A"/>
</linearGradient>
<linearGradient id="paint12_linear_23_136" x1="20.9998" y1="28.7314" x2="20.9998" y2="43.056" gradientUnits="userSpaceOnUse">
<stop stop-color="#DC8758" stop-opacity="0"/>
<stop offset="0.9957" stop-color="#DC8758" stop-opacity="0.996"/>
<stop offset="1" stop-color="#DC8758"/>
</linearGradient>
</defs>
</svg>
