<svg id="Layer_1" data-name="Layer 1" xmlns="http://www.w3.org/2000/svg" viewBox="0 0 30 22"><defs><style>.cls-1{fill:#787878;}</style></defs><title>Cart</title><polygon class="cls-1" points="22.95 9.24 27.74 10.84 24.54 14.04 22.95 9.24"/><path class="cls-1" d="M27,9.38,28,9.74l.29-1.09L29.8,3a.61.61,0,0,0-.59-.77H8.42A.61.61,0,0,0,7.83,3l3,10.55a.62.62,0,0,0,.6.45H23.33L23,12.91,21.17,7.46Zm.29-1.09L19.39,5.68l2.4,7.23h-10L9.1,3.39H28.54Z"/><rect class="cls-1" x="0.18" width="5.42" height="1.13" rx="0.47" ry="0.47"/><path class="cls-1" d="M.52,2.26H6.19a.33.33,0,0,1,.32.25l.25.88L10,14.92a.33.33,0,0,0,.32.25H26.55a.34.34,0,0,1,.34.34V16a.34.34,0,0,1-.34.34H9.46a.33.33,0,0,1-.33-.25l-.25-.88L5.66,3.64a.34.34,0,0,0-.33-.25H.52a.34.34,0,0,1-.34-.34V2.6A.34.34,0,0,1,.52,2.26Z"/><polygon class="cls-1" points="10.72 21.3 10.72 21.3 10.72 21.3 10.72 21.3"/><path class="cls-1" d="M10,19.59h0a2.41,2.41,0,0,0,2.4,2.4h0a2.36,2.36,0,0,0,1.69-.71,2.39,2.39,0,0,0,.7-1.69h0a2.42,2.42,0,0,0-2.4-2.41h0a2.48,2.48,0,0,0-1.7.71,2.41,2.41,0,0,0-.7,1.7Zm1.12,0a1.32,1.32,0,0,1,.38-.91,1.29,1.29,0,0,1,2.19.91,1.28,1.28,0,0,1-1.28,1.28,1.28,1.28,0,0,1-.91-.37A1.3,1.3,0,0,1,11.14,19.59Z"/><polygon class="cls-1" points="22.02 21.3 22.02 21.3 22.02 21.3 22.02 21.3"/><path class="cls-1" d="M21.31,19.59h0A2.42,2.42,0,0,0,23.72,22h0a2.42,2.42,0,0,0,2.4-2.4h0a2.38,2.38,0,0,0-.71-1.7,2.44,2.44,0,0,0-1.69-.71h0a2.44,2.44,0,0,0-1.69.71,2.38,2.38,0,0,0-.71,1.7Zm1.13,0a1.31,1.31,0,0,1,.37-.91,1.3,1.3,0,0,1,1.82,0,1.31,1.31,0,0,1,.37.91,1.28,1.28,0,1,1-2.56,0Z"/></svg>