<svg id="Layer_1" data-name="Layer 1" xmlns="http://www.w3.org/2000/svg" viewBox="0 0 116.28 82.05"><defs><style>.cls-1{fill:#fc4649;}</style></defs><title>cloud</title><path class="cls-1" d="M116.19,54.27a25.82,25.82,0,0,0-25.6-23.6H90.5a25.54,25.54,0,0,0-4.78.45A26,26,0,0,0,65.9,8.53l-.14,0a18,18,0,0,0-32.27,4.18A16.19,16.19,0,0,0,11.68,27.87c0,.4,0,.79,0,1.19A14.26,14.26,0,0,0,4.14,52.8l-.1.14A18.07,18.07,0,0,0,18.37,82.05H90.54c.83,0,1.51,0,2.14-.09a25.68,25.68,0,0,0,23.51-27.69ZM17.9,30.86a10.42,10.42,0,0,1,10-13.38,9.9,9.9,0,0,1,6,1.9,2.9,2.9,0,0,0,4-.66,3,3,0,0,0,.54-1.44,12.33,12.33,0,0,1,13-11.19,12.13,12.13,0,0,1,6,2l-.62.07-.07,0a27.06,27.06,0,0,0-2.66.5l-.13,0a24.77,24.77,0,0,0-2.5.76l-.23.08c-.76.29-1.52.61-2.25,1l-.35.17c-.66.33-1.33.71-2,1.13l-.15.09-.29.18c-.55.36-1.14.79-1.79,1.3l-.17.13-.29.23a25.67,25.67,0,0,0-2.05,1.86,24.56,24.56,0,0,0-4.07,5.47l0,.05a1.93,1.93,0,0,0-.18.34,24.79,24.79,0,0,0-2,4.89,24.52,24.52,0,0,0-.87,4.47c-.08.65-.13,1.31-.15,2A20.44,20.44,0,0,0,23,34.53,21.4,21.4,0,0,0,20.56,36a12.68,12.68,0,0,0-1.36,1,19.6,19.6,0,0,0-2.12,1.94,18.42,18.42,0,0,0-1.78,2.18,19.9,19.9,0,0,0-2.79,5.75,16.75,16.75,0,0,0-2,.86A19.28,19.28,0,0,0,8.4,48.89a8.5,8.5,0,0,1,6.18-14.32h.22a2.88,2.88,0,0,0,2.55-1A2.92,2.92,0,0,0,17.9,30.86ZM8.64,56.46a11.85,11.85,0,0,1,1.61-1.71,12.29,12.29,0,0,1,2.8-1.86A11.39,11.39,0,0,1,15.6,52a2.94,2.94,0,0,0,2.16-2.24A14.07,14.07,0,0,1,20,44.42a13.72,13.72,0,0,1,1.24-1.52,14.58,14.58,0,0,1,1.63-1.48,7.11,7.11,0,0,1,.86-.64,14.1,14.1,0,0,1,1.76-1c.45-.21.92-.4,1.39-.57s.69-.21,1-.31l.16-.05.19,0a11,11,0,0,1,1.12-.21l.32-.06c.34,0,.68-.07,1-.09h.17l.35,0h1.35c.33,0,.66.06,1,.11l.36,0c.33.06.66.13,1,.21l.31.07a12.62,12.62,0,0,1,1.23.4,2.9,2.9,0,0,0,3.92-3.09,19,19,0,0,1,0-4.67A19.8,19.8,0,0,1,41.06,28a18.83,18.83,0,0,1,1.6-3.86l.1-.19a18.65,18.65,0,0,1,3.17-4.27,19.9,19.9,0,0,1,14.16-6c.55,0,1.14,0,1.84.08s1.07.12,1.54.21l.14,0a7.87,7.87,0,0,1,1,.17A20,20,0,0,1,80,33.57q0,.54,0,1.08v.1a2.91,2.91,0,0,0,2.77,3,3,3,0,0,0,1.11-.17,19.37,19.37,0,0,1,6.65-1.14,19.89,19.89,0,0,1,19.93,19.85A20,20,0,0,1,92.18,76.18h0a15.42,15.42,0,0,1-1.63.07H18.38A12.33,12.33,0,0,1,6.08,64,12.17,12.17,0,0,1,8.64,56.46Z"/></svg>