<?xml version="1.0" encoding="UTF-8"?>
<svg width="17px" height="21px" viewBox="0 0 17 21" version="1.1" xmlns="http://www.w3.org/2000/svg" xmlns:xlink="http://www.w3.org/1999/xlink">
    <!-- Generator: Sketch 53.2 (72643) - https://sketchapp.com -->
    <title>Group 8</title>
    <desc>Created with Sketch.</desc>
    <defs>
        <polygon id="path-1" points="0 0.0396615385 16.9361166 0.0396615385 16.9361166 20.9230462 0 20.9230462"></polygon>
    </defs>
    <g id="Page-1" stroke="none" stroke-width="1" fill="none" fill-rule="evenodd">
        <g id="LinuxHosting_New_Desktop" transform="translate(-1358.000000, -29.000000)">
            <g id="Group-8" transform="translate(1358.000000, 29.000000)">
                <g id="Group-3" transform="translate(0.000000, 0.037308)">
                    <mask id="mask-2" fill="white">
                        <use xlink:href="#path-1"></use>
                    </mask>
                    <g id="Clip-2"></g>
                    <path d="M13.021413,19.9328154 C13.0080722,18.3291231 12.9149915,17.0347385 12.7655744,15.9889692 C12.6440587,15.1399692 12.48557,14.4542 12.2999422,13.8978923 C12.1607404,13.4807385 12.0061395,13.1362 11.8385789,12.8510462 C11.768978,12.7326615 11.6967852,12.6253538 11.6225341,12.5267385 C11.6463951,12.5325846 11.6700274,12.5382 11.6945744,12.5448923 C11.9185475,12.6062769 12.1688211,12.7042769 12.4249646,12.8600462 C12.8090274,13.0942769 13.2084892,13.4563538 13.5581709,14.0400462 C13.9071664,14.6237385 14.2052381,15.4329692 14.3627359,16.5571231 C14.5158121,17.6465846 14.6473143,18.4384308 14.8437673,19.0753538 C14.9422605,19.3934308 15.0582112,19.6733538 15.2033592,19.9253538 C15.2057224,19.9295846 15.208543,19.9335077 15.2110587,19.9376615 C14.4539108,19.9368923 13.7024803,19.9349692 13.021413,19.9328154 L13.021413,19.9328154 Z M3.72142197,20.1538923 C2.94163274,20.1538923 2.44756547,20.1438923 2.15063722,20.1340462 C2.09948475,20.1324308 2.05465964,20.1307385 2.01471345,20.1291231 C2.01433229,20.1258923 2.01395112,20.1235077 2.01364619,20.1201231 C2.00327848,20.0250462 1.99527399,19.8879692 1.99527399,19.6988154 C1.99496906,19.1418923 2.06487489,18.1376615 2.32254305,16.3890462 C2.45488386,15.4895077 2.60856996,14.7875846 2.76911704,14.2456615 C2.88933677,13.8391231 3.01352063,13.5227385 3.13328296,13.2805846 C3.31288834,12.9165846 3.48220224,12.7233538 3.60577623,12.6281231 C3.66790628,12.5799692 3.71860135,12.5549692 3.75976726,12.5405077 C3.80093318,12.5263538 3.83333229,12.5224308 3.86169103,12.5222769 C3.89744439,12.5222 3.92740404,12.5296615 3.94935919,12.5375077 C3.96391973,12.5453538 3.9787852,12.5532 3.99304081,12.5608154 L4.06744439,12.6154308 L4.0975565,12.6160462 C4.32168206,12.7341231 4.49892422,12.8248923 4.62013498,12.8861231 C4.63553408,12.9682 4.65931883,13.0665077 4.69629193,13.1742 C4.74576726,13.3171231 4.81948475,13.4772 4.93253857,13.6337385 C5.04505874,13.7900462 5.19874484,13.9422769 5.39878072,14.0598154 L5.54865516,14.1480462 L5.71293767,14.0919692 C5.7141574,14.0915077 6.12513049,13.9513538 6.66676726,13.7571231 C7.19811256,13.5664308 7.85303184,13.3247385 8.37690628,13.1090462 C8.84276726,13.0057385 9.4015565,12.8927385 9.96240404,12.7432769 C10.0917717,12.7088923 10.2212157,12.6731231 10.3495161,12.6343538 C10.4186596,12.6134308 10.4871933,12.5912769 10.5555744,12.5689692 C10.5910991,12.5884308 10.6272336,12.6102769 10.6644354,12.6367385 C10.7182561,12.6752 10.7743637,12.7228923 10.8317673,12.7795077 C10.9485565,12.8946615 11.0710632,13.0502 11.1941798,13.2628923 C11.4697628,13.7378154 11.7410767,14.4925077 11.9381395,15.6359692 C12.1223951,16.7016615 12.2436058,18.1041231 12.2591574,19.9301231 C12.2592336,19.9415077 12.2594623,19.9525077 12.2595386,19.9638923 C11.6487583,19.9850462 11.0724354,20.0039692 10.528283,20.0208923 C10.4337538,20.0238923 10.3395296,20.0267385 10.2469063,20.0295846 C10.0540363,20.0354308 9.86642646,20.0409692 9.68186592,20.0464308 C6.8014713,20.1301231 4.92217085,20.1538923 3.72142197,20.1538923 L3.72142197,20.1538923 Z M2.02645336,10.5647385 C1.90882556,10.4938154 1.81528744,10.4128923 1.73745336,10.3219692 C1.62127399,10.1855077 1.53886592,10.0239692 1.48367309,9.83412308 C1.42870897,9.64489231 1.40286592,9.42827692 1.40301839,9.1972 C1.40278969,8.88896923 1.44868206,8.55604615 1.52034126,8.23258462 C1.62737265,7.7472 1.79135022,7.28381538 1.92811256,6.94550769 C1.99649372,6.77627692 2.0580139,6.63812308 2.10192422,6.54327692 C2.12387937,6.49581538 2.141413,6.4592 2.15330538,6.43489231 C2.15925157,6.42281538 2.16367309,6.41373846 2.16656996,6.40796923 L2.16961928,6.40173846 L2.17022915,6.40058462 L2.18013946,6.38112308 L2.18783901,6.36073846 C2.18791525,6.36058462 2.37590628,5.85873846 2.56633677,5.34589231 C2.66147578,5.08935385 2.75714843,4.83027692 2.83048475,4.62896923 C2.86288386,4.54012308 2.89048027,4.46350769 2.91243543,4.40166154 C3.03417982,4.39758462 3.16331883,4.39496923 3.29573587,4.39496923 C3.59967758,4.39481538 3.91932332,4.40889231 4.18331883,4.44727692 L4.18591076,4.44766154 C4.30841749,4.46512308 4.48146682,4.48358462 4.70292422,4.50581538 C5.09156099,4.54489231 5.62359238,4.59458462 6.22225157,4.65958462 C7.11959238,4.75704615 8.16665516,4.88950769 9.08701839,5.0692 C9.54685695,5.15889231 9.97505874,5.26073846 10.3325924,5.3732 C10.5112067,5.42927692 10.672135,5.48812308 10.809126,5.54796923 C10.9461933,5.60758462 11.0593996,5.66873846 11.1413502,5.72512308 C11.3075386,5.83912308 11.4429287,5.98143077 11.5559063,6.14796923 C11.7251439,6.39712308 11.8410946,6.70289231 11.9119152,7.0222 C11.983117,7.34112308 12.0094175,7.67173846 12.009265,7.96250769 C12.0093413,8.18935385 11.9934085,8.39235385 11.9730543,8.54389231 C11.9629152,8.61958462 11.951709,8.68258462 11.9418749,8.72643077 C11.936996,8.74827692 11.9325744,8.76527692 11.9296013,8.77504615 L11.9276955,8.78104615 L11.7296417,9.21158462 L12.1966462,9.31258462 C12.2327045,9.32035385 12.26457,9.32250769 12.291404,9.32250769 C12.3437,9.32235385 12.3853996,9.31427692 12.4201619,9.30504615 C12.4850363,9.28712308 12.5288704,9.26535385 12.5694265,9.24458462 C12.6390274,9.20781538 12.697422,9.17004615 12.7597045,9.13227692 C12.8520991,9.07566154 12.9494489,9.01996923 13.0514489,8.97958462 C13.1536013,8.93912308 13.2575072,8.9142 13.3681215,8.91412308 C13.4749242,8.91466154 13.5907987,8.93589231 13.7332022,9.00466154 L13.9587,9.11443077 C13.9811888,9.14681538 14.0021529,9.17958462 14.0196103,9.21381538 C14.0691619,9.3132 14.1033906,9.42458462 14.1043054,9.59727692 C14.1045341,9.78050769 14.0603188,10.0355077 13.9248525,10.3835846 C13.8569287,10.5580462 13.776274,10.6927385 13.6895206,10.7989692 C13.5590094,10.9578154 13.4143951,11.0562769 13.2570498,11.1210462 C13.1000094,11.1852769 12.9287135,11.2127385 12.7607717,11.2127385 C12.6274399,11.2127385 12.4970049,11.1952769 12.383265,11.1683538 C12.26983,11.1418923 12.172404,11.1050462 12.1108076,11.0736615 L11.873265,10.9538154 L11.6796327,11.1371231 C11.5193906,11.2892769 11.2953413,11.4330462 11.0286776,11.5603538 C10.9305655,11.6075077 10.8266596,11.6522769 10.7186372,11.6949692 C10.6712964,11.7136615 10.6228883,11.7318923 10.5740229,11.7497385 C10.5674668,11.7521231 10.5611395,11.7548154 10.5545072,11.7572 C10.2658883,11.8620462 9.95272242,11.9536615 9.63620224,12.0346615 C9.52581659,12.0628923 9.41504978,12.0898154 9.30466413,12.1158923 C9.25671345,12.1271231 9.20891525,12.1382769 9.16111704,12.1492 C8.82012601,12.2274308 8.48591973,12.2970462 8.18220673,12.3645846 L8.15026502,12.3716615 L8.11961928,12.3843538 C8.04559686,12.4150462 7.96730538,12.4466615 7.88733677,12.4785846 C7.72053857,12.5452 7.54329641,12.6138154 7.3629287,12.6820462 C7.25719327,12.7222 7.15092422,12.7621231 7.04503632,12.8014308 C6.82586592,12.8827385 6.60974484,12.9612 6.41146233,13.0322769 C6.14335022,13.1284308 5.90740852,13.2112769 5.73862825,13.2700462 C5.70775381,13.2807385 5.68000493,13.2903538 5.65378072,13.2995077 C5.61391076,13.2626615 5.57914843,13.2228923 5.54850269,13.1805846 C5.4593861,13.0581231 5.40693767,12.9121231 5.38063722,12.7978923 C5.36744888,12.7410462 5.36043543,12.6926615 5.3569287,12.6609692 C5.35609013,12.6534308 5.35548027,12.6470462 5.35502287,12.6415077 C5.35448924,12.6354308 5.35410807,12.6303538 5.35395561,12.6269692 L5.35365067,12.6218154 L5.34839058,12.3885077 L5.13806323,12.2863538 L5.13493767,12.2847385 C5.10299596,12.2692 4.8310722,12.1356615 4.38571794,11.8999692 C4.36414395,11.8863538 4.3341843,11.8692769 4.29538161,11.8508154 C4.29012152,11.8482 4.2843278,11.8457385 4.27868655,11.8432 C3.72500493,11.5481231 2.93934574,11.1140462 2.02645336,10.5647385 L2.02645336,10.5647385 Z M0.497368161,7.58881538 C0.497444395,7.39327692 0.559726906,7.21273846 0.663404036,7.04212308 C0.817776233,6.78696923 1.06766861,6.56604615 1.27982556,6.41573846 C1.30078969,6.40081538 1.32099148,6.38704615 1.34104081,6.37350769 C1.26404529,6.54858462 1.16616188,6.78496923 1.06766861,7.06235385 C0.962390583,7.35904615 0.856655157,7.70166154 0.776229148,8.06527692 C0.773179821,8.0792 0.770359193,8.09350769 0.767386099,8.10750769 C0.74466861,8.14427692 0.722256054,8.1792 0.70060583,8.21112308 C0.64937713,8.13066154 0.609507175,8.05373846 0.579318834,7.98058462 C0.520695516,7.83789231 0.497520628,7.70927692 0.497368161,7.58881538 L0.497368161,7.58881538 Z M2.78596457,2.24212308 C2.88804081,2.27643077 2.98866861,2.3102 3.07999596,2.34035385 C3.17155202,2.37050769 3.25357892,2.39689231 3.32249372,2.41727692 C3.32546682,2.4182 3.32821121,2.41881538 3.33110807,2.41973846 C3.35961928,2.42804615 3.3860722,2.43535385 3.41222018,2.44173846 C3.41465964,2.44235385 3.41725157,2.44312308 3.41969103,2.44373846 C3.4354713,2.44743077 3.4513278,2.45089231 3.4703861,2.4542 C3.49028296,2.45727692 3.51048475,2.4612 3.55233677,2.46166154 C3.59563722,2.46166154 3.63299148,2.45458462 3.66363722,2.44573846 C3.7240139,2.42766154 3.76068206,2.40443077 3.78896457,2.38512308 C3.84217534,2.34681538 3.86771345,2.31689231 3.89248924,2.28866154 C3.93639955,2.23635385 3.96864619,2.1872 4.00371345,2.13104615 C4.06363274,2.03396923 4.12568655,1.91950769 4.18857892,1.79758462 C4.22151166,1.73350769 4.25459686,1.66750769 4.28676726,1.6022 C4.3029287,1.6232 4.31939507,1.64427692 4.33616637,1.66550769 C4.46263722,1.82543077 4.60656547,1.99350769 4.76200493,2.14250769 C4.83999148,2.21696923 4.92087489,2.28689231 5.00732332,2.34896923 C5.09400045,2.41081538 5.18570897,2.46573846 5.29251166,2.50558462 C5.33192422,2.52004615 5.36478072,2.52850769 5.39984798,2.53689231 C5.46693318,2.55235385 5.54080314,2.56473846 5.62885247,2.57766154 C5.79321121,2.60143077 6.00445336,2.6252 6.25533677,2.6512 C6.37029641,2.66304615 6.4938704,2.67535385 6.62392422,2.68812308 C6.76122018,2.70166154 6.90606323,2.71581538 7.05708117,2.73050769 C7.30872691,2.75512308 7.57744888,2.78166154 7.85630987,2.81066154 C8.74282556,2.90258462 9.72989283,3.01966154 10.5745565,3.17458462 C10.5935386,3.17804615 10.6134354,3.1812 10.632265,3.18473846 C10.642404,3.18673846 10.6523143,3.18866154 10.6624534,3.19058462 C11.0785341,3.26896923 11.4570318,3.35712308 11.7614309,3.45327692 C11.9171753,3.50227692 12.053404,3.55343077 12.1633323,3.60404615 C12.2733368,3.65427692 12.3566596,3.70489231 12.4056776,3.74443077 C12.4934982,3.81427692 12.5813951,3.91681538 12.6642605,4.04827692 C12.6711215,4.05912308 12.6782112,4.06873846 12.684996,4.07989231 C12.6963547,4.09866154 12.7073323,4.1192 12.7183861,4.13904615 C12.8325072,4.34273846 12.9326013,4.60189231 13.015848,4.89235385 C13.0357448,4.96212308 13.0551081,5.03304615 13.0731753,5.10604615 C13.2248031,5.7162 13.3098031,6.42335385 13.3683502,7.0482 C13.3977762,7.36089231 13.4207987,7.65343077 13.4436686,7.90681538 C13.4515206,7.99258462 13.4592964,8.07212308 13.4673771,8.14850769 C13.4339108,8.14627692 13.4007493,8.14481538 13.3681215,8.14489231 C13.1839422,8.14481538 13.0160004,8.17943077 12.8700901,8.22812308 C12.8328121,8.24050769 12.7975161,8.25404615 12.7629825,8.26789231 C12.7683188,8.17158462 12.7715206,8.06989231 12.7715969,7.96250769 C12.7711395,7.51404615 12.7202157,6.98189231 12.5484623,6.46396923 C12.4622426,6.20527692 12.3450722,5.94989231 12.1852874,5.71381538 C12.0256552,5.47804615 11.8223413,5.26181538 11.5697045,5.08881538 C11.3625789,4.94750769 11.1155072,4.83435385 10.8334444,4.73135385 C10.3405206,4.55250769 9.73904081,4.40912308 9.094413,4.28766154 C8.1283861,4.10604615 7.06775381,3.97627692 6.1752157,3.88089231 C5.72917534,3.83327692 5.32536816,3.79427692 4.9983278,3.7622 C4.83480762,3.74612308 4.69057444,3.73181538 4.57058341,3.71904615 C4.45066861,3.70627692 4.3543861,3.69489231 4.29126502,3.68581538 L4.29141749,3.68581538 C3.97085695,3.63966154 3.62254753,3.62589231 3.29573587,3.62573846 C3.15272242,3.62573846 3.01428296,3.62858462 2.88476278,3.63296923 C2.88361928,3.62796923 2.88224709,3.62243077 2.88102735,3.61743077 C2.87294664,3.58312308 2.86463722,3.54796923 2.85579417,3.51104615 C2.85266861,3.49804615 2.84939058,3.48443077 2.84626502,3.47112308 C2.84313946,3.45812308 2.84009013,3.44543077 2.83696457,3.4322 C2.83376278,3.41889231 2.83033229,3.40481538 2.82713049,3.39127692 C2.78977623,3.23558462 2.74868655,3.06535385 2.70744439,2.89243077 C2.70271794,2.87227692 2.69791525,2.85204615 2.69318879,2.83189231 C2.68571794,2.80050769 2.67824709,2.7692 2.67085247,2.73789231 C2.66589731,2.71696923 2.66109462,2.69627692 2.65613946,2.67543077 C2.64897354,2.64489231 2.64188386,2.61443077 2.6348704,2.5842 C2.62991525,2.56289231 2.62503632,2.54181538 2.6201574,2.52089231 C2.61322018,2.49081538 2.60643543,2.4612 2.59972691,2.43166154 C2.59522915,2.41227692 2.59080762,2.39281538 2.58646233,2.37373846 C2.57815291,2.33689231 2.5700722,2.30089231 2.56229641,2.26543077 C2.56000942,2.25512308 2.55749372,2.24435385 2.55528296,2.2342 C2.54971794,2.20858462 2.54453408,2.18466154 2.53927399,2.16004615 C2.62000493,2.18658462 2.70302287,2.21427692 2.78596457,2.24212308 L2.78596457,2.24212308 Z M16.257283,20.0460462 C16.0990991,19.8916615 15.9731619,19.7306615 15.8625475,19.5388923 C15.6971215,19.2519692 15.5660004,18.8894308 15.4492112,18.3895846 C15.3322695,17.8906615 15.2307269,17.2586615 15.1175206,16.4495846 C14.9674175,15.3773538 14.6929018,14.5372 14.3446686,13.8803538 C14.0837987,13.3878154 13.7812291,12.9992 13.4636417,12.6969692 C13.0718031,12.3235077 12.6586955,12.0835077 12.2792067,11.9318154 C12.4278614,11.9623538 12.5893996,11.9818923 12.7607717,11.9818923 C12.9267314,11.9818923 13.1010767,11.9641231 13.2776327,11.9204308 C13.5421619,11.8552 13.8128659,11.7293538 14.051552,11.5218154 C14.2906193,11.3148154 14.4934758,11.0285077 14.6344309,10.6646615 C14.7946731,10.2522 14.8664848,9.9042 14.8666372,9.59727692 C14.8668659,9.40566154 14.8377448,9.2312 14.7870498,9.0772 C14.711274,8.84550769 14.5885386,8.6652 14.4721305,8.52750769 C14.3912471,8.43204615 14.314404,8.35481538 14.2521978,8.29066154 C14.2409152,8.21258462 14.2296327,8.1152 14.2186552,8.00435385 C14.1892291,7.70835385 14.1602605,7.31581538 14.1184848,6.88350769 C14.0552874,6.23404615 13.9639601,5.49466154 13.7880901,4.82273846 C13.7438749,4.65466154 13.6943996,4.49058462 13.6379108,4.33258462 C13.6097045,4.25366154 13.5797448,4.1762 13.5478031,4.10058462 C13.5158614,4.02489231 13.4819377,3.95104615 13.4458031,3.87927692 C13.4288794,3.84558462 13.4113457,3.81258462 13.3933547,3.77981538 C13.3764309,3.74896923 13.3590498,3.71858462 13.341135,3.68858462 C13.2159601,3.47904615 13.0659332,3.29127692 12.8786283,3.14112308 C12.8059018,3.0832 12.7272291,3.03273846 12.642839,2.9862 C12.6125744,2.96958462 12.5815475,2.95335385 12.5497583,2.93758462 C12.532987,2.92927692 12.5143861,2.92173846 12.4970812,2.91366154 C12.2830946,2.81350769 12.0375475,2.72873846 11.7615834,2.65181538 C11.3230139,2.5302 10.811413,2.42912308 10.2701574,2.34181538 C10.192857,2.32935385 10.1149466,2.3172 10.0365027,2.30527692 C10.0116507,2.30150769 9.98702735,2.29750769 9.9620991,2.29381538 C8.98105426,2.14758462 7.93208565,2.04327692 7.0911574,1.96104615 C6.67096009,1.92004615 6.30267758,1.88443077 6.02488386,1.85266154 C5.8862157,1.83681538 5.76996009,1.82181538 5.68457892,1.8082 C5.64196457,1.80150769 5.60704978,1.79512308 5.58311256,1.78996923 C5.57114395,1.78735385 5.56191973,1.78512308 5.55665964,1.78366154 L5.55559238,1.78335385 L5.55361031,1.78281538 C5.53470448,1.77589231 5.49567309,1.75581538 5.44901839,1.72204615 C5.36470448,1.66196923 5.25729193,1.56150769 5.15239507,1.44650769 C4.99413498,1.27366154 4.83839058,1.06866154 4.72510807,0.9092 C4.66839058,0.829507692 4.62188834,0.761046154 4.59002287,0.713046154 C4.57409013,0.688969231 4.56181659,0.670123077 4.55373587,0.657584615 L4.54466413,0.643507692 L4.54260583,0.640276923 L4.54237713,0.639892308 L4.54222466,0.639661538 L4.16380314,0.0396615385 L3.87335471,0.687738462 C3.87335471,0.687738462 3.87152511,0.691969231 3.86756099,0.700661538 C3.83828744,0.765584615 3.70137265,1.06704615 3.56156099,1.34550769 C3.50796906,1.45258462 3.45353857,1.5562 3.40703632,1.63858462 C3.3500139,1.6202 3.28628296,1.5992 3.21729193,1.57612308 C3.15821121,1.55635385 3.09600493,1.53550769 3.03250269,1.5142 C2.93721121,1.48227692 2.83917534,1.44943077 2.74502735,1.41850769 C2.6190139,1.3772 2.49970897,1.33927692 2.39770897,1.31012308 C2.34640404,1.29550769 2.29959686,1.28304615 2.25469552,1.27296923 C2.23213049,1.26789231 2.20994664,1.26350769 2.18562825,1.25973846 C2.16710359,1.25704615 2.14819776,1.25435385 2.12334574,1.25304615 C2.11511256,1.25266154 2.10611704,1.25235385 2.09628296,1.25227692 C2.08972691,1.25235385 2.08240852,1.25243077 2.0738704,1.25281538 C2.06525605,1.25327692 2.05549821,1.25396923 2.04413946,1.25527692 C2.04131883,1.25558462 2.03735471,1.25650769 2.03438161,1.25689231 C2.01562825,1.25950769 1.99222466,1.26435385 1.96287489,1.27404615 L1.96264619,1.27343077 C1.96028296,1.2742 1.95814843,1.2752 1.95586143,1.27604615 C1.95395561,1.27673846 1.95273587,1.27681538 1.95075381,1.27750769 L1.95090628,1.27796923 C1.90356547,1.29543077 1.86140852,1.32158462 1.82992422,1.34935385 C1.7694713,1.40304615 1.74294215,1.45466154 1.72624709,1.49204615 C1.70246233,1.54904615 1.69819327,1.58389231 1.69407668,1.61250769 C1.69064619,1.64073846 1.69003632,1.6622 1.68996009,1.68196923 C1.69003632,1.70404615 1.69102735,1.72412308 1.69255202,1.74366154 C1.69300942,1.75096923 1.69384798,1.7582 1.69453408,1.76550769 C1.69544888,1.77504615 1.69613498,1.78458462 1.69720224,1.79435385 C1.69743094,1.79604615 1.69773587,1.79796923 1.69796457,1.79973846 C1.69826951,1.80227692 1.69842197,1.80466154 1.69872691,1.8072 C1.70208117,1.83466154 1.70627399,1.86389231 1.71100045,1.89396923 C1.71191525,1.89973846 1.71275381,1.90558462 1.71374484,1.91150769 C1.71908117,1.94450769 1.72517982,1.97927692 1.73196457,2.0162 C1.73242197,2.01866154 1.73272691,2.02081538 1.73326054,2.02335385 C1.7340991,2.02789231 1.73509013,2.03312308 1.73600493,2.03766154 C1.73806323,2.04866154 1.73996906,2.0592 1.74210359,2.07043077 C1.74416188,2.08112308 1.74675381,2.09312308 1.74888834,2.10404615 C1.75376726,2.12889231 1.75887489,2.1542 1.76421121,2.18035385 C1.76802287,2.19912308 1.771987,2.21812308 1.77602735,2.23750769 C1.78182108,2.26504615 1.7878435,2.29343077 1.79409462,2.32212308 C1.79828744,2.34196923 1.8025565,2.36181538 1.80705426,2.3822 C1.81368655,2.41273846 1.8207,2.44404615 1.82771345,2.47558462 C1.83205874,2.49473846 1.83617534,2.51366154 1.84059686,2.53312308 C1.84204529,2.53927692 1.84326502,2.54512308 1.84471345,2.55135385 C1.84776278,2.56473846 1.85111704,2.57881538 1.85416637,2.59235385 C1.86102735,2.62235385 1.86758341,2.65181538 1.87459686,2.6822 C1.88054305,2.70812308 1.88671794,2.73443077 1.89289283,2.76066154 C1.89502735,2.77012308 1.89723812,2.77950769 1.89944888,2.78904615 C1.91507668,2.85581538 1.93093318,2.92304615 1.94686592,2.99027692 C1.95006771,3.00381538 1.95326951,3.01735385 1.9564713,3.03073846 C1.97194664,3.09596923 1.98742197,3.16089231 2.00274484,3.22481538 C2.00693767,3.2422 2.01105426,3.25943077 2.01517085,3.27666154 C2.02843543,3.33189231 2.04162377,3.38666154 2.05435471,3.43973846 C2.05572691,3.44550769 2.05725157,3.45166154 2.05862377,3.45743077 C2.06937265,3.5022 2.07981659,3.54558462 2.08995561,3.58796923 C2.09186143,3.59581538 2.0936148,3.60343077 2.09552063,3.61112308 C2.10581211,3.6542 2.11587489,3.69612308 2.1253278,3.73604615 C2.12723363,3.74389231 2.12913946,3.75196923 2.13104529,3.75966154 C2.13615291,3.7812 2.14087937,3.80173846 2.1457583,3.8222 C2.14812152,3.8322 2.15056099,3.84250769 2.15284798,3.85227692 C2.15696457,3.86989231 2.16085247,3.88650769 2.16474036,3.90304615 C2.16740852,3.91473846 2.17007668,3.92635385 2.17266861,3.93750769 C2.1760991,3.95227692 2.1793009,3.96643077 2.18242646,3.98012308 C2.18501839,3.99135385 2.18745785,4.00196923 2.18974484,4.01243077 C2.1933278,4.02843077 2.19691076,4.04443077 2.19996009,4.05843077 C2.20003632,4.05873846 2.20011256,4.05896923 2.20018879,4.05927692 C2.20361928,4.07496923 2.20643991,4.08850769 2.20910807,4.10143077 C2.1772426,4.19273846 2.11953408,4.35189231 2.05069552,4.53935385 C1.93726054,4.84827692 1.79317982,5.23589231 1.67753408,5.54604615 C1.66594664,5.57696923 1.65489283,5.60658462 1.64406771,5.63581538 L1.44029641,5.73381538 C1.42848027,5.73989231 1.08817534,5.90273846 0.735825561,6.20766154 C0.559803139,6.36066154 0.379969058,6.54966154 0.239776233,6.77927692 C0.0998883408,7.00812308 -0.000129596413,7.2822 -5.33632287e-05,7.58881538 C-0.000129596413,7.77643077 0.0378345291,7.97389231 0.120166368,8.17327692 C0.202421973,8.37289231 0.328130493,8.57450769 0.502323318,8.77766154 L0.648614798,8.94827692 C0.643735874,9.03112308 0.640686547,9.11412308 0.640686547,9.1972 C0.640915247,9.58043077 0.695650673,9.96566154 0.849565471,10.3224308 C0.926484753,10.5004308 1.02886592,10.6705077 1.15983453,10.8238923 C1.29072691,10.9773538 1.45013049,11.1136615 1.635987,11.2254308 C2.16801839,11.5455077 2.65705426,11.8268154 3.08411256,12.0655077 C3.04919776,12.0952 3.01443543,12.1265077 2.98028296,12.1608154 C2.7028704,12.4396615 2.44489731,12.8638923 2.20552511,13.5173538 C1.96683901,14.1715077 1.74782108,15.0586615 1.56852063,16.2760462 C1.30795561,18.0475846 1.23317085,19.0795077 1.23294215,19.6988154 C1.23355202,20.0908923 1.26145336,20.3173538 1.30399148,20.4782 C1.32602287,20.5587385 1.35186592,20.6244308 1.39112601,20.6865077 C1.4108704,20.7173538 1.43435022,20.7471231 1.4630139,20.7744308 C1.49160135,20.8017385 1.52560135,20.8262 1.56257444,20.8442769 L1.62500942,20.8749692 L1.69422915,20.8815077 C1.71504081,20.8832769 2.14857892,20.9229692 3.72142197,20.9230462 C5.30394664,20.9230462 8.03865964,20.8825077 12.6554175,20.7197385 L13.0232426,20.7068154 L13.0232426,20.7020462 C13.9383457,20.7049692 14.980987,20.7072769 15.9926013,20.7072769 L16.9362157,20.7072769 L16.257283,20.0460462 Z" id="Fill-1" fill="#282828" mask="url(#mask-2)"></path>
                </g>
                <path d="M4.32226906,4.53533615 L4.18700732,4.51125615 C4.18588388,4.51097615 4.18453576,4.51083615 4.18352466,4.51055615 L4.32226906,4.53533615 Z" id="Fill-4" fill="#E8282B"></path>
                <polygon id="Fill-6" fill="#282828" points="4.29449731 7.78224615 3.2946991 9.79555385 5.29604888 9.79555385"></polygon>
            </g>
        </g>
    </g>
</svg>