<?xml version="1.0" encoding="UTF-8"?>
<svg width="73px" height="80px" viewBox="0 0 73 80" version="1.1" xmlns="http://www.w3.org/2000/svg" xmlns:xlink="http://www.w3.org/1999/xlink">
    <!-- Generator: Sketch 61.2 (89653) - https://sketch.com -->
    <title>Group 8</title>
    <desc>Created with Sketch.</desc>
    <defs>
        <polygon id="path-1" points="0 2.63238044 72.9037784 2.63238044 72.9037784 81.3043478 0 81.3043478"></polygon>
    </defs>
    <g id="Page-1" stroke="none" stroke-width="1" fill="none" fill-rule="evenodd">
        <g id="NavigationNew_uudai" transform="translate(-1151.000000, -205.000000)">
            <g id="Group-7" transform="translate(1053.000000, 202.000000)">
                <g id="Group-8" transform="translate(98.000000, 0.000000)">
                    <path d="M24.4545,14.9518696 C23.9371087,14.4344783 23.530587,13.8173043 23.2571087,13.141 L23.2571087,13.1262174 C23.2016739,12.982087 23.1499348,12.8379565 23.105587,12.7012174 C23.083413,12.6236087 23.0686304,12.5533913 23.0501522,12.4794783 C23.0279783,12.4055652 23.0095,12.3464348 22.998413,12.2836087 C22.9873261,12.217087 22.9836304,12.1912174 22.9725435,12.1468696 C22.935587,11.951 22.9097174,11.7551304 22.8949348,11.5592609 C24.1773261,11.6516522 25.3821087,12.2023043 26.2949348,13.1114348 C27.5921087,14.5675217 28.6416739,16.2342609 29.3918913,18.0340435 C27.5847174,17.2875217 25.9142826,16.2490435 24.4471087,14.9518696 L24.4545,14.9518696 Z M31.6277609,21.556 C32.0379783,21.556 32.4260217,21.3601304 32.6699348,21.0312174 C32.9175435,20.7023043 32.9877609,20.2736087 32.8731957,19.8818696 C31.9308043,16.699913 30.308413,13.7581739 28.1242826,11.2636087 C26.3614565,9.39730435 23.7449348,8.60273913 21.2392826,9.17926087 C20.895587,9.3086087 20.6221087,9.58208696 20.4927609,9.92947826 C20.4225435,10.1253478 20.3708043,10.324913 20.3375435,10.5318696 C20.2968913,10.772087 20.2747174,11.0196957 20.2710217,11.2636087 L20.2710217,11.2857826 C20.2931957,13.3590435 21.1358043,15.3436087 22.6140652,16.7996957 C25.1197174,18.9727391 28.0688478,20.5766522 31.2545,21.5005652 C31.3764565,21.5375217 31.5021087,21.556 31.6277609,21.556 L31.6277609,21.556 Z" id="Fill-1" fill="#FC4649"></path>
                    <g id="Group-5" transform="translate(0.000000, 1.063609)">
                        <mask id="mask-2" fill="white">
                            <use xlink:href="#path-1"></use>
                        </mask>
                        <g id="Clip-4"></g>
                        <path d="M70.2983261,34.3008261 L44.2735435,34.3710435 L44.2476739,23.9603913 L70.2724565,23.8901739 L70.2983261,34.3008261 Z M66.5029147,74.6499565 C66.5102826,76.8082174 64.7659348,78.5599565 62.6076739,78.5673478 L41.7863696,78.619087 L41.6791957,36.9801739 L66.4031087,36.9136522 L66.5029147,74.6499565 Z M33.9811522,78.6412609 L33.8739783,36.9986522 L39.0774565,36.9875652 L39.1846304,78.6264783 L33.9811522,78.6412609 Z M6.64441304,74.8088696 L6.54463043,37.0725652 L31.2685435,37.0060435 L31.3757174,78.6486522 L10.5581087,78.7040928 C8.39984783,78.7077826 6.6481087,76.9634348 6.64441304,74.8088696 L6.64441304,74.8088696 Z M2.60506522,24.0675652 L28.6335435,24.0010435 L28.659413,34.4116957 L2.63463043,34.4782174 L2.60506522,24.0675652 Z M20.7802826,17.5853913 C17.0402826,13.8527826 17.0698478,8.40169565 18.9139783,6.54647826 C20.7581087,4.69126087 26.2091957,4.63213043 29.956587,8.34995652 C32.3328913,10.9960435 34.1141957,14.1188696 35.1859348,17.5077826 C35.3337609,17.9660435 35.4483261,18.4021304 35.5591957,18.8271304 C35.5850652,18.949087 35.6109348,19.0673478 35.6405,19.1893043 C35.7107174,19.5071304 35.7661522,19.8101739 35.8105,20.0984348 C35.8252826,20.1982174 35.8437609,20.298 35.8585435,20.394087 C35.8955,20.7193043 35.9213696,21.0482174 35.9250652,21.3734348 L26.5602826,21.3993043 C24.4426739,20.4421304 22.4913696,19.1560435 20.7802826,17.5853913 L20.7802826,17.5853913 Z M41.6718043,34.3784348 L31.2611522,34.4043043 L31.2352826,23.9936522 L41.6422391,23.9677826 L41.6718043,34.3784348 Z M42.8322391,8.3203913 C46.5648478,4.5803913 52.0196304,4.60995652 53.8748478,6.45408696 C55.7300652,8.29821739 55.7855,13.7493043 52.0676739,17.5003913 C50.3639783,19.0821304 48.4163696,20.383 46.3061522,21.3512609 L38.5268043,21.3697391 L38.5268043,21.2884348 C38.5268043,20.989087 38.5009348,20.6897391 38.4750652,20.3866957 C38.4639783,20.286913 38.4528913,20.1908261 38.4418043,20.0873478 C38.4085435,19.8360435 38.371587,19.5884348 38.3272391,19.3408261 C38.3124565,19.2558261 38.2976739,19.1671304 38.2828913,19.0821304 C38.2163696,18.756913 38.1498478,18.439087 38.0685435,18.1323478 C38.0611522,18.0843043 38.0463696,18.0473478 38.0389783,17.9993043 C37.9687609,17.7332174 37.8948478,17.481913 37.8246304,17.2195217 C37.8135435,17.1862609 37.8024565,17.1456087 37.7913696,17.1123478 C38.8483261,13.8638696 40.5668043,10.8703913 42.8322391,8.3203913 L42.8322391,8.3203913 Z M71.5659348,21.2847391 L51.4800652,21.3401739 C52.3485435,20.7414783 53.161587,20.0725652 53.9118043,19.3371304 C58.5535435,14.6547391 58.686587,7.57756522 55.7078913,4.60995652 C52.7255,1.64604348 45.6483261,1.81234783 40.9881087,6.48734783 C39.0848478,8.57169565 37.5363696,10.959087 36.4128913,13.5497391 C35.2709348,10.9627826 33.7150652,8.58278261 31.7970217,6.50582609 C27.1146304,1.86408696 20.0337609,1.73104348 17.0698478,4.70973913 C14.1022391,7.69213043 14.2722391,14.7693043 18.9435435,19.4295217 C19.6974565,20.1612609 20.5141957,20.8264783 21.3863696,21.4177826 L1.29680435,21.4695217 C0.579847826,21.4732174 -0.000369565217,22.0571304 -0.000369565217,22.774087 L0.0328913043,35.7864783 C0.0365869565,36.5071304 0.6205,37.0873478 1.33745652,37.0836522 L3.93919565,37.0762609 L4.03897826,74.8162609 C4.05376087,78.4084348 6.97332609,81.3095217 10.5618043,81.3058296 L62.6150652,81.169087 C66.2072391,81.1543043 69.1120217,78.2384348 69.1046304,74.6425652 L69.0048478,36.9099565 L71.606587,36.9025652 C72.3272391,36.8988696 72.9074565,36.3149565 72.9037784,35.598 L72.8705,22.5856087 C72.8668043,21.8649565 72.286587,21.2847391 71.5659348,21.2847391 L71.5659348,21.2847391 Z" id="Fill-3" fill="#FC4649" mask="url(#mask-2)"></path>
                    </g>
                    <path d="M46.529,13.0571087 C47.4381304,12.1442826 48.642913,11.5899348 49.9253043,11.4864565 C49.832913,12.7688478 49.2822609,13.9810217 48.3731304,14.8938478 C46.9133478,16.198413 45.242913,17.2516739 43.4357391,18.005587 C44.1822609,16.198413 45.2281304,14.520587 46.529,13.0571087 M41.2257391,21.5349348 C41.355087,21.5349348 41.4770435,21.5164565 41.5953043,21.4795 C44.7809565,20.5408043 47.7226957,18.918413 50.2172609,16.7268913 C52.065087,14.9492826 52.8559565,12.3438478 52.3053043,9.8418913 C52.1759565,9.49819565 51.9024783,9.22471739 51.5587826,9.09536957 C49.0531304,8.5595 46.4513913,9.36515217 44.6848696,11.2203696 C42.5044348,13.7260217 40.9005217,16.6751522 39.9766087,19.8681957 C39.8583478,20.2599348 39.9359565,20.6849348 40.1835652,21.0138478 C40.4311739,21.3427609 40.8155217,21.5349348 41.2257391,21.5349348" id="Fill-6" fill="#FC4649"></path>
                </g>
            </g>
        </g>
    </g>
</svg>