<svg width="110" height="67" viewBox="0 0 110 67" fill="none" xmlns="http://www.w3.org/2000/svg">
<g clip-path="url(#clip0_5_33)">
<path fill-rule="evenodd" clip-rule="evenodd" d="M65.79 63.7V61.39H8.37001C7.63005 61.39 6.9204 61.0961 6.39718 60.5728C5.87395 60.0496 5.58001 59.34 5.58001 58.6V11.69L42.82 44C43.3228 44.4434 43.9697 44.6886 44.64 44.69C45.3167 44.6908 45.9706 44.4455 46.48 44L83.71 11.69V30.24H89.29V8.37C89.29 6.15014 88.4082 4.0212 86.8385 2.45152C85.2688 0.881837 83.1399 0 80.92 0H8.37001C6.15096 0.00264645 4.02355 0.885333 2.45445 2.45444C0.885339 4.02355 0.00265245 6.15095 5.99649e-06 8.37V58.6C-0.00265042 60.8234 0.877377 62.957 2.44677 64.532C4.01616 66.107 6.14657 66.9947 8.37001 67H66.78C66.1301 66.0225 65.7855 64.8738 65.79 63.7ZM8.37001 5.58H80.92C81.2912 5.57914 81.6587 5.654 82 5.8L44.64 38.16L7.30001 5.8C7.63821 5.65533 8.00216 5.5805 8.37001 5.58Z" fill="#FC4649"/>
<path d="M106.15 37.89H97.54V36.17C97.54 35.2577 97.1776 34.3827 96.5325 33.7376C95.8873 33.0924 95.0124 32.73 94.1 32.73H83.78C82.8677 32.73 81.9927 33.0924 81.3476 33.7376C80.7024 34.3827 80.34 35.2577 80.34 36.17V37.89H71.73C70.8185 37.8926 69.945 38.2559 69.3005 38.9005C68.6559 39.545 68.2926 40.4185 68.29 41.33V46.49C68.29 47.4033 68.6521 48.2793 69.297 48.926C69.9418 49.5727 70.8167 49.9374 71.73 49.94H85.5V49.08C85.4987 48.9662 85.52 48.8533 85.5626 48.7478C85.6052 48.6423 85.6683 48.5463 85.7483 48.4654C85.8283 48.3845 85.9236 48.3203 86.0286 48.2764C86.1336 48.2326 86.2462 48.21 86.36 48.21H91.52C91.6338 48.21 91.7464 48.2326 91.8514 48.2764C91.9564 48.3203 92.0517 48.3845 92.1317 48.4654C92.2117 48.5463 92.2748 48.6423 92.3174 48.7478C92.3601 48.8533 92.3813 48.9662 92.38 49.08V49.94H106.15C107.063 49.9374 107.938 49.5727 108.583 48.926C109.228 48.2793 109.59 47.4033 109.59 46.49V41.33C109.59 40.4177 109.228 39.5427 108.582 38.8976C107.937 38.2524 107.062 37.89 106.15 37.89ZM94.1 37.89H83.78V36.17H94.1V37.89Z" fill="#FC4649"/>
<path d="M109.11 50.86C108.966 50.7899 108.806 50.7612 108.647 50.7771C108.488 50.793 108.337 50.8529 108.21 50.95C107.619 51.4043 106.896 51.6535 106.15 51.66H92.38V54.24C92.38 54.4681 92.2894 54.6868 92.1281 54.8481C91.9668 55.0094 91.7481 55.1 91.52 55.1H86.36C86.1319 55.1 85.9132 55.0094 85.7519 54.8481C85.5906 54.6868 85.5 54.4681 85.5 54.24V51.66H71.73C70.9901 51.668 70.2675 51.4364 69.67 51C69.5432 50.9029 69.3918 50.843 69.2328 50.8271C69.0738 50.8112 68.9136 50.8399 68.77 50.91C68.6276 50.9826 68.5077 51.0927 68.4231 51.2284C68.3386 51.364 68.2925 51.5202 68.29 51.68V63.7C68.2926 64.6115 68.6559 65.485 69.3005 66.1295C69.945 66.7741 70.8185 67.1374 71.73 67.14H106.15C107.062 67.14 107.937 66.7776 108.582 66.1324C109.228 65.4873 109.59 64.6123 109.59 63.7V51.63C109.587 51.4702 109.541 51.314 109.457 51.1784C109.372 51.0427 109.252 50.9326 109.11 50.86Z" fill="#FC4649"/>
</g>
<defs>
<clipPath id="clip0_5_33">
<rect width="109.59" height="67" fill="white"/>
</clipPath>
</defs>
</svg>
