<?xml version="1.0" encoding="UTF-8"?>
<svg width="90px" height="67px" viewBox="0 0 90 67" version="1.1" xmlns="http://www.w3.org/2000/svg" xmlns:xlink="http://www.w3.org/1999/xlink">
    <!-- Generator: Sketch 61.2 (89653) - https://sketch.com -->
    <title>Group 3 Copy 2</title>
    <desc>Created with Sketch.</desc>
    <defs>
        <polygon id="path-1" points="0 -0.00045 89.2881 -0.00045 89.2881 66.9663 0 66.9663"></polygon>
    </defs>
    <g id="Page-1" stroke="none" stroke-width="1" fill="none" fill-rule="evenodd">
        <g id="NavigationNew_email&amp;Office_Op2" transform="translate(-225.000000, -231.000000)">
            <g id="Group-3-Copy-2" transform="translate(225.000000, 231.000000)">
                <mask id="mask-2" fill="white">
                    <use xlink:href="#path-1"></use>
                </mask>
                <g id="Clip-2"></g>
                <path d="M80.9181,61.3863 L8.3691,61.3863 C6.8301,61.3863 5.5791,60.1398 5.5791,58.5963 L5.5791,11.6928 L42.8166,43.9623 C43.3431,44.4168 43.9956,44.6463 44.6436,44.6463 C45.2961,44.6463 45.9486,44.4168 46.4751,43.9623 L83.7081,11.6928 L83.7081,58.5963 C83.7081,60.1398 82.4616,61.3863 80.9181,61.3863 L80.9181,61.3863 Z M80.9181,5.5818 C81.3006,5.5818 81.6606,5.6583 81.9891,5.7978 L44.6436,38.1618 L7.3026,5.7978 C7.6311,5.6583 7.9911,5.5818 8.3691,5.5818 L80.9181,5.5818 Z M80.9181,-0.0027 L8.3691,-0.0027 C3.7566,-0.0027 -0.0009,3.7548 -0.0009,8.3718 L-0.0009,58.5963 C-0.0009,63.2133 3.7566,66.9663 8.3691,66.9663 L80.9181,66.9663 C85.5351,66.9663 89.2881,63.2133 89.2881,58.5963 L89.2881,8.3718 C89.2881,3.7548 85.5351,-0.0027 80.9181,-0.0027 L80.9181,-0.0027 Z" id="Fill-1" fill="#FC4649" mask="url(#mask-2)"></path>
            </g>
        </g>
    </g>
</svg>