<svg width="90" height="90" viewBox="0 0 90 90" fill="none" xmlns="http://www.w3.org/2000/svg">
<path d="M84.6094 45.9375C84.6094 43.0125 84.3609 40.1953 83.8875 37.5H45V53.4375H67.2047C66.2484 58.5938 63.3562 62.9859 58.9734 65.925V76.2937H72.3328C80.1281 69.1125 84.6094 58.4906 84.6094 45.9375Z" fill="#4285F4"/>
<path d="M58.9781 65.925C55.289 68.4 50.5453 69.8438 45 69.8438C34.2656 69.8438 25.1578 62.6016 21.9046 52.8422H8.13745V63.525C14.925 77.0063 28.8796 86.25 45 86.25C56.1328 86.25 65.5078 82.5938 72.3375 76.2938L58.9781 65.925Z" fill="#34A853"/>
<path d="M20.625 45C20.625 42.2719 21.0797 39.6328 21.9047 37.1578V26.4703H8.1375C5.33438 32.0437 3.75 38.3344 3.75 45C3.75 51.6656 5.33438 57.9562 8.1375 63.5297L21.9047 52.8469C21.0797 50.3672 20.625 47.7281 20.625 45Z" fill="#FBBC05"/>
<path d="M45 20.1562C51.0609 20.1562 56.4937 22.2422 60.7781 26.325L72.6 14.5031C65.4515 7.8375 56.1281 3.75 45 3.75C28.8796 3.75 14.925 12.9938 8.13745 26.4703L21.9046 37.1531C25.1578 27.3984 34.2656 20.1562 45 20.1562Z" fill="#EA4335"/>
</svg>
