<?xml version="1.0" encoding="UTF-8"?>
<svg width="20px" height="20px" viewBox="0 0 20 20" version="1.1" xmlns="http://www.w3.org/2000/svg" xmlns:xlink="http://www.w3.org/1999/xlink">
    <!-- Generator: Sketch 53.2 (72643) - https://sketchapp.com -->
    <title>Group 14</title>
    <desc>Created with Sketch.</desc>
    <defs>
        <polygon id="path-1" points="1.53846154e-05 0.019 19.9810154 0.019 19.9810154 19.9999846 1.53846154e-05 19.9999846"></polygon>
    </defs>
    <g id="Page-1" stroke="none" stroke-width="1" fill="none" fill-rule="evenodd">
        <g id="LinuxHosting_New_Desktop" transform="translate(-1246.000000, -29.000000)">
            <g id="Group-14" transform="translate(1246.000000, 29.000000)">
                <g id="Group-5" transform="translate(0.000000, -0.000000)">
                    <polygon id="Fill-1" fill="#282828" points="8.44728462 11.6058154 11.5337462 11.6058154 9.98913077 8.52889231"></polygon>
                    <g id="Group-4" transform="translate(0.000000, 0.057923)">
                        <mask id="mask-2" fill="white">
                            <use xlink:href="#path-1"></use>
                        </mask>
                        <g id="Clip-3"></g>
                        <path d="M19.2117846,10.4670615 C19.2117846,10.6675231 19.0941692,10.8406769 18.9245538,10.9224462 C18.8583231,10.9543692 18.7844,10.9727538 18.7061692,10.9727538 L18.1444,10.9727538 L14.9691692,10.9727538 L14.7302462,10.9727538 C14.5051692,10.9727538 14.3140923,10.8246769 14.2487846,10.6209077 C14.2331692,10.5723692 14.2246308,10.5206769 14.2246308,10.4670615 L14.2246308,9.55198462 C14.2246308,9.49821538 14.2331692,9.44652308 14.2487846,9.39806154 C14.3140923,9.19421538 14.5051692,9.04621538 14.7302462,9.04621538 L14.9691692,9.04621538 L18.1444,9.04621538 L18.7061692,9.04621538 C18.7844,9.04621538 18.8583231,9.06467692 18.9245538,9.09652308 C19.0941692,9.17821538 19.2117846,9.35136923 19.2117846,9.55198462 L19.2117846,10.4670615 Z M11.7230154,18.0356 L11.7230154,14.7759846 C13.1280154,14.2636769 14.2447846,13.1469846 14.7570154,11.7419077 L18.0167077,11.7419077 C17.3397077,14.8813692 14.8624,17.3586 11.7230154,18.0356 L11.7230154,18.0356 Z M10.4480154,19.2307538 L9.53293846,19.2307538 C9.3324,19.2307538 9.15924615,19.1130615 9.07755385,18.9434462 C9.04563077,18.8772923 9.02724615,18.8033692 9.02724615,18.7250615 L9.02724615,18.1633692 L9.02724615,14.9880615 L9.02724615,14.7492154 C9.02724615,14.5241385 9.17524615,14.3330615 9.37909231,14.2677538 C9.42763077,14.2522154 9.47932308,14.2436 9.53293846,14.2436 L10.4480154,14.2436 C10.5017846,14.2436 10.5534,14.2522154 10.6019385,14.2677538 C10.8057846,14.3330615 10.9537846,14.5241385 10.9537846,14.7492154 L10.9537846,14.9880615 L10.9537846,18.1633692 L10.9537846,18.7250615 C10.9537846,18.8033692 10.9354,18.8772923 10.9034769,18.9434462 C10.8217846,19.1130615 10.6486308,19.2307538 10.4480154,19.2307538 L10.4480154,19.2307538 Z M1.96432308,11.7419077 L5.22401538,11.7419077 C5.73624615,13.1469846 6.85301538,14.2636769 8.25809231,14.7759846 L8.25809231,18.0356 C5.11863077,17.3586 2.64132308,14.8813692 1.96432308,11.7419077 L1.96432308,11.7419077 Z M1.05647692,10.9224462 C0.886861538,10.8406769 0.769246154,10.6675231 0.769246154,10.4670615 L0.769246154,9.55198462 C0.769246154,9.35136923 0.886861538,9.17821538 1.05647692,9.09652308 C1.12270769,9.06467692 1.19663077,9.04621538 1.27486154,9.04621538 L1.83663077,9.04621538 L5.01186154,9.04621538 L5.25078462,9.04621538 C5.47586154,9.04621538 5.66693846,9.19421538 5.73224615,9.39806154 C5.74786154,9.44652308 5.7564,9.49821538 5.7564,9.55198462 L5.7564,10.4670615 C5.7564,10.5206769 5.74778462,10.5723692 5.73224615,10.6209077 C5.66693846,10.8246769 5.47586154,10.9727538 5.25078462,10.9727538 L5.01186154,10.9727538 L1.83663077,10.9727538 L1.27486154,10.9727538 C1.19663077,10.9727538 1.12270769,10.9543692 1.05647692,10.9224462 L1.05647692,10.9224462 Z M8.25809231,1.98329231 L8.25809231,5.24298462 C6.85301538,5.75529231 5.73624615,6.87198462 5.22401538,8.27698462 L1.96432308,8.27698462 C2.64132308,5.1376 5.11863077,2.66029231 8.25809231,1.98329231 L8.25809231,1.98329231 Z M9.53293846,0.788215385 L10.4480154,0.788215385 C10.6486308,0.788215385 10.8217846,0.905830769 10.9034769,1.07544615 C10.9353231,1.14167692 10.9537846,1.21552308 10.9537846,1.29383077 L10.9537846,1.8556 L10.9537846,5.03090769 L10.9537846,5.26975385 C10.9537846,5.49483077 10.8057846,5.68598462 10.6019385,5.75121538 C10.5534,5.76675385 10.5017846,5.77536923 10.4480154,5.77536923 L9.53293846,5.77536923 C9.47932308,5.77536923 9.42763077,5.76675385 9.37909231,5.75121538 C9.17524615,5.68598462 9.02724615,5.49483077 9.02724615,5.26975385 L9.02724615,5.03090769 L9.02724615,1.8556 L9.02724615,1.29383077 C9.02724615,1.21552308 9.04563077,1.14167692 9.07755385,1.07544615 C9.15924615,0.905830769 9.3324,0.788215385 9.53293846,0.788215385 L9.53293846,0.788215385 Z M14.0177077,11.5242923 C13.5821692,12.6815231 12.6625538,13.6011385 11.5053231,14.0366 C11.2763231,13.6974462 10.8882462,13.4744462 10.4480923,13.4744462 L9.53293846,13.4744462 C9.09278462,13.4744462 8.70470769,13.6974462 8.47570769,14.0366 C7.31847692,13.6011385 6.39886154,12.6815231 5.96332308,11.5242923 C6.30255385,11.2952923 6.52555385,10.9072154 6.52555385,10.4670615 L6.52555385,9.55190769 C6.52555385,9.11175385 6.30255385,8.72367692 5.9634,8.4946 C6.39886154,7.33736923 7.31847692,6.41783077 8.47570769,5.98229231 C8.70470769,6.32144615 9.09278462,6.54452308 9.53293846,6.54452308 L10.4480923,6.54452308 C10.8882462,6.54452308 11.2763231,6.32144615 11.5053231,5.98229231 C12.6625538,6.41783077 13.5821692,7.33736923 14.0177077,8.4946 C13.6784769,8.72367692 13.4554769,9.11175385 13.4554769,9.55190769 L13.4554769,10.4670615 C13.4554769,10.9072154 13.6784769,11.2952923 14.0177077,11.5242923 L14.0177077,11.5242923 Z M18.0167077,8.27698462 L14.7570154,8.27698462 C14.2447077,6.87198462 13.1280154,5.75529231 11.7230154,5.24298462 L11.7230154,1.98329231 C14.8624,2.66029231 17.3397077,5.1376 18.0167077,8.27698462 L18.0167077,8.27698462 Z M18.8037846,8.28198462 C18.1073231,4.70821538 15.2917846,1.89267692 11.7180154,1.19621538 C11.6680923,0.537907692 11.1192462,0.0189846154 10.4480923,0.0189846154 L9.53293846,0.0189846154 C8.86178462,0.0189846154 8.31293846,0.537907692 8.26301538,1.19621538 C4.68924615,1.89267692 1.87370769,4.70821538 1.17724615,8.28198462 C0.518938462,8.33190769 1.53846154e-05,8.88075385 1.53846154e-05,9.55190769 L1.53846154e-05,10.4670615 C1.53846154e-05,11.1382154 0.518938462,11.6869846 1.17724615,11.7369846 C1.87370769,15.3107538 4.68924615,18.1262154 8.26301538,18.8226769 C8.31293846,19.4810615 8.86170769,19.9999846 9.53293846,19.9999846 L10.4480923,19.9999846 C11.1192462,19.9999846 11.6680923,19.4810615 11.7180154,18.8226769 C15.2917846,18.1262154 18.1073231,15.3107538 18.8037846,11.7369846 C19.4620923,11.6869846 19.9810154,11.1382154 19.9810154,10.4670615 L19.9810154,9.55190769 C19.9810154,8.88075385 19.4620923,8.33190769 18.8037846,8.28198462 L18.8037846,8.28198462 Z" id="Fill-2" fill="#282828" mask="url(#mask-2)"></path>
                    </g>
                </g>
            </g>
        </g>
    </g>
</svg>