<?xml version="1.0" encoding="UTF-8"?>
<svg width="21px" height="21px" viewBox="0 0 21 21" version="1.1" xmlns="http://www.w3.org/2000/svg" xmlns:xlink="http://www.w3.org/1999/xlink">
    <!-- Generator: Sketch 53.2 (72643) - https://sketchapp.com -->
    <title>Group 3</title>
    <desc>Created with Sketch.</desc>
    <defs>
        <polygon id="path-1" points="0.00015 0 20.806125 0 20.806125 20.80425 0.00015 20.80425"></polygon>
    </defs>
    <g id="Page-1" stroke="none" stroke-width="1" fill="none" fill-rule="evenodd">
        <g id="LinuxHosting_New_Desktop" transform="translate(-1074.000000, -29.000000)">
            <g id="Group-3" transform="translate(1074.000000, 29.000000)">
                <mask id="mask-2" fill="white">
                    <use xlink:href="#path-1"></use>
                </mask>
                <g id="Clip-2"></g>
                <path d="M11.82915,15.532125 L8.8509,20.690625 C3.842025,19.941 0.00015,15.621 0.00015,10.40325 C0.00015,8.55 0.485025,6.810375 1.334775,5.302875 L5.58165,12.658875 C6.43215,14.46975 8.2734,15.72675 10.40265,15.72675 C10.89615,15.72675 11.37465,15.658875 11.828775,15.532125 L11.82915,15.532125 Z M6.624525,10.402875 C6.624525,8.319 8.3199,6.62325 10.40415,6.62325 C12.4884,6.62325 14.1834,8.318625 14.1834,10.402875 C14.1834,12.48675 12.488025,14.182125 10.40415,14.182125 C8.320275,14.182125 6.624525,12.48675 6.624525,10.402875 L6.624525,10.402875 Z M14.127525,6.603 L20.0904,6.603 C20.552775,7.77975 20.806275,9.0615 20.806275,10.402875 C20.806275,16.108875 16.21215,20.740875 10.5219,20.80425 L14.776275,13.435125 C15.375525,12.574125 15.727275,11.528625 15.727275,10.402875 C15.727275,8.915625 15.113775,7.570125 14.128275,6.603 L14.127525,6.603 Z M5.248275,9.072375 L2.27115,3.91575 C4.177275,1.52925 7.111275,-7.10542736e-15 10.4034,-7.10542736e-15 C14.211525,-7.10542736e-15 17.54115,2.04675 19.354275,5.1 L10.866525,5.1 C10.713525,5.086875 10.5594,5.07975 10.40415,5.07975 C7.92765,5.07975 5.84115,6.77925 5.24865,9.073125 L5.248275,9.072375 Z" id="Fill-1" fill="#282828" mask="url(#mask-2)"></path>
            </g>
        </g>
    </g>
</svg>