<?xml version="1.0" encoding="UTF-8"?>
<svg width="90px" height="90px" viewBox="0 0 90 90" version="1.1" xmlns="http://www.w3.org/2000/svg" xmlns:xlink="http://www.w3.org/1999/xlink">
    <!-- Generator: Sketch 61.2 (89653) - https://sketch.com -->
    <title>internet</title>
    <desc>Created with Sketch.</desc>
    <g id="Page-1" stroke="none" stroke-width="1" fill="none" fill-rule="evenodd">
        <g id="NavigationNew_tenmien_Op1_edit" transform="translate(-225.000000, -208.000000)" fill="#FC4649" fill-rule="nonzero">
            <g id="internet" transform="translate(225.000000, 208.000000)">
                <path d="M79.9171149,16.6576819 C79.7553952,16.4537677 79.5866443,16.2498535 79.410862,16.0459393 C71.0250895,6.04325113 58.697938,0.190098061 45.6466045,0.0140630493 C45.4286345,0.00703152467 45.2176958,0 44.9997258,0 C44.7817558,0 44.5708171,0.00703152467 44.3528471,0.0140630493 C31.2512905,0.191827207 18.8825747,6.08996153 10.4971828,16.1584437 C10.3791118,16.2853149 10.2687568,16.4191542 10.1667121,16.5592406 C10.1614521,16.5698222 10.1543035,16.579354 10.1456183,16.5873667 C-3.38187276,33.1150762 -3.38187276,56.8884396 10.1456183,73.4161491 C10.1543035,73.4241618 10.1614521,73.4336936 10.1667121,73.4442752 C10.2687661,73.5843543 10.3791207,73.718193 10.4971828,73.8450721 L10.5042141,73.8521036 C18.8885764,83.9171026 31.2546135,89.8126157 44.3528471,89.9894527 C44.7845683,90.0035158 45.2148833,90.0035158 45.6466045,89.9894527 C58.697938,89.8134177 71.0250895,83.9602646 79.410862,73.9575765 C79.5866443,73.7536623 79.7553952,73.549748 79.9171149,73.3458338 C93.3609617,56.8411433 93.3609617,33.1623724 79.9171149,16.6576819 L79.9171149,16.6576819 Z M69.9537761,43.7712411 C69.88407,37.1031474 68.9216017,30.4744289 67.0920409,24.0618774 C71.097564,22.797702 74.9235912,21.0228767 78.4757004,18.7812024 C84.0960972,25.9234664 87.266714,34.6861004 87.5179401,43.7712411 L69.9537761,43.7712411 Z M46.2302016,2.52431736 C53.7466513,3.29778507 60.2857516,11.0605883 64.0615546,22.4235322 C58.2492703,24.0188301 52.2569481,24.8647776 46.2302016,24.940818 L46.2302016,2.52431736 Z M43.7692499,24.940818 C37.7425035,24.8647776 31.7501812,24.0188301 25.937897,22.4235322 C29.7137,11.0605883 36.2528003,3.29778507 43.7692499,2.52431736 L43.7692499,24.940818 Z M43.7692499,27.4018516 L43.7692499,43.7712411 L22.5066271,43.7712411 C22.5737353,37.3470053 23.4838596,30.9593751 25.213674,24.7720614 C31.2607259,26.4397108 37.4969638,27.323542 43.7692499,27.4018516 L43.7692499,27.4018516 Z M43.7692499,46.2322747 L43.7692499,62.6016641 C37.496965,62.6799893 31.260729,63.5638202 25.213674,65.2314544 C23.4838596,59.0441406 22.5737353,52.6565104 22.5066271,46.2322747 L43.7692499,46.2322747 Z M43.7692499,65.0626978 L43.7692499,87.4791984 C36.2528003,86.7057307 29.7137,78.9429275 25.937897,67.5799836 C31.7501812,65.9846856 37.7425035,65.1387382 43.7692499,65.0626978 L43.7692499,65.0626978 Z M46.2302016,65.0626978 C52.2569481,65.1387382 58.2492703,65.9846856 64.0615546,67.5799836 C60.2857516,78.9429275 53.7466513,86.7057307 46.2302016,87.4791984 L46.2302016,65.0626978 Z M46.2302016,62.6016641 L46.2302016,46.2322747 L67.4928244,46.2322747 C67.4257069,52.65882 66.5155885,59.048773 64.7857775,65.2384859 C58.7403589,63.5621133 52.5032893,62.6758007 46.2302016,62.6016641 L46.2302016,62.6016641 Z M46.2302016,43.7712411 L46.2302016,27.4018516 C52.5032911,27.3277387 58.7403638,26.4414257 64.7857775,24.7650299 C66.5155805,30.9547444 67.4256987,37.3446963 67.4928244,43.7712411 L46.2302016,43.7712411 Z M76.8866287,16.8686277 C73.5920889,18.9212634 70.0536395,20.5535397 66.3537554,21.7274112 C63.6537398,13.6974101 59.5966851,7.31278566 54.7661884,3.59310911 C63.3342756,5.62611963 71.0620493,10.2639208 76.8866287,16.8686277 Z M35.2332631,3.59310911 C30.4027665,7.31278566 26.3457118,13.6974101 23.6456962,21.7274112 C19.948413,20.549917 16.4106836,18.9203345 13.1128229,16.8756592 C18.9338156,10.2652318 26.6627637,5.62426901 35.2332631,3.59310911 L35.2332631,3.59310911 Z M11.5237512,18.7741709 C15.0752647,21.0204986 18.90129,22.8000495 22.9074107,24.0689089 C21.0773278,30.4789479 20.114843,37.1054147 20.0456754,43.7712411 L2.48151151,43.7712411 C2.73272978,34.6839592 5.90326426,25.9190873 11.5237512,18.7741709 L11.5237512,18.7741709 Z M20.0456754,46.2322747 C20.1148346,52.8981017 21.0773195,59.5245697 22.9074107,65.9346068 L22.9074107,65.9416383 C18.9004365,67.2051878 15.074038,68.9825488 11.5237512,71.2293449 C5.90326426,64.0844285 2.73272978,55.3195566 2.48151151,46.2322747 L20.0456754,46.2322747 Z M13.1128229,73.1278566 C16.4106836,71.0831813 19.948413,69.4535988 23.6456962,68.2761045 C26.3457118,76.3061057 30.4027665,82.6907301 35.2332631,86.4104067 C26.6627814,84.3792033 18.9338456,79.7382479 13.1128229,73.1278566 L13.1128229,73.1278566 Z M54.7661884,86.4104067 C59.5966851,82.6907301 63.6537398,76.3061057 66.3537554,68.2761045 C70.0536448,69.4499623 73.5920959,71.0822394 76.8866287,73.1348881 C71.0620493,79.739595 63.3342756,84.3773961 54.7661884,86.4104067 L54.7661884,86.4104067 Z M78.4757004,71.2223134 C74.92358,68.9806597 71.0975555,67.2058357 67.0920409,65.9416383 C68.9216017,59.5290869 69.88407,52.9003683 69.9537761,46.2322747 L87.5179401,46.2322747 C87.266714,55.3174154 84.0960972,64.0800493 78.4757004,71.2223134 L78.4757004,71.2223134 Z" id="Shape"></path>
            </g>
        </g>
    </g>
</svg>