<?xml version="1.0" encoding="UTF-8"?>
<svg width="84px" height="85px" viewBox="0 0 84 85" version="1.1" xmlns="http://www.w3.org/2000/svg" xmlns:xlink="http://www.w3.org/1999/xlink">
    <!-- Generator: Sketch 61.2 (89653) - https://sketch.com -->
    <title>Group 12</title>
    <desc>Created with Sketch.</desc>
    <defs>
        <polygon id="path-1" points="2.69217391 2.89565217 59.5575 2.89565217 59.5575 57.7240435 2.69217391 57.7240435"></polygon>
    </defs>
    <g id="Page-1" stroke="none" stroke-width="1" fill="none" fill-rule="evenodd">
        <g id="NavigationNew_uudai" transform="translate(-227.000000, -200.000000)">
            <g id="Group-2" transform="translate(135.000000, 197.000000)">
                <g id="Group-12" transform="translate(92.000000, 0.000000)">
                    <g id="Group-3" transform="translate(19.565217, 1.016609)">
                        <mask id="mask-2" fill="white">
                            <use xlink:href="#path-1"></use>
                        </mask>
                        <g id="Clip-2"></g>
                        <path d="M6.82043478,27.0477391 C7.93565217,25.4238261 8.47956522,23.4790435 8.37391304,21.5146957 L8.37,21.459913 C8.26043478,19.0651304 9.60652174,16.8386087 11.7782609,15.8173043 L11.8056522,15.8055652 C13.586087,14.9525217 15.0456522,13.5477391 15.9652174,11.8025217 L15.9808696,11.7712174 C17.1,9.6386087 19.443913,8.34730435 21.9365217,8.48034783 L21.9873913,8.48034783 C23.9830435,8.59382609 25.9591304,8.08121739 27.6456522,7.01295652 C29.7743478,5.68252174 32.4743478,5.68252174 34.5991304,7.01295652 C36.2895652,8.07730435 38.2656522,8.59382609 40.2534783,8.48426087 L40.3082609,8.48034783 C42.8126087,8.34730435 45.1447826,9.6386087 46.263913,11.7633913 L46.2795652,11.8025217 C47.2030435,13.5477391 48.6586957,14.9525217 50.4391304,15.8055652 L50.4665217,15.8173043 C52.6695652,16.8894783 54.0117391,19.1042609 53.8786957,21.459913 L53.8747826,21.5186087 C53.7691304,23.4829565 54.3130435,25.4277391 55.4282609,27.0516522 C56.7743478,29.016 56.7743478,31.6064348 55.4243478,33.5707826 C54.3130435,35.1946957 53.7691304,37.1394783 53.8747826,39.1077391 L53.8786957,39.1586087 C54.0117391,41.5142609 52.6695652,43.7290435 50.4665217,44.8051304 L50.4430435,44.8168696 C48.6586957,45.669913 47.1991304,47.0746957 46.2756522,48.8238261 L46.2678261,48.8473043 C45.1447826,50.979913 42.8047826,52.2712174 40.3121739,52.142087 L40.2534783,52.1381739 C38.2656522,52.0286087 36.2895652,52.5412174 34.5991304,53.6094783 C32.4743478,54.939913 29.7743478,54.939913 27.6456522,53.6094783 C26.1117391,52.6351304 24.3352174,52.1225217 22.5195652,52.1225217 C22.3434783,52.1225217 22.1673913,52.1264348 21.9873913,52.1381739 L21.9365217,52.1381739 C19.4791304,52.2946957 17.1547826,51.0112174 15.9808696,48.8433913 L15.9613043,48.816 C15.0456522,47.0707826 13.586087,45.669913 11.8095652,44.8168696 L11.7821739,44.8012174 C9.57521739,43.7290435 8.23304348,41.5142609 8.37,39.1586087 L8.37,39.1038261 C8.47956522,37.1355652 7.93173913,35.1907826 6.82043478,33.5707826 C5.47043478,31.6064348 5.47043478,29.012087 6.82043478,27.0477391 Z M5.25913043,38.9277391 L5.25521739,38.9786087 C5.04782609,42.5981739 7.07478261,45.9829565 10.4165217,47.6107826 L10.4517391,47.6264348 C11.6295652,48.189913 12.596087,49.1212174 13.2065217,50.2755652 L13.2182609,50.2990435 C14.9047826,53.5077391 18.3913043,55.4525217 22.1047826,55.2568696 L22.1556522,55.2529565 C23.5056522,55.1786087 24.843913,55.5268696 25.9826087,56.2507826 C29.1286957,58.2151304 33.12,58.2151304 36.266087,56.2507826 C37.4047826,55.5268696 38.7430435,55.1786087 40.0891304,55.2529565 L40.143913,55.2568696 C43.8534783,55.4564348 47.343913,53.5077391 49.0304348,50.2951304 L49.0421739,50.2794783 C49.6526087,49.1212174 50.6191304,48.186 51.8047826,47.6225217 L51.8282609,47.6107826 C55.173913,45.9829565 57.2008696,42.5981739 56.9934783,38.9786087 L56.9895652,38.9316522 C56.9191304,37.656 57.2752174,36.396 57.9991304,35.3433913 C60.0769565,32.3107826 60.0769565,28.3116522 57.9991304,25.2790435 C57.2752174,24.2264348 56.9191304,22.9664348 56.9895652,21.6946957 L56.9934783,21.639913 C57.2008696,18.0203478 55.173913,14.6355652 51.8243478,13.0116522 L51.7969565,12.996 C50.6191304,12.4325217 49.6565217,11.5051304 49.046087,10.3546957 L49.0304348,10.3194783 C47.343913,7.11078261 43.8534783,5.16991304 40.143913,5.36165217 L40.0852174,5.36556522 C38.7430435,5.44382609 37.4047826,5.09556522 36.266087,4.37165217 C33.12,2.4033913 29.1286957,2.4033913 25.9826087,4.37165217 C24.843913,5.09556522 23.5056522,5.43991304 22.1556522,5.36556522 L22.1047826,5.36165217 C18.3952174,5.166 14.9047826,7.11078261 13.2221739,10.3194783 L13.2065217,10.3429565 C12.6,11.5012174 11.6295652,12.4325217 10.4517391,12.996 L10.4165217,13.0116522 C7.07478261,14.6355652 5.04782609,18.0203478 5.25521739,21.639913 L5.25913043,21.6907826 C5.32956522,22.9664348 4.97347826,24.2264348 4.25347826,25.2751304 C2.17173913,28.3077391 2.17173913,32.3068696 4.25347826,35.3433913 C4.97347826,36.392087 5.32956522,37.652087 5.25913043,38.9277391 L5.25913043,38.9277391 Z" id="Fill-1" fill="#FC4649" mask="url(#mask-2)"></path>
                    </g>
                    <path d="M40.622087,47.4573913 C41.3538261,47.9152174 42.3164348,47.6921739 42.7703478,46.9604348 L61.2516522,17.3504348 C61.5568696,16.8769565 61.5803478,16.2782609 61.3181739,15.7813043 C61.059913,15.2843478 60.5473043,14.9673913 59.9877391,14.9478261 C59.4281739,14.9321739 58.899913,15.2178261 58.6064348,15.6952174 L40.1251304,45.3091304 C39.6673043,46.0369565 39.8903478,46.9995652 40.622087,47.4573913" id="Fill-4" fill="#FC4649"></path>
                    <path d="M42.276913,18.8088261 C44.3547391,18.8088261 46.049087,20.9336087 46.049087,23.5436087 C46.049087,26.1575217 44.3547391,28.2823043 42.276913,28.2823043 C40.199087,28.2823043 38.5086522,26.1575217 38.5086522,23.5436087 C38.5086522,20.9336087 40.199087,18.8088261 42.276913,18.8088261 M42.276913,31.404913 C46.0803913,31.404913 49.1716957,27.8792609 49.1716957,23.5436087 C49.1716957,19.2118696 46.0803913,15.6901304 42.276913,15.6901304 C38.4773478,15.6901304 35.3860435,19.2118696 35.3860435,23.5436087 C35.3860435,27.8792609 38.4773478,31.404913 42.276913,31.404913" id="Fill-6" fill="#FC4649"></path>
                    <path d="M62.870087,39.1096957 C62.870087,41.7196957 61.1796522,43.8444783 59.097913,43.8444783 C57.024,43.8444783 55.3296522,41.7196957 55.3296522,39.1096957 C55.3296522,36.4996957 57.024,34.374913 59.097913,34.374913 C61.1796522,34.374913 62.870087,36.4957826 62.870087,39.1096957 M52.2070435,39.1096957 C52.2070435,43.4414348 55.2983478,46.967087 59.097913,46.967087 C62.9013913,46.967087 65.9926957,43.4414348 65.9926957,39.1096957 C65.9926957,34.7779565 62.9013913,31.2523043 59.1018261,31.2523043 C55.2983478,31.2523043 52.2070435,34.7779565 52.2070435,39.1096957" id="Fill-8" fill="#FC4649"></path>
                    <path d="M53.6642609,82.4188696 C50.2755652,83.9488696 46.4877391,84.3675652 42.8446957,83.624087 L23.702087,78.2553913 C21.546,77.6410435 19.2412174,77.8953913 17.2690435,78.9558261 L15.6255652,79.8362609 L16.0677391,63.8553913 C21.272087,60.3923478 27.9477391,60.0362609 33.4925217,62.928 L34.6390435,63.5227826 C36.6464348,64.5597391 38.8612174,65.1310435 41.1190435,65.1936522 L52.4042609,65.5066957 C55.569913,65.5966957 58.262087,67.8506087 58.9077391,70.9575652 L42.0973043,70.4958261 C41.2364348,70.4723478 40.5203478,71.1493043 40.4968696,72.014087 C40.4733913,72.8749565 41.1542609,73.5910435 42.0112174,73.6145217 L60.5629565,74.1271304 L60.602087,74.1271304 C61.4473043,74.1271304 62.139913,73.454087 62.1633913,72.6088696 C62.1829565,71.928 62.132087,71.2510435 62.0146957,70.5858261 L74.5481739,64.6614783 L74.5873043,64.641913 C76.3638261,63.741913 78.516,64.0432174 79.9755652,65.3971304 L53.6642609,82.4188696 Z M3.16252174,82.8258261 L3.82382609,58.7958261 L13.0781739,59.0462609 L12.4168696,83.0801739 L3.16252174,82.8258261 Z M83.6029565,65.0214783 C81.5407826,61.3510435 76.9546957,59.958 73.1981739,61.848 L60.9738261,67.6236522 C59.2873043,64.4853913 56.0473043,62.4858261 52.4864348,62.388 L41.2012174,62.0749565 C39.4168696,62.024087 37.6638261,61.5701739 36.0751304,60.7523478 L34.9286087,60.1575652 C29.0473043,57.0897391 22.0390435,57.0975652 16.1694783,60.1732174 L16.239913,57.5749565 C16.2633913,56.714087 15.5864348,55.994087 14.7216522,55.9706087 L2.3486087,55.6301739 C1.48773913,55.6066957 0.771652174,56.2836522 0.748173913,57.1484348 L0.000189918659,84.2971304 C-0.0226956522,85.161913 0.65426087,85.881913 1.51513043,85.9053913 L13.8881739,86.2458261 L13.9351304,86.2458261 C14.7764348,86.2458261 15.4690435,85.5727826 15.4925217,84.7275652 L15.5277391,83.4284348 L18.7442609,81.7066957 C20.0042609,81.0297391 21.4794783,80.8693043 22.8568696,81.2566957 L42.0503478,86.6449565 L42.156,86.6684348 C43.5412174,86.958 44.9538261,87.1027826 46.3742609,87.1027826 C49.3755652,87.1027826 52.3416522,86.4571304 55.0690435,85.2049565 C55.1394783,85.1736522 55.202087,85.1384348 55.2646957,85.1032174 L83.0942609,67.0993043 C83.7868696,66.6493043 84.0138261,65.7375652 83.6029565,65.0214783 L83.6029565,65.0214783 Z" id="Fill-10" fill="#FC4649"></path>
                </g>
            </g>
        </g>
    </g>
</svg>