<svg id="logoMatBao" data-name="MatBaoNet" title="Đăng ký tên miền, Domain, Hosting, Server, VPS, Email chuyên nghiệp" class="headerpartial-svg" width="150" height="45" xmlns="http://www.w3.org/2000/svg" viewBox="0 0 187 37.54"><defs><style>.cls-logo-1{fill:#e82429;}.cls-logo-2{fill:#f17125;}</style></defs><title>matbao_logo</title><path class="cls-logo-1" d="M186.6,19.64A13.22,13.22,0,0,0,160.42,17l.16,0A9.35,9.35,0,0,1,179,19.36a11.17,11.17,0,0,1-1.2,5.23,1.16,1.16,0,0,0-.11.31,14.69,14.69,0,0,1-27.85-6.42l-.11,0a18.56,18.56,0,0,0,36.45,5.46h0a11.78,11.78,0,0,0,.51-4.27" /><path class="cls-logo-2" d="M171.21.21a18.58,18.58,0,0,0-20.12,11.73h0s-.07.23-.17.61c-.08.22-.16.44-.23.68h0a18.34,18.34,0,0,0-.66,5.32h.06a13.23,13.23,0,0,0,26.1,2.17l-.16,0a9.35,9.35,0,0,1-18.31-2.77h-.07a11,11,0,0,1,.63-3.55h0a14.69,14.69,0,0,1,28.54,5.11l.12,0A18.57,18.57,0,0,0,171.21.21" /><polygon class="cls-logo-1" points="32.69 36.97 32.53 1.94 17.21 15.44 0 1.78 0 8.06 0 11.07 0 37.2 7.86 37.2 7.86 17.38 17.15 24.85 25.3 17.79 25.3 36.97 32.69 36.97" /><polygon class="cls-logo-1" points="89.12 2.47 64.92 2.47 64.92 10.27 73.4 10.27 73.4 37.05 80.63 37.05 80.63 10.27 89.12 10.27 89.12 2.47" /><polygon class="cls-logo-1" points="137.19 17.99 147.43 37.05 155.13 37.05 137.17 1.72 119.03 37.05 127.28 37.05 137.16 18.09 137.19 17.99" /><polygon class="cls-logo-2" points="133.06 37.05 137.2 28.79 141.34 37.05 133.06 37.05" /><polygon class="cls-logo-1" points="63.03 37.05 70.72 37.05 52.77 1.72 34.63 37.05 42.88 37.05 52.75 16.88 63.03 37.05" /><polygon class="cls-logo-2" points="48.65 37.05 52.8 27.78 56.94 37.05 48.65 37.05" /><path class="cls-logo-1" d="M116.93,18.61a10.23,10.23,0,0,0-7.37-16.2,11.22,11.22,0,0,0-1.45-.08H91.42V36.92h19.2a10.24,10.24,0,0,0,6.31-18.31m-7,11H98.61l0-21.1,9.28,0h0a3.67,3.67,0,1,1,0,7.33H103V22.3h6.88a3.68,3.68,0,0,1,0,7.35" /></svg>