<svg id="Layer_1" data-name="Layer 1" xmlns="http://www.w3.org/2000/svg" xmlns:xlink="http://www.w3.org/1999/xlink" viewBox="0 0 414.39 80.49"><defs><style>.cls-1{fill:url(#linear-gradient);}.cls-2{fill:#fff;}.cls-3{fill:url(#linear-gradient-2);}.cls-4{fill:url(#linear-gradient-3);}.cls-5{fill:#ed1c24;}</style><linearGradient id="linear-gradient" x1="190.57" y1="771.67" x2="414.39" y2="771.67" gradientTransform="translate(0 -731.52)" gradientUnits="userSpaceOnUse"><stop offset="0" stop-color="#e9292b"/><stop offset="0.25" stop-color="#ed4d26"/><stop offset="0.59" stop-color="#f37824"/><stop offset="0.85" stop-color="#f69324"/><stop offset="1" stop-color="#f79d24"/></linearGradient><linearGradient id="linear-gradient-2" x1="21.92" y1="789.69" x2="21.92" y2="731.77" xlink:href="#linear-gradient"/><linearGradient id="linear-gradient-3" x1="33.88" y1="812.01" x2="33.88" y2="795.57" xlink:href="#linear-gradient"/></defs><path class="cls-1" d="M409,41.85a10.36,10.36,0,0,1,0-3.24L414.3,6A5.08,5.08,0,0,0,410.17.13a5.86,5.86,0,0,0-.94-.07H190.63a47.49,47.49,0,0,1,22.16,36.25h0V37h0l.05.71v.06a4.21,4.21,0,0,0,0,.71V41.7h0q0,.38,0,.75h0a47.44,47.44,0,0,1-22.27,37.8H409.23a5.11,5.11,0,0,0,5.16-5,4.91,4.91,0,0,0-.07-.86Q411.68,58.15,409,41.85Z"/><path class="cls-2" d="M229.63,53.2a3.33,3.33,0,0,1-2.46-.86,3.4,3.4,0,0,1-.86-2.49v-17h-5.68a2.42,2.42,0,0,1-2.74-2,2.51,2.51,0,0,1,0-.67,2.4,2.4,0,0,1,2.07-2.7,2.51,2.51,0,0,1,.67,0h18c1.83,0,2.74.89,2.74,2.7a2.41,2.41,0,0,1-2.07,2.7,2.5,2.5,0,0,1-.67,0h-5.66v17a3.39,3.39,0,0,1-.85,2.49A3.27,3.27,0,0,1,229.63,53.2Z"/><path class="cls-2" d="M253,53.28a13.36,13.36,0,0,1-6.75-1.64,11.47,11.47,0,0,1-4.52-4.59,14,14,0,0,1-1.62-6.88,14.15,14.15,0,0,1,1.6-6.9,11.21,11.21,0,0,1,4.52-4.56,14.94,14.94,0,0,1,13.53,0,11.41,11.41,0,0,1,4.55,4.56,14,14,0,0,1,1.62,6.9,14,14,0,0,1-1.62,6.88,11.54,11.54,0,0,1-4.52,4.59A13.41,13.41,0,0,1,253,53.28Zm0-5.55a5.38,5.38,0,0,0,4.41-2,8.7,8.7,0,0,0,1.6-5.56,8.78,8.78,0,0,0-1.59-5.55,6,6,0,0,0-8.4-.47,5.1,5.1,0,0,0-.46.47A8.65,8.65,0,0,0,247,40.17a8.69,8.69,0,0,0,1.59,5.56A5.33,5.33,0,0,0,253,47.73Z"/><path class="cls-2" d="M269.07,53.2a2.62,2.62,0,0,1-2.89-2.3,2.66,2.66,0,0,1,.4-1.7l9-19.32a5,5,0,0,1,1.59-2.05,3.76,3.76,0,0,1,2.2-.65,3.62,3.62,0,0,1,2.16.65,4.9,4.9,0,0,1,1.58,2.05l9,19.32a2.84,2.84,0,0,1,.07,2.9,2.66,2.66,0,0,1-2.38,1.13,3.31,3.31,0,0,1-2.21-.64,5.4,5.4,0,0,1-1.39-2.1L285,47.76h-11.4l-1.15,2.74a6.76,6.76,0,0,1-1.33,2.09A2.87,2.87,0,0,1,269.07,53.2ZM276.83,25l-3-3a1.85,1.85,0,0,1-.59-1.34,2,2,0,0,1,.46-1.24,2.87,2.87,0,0,1,1.18-.85,2.41,2.41,0,0,1,1.38-.12,2.08,2.08,0,0,1,1.25.9l2.34,3.49a1.62,1.62,0,0,1,.25,1.32,1.91,1.91,0,0,1-3.27.84Zm2.47,9.39-3.47,8.25h7l-3.53-8.26Z"/><path class="cls-2" d="M297.2,53.2c-2.07,0-3.11-1-3.1-3.13V30.43a3.44,3.44,0,0,1,.79-2.44,2.76,2.76,0,0,1,2.09-.84,3.1,3.1,0,0,1,1.78.43A7.56,7.56,0,0,1,300.22,29l10.4,13V30.25c0-2.07,1-3.11,3.07-3.1A3,3,0,0,1,316,28a3.14,3.14,0,0,1,.77,2.29v20a3.14,3.14,0,0,1-.71,2.18,2.48,2.48,0,0,1-2,.81,3.6,3.6,0,0,1-1.93-.43,6,6,0,0,1-1.49-1.44l-10.42-13v11.7C300.24,52.16,299.22,53.2,297.2,53.2Z"/><path class="cls-2" d="M341.93,53.28a15,15,0,0,1-7.24-1.62,11.09,11.09,0,0,1-4.63-4.57,14.31,14.31,0,0,1-1.6-7,14.08,14.08,0,0,1,1.6-6.88,11.24,11.24,0,0,1,4.63-4.56A15.15,15.15,0,0,1,341.93,27a15.9,15.9,0,0,1,3.44.38,11.47,11.47,0,0,1,3.16,1.13A3.12,3.12,0,0,1,349.92,30a3,3,0,0,1,.29,1.69,3.13,3.13,0,0,1-.64,1.55,2.47,2.47,0,0,1-1.31.93,2.27,2.27,0,0,1-1.73-.24,10,10,0,0,0-4.36-1,6.43,6.43,0,0,0-5.05,1.89,7.89,7.89,0,0,0-1.69,5.43,8,8,0,0,0,1.69,5.46,6.42,6.42,0,0,0,5.05,1.89,9.87,9.87,0,0,0,4.16-1,3.06,3.06,0,0,1,1.93-.25,2.63,2.63,0,0,1,1.39.87,2.85,2.85,0,0,1,.66,1.49,3,3,0,0,1-.23,1.68,2.71,2.71,0,0,1-1.34,1.33,10.59,10.59,0,0,1-3.11,1.19A15.92,15.92,0,0,1,341.93,53.28Z"/><path class="cls-2" d="M353.35,53.2a2.61,2.61,0,0,1-2.48-4l9-19.32a5,5,0,0,1,1.59-2.05,3.76,3.76,0,0,1,2.2-.65,3.62,3.62,0,0,1,2.16.65,4.9,4.9,0,0,1,1.58,2.05l9,19.32a2.84,2.84,0,0,1,.08,2.9,2.66,2.66,0,0,1-2.38,1.13,3.33,3.33,0,0,1-2.22-.64,5.4,5.4,0,0,1-1.39-2.1l-1.19-2.77H357.93l-1.15,2.74a6.69,6.69,0,0,1-1.33,2.1A3,3,0,0,1,353.35,53.2ZM361,25.13a2.24,2.24,0,0,1-1.32.67,1.65,1.65,0,0,1-1.16-.29,1.53,1.53,0,0,1-.61-.92,1.64,1.64,0,0,1,.35-1.28l1.8-2.67a3.9,3.9,0,0,1,3.53-1.91,4.62,4.62,0,0,1,2,.43,4.15,4.15,0,0,1,1.55,1.48L369,23.29a1.63,1.63,0,0,1,.34,1.28,1.52,1.52,0,0,1-.61.93,1.76,1.76,0,0,1-1.16.29,2.13,2.13,0,0,1-1.31-.67l-2.6-2.63Zm2.55,9.26-3.46,8.25h7l-3.46-8.26Zm6.24-12.76-2.63-3.17a1.67,1.67,0,0,1-.47-1.53,1.94,1.94,0,0,1,.88-1.14,2.09,2.09,0,0,1,1.44-.3,1.68,1.68,0,0,1,1.25,1l1.94,3.61a1.45,1.45,0,0,1,.1,1.5,1.5,1.5,0,0,1-2.05.51,1.47,1.47,0,0,1-.47-.46Z"/><path class="cls-2" d="M389.43,53.28c-3.7,0-6.53-.93-8.49-2.81S378,45.8,378,42.08V30.51a3.32,3.32,0,1,1,6.62-.52,4.51,4.51,0,0,1,0,.52V42.14a6.1,6.1,0,0,0,1.23,4.16,4.5,4.5,0,0,0,3.57,1.39A4.43,4.43,0,0,0,393,46.3a6.15,6.15,0,0,0,1.23-4.16V30.5A3.38,3.38,0,0,1,395,28a3.26,3.26,0,0,1,2.43-.86,3.22,3.22,0,0,1,2.42.86,3.48,3.48,0,0,1,.83,2.49V42.07q0,5.59-2.87,8.4C395.93,52.34,393.12,53.28,389.43,53.28Z"/><path class="cls-3" d="M43.83,10.89V58.17H23.49V28L16,32.58l-.62.38c-.12.07-.24.14-.37.2A10.49,10.49,0,0,1,8,34a10.06,10.06,0,0,1-5.12-2.66A10,10,0,0,1,0,24.42v-.21a14.19,14.19,0,0,1,1-4.36c1.38-3,4.86-4.93,5.08-5.05L24.62,3.24,25.09,3h.08a20.71,20.71,0,0,1,4.7-2,10.18,10.18,0,0,1,3.7-.67h.57A10.21,10.21,0,0,1,43.85,10v.47C43.85,10.53,43.84,10.74,43.83,10.89Z"/><path class="cls-4" d="M36,69.21a3.24,3.24,0,0,0-2.58-1.08,3.27,3.27,0,0,0-2.59,1.08,5.5,5.5,0,0,0,0,6.1,3.57,3.57,0,0,0,5,.11l.11-.11a5.5,5.5,0,0,0,0-6.1Zm0,0a3.24,3.24,0,0,0-2.58-1.08,3.27,3.27,0,0,0-2.59,1.08,5.5,5.5,0,0,0,0,6.1,3.57,3.57,0,0,0,5,.11l.11-.11a5.5,5.5,0,0,0,0-6.1Zm0,0a3.24,3.24,0,0,0-2.58-1.08,3.27,3.27,0,0,0-2.59,1.08,5.5,5.5,0,0,0,0,6.1,3.57,3.57,0,0,0,5,.11l.11-.11a5.5,5.5,0,0,0,0-6.1Zm12.72-1.28H46.09v3.62h2.58c1.51,0,2.27-.6,2.27-1.81s-.76-1.81-2.27-1.81Zm0,0H46.09v3.62h2.58c1.51,0,2.27-.6,2.27-1.81s-.76-1.81-2.27-1.81ZM36,69.21a3.24,3.24,0,0,0-2.58-1.08,3.27,3.27,0,0,0-2.59,1.08,5.5,5.5,0,0,0,0,6.1,3.57,3.57,0,0,0,5,.11l.11-.11a5.5,5.5,0,0,0,0-6.1ZM54.27,64H13.45A1.47,1.47,0,0,0,12,65.49h0V79.05a1.46,1.46,0,0,0,1.48,1.44H54.27a1.48,1.48,0,0,0,1.5-1.44V65.49A1.49,1.49,0,0,0,54.28,64ZM21.86,68.11v9.47A1.89,1.89,0,0,1,21.37,79a2,2,0,0,1-1.44.46A2,2,0,0,1,18.5,79a1.83,1.83,0,0,1-.5-1.39v-9.5H14.7q-1.59,0-1.59-1.5c0-1,.53-1.51,1.59-1.51H25.15c1.07,0,1.6.5,1.6,1.51s-.53,1.5-1.6,1.5ZM40,76a6.6,6.6,0,0,1-2.65,2.51,8.27,8.27,0,0,1-3.93.9,8.29,8.29,0,0,1-3.94-.9A6.42,6.42,0,0,1,26.8,76a8.17,8.17,0,0,1,0-7.57A6.49,6.49,0,0,1,29.43,66a8.4,8.4,0,0,1,4-.89,8.4,8.4,0,0,1,3.94.89A6.58,6.58,0,0,1,40,68.47,8.14,8.14,0,0,1,40,76Zm13.29-2.89a5.66,5.66,0,0,1-3.9,1.23H46.11v3.2a1.89,1.89,0,0,1-.5,1.39,2,2,0,0,1-1.43.46A2,2,0,0,1,42.75,79a1.84,1.84,0,0,1-.51-1.39V67a1.84,1.84,0,0,1,.51-1.39,2,2,0,0,1,1.45-.46h5.16a5.66,5.66,0,0,1,3.9,1.23,4.92,4.92,0,0,1,0,6.82Zm-4.57-5.22H46.09v3.62h2.58c1.51,0,2.27-.6,2.27-1.81s-.76-1.81-2.27-1.81Zm-15.3.2a3.27,3.27,0,0,0-2.59,1.08,5.5,5.5,0,0,0,0,6.1,3.57,3.57,0,0,0,5,.11l.11-.11a5.5,5.5,0,0,0,0-6.1,3.22,3.22,0,0,0-2.57-1.08ZM36,69.21a3.24,3.24,0,0,0-2.58-1.08,3.27,3.27,0,0,0-2.59,1.08,5.5,5.5,0,0,0,0,6.1,3.57,3.57,0,0,0,5,.11l.11-.11a5.5,5.5,0,0,0,0-6.1Zm12.72-1.28H46.09v3.62h2.58c1.51,0,2.27-.6,2.27-1.81s-.76-1.81-2.27-1.81Zm0,0H46.09v3.62h2.58c1.51,0,2.27-.6,2.27-1.81s-.76-1.81-2.27-1.81ZM36,69.21a3.24,3.24,0,0,0-2.58-1.08,3.27,3.27,0,0,0-2.59,1.08,5.5,5.5,0,0,0,0,6.1,3.57,3.57,0,0,0,5,.11l.11-.11a5.5,5.5,0,0,0,0-6.1Z"/><path class="cls-5" d="M194.37,14.57A35.63,35.63,0,0,0,192,11.91l-.08-.09a40.5,40.5,0,0,0-8.06-6.24A40.12,40.12,0,0,0,123.37,40.2v.09a27.46,27.46,0,1,1-8-19.46l9-9,0,0a40.5,40.5,0,0,0-8.06-6.24A40.14,40.14,0,0,0,55.79,40.2v.09a40.11,40.11,0,0,0,71,25.63A39.95,39.95,0,0,0,136,40.29V40.2A27.45,27.45,0,0,1,183,20.89c.28.28.56.57.83.87a27.46,27.46,0,0,1-39.66,38l-9,9a40.13,40.13,0,0,0,68.46-28.41V40.2A40,40,0,0,0,194.37,14.57Z"/></svg>