<svg width="401" height="204" viewBox="0 0 401 204" fill="none" xmlns="http://www.w3.org/2000/svg">
<path fill-rule="evenodd" clip-rule="evenodd" d="M256.835 78.1527C258.286 76.4874 259.466 75.0292 260.754 73.6735C268.337 65.6866 277.814 61.6162 288.644 60.5685C298.041 59.6593 307.316 60.4016 316.229 63.7067C329.786 68.7346 338.183 78.6596 342.756 92.0825C345.339 99.6647 346.447 107.505 346.461 115.484C346.503 141.37 346.48 167.256 346.474 193.143C346.473 199.231 342.449 203.496 336.359 203.56C326.396 203.664 316.43 203.651 306.466 203.566C300.687 203.516 296.599 199.2 296.597 193.401C296.592 171.924 296.589 150.446 296.603 128.968C296.606 126.02 296.264 123.143 295.133 120.402C293.156 115.608 289.755 112.194 284.895 110.38C279.076 108.208 273.174 108.231 267.511 110.778C260.226 114.053 256.917 120.135 256.876 127.864C256.759 149.495 256.835 171.127 256.835 192.759C256.834 199.52 252.823 203.57 246.047 203.586C236.493 203.608 226.94 203.608 217.386 203.586C210.74 203.57 206.709 199.474 206.709 192.796C206.709 153.326 206.709 113.856 206.709 74.3858C206.709 67.6041 210.733 63.5854 217.514 63.5854C227.992 63.5854 238.47 63.5841 248.948 63.5858C253.745 63.5866 256.808 66.6453 256.833 71.4632C256.843 73.5653 256.835 75.6669 256.835 78.1527Z" fill="#FC4649"/>
<path fill-rule="evenodd" clip-rule="evenodd" d="M123.508 144.812C125.867 137.442 128.133 130.39 130.383 123.334C135.801 106.341 141.196 89.3419 146.632 72.3555C148.375 66.9069 153.059 63.5878 158.832 63.587C169.515 63.5849 180.198 63.5853 190.881 63.587C196.734 63.5878 200.229 68.6965 198.11 74.1611C192.548 88.5017 186.978 102.839 181.419 117.179C171.389 143.051 161.357 168.922 151.345 194.801C149.247 200.223 145.39 203.434 139.544 203.522C128.71 203.686 117.87 203.685 107.037 203.487C101.989 203.395 98.2845 200.732 96.4214 195.961C80.5845 155.404 64.7775 114.834 48.9734 74.2636C46.748 68.5513 50.1831 63.5878 56.3142 63.5874C66.8945 63.5861 77.4744 63.587 88.0542 63.587C94.099 63.587 98.6469 66.8979 100.488 72.6631C104.188 84.2509 107.879 95.8416 111.572 107.431C115.359 119.313 119.144 131.195 122.931 143.076C123.086 143.56 123.252 144.042 123.508 144.812Z" fill="#FC4649"/>
<path fill-rule="evenodd" clip-rule="evenodd" d="M24.6928 147.611C40.3638 145.597 54.618 156.889 56.1868 172.561C57.9471 190.151 43.5779 204.835 25.8947 203.509C25.4924 203.479 25.0972 203.353 24.699 203.271C24.1907 202.676 24.1948 201.95 24.1944 201.232C24.1858 184.036 24.1858 166.84 24.1965 149.643C24.1969 148.933 24.1443 148.194 24.6928 147.611Z" fill="#FC4649"/>
<path fill-rule="evenodd" clip-rule="evenodd" d="M346.475 31.9205C349.552 31.8991 352.628 31.861 355.705 31.8594C368.377 31.8524 381.049 31.8458 393.72 31.8627C397.778 31.8684 400.368 34.4182 400.23 38.1819C400.11 41.4608 397.521 43.8786 394.029 43.8921C387.975 43.9163 381.921 43.9048 375.868 43.8978C366.069 43.8859 356.272 43.865 346.474 43.8478C346.028 43.4185 346.002 42.8517 345.996 42.2949C345.966 39.3563 345.966 36.4173 345.995 33.4792C346 32.9169 346.056 32.3597 346.475 31.9205Z" fill="#FC4649"/>
<path fill-rule="evenodd" clip-rule="evenodd" d="M24.6928 147.611C24.6949 166.164 24.6969 184.718 24.699 203.271C21.4011 203.051 18.3173 202.115 15.4361 200.506C14.9832 199.95 14.9524 199.284 14.9512 198.614C14.9302 183.016 14.9615 167.417 14.9323 151.819C14.9315 151.405 14.9984 151.005 15.0925 150.606C17.6631 149.095 20.433 148.177 23.3936 147.823C23.8287 147.771 24.2597 147.682 24.6928 147.611Z" fill="#FC4649"/>
<path fill-rule="evenodd" clip-rule="evenodd" d="M15.0921 150.606C15.5996 150.981 15.4434 151.531 15.4434 152.022C15.4455 168.183 15.4402 184.344 15.4356 200.505C11.5078 198.705 8.34758 195.983 5.80205 192.521C6.26924 186.082 5.95942 179.634 5.99887 173.19C6.02928 168.23 6.17186 163.266 5.86204 158.308C8.29252 154.97 11.3591 152.39 15.0921 150.606Z" fill="#FC4649"/>
<path fill-rule="evenodd" clip-rule="evenodd" d="M349.555 47.9181C356.635 47.8972 363.715 47.8209 370.794 47.8804C373.89 47.9062 376.406 50.8026 376.323 53.938C376.235 57.2575 373.586 59.8163 370.086 59.8344C362.697 59.8721 355.307 59.8512 347.917 59.8557C343.556 59.8586 339.193 59.8688 334.831 59.8606C334.281 59.8598 333.694 60.0091 333.195 59.6216C333.937 58.9015 334.866 59.1693 335.738 59.1348C339.534 59.0495 343.331 59.1278 347.128 59.0934C348.938 59.077 349.049 58.97 349.063 57.1779C349.083 54.7712 349.058 52.3645 349.075 49.9578C349.081 49.2472 349.018 48.509 349.555 47.9181Z" fill="#FC4649"/>
<path fill-rule="evenodd" clip-rule="evenodd" d="M346.475 31.9203C346.475 35.896 346.474 39.872 346.473 43.8473C341.029 43.8473 335.583 43.8473 330.138 43.8473C329.693 43.4183 329.666 42.8512 329.66 42.2943C329.63 39.3557 329.63 36.4168 329.659 33.4782C329.665 32.9168 329.72 32.3595 330.14 31.9199C335.585 31.9203 341.03 31.9203 346.475 31.9203Z" fill="#FC4649"/>
<path fill-rule="evenodd" clip-rule="evenodd" d="M359.972 63.8502C360.402 63.6009 360.875 63.698 361.33 63.6997C365.951 63.7165 370.572 63.73 375.194 63.7723C378.838 63.8055 381.379 66.3159 381.351 69.8098C381.324 73.2347 378.79 75.6791 375.217 75.7037C370.544 75.7365 365.871 75.7595 361.198 75.7726C360.697 75.7738 360.169 75.9096 359.697 75.6049C360.165 75.0812 360.805 75.1333 361.413 75.1124C362.388 75.0792 363.366 75.0538 364.338 75.1103C365.604 75.1837 366.073 74.6502 366.044 73.3983C365.988 70.9403 365.985 68.4795 366.045 66.0223C366.076 64.7245 365.517 64.2857 364.294 64.3632C363.426 64.4181 362.549 64.3952 361.677 64.3603C361.072 64.3365 360.428 64.3935 359.972 63.8502Z" fill="#FC4649"/>
<path fill-rule="evenodd" clip-rule="evenodd" d="M350.785 15.9624C353.857 15.9452 356.931 15.8513 360.001 15.9325C363.297 16.019 365.711 18.6357 365.711 21.9302C365.711 25.1907 363.394 27.7787 360.153 27.8906C357.034 27.998 353.91 27.8943 350.787 27.8832C350.366 27.444 350.316 26.8855 350.311 26.3254C350.282 23.3888 350.281 20.4519 350.312 17.5154C350.317 16.9593 350.338 16.3922 350.785 15.9624Z" fill="#FC4649"/>
<path fill-rule="evenodd" clip-rule="evenodd" d="M349.555 47.9181C349.556 51.3016 349.521 54.6855 349.578 58.0682C349.596 59.1458 349.385 59.6285 348.155 59.6059C343.995 59.5284 339.834 59.5661 335.673 59.5604C335.25 59.1188 335.211 58.557 335.206 57.9968C335.179 55.1567 335.177 52.3165 335.206 49.4763C335.212 48.9145 335.266 48.3564 335.686 47.916C340.309 47.9164 344.932 47.9172 349.555 47.9181Z" fill="#FC4649"/>
<path fill-rule="evenodd" clip-rule="evenodd" d="M319.042 43.8481C316.117 43.8653 313.191 43.9428 310.267 43.8854C306.94 43.8198 304.278 41.0793 304.295 37.8725C304.312 34.6617 306.814 32.0056 310.119 31.8994C313.091 31.8043 316.069 31.9056 319.044 31.9199C319.465 32.3591 319.522 32.916 319.527 33.4778C319.556 36.4172 319.557 39.3566 319.526 42.296C319.52 42.8537 319.489 43.4196 319.042 43.8481Z" fill="#FC4649"/>
<path fill-rule="evenodd" clip-rule="evenodd" d="M5.86204 158.309C6.45991 158.767 6.51373 159.415 6.51332 160.098C6.50962 170.32 6.50962 180.541 6.51291 190.764C6.51291 191.452 6.4258 192.091 5.80246 192.522C2.73632 188.918 1.13093 184.644 0.391303 180.07C-0.866466 172.294 0.936158 165.164 5.39156 158.687C5.50086 158.529 5.70344 158.434 5.86204 158.309Z" fill="#FC4649"/>
<path fill-rule="evenodd" clip-rule="evenodd" d="M319.042 43.8482C319.043 39.8721 319.044 35.8961 319.044 31.9204C322.743 31.9204 326.442 31.9204 330.14 31.9204C330.14 35.8961 330.139 39.8721 330.139 43.8473C326.439 43.8477 322.741 43.8477 319.042 43.8482Z" fill="#E3482B"/>
<path fill-rule="evenodd" clip-rule="evenodd" d="M350.785 15.9624C350.785 19.9356 350.786 23.9096 350.787 27.8832C348.736 27.8951 346.681 27.9907 344.634 27.8988C341.357 27.7524 338.993 25.1021 339.041 21.7793C339.087 18.6144 341.589 16.0149 344.782 15.9218C346.78 15.8636 348.783 15.944 350.785 15.9624Z" fill="#FC4649"/>
<path fill-rule="evenodd" clip-rule="evenodd" d="M377.595 80.4913C380.111 79.0593 383.202 79.5904 385.089 81.7793C386.905 83.8867 387.001 87.1045 385.313 89.3148C383.558 91.6112 380.568 92.3132 377.89 91.0576C377.669 90.7111 377.471 90.3465 377.471 89.9283C377.467 86.7818 377.243 83.6329 377.595 80.4913Z" fill="#FC4649"/>
<path fill-rule="evenodd" clip-rule="evenodd" d="M359.972 63.8502C361.766 63.8691 363.559 63.9207 365.353 63.8929C366.205 63.8793 366.534 64.1647 366.525 65.0394C366.488 68.1597 366.479 71.2815 366.529 74.4013C366.545 75.4015 366.104 75.5971 365.233 75.5815C363.388 75.5487 361.543 75.5926 359.697 75.6053C359.274 75.5844 358.828 75.6455 358.501 75.2752C358.838 71.5686 358.47 67.8476 358.722 64.1393C359.081 63.7977 359.533 63.849 359.972 63.8502Z" fill="#FC4649"/>
<path fill-rule="evenodd" clip-rule="evenodd" d="M335.686 47.9161C335.682 51.7978 335.677 55.6791 335.674 59.5605C334.847 59.5806 334.021 59.6011 333.196 59.6216C330.806 59.5982 328.115 56.6141 328.294 53.5611C328.471 50.5225 330.856 48.0321 333.846 47.8685C334.457 47.8349 335.073 47.8976 335.686 47.9161Z" fill="#FC4649"/>
<path fill-rule="evenodd" clip-rule="evenodd" d="M350.793 0.257142C353.232 -0.482627 355.819 0.408048 357.275 2.48793C358.833 4.71503 358.757 7.67369 357.088 9.76547C355.502 11.7539 352.874 12.4838 350.49 11.5985C350.762 8.37533 350.578 5.14519 350.628 1.91916C350.637 1.36146 350.517 0.789005 350.793 0.257142Z" fill="#FC4649"/>
<path fill-rule="evenodd" clip-rule="evenodd" d="M350.793 0.25708C351.196 0.849633 351.097 1.52379 351.098 2.17868C351.102 4.87202 351.109 7.56537 351.091 10.2587C351.088 10.7701 351.328 11.4401 350.49 11.5988C347.909 10.8168 346.355 8.6127 346.414 5.81724C346.471 3.0997 348.203 0.900892 350.793 0.25708Z" fill="#FC4649"/>
<path fill-rule="evenodd" clip-rule="evenodd" d="M358.722 64.1393C359.181 64.4505 359.111 64.9307 359.112 65.3826C359.115 68.2835 359.117 71.1847 359.11 74.0856C359.109 74.576 359.241 75.1538 358.501 75.2752C356.032 74.3033 354.56 72.1566 354.628 69.6301C354.697 67.0598 356.275 64.9443 358.722 64.1393Z" fill="#FC4649"/>
<path fill-rule="evenodd" clip-rule="evenodd" d="M377.595 80.4913C378.027 80.8329 377.912 81.3193 377.912 81.7626C377.911 84.8606 377.899 87.9587 377.89 91.0576C375.642 90.0497 374.542 88.2577 374.482 85.8563C374.422 83.4672 375.386 81.6026 377.595 80.4913Z" fill="#DF372A"/>
</svg>
