<svg width="54" height="34" viewBox="0 0 54 34" fill="none" xmlns="http://www.w3.org/2000/svg">
<path d="M53.6177 34H46.2742L36.2946 15.6851C35.3531 17.5166 34.3646 19.3481 33.4231 21.1796H25.3735C28.9982 14.1354 32.6699 7.09116 36.2946 0L53.6177 34Z" fill="#fc4649"/>
<path d="M41 34C33.9697 34 26.8863 34 19.8559 34C19.1434 34 18.3834 34 17.6708 34C17.4808 34 17.3383 34 17.1958 34C7.69536 34 0 26.3923 0 17C0 7.60774 7.69536 0 17.1958 0C21.8035 0 26.4588 0 31.0665 0L26.9338 7.93646C23.7036 7.93646 20.4735 7.93646 17.1958 7.93646C12.1131 7.93646 8.02788 12.0221 8.02788 17C8.02788 22.0249 12.1606 26.0635 17.1958 26.0635C18.0984 26.0635 19.0009 26.0635 19.9034 26.0635H36.7192L41 34Z" fill="#fc4649"/>
</svg>
