<svg id="Layer_1" data-name="Layer 1" xmlns="http://www.w3.org/2000/svg" viewBox="0 0 50 50"><defs><style>.cls-1{fill:#c1c0bf;}.cls-2{fill:#fff;}</style></defs><title>icon_hostinglinux</title><path class="cls-1" d="M0,25a25,25,0,0,0,50,0h0A25,25,0,0,0,0,25"/><path class="cls-2" d="M13.93,17.49a8,8,0,0,1,1.35-4.26,10.42,10.42,0,0,1,3.94-3.58,12.46,12.46,0,0,1,6.05-1.41,12.84,12.84,0,0,1,5.66,1.18,9.23,9.23,0,0,1,3.8,3.22,8,8,0,0,1,1.34,4.43,6.81,6.81,0,0,1-.76,3.3,10.15,10.15,0,0,1-1.82,2.45c-.7.68-2,1.84-3.77,3.46a13.68,13.68,0,0,0-1.21,1.21,5.57,5.57,0,0,0-.68,1,5.21,5.21,0,0,0-.34.87c-.08.28-.2.79-.36,1.51a2.47,2.47,0,0,1-2.64,2.31,2.68,2.68,0,0,1-1.94-.76,3,3,0,0,1-.78-2.23,8.27,8.27,0,0,1,.57-3.22,8.48,8.48,0,0,1,1.53-2.4c.64-.68,1.49-1.5,2.57-2.44s1.63-1.45,2-1.87a6.36,6.36,0,0,0,1.06-1.41A3.39,3.39,0,0,0,30,17.12a3.91,3.91,0,0,0-1.32-3,4.8,4.8,0,0,0-3.39-1.22,4.7,4.7,0,0,0-3.59,1.23,9.7,9.7,0,0,0-1.95,3.62c-.5,1.67-1.45,2.5-2.86,2.5a2.82,2.82,0,0,1-2.09-.87,2.69,2.69,0,0,1-.85-1.9Zm10.8,24.27a3.47,3.47,0,0,1-2.35-.87,3.06,3.06,0,0,1-1-2.45,3.16,3.16,0,0,1,1-2.35,3.31,3.31,0,0,1,2.39-1,3.25,3.25,0,0,1,3.3,3.3,3.11,3.11,0,0,1-1,2.44,3.37,3.37,0,0,1-2.31.88Zm0,0"/></svg>