<svg fill="none" height="651.2547" viewBox="0 0 607.76984 651.25474" width="607.76984" xmlns="http://www.w3.org/2000/svg" xmlns:xlink="http://www.w3.org/1999/xlink"><radialGradient id="a" cx="0" cy="0" gradientTransform="matrix(-247.11879 588.24594 -736.74978 -309.50442 267.33067 139.46933)" gradientUnits="userSpaceOnUse" r="1"><stop offset=".0598494" stop-color="#ae7fe2"/><stop offset="1" stop-color="#0078d4"/></radialGradient><linearGradient id="b" gradientUnits="userSpaceOnUse" x1="245.0972459905" x2="197.4266056575" y1="511.85575143254" y2="398.101322363"><stop offset="0" stop-color="#114a8b"/><stop offset="1" stop-color="#0078d4" stop-opacity="0"/></linearGradient><radialGradient id="c" cx="0" cy="0" gradientTransform="matrix(417.2837 -141.42622 108.6791 320.66203 142.81027 521.86223)" gradientUnits="userSpaceOnUse" r="1"><stop offset=".110651" stop-color="#d59dff"/><stop offset="1" stop-color="#5e438f"/></radialGradient><linearGradient id="d" gradientUnits="userSpaceOnUse" x1="551.90452777004" x2="472.50627839654" y1="331.490056971" y2="444.0723856365"><stop offset="0" stop-color="#493474"/><stop offset="1" stop-color="#8c66ba" stop-opacity="0"/></linearGradient><radialGradient id="e" cx="0" cy="0" gradientTransform="matrix(-499.80128 -176.44916 175.0654 -495.88168 620.54097 334.1078)" gradientUnits="userSpaceOnUse" r="1"><stop offset=".0960063" stop-color="#50e6ff"/><stop offset="1" stop-color="#436dcd"/></radialGradient><linearGradient id="f" gradientUnits="userSpaceOnUse" x1="195.353686" x2="302.238198853" y1="15.63852904895" y2="15.63852904895"><stop offset="0" stop-color="#2d3f80"/><stop offset="1" stop-color="#436dcd" stop-opacity="0"/></linearGradient><g stroke-width="21.7059"><path d="m249.69673 12.135403c.42544-.304317.85087-.606464 1.28065-.906224-3.06488 1.362701-6.08852 2.849342-9.0644 4.459925l-173.648591 93.946246c-42.058344 22.75436-68.264389 66.72738-68.264389 114.54692v202.91169c0 47.82258 26.21082 91.79886 68.275028 114.55107l42.083302 22.76304h41.58342l173.67159-96.48517-62.84528-34.60585c-41.58429-22.89978-67.41438-66.61125-67.41438-114.08219v-61.67533c6.80482-13.29056 20.67276-39.98238 21.70596-40.44689 1.03321-.46453 58.31307-14.66455 86.82386-21.70596v-183.271277z" fill="url(#a)"/><path d="m249.69673 12.135403c.42544-.304317.85087-.606464 1.28065-.906224-3.06488 1.362701-6.08852 2.849342-9.0644 4.459925l-173.648591 93.946246c-42.058344 22.75436-68.264389 66.72738-68.264389 114.54692v202.91169c0 47.82258 26.21082 91.79886 68.275028 114.55107l42.083302 22.76304h41.58342l173.67159-96.48517-62.84528-34.60585c-41.58429-22.89978-67.41438-66.61125-67.41438-114.08219v-61.67533c6.80482-13.29056 20.67276-39.98238 21.70596-40.44689 1.03321-.46453 58.31307-14.66455 86.82386-21.70596v-183.271277z" fill="url(#b)"/><path d="m412.41115 232.61938v88.85336c0 47.82257-26.20995 91.79888-68.27394 114.55104l-173.64771 93.92606c-34.96028 18.91023-76.412808 20.72052-112.615757 5.42866 3.347277 2.2379 6.816113 4.33034 10.399977 6.26869l173.64793 93.92385c38.66049 20.91157 85.26104 20.91157 123.92153 0l173.64768-93.92385c42.06401-22.75217 68.27399-66.72845 68.27399-114.55323v-54.93779l-130.23582-111.62943z" fill="url(#c)"/><path d="m412.41115 232.61938v88.85336c0 47.82257-26.20995 91.79888-68.27394 114.55104l-173.64771 93.92606c-34.96028 18.91023-76.412808 20.72052-112.615757 5.42866 3.347277 2.2379 6.816113 4.33034 10.399977 6.26869l173.64793 93.92385c38.66049 20.91157 85.26104 20.91157 123.92153 0l173.64768-93.92385c42.06401-22.75217 68.27399-66.72845 68.27399-114.55323v-54.93779l-130.23582-111.62943z" fill="url(#d)"/><path d="m539.50174 109.63556-173.64773-93.946239c-35.68893-19.3084536-78.1458-20.7950735-114.87663-4.459925-34.61884 24.188692-55.6237 63.939259-55.6237 106.746894v136.08641l49.79348-25.16155c36.93487-18.66279 80.53781-18.66279 117.47267 0l173.64775 87.74419c42.98653 21.72116 70.40545 65.34798 71.46687 113.342.0249-.96155.0354-1.92747.0354-2.89338v-202.91169c0-47.81932-26.20566-91.79256-68.26527-114.54671z" fill="url(#e)"/><path d="m539.50174 109.63556-173.64773-93.946239c-35.68893-19.3084536-78.1458-20.7950735-114.87663-4.459925-34.61884 24.188692-55.6237 63.939259-55.6237 106.746894v136.08641l49.79348-25.16155c36.93487-18.66279 80.53781-18.66279 117.47267 0l173.64775 87.74419c42.98653 21.72116 70.40545 65.34798 71.46687 113.342.0249-.96155.0354-1.92747.0354-2.89338v-202.91169c0-47.81932-26.20566-91.79256-68.26527-114.54671z" fill="url(#f)"/></g></svg>