<?xml version="1.0" encoding="UTF-8"?>
<svg width="100px" height="72px" viewBox="0 0 100 72" version="1.1" xmlns="http://www.w3.org/2000/svg" xmlns:xlink="http://www.w3.org/1999/xlink">
    <!-- Generator: Sketch 61.2 (89653) - https://sketch.com -->
    <title>SAP-01</title>
    <desc>Created with Sketch.</desc>
    <g id="Page-1" stroke="none" stroke-width="1" fill="none" fill-rule="evenodd">
        <g id="NavigationNew_email&amp;Office_Op2" transform="translate(-930.000000, -227.000000)" fill="#FC4649" fill-rule="nonzero">
            <g id="SAP-01" transform="translate(930.000000, 227.000000)">
                <path d="M80.1947884,0 L8.46500544,0 C3.56421282,0 0,3.54251712 0,8.41347817 L0,57.5659033 C0,61.9940497 3.56421282,65.9793814 8.46500544,65.9793814 L69.5021499,65.9793814 C68.1655701,64.2081229 66.8289903,62.4368643 65.9379371,60.2227911 L8.01947884,60.2227911 C6.68289903,60.2227911 5.34631922,58.8943472 5.34631922,57.5659033 L5.34631922,11.5131807 L42.3250272,43.3958348 C43.2160804,43.8386494 44.1071336,44.2814641 44.5526602,44.2814641 C44.9981868,44.2814641 45.88924,43.8386494 46.3347666,43.3958348 L83.3134746,11.5131807 L83.3134746,27.4545077 C83.7590012,27.4545077 88.2142672,28.7829516 88.6597938,28.7829516 L88.6597938,8.41347817 C88.2142672,3.54251712 84.6500544,0 80.1947884,0 Z M44.1071336,37.6392444 L7.12842563,5.75659033 C7.57395224,5.75659033 8.01947884,5.75659033 8.01947884,5.75659033 L80.1947884,5.31377569 C80.640315,5.31377569 81.0858416,5.31377569 81.0858416,5.31377569 L44.1071336,37.6392444 Z" id="Shape"></path>
                <path d="M99.1163476,36.6203496 L83.65243,29.8969072 C83.2106038,29.8969072 82.7687776,29.8969072 82.3269514,29.8969072 L66.8630339,36.6203496 C66.4212077,37.0685791 65.9793814,37.5168086 65.9793814,37.9650381 L65.9793814,46.033169 C65.9793814,56.7906768 72.6067747,66.6517257 82.3269514,71.1340206 C82.7687776,71.1340206 83.2106038,71.1340206 83.65243,71.1340206 C93.814433,67.0999552 100,57.2389063 100,46.033169 L100,37.9650381 C100,37.0685791 99.5581738,36.6203496 99.1163476,36.6203496 Z M96.9072165,46.033169 C96.9072165,55.4459883 91.6053019,63.9623487 82.7687776,67.5481847 C74.3740795,63.9623487 68.6303387,55.4459883 68.6303387,46.033169 L68.6303387,38.8614971 L82.7687776,33.0345137 L96.9072165,38.8614971 L96.9072165,46.033169 Z M81.443299,51.4119229 L88.0706922,44.6884805 C88.5125184,44.240251 89.8379971,44.240251 90.2798233,44.6884805 C90.7216495,45.13671 90.7216495,46.4813985 90.2798233,46.929628 L82.3269514,54.9977589 C81.8851252,55.4459883 80.5596465,55.4459883 80.1178203,54.9977589 L75.6995582,50.5154639 C75.257732,50.0672344 75.257732,48.7225459 75.6995582,48.2743165 C76.1413844,47.826087 77.466863,47.826087 77.9086892,48.2743165 L81.443299,51.4119229 Z" id="Shape"></path>
            </g>
        </g>
    </g>
</svg>