<?xml version="1.0" encoding="UTF-8"?>
<svg width="89px" height="88px" viewBox="0 0 89 88" version="1.1" xmlns="http://www.w3.org/2000/svg" xmlns:xlink="http://www.w3.org/1999/xlink">
    <!-- Generator: Sketch 61.2 (89653) - https://sketch.com -->
    <title>Group 18</title>
    <desc>Created with Sketch.</desc>
    <g id="Page-1" stroke="none" stroke-width="1" fill="none" fill-rule="evenodd">
        <g id="NavigationNew_Hosting&amp;Server_Op2-Copy" transform="translate(-601.000000, -209.000000)" fill="#FC4649">
            <g id="Group-2" transform="translate(135.000000, 204.000000)">
                <g id="Group-7" transform="translate(375.000000, 5.000000)">
                    <g id="Group-18" transform="translate(90.000000, 0.000000)">
                        <path d="M83.58039,79.65468 C83.58039,81.17298 82.34559,82.40148 80.82729,82.40148 L9.41679,82.40148 C7.89849,82.40148 6.66999,81.17298 6.66999,79.65468 L6.66999,63.17388 C6.66999,61.66188 7.89849,60.42708 9.41679,60.42708 L80.82729,60.42708 C82.34559,60.42708 83.58039,61.66188 83.58039,63.17388 L83.58039,79.65468 Z M83.58039,35.70588 L83.58039,52.18668 C83.58039,53.69868 82.34559,54.93348 80.82729,54.93348 L9.41679,54.93348 C7.89849,54.93348 6.66999,53.69868 6.66999,52.18668 L6.66999,35.70588 C6.66999,34.19388 7.89849,32.95908 9.41679,32.95908 L80.82729,32.95908 C82.34559,32.95908 83.58039,34.19388 83.58039,35.70588 L83.58039,35.70588 Z M6.66999,8.23788 C6.66999,6.72588 7.89849,5.49738 9.41679,5.49738 L80.82729,5.49738 C82.34559,5.49738 83.58039,6.72588 83.58039,8.23788 L83.58039,24.71868 C83.58039,26.23698 82.34559,27.46548 80.82729,27.46548 L9.41679,27.46548 C7.89849,27.46548 6.66999,26.23698 6.66999,24.71868 L6.66999,8.23788 Z M89.07399,8.23788 C89.07399,3.69558 85.37589,-0.00252 80.82729,-0.00252 L9.41679,-0.00252 C4.87449,-0.00252 1.17639,3.69558 1.17639,8.23788 L1.17639,24.71868 C1.17639,26.82918 1.97019,28.75068 3.28059,30.21228 C1.97019,31.67388 1.17639,33.59538 1.17639,35.70588 L1.17639,52.18668 C1.17639,54.29718 1.97019,56.22498 3.28059,57.68028 C1.97019,59.14188 1.17639,61.06338 1.17639,63.17388 L1.17639,79.65468 C1.17639,84.19698 4.87449,87.89508 9.41679,87.89508 L80.82729,87.89508 C85.37589,87.89508 89.07399,84.19698 89.07399,79.65468 L89.07399,63.17388 C89.07399,61.06338 88.27389,59.14188 86.96349,57.68028 C88.27389,56.22498 89.07399,54.29718 89.07399,52.18668 L89.07399,35.70588 C89.07399,33.59538 88.27389,31.67388 86.96349,30.21228 C88.27389,28.75068 89.07399,26.82918 89.07399,24.71868 L89.07399,8.23788 Z" id="Fill-4"></path>
                        <path d="M33.34671,19.22634 L70.98291,19.22634 C73.57851,19.22634 75.68271,17.99784 75.68271,16.47954 C75.68271,14.96124 73.57851,13.73274 70.98291,13.73274 L33.34671,13.73274 C30.75111,13.73274 28.64061,14.96124 28.64061,16.47954 C28.64061,17.99784 30.75111,19.22634 33.34671,19.22634" id="Fill-6"></path>
                        <path d="M17.6553,49.44051 C20.6856,49.44051 23.1489,46.97721 23.1489,43.94691 C23.1489,40.91661 20.6856,38.45331 17.6553,38.45331 C14.6313,38.45331 12.1617,40.91661 12.1617,43.94691 C12.1617,46.97721 14.6313,49.44051 17.6553,49.44051" id="Fill-8"></path>
                        <path d="M17.6553,65.92257 C14.6313,65.92257 12.1617,68.38587 12.1617,71.41617 C12.1617,74.44647 14.6313,76.90977 17.6553,76.90977 C20.6856,76.90977 23.1489,74.44647 23.1489,71.41617 C23.1489,68.38587 20.6856,65.92257 17.6553,65.92257" id="Fill-10"></path>
                        <path d="M17.6553,21.97377 C20.6856,21.97377 23.1489,19.51047 23.1489,16.48017 C23.1489,13.44987 20.6856,10.98657 17.6553,10.98657 C14.6313,10.98657 12.1617,13.44987 12.1617,16.48017 C12.1617,19.51047 14.6313,21.97377 17.6553,21.97377" id="Fill-12"></path>
                        <path d="M33.34671,46.69371 L70.98291,46.69371 C73.57851,46.69371 75.68271,45.46521 75.68271,43.94691 C75.68271,42.42861 73.57851,41.20011 70.98291,41.20011 L33.34671,41.20011 C30.75111,41.20011 28.64061,42.42861 28.64061,43.94691 C28.64061,45.46521 30.75111,46.69371 33.34671,46.69371" id="Fill-14"></path>
                        <path d="M70.98039,68.67 L33.34419,68.67 C30.74859,68.67 28.64439,69.8985 28.64439,71.4168 C28.64439,72.9351 30.74859,74.1636 33.34419,74.1636 L70.98039,74.1636 C73.57599,74.1636 75.68019,72.9351 75.68019,71.4168 C75.68019,69.8985 73.57599,68.67 70.98039,68.67" id="Fill-16"></path>
                    </g>
                </g>
            </g>
        </g>
    </g>
</svg>