<?xml version="1.0" encoding="UTF-8"?>
<svg width="74px" height="79px" viewBox="0 0 74 79" version="1.1" xmlns="http://www.w3.org/2000/svg" xmlns:xlink="http://www.w3.org/1999/xlink">
    <!-- Generator: Sketch 61.2 (89653) - https://sketch.com -->
    <title>Group 16 Copy</title>
    <desc>Created with Sketch.</desc>
    <g id="Page-1" stroke="none" stroke-width="1" fill="none" fill-rule="evenodd">
        <g id="NavigationNew_Baomat_edit" transform="translate(-233.000000, -194.000000)" fill="#FC4649" fill-rule="nonzero">
            <g id="Group-5" transform="translate(135.000000, 194.000000)">
                <g id="Group-16-Copy" transform="translate(98.000000, 0.000000)">
                    <path d="M53.5555556,42.2222222 L44.2222222,42.2222222 L44.2222222,37.3333333 C44.197966,33.4160664 41.0283781,30.2464784 37.1111111,30.2222222 C35.2178356,30.1981011 33.395048,30.9395571 32.0561914,32.2784136 C30.7173348,33.6172702 29.9758789,35.4400578 30,37.3333333 L30,42.2222222 L20.6666667,42.2222222 L20.6666667,37.3333333 C20.6666667,28.2513174 28.0290952,20.8888889 37.1111111,20.8888889 C46.193127,20.8888889 53.5555556,28.2513174 53.5555556,37.3333333 L53.5555556,42.2222222 Z" id="svg_17"></path>
                    <path d="M57.3333333,42.2222222 L16.8888889,42.2222222 C16.0582677,42.2038253 15.2562104,42.525691 14.6687285,43.1131729 C14.0812465,43.7006548 13.7593808,44.5027121 13.7777778,45.3333333 L13.7777778,75.3333333 C13.7593808,76.1639545 14.0812465,76.9660118 14.6687285,77.5534938 C15.2562104,78.1409757 16.0582677,78.4628414 16.8888889,78.4444444 L57.3333333,78.4444444 C58.1639545,78.4628414 58.9660118,78.1409757 59.5534938,77.5534938 C60.1409757,76.9660118 60.4628414,76.1639545 60.4444444,75.3333333 L60.4444444,45.3333333 C60.4628414,44.5027121 60.1409757,43.7006548 59.5534938,43.1131729 C58.9660118,42.525691 58.1639545,42.2038253 57.3333333,42.2222222 Z M39.1111111,61.7777778 L39.1111111,65.7777778 C39.1111111,66.8823473 38.2156806,67.7777778 37.1111111,67.7777778 C36.0065416,67.7777778 35.1111111,66.8823473 35.1111111,65.7777778 L35.1111111,61.7777778 C33.7514846,61.1149598 32.8888889,59.7348068 32.8888889,58.2222222 C32.8888889,55.8903533 34.7792422,54.0000001 37.1111111,54.0000001 C39.44298,54.0000001 41.3333333,55.8903533 41.3333333,58.2222222 C41.1493046,59.6757491 40.3370103,60.97542 39.1111111,61.7777778 Z" id="svg_18"></path>
                    <path d="M12.6666667,37.7777778 L2.88888889,37.7777778 C1.29339961,37.7777778 0,36.4843782 0,34.8888889 C0,33.2933996 1.29339961,32 2.88888889,32 L12.6666667,32 C14.2621559,32 15.5555556,33.2933996 15.5555556,34.8888889 C15.5555556,36.4843782 14.2621559,37.7777778 12.6666667,37.7777778 Z" id="svg_19"></path>
                    <path d="M19.5555556,22.2222222 C18.8989464,22.2388659 18.2615395,21.9998383 17.7777778,21.5555556 L10,15.1111111 C9.20607647,14.4759723 8.8113034,13.4655266 8.96438799,12.4603993 C9.11747258,11.4552719 9.79515764,10.6081656 10.7421658,10.2381771 C11.6891739,9.86818852 12.761632,10.0315278 13.5555556,10.6666667 L21.3333333,17.1111111 C21.9230218,17.5823898 22.3011928,18.2687422 22.3845548,19.0190001 C22.4679168,19.7692579 22.2496321,20.5218832 21.7777778,21.1111111 C21.2912567,21.8547282 20.4423619,22.2791757 19.5555556,22.2222222 Z" id="svg_20"></path>
                    <path d="M37.1111111,15.5555556 C35.5256043,15.5317093 34.2460685,14.2521735 34.2222222,12.6666667 L34.2222222,2.88888889 C34.2222222,1.29339961 35.5156218,0 37.1111111,0 C38.7066004,0 40,1.29339961 40,2.88888889 L40,12.6666667 C39.8928034,14.2155833 38.6600278,15.448359 37.1111111,15.5555556 Z" id="svg_21"></path>
                    <path d="M54.4444444,22.2222222 C53.5808368,22.1792125 52.7747946,21.7761914 52.2222222,21.1111111 C51.6920285,20.5466784 51.435885,19.7782109 51.5214028,19.0085509 C51.6069206,18.238891 52.0255046,17.5453932 52.6666667,17.1111111 L60.4444444,10.6666667 C61.0088772,10.1364729 61.7773447,9.88032948 62.5470046,9.96584726 C63.3166646,10.051365 64.0101624,10.469949 64.4444444,11.1111111 C64.9221111,11.6980175 65.1440751,12.4521629 65.0605094,13.2042541 C64.9769437,13.9563454 64.5948493,14.6433731 64,15.1111111 L56.2222222,21.5555556 C55.7384605,21.9998383 55.1010536,22.2388659 54.4444444,22.2222222 L54.4444444,22.2222222 Z" id="svg_24"></path>
                    <path d="M71.1111111,37.7777778 L61.3333333,37.7777778 C59.7378441,37.7777778 58.4444444,36.4843782 58.4444444,34.8888889 C58.4444444,33.2933996 59.7378441,32 61.3333333,32 L71.1111111,32 C72.7066004,32 74,33.2933996 74,34.8888889 C74,36.4843782 72.7066004,37.7777778 71.1111111,37.7777778 Z" id="svg_25"></path>
                </g>
            </g>
        </g>
    </g>
</svg>