<?xml version="1.0" encoding="UTF-8"?>
<svg width="78px" height="90px" viewBox="0 0 78 90" version="1.1" xmlns="http://www.w3.org/2000/svg" xmlns:xlink="http://www.w3.org/1999/xlink">
    <!-- Generator: Sketch 61.2 (89653) - https://sketch.com -->
    <title>tag copy</title>
    <desc>Created with Sketch.</desc>
    <g id="Page-1" stroke="none" stroke-width="1" fill="none" fill-rule="evenodd">
        <g id="NavigationNew_tenmien_Op1_edit" transform="translate(-941.000000, -208.000000)" fill="#FC4649" fill-rule="nonzero">
            <g id="Group-2-Copy-2" transform="translate(845.000000, 208.000000)">
                <g id="tag-copy" transform="translate(96.000000, 0.000000)">
                    <path d="M23.8818267,52.5925926 C25.5680405,52.5925926 26.9338512,53.9192707 26.9338512,55.5555556 C26.9338512,56.373698 27.6171293,57.037037 28.4598634,57.037037 C29.3025978,57.037037 29.9858756,56.373698 29.9858756,55.5555556 C29.975444,52.8616898 28.0947532,50.5135994 25.4078389,49.8401331 L25.4078389,48.1481481 C25.4078389,47.3300057 24.7245611,46.6666667 23.8818267,46.6666667 C23.0390926,46.6666667 22.3558145,47.3300057 22.3558145,48.1481481 L22.3558145,49.8401331 C19.3827732,50.5830439 17.4439626,53.3572048 17.8314266,56.3136574 C18.2188907,59.2701098 20.8119193,61.4850983 23.8818267,61.4814815 C25.5680405,61.4814815 26.9338512,62.8081596 26.9338512,64.4444444 C26.9338512,66.0807291 25.5680405,67.4074074 23.8818267,67.4074074 C22.1963582,67.4074074 20.8298022,66.0807291 20.8298022,64.4444444 C20.8298022,63.626302 20.1465244,62.962963 19.30379,62.962963 C18.4610559,62.962963 17.7777778,63.626302 17.7777778,64.4444444 C17.7882096,67.1383102 19.6696455,69.4864004 22.3558145,70.1598669 L22.3558145,71.8518519 C22.3558145,72.6699943 23.0390926,73.3333333 23.8818267,73.3333333 C24.7245611,73.3333333 25.4078389,72.6699943 25.4078389,71.8518519 L25.4078389,70.1642072 C28.390567,69.42853 30.3390641,66.6493056 29.9508548,63.6863426 C29.5626457,60.7226561 26.9591855,58.5054976 23.8818267,58.5185185 C22.1963582,58.5185185 20.8298022,57.1918402 20.8298022,55.5555556 C20.8298022,53.9192707 22.1963582,52.5925926 23.8818267,52.5925926 L23.8818267,52.5925926 Z" id="Path"></path>
                    <path d="M28.4722222,37.7777778 L19.3055556,37.7777778 C18.4618464,37.7777778 17.7777778,38.5240342 17.7777778,39.4444444 C17.7777778,40.3648547 18.4618464,41.1111111 19.3055556,41.1111111 L28.4722222,41.1111111 C29.3159316,41.1111111 30,40.3648547 30,39.4444444 C30,38.5240342 29.3159316,37.7777778 28.4722222,37.7777778 Z" id="Path"></path>
                    <path d="M28.4722222,78.8888889 L19.3055556,78.8888889 C18.4618464,78.8888889 17.7777778,79.6351453 17.7777778,80.5555556 C17.7777778,81.4759658 18.4618464,82.2222222 19.3055556,82.2222222 L28.4722222,82.2222222 C29.3159316,82.2222222 30,81.4759658 30,80.5555556 C30,79.6351453 29.3159316,78.8888889 28.4722222,78.8888889 Z" id="Path"></path>
                    <path d="M75.9719028,57.7507561 L54.0137854,19.6137108 C55.3648968,18.2697481 56.560448,16.7763749 57.5763376,15.1621551 C60.0696861,11.111957 60.5151876,7.26756479 58.8295848,4.34014324 C55.4751768,-1.48760112 44.8810023,-1.44072722 34.7111496,4.44634187 C33.3607685,5.23953603 32.062241,6.11768931 30.8228699,7.07567466 L29.6156336,5.70168344 C28.1761521,4.06695614 26.1063955,3.12947812 23.9314711,3.12801341 C21.7572772,3.12947812 19.6875206,4.06695614 18.2480391,5.70168344 L1.89666905,24.2835232 C0.674095665,25.6721625 0,27.4614273 0,29.3144111 L0,76.5003165 C0.0087645491,83.9525342 6.03033962,89.9919435 13.4614527,90 L34.4014895,90 C41.8326026,89.9919435 47.8549082,83.9525342 47.8629417,76.5003165 L47.8629417,29.3144111 C47.8600204,27.8693766 47.4444623,26.4551031 46.6666604,25.2385789 L46.6783457,25.2385789 C48.4669251,24.2014939 50.1642132,23.0142659 51.7519518,21.6900782 L73.3814206,59.250721 C76.27499,64.27282 74.560174,70.6960093 69.5508369,73.5963319 L51.4167301,84.0960857 C50.6192092,84.5531063 49.7639921,84.9024633 48.8744494,85.1339032 C48.0761982,85.3470328 47.600753,86.168791 47.8132792,86.9693092 C48.0250751,87.7698277 48.8445059,88.246623 49.6434876,88.0334934 C50.7842638,87.732475 51.8812203,87.2820461 52.9051436,86.6939251 L71.0392506,76.1941713 C77.4814961,72.4684285 79.6907459,64.2098333 75.9719028,57.7507561 L75.9719028,57.7507561 Z M44.8715079,76.5003165 C44.8649349,82.2965672 40.1813253,86.9934786 34.4014895,87.0000703 L13.4614527,87.0000703 C7.68234736,86.9934786 2.99800729,82.2965672 2.99143437,76.5003165 L2.99143437,29.3144111 C2.99143437,28.192367 3.39968917,27.1091406 4.14024442,26.2676075 L20.4916144,7.68796499 C21.3621684,6.69702148 22.6146853,6.12794307 23.9314711,6.12794307 C25.2482571,6.12794307 26.5015043,6.69702148 27.3720582,7.68796499 L41.9596802,24.2666778 C38.6249909,25.8442777 34.9806415,26.6550495 31.2939331,26.6396691 C31.3618539,26.2639455 31.4005614,25.8830951 31.4100557,25.5015123 C31.4056738,21.3612285 28.0600297,18.0068148 23.9314711,18.0016881 C23.7671468,18.0068148 23.6050133,18.0397732 23.451644,18.0990979 C22.6979429,18.0060824 21.9968256,18.501188 21.8288495,19.2438465 C21.2964386,21.2938471 21.557897,23.4698215 22.5599105,25.334524 C23.5538903,26.9853641 25.0999999,28.228255 26.9229049,28.8405452 C25.6119618,30.0402242 23.716754,30.3471018 22.0954203,29.6234859 C20.473356,28.8991375 19.4333654,27.2812556 19.4443204,25.5015123 C19.4443204,24.6731625 18.7746073,24.0015474 17.9486035,24.0015474 C17.1225998,24.0015474 16.4528866,24.6731625 16.4528866,25.5015123 C16.449235,28.8266296 18.6314626,31.7562484 21.8127823,32.6951912 C24.9933718,33.6341341 28.4105883,32.3575526 30.2035496,29.560499 C30.7921961,29.6227536 31.3837638,29.6557117 31.9760619,29.657909 C36.1513614,29.5312028 40.2499763,28.496315 43.987808,26.625021 C44.5581961,27.4057645 44.867126,28.3469045 44.8715079,29.3144111 L44.8715079,76.5003165 Z M28.4186218,25.5015123 C28.4127792,25.7212337 28.3908694,25.9402225 28.3528922,26.1570143 C27.0331849,25.8127842 25.8902177,24.9844345 25.1511232,23.8345592 C24.6895543,22.9900966 24.4916347,22.0262518 24.5821957,21.0675341 C26.7790299,21.3905247 28.4098579,23.275002 28.4186218,25.5015123 Z M45.181168,22.6275562 C45.0321806,22.7147124 44.8824629,22.7894176 44.7327451,22.8736442 L32.81156,9.32415719 C33.8968312,8.49873705 35.0310345,7.73996577 36.2068665,7.05150535 C44.6326897,2.17076042 53.8071018,1.61925972 56.2376418,5.85182655 C57.349205,7.77951572 56.9197704,10.5318925 55.0304055,13.5992034 C54.2832773,14.789361 53.4222176,15.9033485 52.4581813,16.9243207 L52.4428444,16.8972218 C51.5204369,15.2925231 50.0437087,14.0811256 48.292376,13.4908075 L42.4351252,11.5052583 C41.6609749,11.2686915 40.8393531,11.6927539 40.5815465,12.4617789 C40.3230094,13.2315361 40.7225002,14.06721 41.4827742,14.3477211 L47.340025,16.3230165 C48.3997347,16.6811624 49.2929289,17.4142994 49.852362,18.3854682 L50.2335946,19.0468297 C48.6641142,20.3966514 46.9726689,21.5963304 45.181168,22.6319505 L45.181168,22.6275562 Z" id="Shape"></path>
                    <path d="M51.3114834,60.3708312 C51.7232091,61.0786032 52.6362932,61.3215158 53.3497082,60.9123237 L63.6894912,54.9898842 C64.155142,54.7274518 64.4429857,54.2372891 64.4444444,53.7059178 C64.4451719,53.1745467 64.1595144,52.6836609 63.6953209,52.4190596 C63.2303986,52.1544585 62.6590835,52.1566274 62.1970762,52.4255661 L51.8572933,58.3480057 C51.1438783,58.7571977 50.8990289,59.6623362 51.3114834,60.3708312 L51.3114834,60.3708312 Z" id="Path"></path>
                    <path d="M53.5292413,69.2846404 C53.9310814,69.9681432 54.8238221,70.2031844 55.5220548,69.8084266 L68.1586443,62.6665199 C68.8568773,62.2724596 69.0962714,61.3985525 68.6930062,60.7150497 C68.2904537,60.0315469 67.3977131,59.7972031 66.6994801,60.1912634 L54.0628907,67.3331701 C53.3653704,67.7279279 53.1259763,68.6011376 53.5292413,69.2846404 L53.5292413,69.2846404 Z" id="Path"></path>
                    <path d="M53.6442179,51.1111111 C53.8934779,51.1111111 54.1385719,51.0467422 54.3551989,50.9247801 L59.2806859,48.1494647 C59.7243547,47.9035079 59.99861,47.4441172 60,46.9461053 C60.0006929,46.448771 59.7285206,45.9880253 59.2862405,45.7400356 C58.8439604,45.4920461 58.2989212,45.4940786 57.8587241,45.7461338 L52.933237,48.5214492 C52.3757004,48.8358404 52.1042222,49.4754639 52.2708584,50.0825641 C52.4374945,50.6889867 53.0005859,51.1111111 53.6442179,51.1111111 L53.6442179,51.1111111 Z" id="Path"></path>
                </g>
            </g>
        </g>
    </g>
</svg>