<?xml version="1.0" encoding="UTF-8"?>
<svg width="84px" height="64px" viewBox="0 0 84 64" version="1.1" xmlns="http://www.w3.org/2000/svg" xmlns:xlink="http://www.w3.org/1999/xlink">
    <!-- Generator: Sketch 61.2 (89653) - https://sketch.com -->
    <title>Group 15</title>
    <desc>Created with Sketch.</desc>
    <defs>
        <polygon id="path-1" points="0 2.16984483 83.9594828 2.16984483 83.9594828 64.4827586 0 64.4827586"></polygon>
        <polygon id="path-3" points="0 65.2442414 83.9594828 65.2442414 83.9594828 2.93044828 0 2.93044828"></polygon>
    </defs>
    <g id="Page-1" stroke="none" stroke-width="1" fill="none" fill-rule="evenodd">
        <g id="NavigationNew_uudai" transform="translate(-687.000000, -222.000000)">
            <g id="Group-6" transform="translate(586.000000, 220.000000)">
                <g id="Group-15" transform="translate(101.000000, 0.000000)">
                    <g id="Group-3" transform="translate(0.000000, 0.761483)">
                        <mask id="mask-2" fill="white">
                            <use xlink:href="#path-1"></use>
                        </mask>
                        <g id="Clip-2"></g>
                        <path d="M75.7584483,2.16984483 L31.1568966,2.16984483 C30.2512069,2.16984483 29.5184483,2.90260345 29.5184483,3.81122414 C29.5184483,4.71398276 30.2512069,5.44967241 31.1568966,5.44967241 L75.7584483,5.44967241 C78.4725862,5.44967241 80.6796552,7.65674138 80.6796552,10.3679483 L80.6796552,56.2826034 C80.6796552,58.9967414 78.4725862,61.2038103 75.7584483,61.2038103 L8.19810345,61.2038103 C5.48689655,61.2038103 3.27982759,58.9967414 3.27982759,56.2826034 L3.27982759,10.3679483 C3.27982759,7.65674138 5.48689655,5.44967241 8.19810345,5.44967241 L18.0375862,5.44967241 C18.9432759,5.44967241 19.6789655,4.71398276 19.6789655,3.81122414 C19.6789655,2.90260345 18.9432759,2.16984483 18.0375862,2.16984483 L8.19810345,2.16984483 C3.67844828,2.16984483 0,5.8482931 0,10.3679483 L0,56.2826034 C0,60.8051897 3.67844828,64.4836379 8.19810345,64.4836379 L75.7584483,64.4836379 C80.2810345,64.4836379 83.9594828,60.8051897 83.9594828,56.2826034 L83.9594828,10.3679483 C83.9594828,5.8482931 80.2810345,2.16984483 75.7584483,2.16984483" id="Fill-1" fill="#FC4649" mask="url(#mask-2)"></path>
                    </g>
                    <path d="M34.2347759,35.0938621 C33.1239138,33.0714483 31.4063276,31.4652414 29.3546034,30.4774828 C30.2925345,29.3812759 30.8611552,27.9626552 30.8611552,26.4121379 L30.8611552,25.7966207 C30.8611552,22.340931 28.0532241,19.530069 24.5975345,19.530069 C21.1447759,19.530069 18.3339138,22.340931 18.3339138,25.7966207 L18.3339138,26.4121379 C18.3339138,27.9626552 18.9025345,29.3812759 19.8404655,30.4774828 C17.7887414,31.4623103 16.0711552,33.0714483 14.9602931,35.0938621 C13.1958103,32.9424828 12.1347759,30.1931724 12.1347759,27.2005862 C12.1347759,20.3273103 17.7271897,14.7378276 24.5975345,14.7378276 C31.4708103,14.7378276 37.0602931,20.3273103 37.0602931,27.2005862 C37.0602931,30.1931724 35.9992586,32.9424828 34.2347759,35.0938621 M21.6137414,26.4121379 L21.6137414,25.7966207 C21.6137414,24.1493793 22.9532241,22.8128276 24.5975345,22.8128276 C26.2418448,22.8128276 27.5783966,24.1493793 27.5783966,25.7966207 L27.5783966,26.4121379 C27.5783966,28.0564483 26.2418448,29.395931 24.5975345,29.395931 C22.9532241,29.395931 21.6137414,28.0564483 21.6137414,26.4121379 M17.4780517,37.4181724 C18.6592586,34.580931 21.4496034,32.6728276 24.5975345,32.6728276 C27.7454655,32.6728276 30.5358103,34.580931 31.7199483,37.4181724 C29.6975345,38.830931 27.2442586,39.6633448 24.5975345,39.6633448 C21.9508103,39.6633448 19.4975345,38.830931 17.4780517,37.4181724 M24.5975345,11.458 C15.9158103,11.458 8.85494828,18.5188621 8.85494828,27.2005862 C8.85494828,35.8823103 15.9158103,42.9431724 24.5975345,42.9431724 C33.2792586,42.9431724 40.3401207,35.8823103 40.3401207,27.2005862 C40.3401207,18.5188621 33.2792586,11.458 24.5975345,11.458" id="Fill-4" fill="#FC4649"></path>
                    <mask id="mask-4" fill="white">
                        <use xlink:href="#path-3"></use>
                    </mask>
                    <g id="Clip-7"></g>
                    <path d="M51.4924138,32.4488966 L71.825,32.4488966 L71.825,22.6094138 L51.4924138,22.6094138 L51.4924138,32.4488966 Z M49.8510345,35.7287241 L73.4634483,35.7287241 C74.3691379,35.7287241 75.1018966,34.9930345 75.1018966,34.0873448 L75.1018966,20.9680345 C75.1018966,20.0623448 74.3691379,19.3295862 73.4634483,19.3295862 L49.8510345,19.3295862 C48.9453448,19.3295862 48.2125862,20.0623448 48.2125862,20.9680345 L48.2125862,34.0873448 C48.2125862,34.9930345 48.9453448,35.7287241 49.8510345,35.7287241 L49.8510345,35.7287241 Z" id="Fill-6" fill="#FC4649" mask="url(#mask-4)"></path>
                    <path d="M49.8516207,42.2854483 L73.4640345,42.2854483 C74.3697241,42.2854483 75.1024828,41.5526897 75.1024828,40.647 C75.1024828,39.7413103 74.3697241,39.0085517 73.4640345,39.0085517 L49.8516207,39.0085517 C48.943,39.0085517 48.2102414,39.7413103 48.2102414,40.647 C48.2102414,41.5526897 48.943,42.2854483 49.8516207,42.2854483" id="Fill-8" fill="#FC4649" mask="url(#mask-4)"></path>
                    <path d="M48.6923966,48.3652931 C48.9972241,48.6701207 49.4192931,48.8459828 49.8530862,48.8459828 C50.2810172,48.8459828 50.7060172,48.6701207 51.0108448,48.3652931 C51.3156724,48.0604655 51.4915345,47.6383966 51.4915345,47.2046034 C51.4915345,46.7737414 51.3156724,46.3516724 51.0108448,46.0468448 C50.7060172,45.7420172 50.2810172,45.5661552 49.8530862,45.5661552 C49.4192931,45.5661552 48.9972241,45.7420172 48.6923966,46.0468448 C48.387569,46.3516724 48.2117069,46.7737414 48.2117069,47.2046034 C48.2117069,47.6383966 48.387569,48.0604655 48.6923966,48.3652931" id="Fill-9" fill="#FC4649" mask="url(#mask-4)"></path>
                    <path d="M55.25,46.0465517 C54.9451724,46.3513793 54.7693103,46.7734483 54.7693103,47.2072414 C54.7693103,47.6381034 54.9451724,48.0601724 55.25,48.365 C55.5548276,48.6727586 55.9798276,48.8456897 56.4106897,48.8456897 C56.8415517,48.8456897 57.2636207,48.6727586 57.5684483,48.365 C57.8762069,48.0601724 58.0491379,47.6381034 58.0491379,47.2072414 C58.0491379,46.7734483 57.8762069,46.3513793 57.5684483,46.0465517 C57.2636207,45.7417241 56.8415517,45.5658621 56.4106897,45.5658621 C55.9798276,45.5658621 55.5548276,45.7417241 55.25,46.0465517" id="Fill-10" fill="#FC4649" mask="url(#mask-4)"></path>
                    <path d="M73.4628621,45.5658621 L62.9697586,45.5658621 C62.0611379,45.5658621 61.3283793,46.3015517 61.3283793,47.2072414 C61.3283793,48.112931 62.0611379,48.8456897 62.9697586,48.8456897 L73.4628621,48.8456897 C74.3714828,48.8456897 75.1042414,48.112931 75.1042414,47.2072414 C75.1042414,46.3015517 74.3714828,45.5658621 73.4628621,45.5658621" id="Fill-11" fill="#FC4649" mask="url(#mask-4)"></path>
                    <path d="M36.3498103,47.8758103 C36.3498103,46.9701207 35.6141207,46.234431 34.708431,46.234431 L14.4842931,46.234431 C13.5786034,46.234431 12.8429138,46.9701207 12.8429138,47.8758103 C12.8429138,48.7815 13.5786034,49.5171897 14.4842931,49.5171897 L34.708431,49.5171897 C35.6141207,49.5171897 36.3498103,48.7815 36.3498103,47.8758103" id="Fill-12" fill="#FC4649" mask="url(#mask-4)"></path>
                    <path d="M17.1093276,52.7961379 C16.2036379,52.7961379 15.4679483,53.5288966 15.4679483,54.4375172 C15.4679483,55.3402759 16.2036379,56.0730345 17.1093276,56.0730345 L32.0839828,56.0730345 C32.9926034,56.0730345 33.7253621,55.3402759 33.7253621,54.4375172 C33.7253621,53.5288966 32.9926034,52.7961379 32.0839828,52.7961379 L17.1093276,52.7961379 Z" id="Fill-13" fill="#FC4649" mask="url(#mask-4)"></path>
                    <path d="M24.5972414,6.20998276 C25.0281034,6.20998276 25.4531034,6.03412069 25.757931,5.7292931 C26.0627586,5.42446552 26.2386207,5.00239655 26.2386207,4.57153448 C26.2386207,4.13774138 26.0627586,3.71567241 25.757931,3.41084483 C25.4531034,3.10601724 25.0281034,2.93015517 24.5972414,2.93015517 C24.1663793,2.93015517 23.7413793,3.10601724 23.4365517,3.41084483 C23.1317241,3.71567241 22.9558621,4.13774138 22.9558621,4.57153448 C22.9558621,5.00239655 23.1317241,5.42446552 23.4365517,5.7292931 C23.7413793,6.03412069 24.1663793,6.20998276 24.5972414,6.20998276" id="Fill-14" fill="#FC4649" mask="url(#mask-4)"></path>
                </g>
            </g>
        </g>
    </g>
</svg>