<svg id="Layer_1" data-name="Layer 1" xmlns="http://www.w3.org/2000/svg" xmlns:xlink="http://www.w3.org/1999/xlink" viewBox="0 0 387.09 80.85"><defs><style>.cls-1{fill:#eb1d25;}.cls-2{fill:url(#linear-gradient);}.cls-3{fill:url(#linear-gradient-2);}</style><linearGradient id="linear-gradient" x1="22.09" y1="-416.15" x2="22.09" y2="-357.79" gradientTransform="matrix(1, 0, 0, -1, 0, -357.79)" gradientUnits="userSpaceOnUse"><stop offset="0" stop-color="#e9292b"/><stop offset="0.25" stop-color="#ed4d26"/><stop offset="0.59" stop-color="#f37824"/><stop offset="0.85" stop-color="#f69324"/><stop offset="1" stop-color="#f79d24"/></linearGradient><linearGradient id="linear-gradient-2" x1="34.12" y1="-438.63" x2="34.12" y2="-422.06" xlink:href="#linear-gradient"/></defs><title>TOP 1_VIỆT NAM</title><path class="cls-1" d="M80.72,65.64a7.54,7.54,0,0,1-4.25-1.09,8.16,8.16,0,0,1-2.73-3.47L57,24.8a6.68,6.68,0,0,1-.69-4.28,4.68,4.68,0,0,1,1.94-3,6.52,6.52,0,0,1,3.8-1,6.43,6.43,0,0,1,4.22,1.22,9.66,9.66,0,0,1,2.49,3.61L80.93,49.06,93.1,21.27a9.25,9.25,0,0,1,2.49-3.57,6.3,6.3,0,0,1,4.08-1.19,5.81,5.81,0,0,1,3.6,1.09,4.7,4.7,0,0,1,1.83,2.95,6.86,6.86,0,0,1-.73,4.25L87.57,61.08a7.77,7.77,0,0,1-2.66,3.47A7.45,7.45,0,0,1,80.72,65.64Z"/><path class="cls-1" d="M115.72,65.64a5.75,5.75,0,0,1-6.37-6.39V22.9A6.42,6.42,0,0,1,111,18.14a7.61,7.61,0,0,1,9.41,0,6.38,6.38,0,0,1,1.66,4.76V59.25a5.71,5.71,0,0,1-6.36,6.39Z"/><path class="cls-1" d="M136.19,65q-6.65,0-6.64-6.45v-35q0-6.46,6.64-6.46h23.44q5,0,5,4.76t-5,4.89H141.72v9.11h16.39c3.32,0,5,1.6,5,4.82s-1.66,4.82-5,4.82H141.72v9.86h17.91c3.32,0,5,1.6,5,4.82S163,65,159.63,65Zm7.12-52.59a3.76,3.76,0,0,1-2.49,1.26,3.9,3.9,0,0,1-2.49-.61,3.34,3.34,0,0,1-1.45-1.83,2.65,2.65,0,0,1,.62-2.42l3.73-5.16a8.36,8.36,0,0,1,13.84,0l3.73,5.16a2.65,2.65,0,0,1,.62,2.42A3.4,3.4,0,0,1,158,13.08a3.79,3.79,0,0,1-2.46.61A4,4,0,0,1,153,12.43L148.15,7.2Zm4.84,68.22a6.15,6.15,0,0,1-4.36-1.42,5.35,5.35,0,0,1-1.52-4.08q0-5.45,5.88-5.44a6.16,6.16,0,0,1,4.36,1.43,5.25,5.25,0,0,1,1.52,4Q154,80.65,148.15,80.65Z"/><path class="cls-1" d="M188.81,65.64a6.47,6.47,0,0,1-4.7-1.63,6.31,6.31,0,0,1-1.66-4.69v-32H171.59c-3.5,0-5.25-1.69-5.25-5.09s1.75-5.1,5.25-5.1H206q5.26,0,5.26,5.1c0,3.4-1.75,5.09-5.26,5.09H195.18v32a5.7,5.7,0,0,1-6.37,6.32Z"/><path class="cls-1" d="M238.47,65.64q-6,0-5.95-5.92v-37A6.39,6.39,0,0,1,234,18.11a5.27,5.27,0,0,1,4-1.6,6.06,6.06,0,0,1,3.43.82,14.84,14.84,0,0,1,2.8,2.71l20,24.53V22.35c0-3.89,2-5.84,5.87-5.84a5.88,5.88,0,0,1,4.4,1.53A5.94,5.94,0,0,1,276,22.35V60a5.91,5.91,0,0,1-1.38,4.11,4.79,4.79,0,0,1-3.74,1.53,7.2,7.2,0,0,1-3.7-.82,11.77,11.77,0,0,1-2.87-2.72l-20-24.53V59.72Q244.35,65.65,238.47,65.64Z"/><path class="cls-1" d="M285.84,65.64a5.41,5.41,0,0,1-4.77-2.18q-1.51-2.18,0-5.43l17.22-36.42a9.34,9.34,0,0,1,3-3.88,7.37,7.37,0,0,1,4.22-1.22,7.24,7.24,0,0,1,4.15,1.22,9.34,9.34,0,0,1,3,3.88L330,58q1.59,3.33.14,5.47a5.14,5.14,0,0,1-4.56,2.14,6.49,6.49,0,0,1-4.25-1.23,10.29,10.29,0,0,1-2.67-3.94l-2.21-5.16H294.63l-2.22,5.16a12.45,12.45,0,0,1-2.56,3.94A5.68,5.68,0,0,1,285.84,65.64Zm19.57-35.47-6.64,15.56h13.42l-6.64-15.56Z"/><path class="cls-1" d="M340.82,65.64a5.2,5.2,0,0,1-5.74-5.71V22.22A5.49,5.49,0,0,1,336.67,18a6.43,6.43,0,0,1,4.5-1.46,7.06,7.06,0,0,1,3.8.92,8.23,8.23,0,0,1,2.63,3l13.62,24.12,13.63-24.12a8.85,8.85,0,0,1,2.66-3,7,7,0,0,1,3.84-.92A5.87,5.87,0,0,1,385.57,18a5.65,5.65,0,0,1,1.52,4.25V59.93a5.81,5.81,0,0,1-1.45,4.21,5.77,5.77,0,0,1-10-4.21V39l-9.68,16.58a8,8,0,0,1-2,2.24,5.81,5.81,0,0,1-5.71,0,6.94,6.94,0,0,1-2-2.24l-9.61-16.31V59.93a5.77,5.77,0,0,1-1.45,4.21A5.71,5.71,0,0,1,340.82,65.64Z"/><path class="cls-2" d="M44.17,10.72V58.36H23.66l0-30.4-7.58,4.61-.63.39-.37.2A10.58,10.58,0,0,1,8.05,34a10.09,10.09,0,0,1-5.16-2.68,10.06,10.06,0,0,1-2.89-7v-.21a14.21,14.21,0,0,1,1-4.4c1.4-3,4.9-5,5.13-5.08L24.81,3l.47-.27a.19.19,0,0,1,.09-.05,20.59,20.59,0,0,1,4.73-2A10.52,10.52,0,0,1,33.82,0h.58a10.3,10.3,0,0,1,9.79,9.74v.47C44.19,10.35,44.18,10.56,44.17,10.72Z"/><path class="cls-3" d="M36.22,69.48a3.24,3.24,0,0,0-2.6-1.09A3.26,3.26,0,0,0,31,69.48a5.55,5.55,0,0,0,0,6.15,3.59,3.59,0,0,0,5.08.1l.11-.1a5.51,5.51,0,0,0,0-6.15Zm0,0a3.24,3.24,0,0,0-2.6-1.09A3.26,3.26,0,0,0,31,69.48a5.55,5.55,0,0,0,0,6.15,3.59,3.59,0,0,0,5.08.1l.11-.1a5.51,5.51,0,0,0,0-6.15Zm0,0a3.24,3.24,0,0,0-2.6-1.09A3.26,3.26,0,0,0,31,69.48a5.55,5.55,0,0,0,0,6.15,3.59,3.59,0,0,0,5.08.1l.11-.1a5.51,5.51,0,0,0,0-6.15ZM49,68.19h-2.6v3.65H49c1.52,0,2.29-.61,2.29-1.83S50.56,68.19,49,68.19Zm0,0h-2.6v3.65H49c1.52,0,2.29-.61,2.29-1.83S50.56,68.19,49,68.19ZM36.22,69.48a3.24,3.24,0,0,0-2.6-1.09A3.26,3.26,0,0,0,31,69.48a5.55,5.55,0,0,0,0,6.15,3.59,3.59,0,0,0,5.08.1l.11-.1a5.51,5.51,0,0,0,0-6.15Zm18.46-5.21H13.56a1.49,1.49,0,0,0-1.51,1.46V79.39a1.47,1.47,0,0,0,1.51,1.45H54.68a1.49,1.49,0,0,0,1.52-1.45V65.73a1.5,1.5,0,0,0-1.52-1.46ZM22,68.37v9.54a1.9,1.9,0,0,1-.5,1.4,2,2,0,0,1-1.44.47,2,2,0,0,1-1.45-.47,1.85,1.85,0,0,1-.51-1.4V68.37H14.81c-1.07,0-1.6-.5-1.6-1.52s.53-1.51,1.6-1.51H25.35c1.07,0,1.6.5,1.6,1.51s-.53,1.52-1.6,1.52Zm18.22,8a6.61,6.61,0,0,1-2.66,2.53,8.3,8.3,0,0,1-4,.91,8.32,8.32,0,0,1-4-.91A6.58,6.58,0,0,1,27,76.36a7.45,7.45,0,0,1-.93-3.81A7.55,7.55,0,0,1,27,68.74a6.52,6.52,0,0,1,2.66-2.52,8.45,8.45,0,0,1,4-.9,8.39,8.39,0,0,1,4,.9,6.52,6.52,0,0,1,2.66,2.52,8.15,8.15,0,0,1,0,7.62Zm13.4-2.91a5.73,5.73,0,0,1-3.93,1.24H46.46v3.22a1.85,1.85,0,0,1-.51,1.4,2,2,0,0,1-1.44.47,2,2,0,0,1-1.44-.47,1.8,1.8,0,0,1-.5-1.4V67.22a1.8,1.8,0,0,1,.5-1.4,2,2,0,0,1,1.46-.47h5.2a5.72,5.72,0,0,1,3.93,1.24,5,5,0,0,1,0,6.88ZM49,68.19h-2.6v3.65H49c1.52,0,2.29-.61,2.29-1.83s-.77-1.82-2.29-1.82Zm-15.42.2A3.26,3.26,0,0,0,31,69.48a5.55,5.55,0,0,0,0,6.15,3.59,3.59,0,0,0,5.08.1l.11-.1a5.51,5.51,0,0,0,0-6.15,3.22,3.22,0,0,0-2.59-1.09Zm2.6,1.09a3.24,3.24,0,0,0-2.6-1.09A3.26,3.26,0,0,0,31,69.48a5.55,5.55,0,0,0,0,6.15,3.59,3.59,0,0,0,5.08.1l.11-.1a5.51,5.51,0,0,0,0-6.15ZM49,68.19h-2.6v3.65H49c1.52,0,2.29-.61,2.29-1.83s-.77-1.82-2.29-1.82Zm0,0h-2.6v3.65H49c1.52,0,2.29-.61,2.29-1.83s-.77-1.82-2.29-1.82ZM36.22,69.48a3.24,3.24,0,0,0-2.6-1.09A3.26,3.26,0,0,0,31,69.48a5.55,5.55,0,0,0,0,6.15,3.59,3.59,0,0,0,5.08.1l.11-.1a5.51,5.51,0,0,0,0-6.15Z"/></svg>