<?xml version="1.0" encoding="UTF-8"?>
<svg width="100px" height="100px" viewBox="0 0 100 100" version="1.1" xmlns="http://www.w3.org/2000/svg" xmlns:xlink="http://www.w3.org/1999/xlink">
    <!-- Generator: Sketch 61.2 (89653) - https://sketch.com -->
    <title>Group 3 Copy</title>
    <desc>Created with Sketch.</desc>
    <defs>
        <polygon id="path-1" points="0 0 100 0 100 100 0 100"></polygon>
    </defs>
    <g id="Page-1" stroke="none" stroke-width="1" fill="none" fill-rule="evenodd">
        <g id="NavigationNew_WordPress_Op1_2_edit" transform="translate(-220.000000, -202.000000)">
            <g id="Group-2" transform="translate(135.000000, 202.000000)">
                <g id="Group-3-Copy" transform="translate(85.000000, 0.000000)">
                    <mask id="mask-2" fill="white">
                        <use xlink:href="#path-1"></use>
                    </mask>
                    <g id="Clip-2"></g>
                    <path d="M89.4582031,28.4292413 C92.9666016,34.8417288 94.9625,42.1792145 94.9625,50.0041992 C94.9625,66.5959637 85.9708984,81.0707401 72.6041016,88.853928 L72.6,88.8500218 L86.3291016,49.149904 C88.8875,42.7376118 89.7582031,37.620825 89.7582031,33.0417323 C89.7582031,31.3917356 89.6582031,29.8583401 89.4582031,28.4292413 L89.4582031,28.4292413 Z M56.1873047,28.9376388 L56.1873047,28.9333419 C58.8875,28.7917406 61.325,28.5126396 61.325,28.5126396 C63.7458984,28.2292417 63.4623047,24.6624518 61.0416016,24.7999516 C61.0416016,24.7999516 53.7623047,25.3624505 49.0666016,25.3624505 C44.65,25.3624505 37.2291016,24.7999516 37.2291016,24.7999516 C34.8125,24.6583503 34.5332031,28.370843 36.95,28.5126396 C36.95,28.5126396 39.2457031,28.7958422 41.6666016,28.9333419 L48.6623047,48.1251013 L38.825,77.6207468 L22.4582031,28.9333419 C25.1625,28.7917406 27.6,28.5126396 27.6,28.5126396 C30.0207031,28.2292417 29.7373047,24.6624518 27.3166016,24.7999516 C27.3166016,24.7999516 20.0373047,25.3624505 15.3416016,25.3624505 C14.4957031,25.3624505 13.5041016,25.3417474 12.4375,25.3042475 C20.4832031,13.1042713 34.2916016,5.04178703 50,5.04178703 C61.6957031,5.04178703 72.3582031,9.52087984 80.3625,16.8333656 C80.1583984,16.8124672 79.9791016,16.7958656 79.7791016,16.7958656 C75.3625,16.7958656 72.2375,20.6458581 72.2375,24.7792485 C72.2375,28.4874444 74.3748047,31.6124383 76.6541016,35.3251263 C78.3666016,38.3083236 80.3666016,42.1583161 80.3666016,47.7249068 C80.3666016,51.5748993 78.8957031,56.0291874 76.9375,62.2623784 L72.4582031,77.2414507 L56.1873047,28.9376388 Z M50,94.958213 C45.5832031,94.958213 41.3291016,94.3125111 37.3,93.1207166 L50.7875,53.9291915 L64.6,91.7916176 C64.6998047,92.0166172 64.8041016,92.2125152 64.9207031,92.4166164 C60.2625,94.0500116 55.2416016,94.958213 50,94.958213 L50,94.958213 Z M5.04160156,49.9958008 C5.04160156,43.4833135 6.42910156,37.2958256 8.93320313,31.7083365 L30.3832031,90.4582218 C15.3791016,83.1625329 5.04160156,67.7834614 5.04160156,49.9958008 L5.04160156,49.9958008 Z M50,0 C22.4375,0 0,22.4208546 0,49.9999023 C0,77.5625438 22.4375,100 50,100 C77.5625,100 100,77.5625438 100,49.9999023 C100,22.4167531 77.5625,0 50,0 L50,0 Z" id="Fill-1" fill="#FC4649" mask="url(#mask-2)"></path>
                </g>
            </g>
        </g>
    </g>
</svg>