<svg width="124" height="120" viewBox="0 0 41 40" fill="none" xmlns="http://www.w3.org/2000/svg">
<g>
<path fill-rule="evenodd" clip-rule="evenodd" d="M38.2872 6.41727C39.0632 7.84953 39.5013 9.48655 39.4942 11.2304C39.479 14.928 37.462 18.1455 34.476 19.8678L34.4751 19.867L37.5709 11.0321C38.1469 9.60545 38.3457 8.46594 38.3498 7.44546C38.3513 7.07775 38.3305 6.73594 38.2872 6.41727ZM30.8721 6.5002L30.8721 6.49924C31.474 6.47015 32.0175 6.41018 32.0175 6.41018C32.5573 6.34923 32.4973 5.55409 31.9577 5.58252C31.9577 5.58252 30.335 5.70124 29.2885 5.69695C28.3042 5.69292 26.651 5.56079 26.651 5.56079C26.1126 5.52702 26.0469 6.35412 26.5854 6.38792C26.5854 6.38792 27.0967 6.45313 27.6361 6.48598L29.1776 10.7694L26.9584 17.3336L23.3554 6.46845C23.9582 6.43936 24.5017 6.37939 24.5017 6.37939C25.0414 6.31844 24.9815 5.5233 24.4419 5.55174C24.4419 5.55174 22.8192 5.67045 21.7727 5.66616C21.5842 5.66539 21.3632 5.65987 21.1256 5.65054C22.9297 2.93905 26.0144 1.15489 29.5151 1.16923C32.1215 1.17991 34.4936 2.18783 36.2708 3.82477C36.2253 3.81992 36.1853 3.81606 36.1408 3.81588C35.1565 3.81185 34.4566 4.66698 34.4528 5.58813C34.4494 6.41452 34.9229 7.1129 35.4274 7.94237C35.8064 8.60875 36.2485 9.46857 36.2435 10.7091C36.2399 11.5671 35.9081 12.5584 35.466 13.9457L34.4541 17.2798L30.8721 6.5002ZM29.433 21.2076C28.4487 21.2035 27.5012 21.0558 26.6044 20.7865L29.6459 12.0648L32.6896 20.5152C32.7116 20.5655 32.7347 20.6092 32.7605 20.6548C31.7209 21.0146 30.6011 21.2124 29.433 21.2076ZM19.4548 11.1464C19.4608 9.69509 19.7756 8.31744 20.3388 7.07452L25.0654 20.1868C21.7283 18.5472 19.4386 15.1105 19.4548 11.1464ZM29.5197 0.0456456C23.3772 0.0204835 18.3564 4.9966 18.3313 11.1427C18.3061 17.2852 23.2859 22.306 29.4284 22.3312C35.5708 22.3563 40.5916 17.3765 40.6168 11.234C40.642 5.08698 35.6621 0.0708077 29.5197 0.0456456Z" fill="#FC4649"/>
</g>
<path d="M18 40C19.4202 40 20.5714 38.8487 20.5714 37.4286C20.5714 36.0084 19.4202 34.8571 18 34.8571C16.5799 34.8571 15.4286 36.0084 15.4286 37.4286C15.4286 38.8487 16.5799 40 18 40Z" fill="#FC4649"/>
<path d="M31.7143 40C33.1345 40 34.2857 38.8487 34.2857 37.4286C34.2857 36.0084 33.1345 34.8571 31.7143 34.8571C30.2941 34.8571 29.1429 36.0084 29.1429 37.4286C29.1429 38.8487 30.2941 40 31.7143 40Z" fill="#FC4649"/>
<path d="M15.4286 10C15.4286 9.71029 15.4543 9.42743 15.4714 9.14286H10.9012L10.2497 6.04686C9.79373 3.88686 7.86344 2.31315 5.65716 2.30458L1.29087 2.28572C1.28916 2.28572 1.28744 2.28572 1.28573 2.28572C0.57773 2.28572 0.00344384 2.85658 1.52723e-05 3.56629C-0.0034133 4.27601 0.570872 4.85372 1.28059 4.85715L5.64516 4.876C6.64802 4.87943 7.52573 5.596 7.73316 6.57658L8.59887 10.6926L11.7017 25.4286H10.7143C8.58687 25.4286 6.85716 27.1583 6.85716 29.2857C6.85716 31.4131 8.58687 33.1428 10.7143 33.1428H36.4286C37.1383 33.1428 37.7143 32.5668 37.7143 31.8571C37.7143 31.1474 37.1383 30.5714 36.4286 30.5714H10.7143C10.0046 30.5714 9.42859 29.9954 9.42859 29.2857C9.42859 28.576 10.0046 28 10.7143 28H13.284H13.2857H36.4286C37.0354 28 37.5617 27.5731 37.6869 26.9783L38.8269 21.5663C36.3737 23.4434 33.3189 24.5714 30 24.5714C21.9652 24.5714 15.4286 18.0349 15.4286 10Z" fill="#FC4649"/>
</svg>
