<svg  width="171" height="120" viewBox="0 0 57 40" fill="none" xmlns="http://www.w3.org/2000/svg">
<path fill-rule="evenodd" clip-rule="evenodd" d="M25.6253 0.0992037C20.003 0.719885 15.0176 2.73626 10.6558 6.15348C9.27268 7.23715 6.68009 9.87926 5.60527 11.3006C2.65076 15.2079 0.796881 19.7099 0.0919354 24.6895C-0.134836 26.291 0.0340747 26.9451 0.866951 27.6912C1.62402 28.3694 1.45458 28.3546 8.4794 28.3546H14.8494V27.6406V26.9265L8.95715 26.9283C5.68574 26.9294 2.87604 26.8865 2.64025 26.8321C2.37228 26.7702 2.08829 26.5966 1.87054 26.3616C1.43314 25.8895 1.42305 25.4984 1.79601 23.4929C2.87243 17.7045 5.67502 12.6804 10.125 8.56146C15.0388 4.01331 21.6346 1.46268 28.4924 1.45868C35.8457 1.45447 42.6133 4.27607 47.8372 9.52438C49.2527 10.9465 50.1806 12.0775 51.2374 13.6692C52.0843 14.9448 53.4725 17.686 54.0137 19.1512C54.711 21.0392 55.4581 24.31 55.4581 25.4745C55.4581 25.8876 55.3989 26.0455 55.1309 26.3483C54.9473 26.5555 54.6326 26.7649 54.4142 26.825C54.1712 26.892 51.7798 26.9325 48.0529 26.9328L42.0811 26.9335V27.6749V28.4164L48.5307 28.3855C54.4743 28.3571 55.0136 28.3398 55.405 28.165C56.2053 27.8079 56.8316 27.0254 56.9837 26.1927C57.0813 25.658 56.7269 23.2471 56.2955 21.512C54.3737 13.7825 49.017 7.00723 41.8688 3.26483C38.7721 1.64354 35.2124 0.560083 31.6096 0.142259C30.1497 -0.0271226 26.9758 -0.0499662 25.6253 0.0992037ZM26.7931 3.31904C24.0617 3.59791 20.1188 4.52735 20.2401 4.86369C20.2641 4.93001 20.5616 5.71113 20.9012 6.59952L21.5187 8.2147L21.8468 8.14396C23.9896 7.68182 24.965 7.55528 26.8462 7.4957C28.0951 7.45611 29.2244 7.47632 29.8115 7.54875C30.333 7.61318 30.7748 7.65087 30.7931 7.63255C30.841 7.58507 31.3583 3.91804 31.3583 3.62612C31.3583 3.40284 31.2999 3.37757 30.6417 3.31599C29.914 3.24777 27.4713 3.24977 26.7931 3.31904ZM32.5363 5.65091C32.3533 6.78964 32.2044 7.77309 32.2056 7.83625C32.2066 7.89941 32.4823 8.01184 32.8181 8.08616C34.5915 8.47872 37.1514 9.58881 38.876 10.7133C39.4197 11.0678 39.903 11.3342 39.9501 11.3053C39.9973 11.2764 40.6478 10.4158 41.396 9.39279L42.7561 7.53286L42.4982 7.32568C41.6507 6.64478 39.3266 5.467 37.478 4.78158C36.4772 4.41039 34.0688 3.75792 33.255 3.63749L32.8692 3.58033L32.5363 5.65091ZM17.2863 5.97252C14.9836 7.10335 12.9367 8.50525 11.2262 10.1231L10.3131 10.9867L11.4653 11.9984L12.6176 13.01L13.3739 12.3972C15.2858 10.8481 17.2108 9.77304 19.9675 8.71474C20.1995 8.62568 20.1956 8.60957 19.565 7.07703C19.2147 6.2258 18.8921 5.46543 18.8479 5.38721C18.786 5.27752 18.4295 5.41121 17.2863 5.97252ZM42.5058 10.2538C41.7175 11.2683 41.0582 12.1391 41.0407 12.189C41.0231 12.2389 41.3493 12.6221 41.7656 13.0406C42.1817 13.459 42.7165 14.0441 42.954 14.3407C43.1914 14.6372 43.4245 14.8687 43.4721 14.855C43.5195 14.8413 44.1918 14.4743 44.9659 14.0392C46.1013 13.401 46.4597 13.2482 46.8201 13.2482C47.3593 13.2482 47.8479 13.6066 48.0221 14.1299C48.2418 14.7902 48.0076 15.1633 46.5401 16.4912C45.8102 17.1516 45.2004 17.7244 45.1851 17.764C45.1697 17.8036 45.2175 17.9158 45.2912 18.0134C45.4126 18.174 45.6412 18.0759 47.7055 16.9764C48.9596 16.3084 49.9999 15.7477 50.0173 15.7305C50.1461 15.6028 48.3008 12.8458 47.2487 11.5939C46.5279 10.7363 44.1526 8.40345 44.0044 8.40745C43.9684 8.4084 43.294 9.23931 42.5058 10.2538ZM8.82115 12.7253C7.7614 14.0385 5.75422 17.3204 5.64752 17.9146C5.6196 18.07 5.83023 18.194 6.74358 18.5596L7.87436 19.0122L8.49512 18.0172C9.24805 16.8106 10.0895 15.6853 10.9614 14.7199L11.613 13.9981L10.577 13.1168C10.0072 12.632 9.49159 12.2063 9.43108 12.1706C9.37067 12.1349 9.09623 12.3845 8.82115 12.7253ZM46.3808 14.1618C45.7134 14.5147 41.019 17.2545 39.8709 17.9613C39.21 18.3681 38.7137 18.7282 38.7677 18.7613C38.8219 18.7945 39.1706 19.2494 39.5426 19.7721C39.9148 20.2947 40.2588 20.7224 40.3074 20.7224C40.461 20.7224 45.3453 16.5643 46.8851 15.1225C47.3114 14.7233 47.3844 14.4163 47.1165 14.1504C46.9101 13.9459 46.7857 13.9478 46.3808 14.1618ZM27.1347 15.2459C21.7544 15.8496 17.3307 19.8441 16.2315 25.0912C14.7987 31.9305 19.4256 38.6192 26.4215 39.8222C32.4354 40.8563 38.4096 37.2885 40.3652 31.4951C41.2002 29.0213 41.1981 26.0672 40.3594 23.6174C40.0515 22.7181 39.1663 21.0343 38.5994 20.2695C36.7652 17.7956 33.9706 16.028 30.9336 15.4209C29.9137 15.2171 28.1257 15.1346 27.1347 15.2459ZM29.6065 16.936C30.8511 17.0753 31.9446 17.3761 33.0146 17.8732C33.8503 18.2615 35.1002 19.0352 35.231 19.245C35.2663 19.3014 35.1145 19.4223 34.894 19.5136C34.0569 19.8605 33.6749 20.4426 33.6566 21.3992C33.6461 21.9423 33.698 22.1333 34.0014 22.67C34.1978 23.0174 34.6253 23.799 34.9515 24.407C35.5339 25.4927 35.5452 25.5302 35.5865 26.5249C35.6096 27.0818 35.5754 27.7924 35.5107 28.104C35.3462 28.8937 34.0967 32.934 34.0168 32.934C33.9808 32.934 33.8272 32.5668 33.6754 32.1181C33.5236 31.6694 32.7252 29.3405 31.9011 26.9428C31.077 24.5453 30.4028 22.5674 30.4028 22.5477C30.4028 22.5282 30.6417 22.5121 30.9336 22.5121C31.5911 22.5121 31.8891 22.265 31.8891 21.7199C31.8891 21.2082 31.6662 21.1475 30.2435 21.2723C29.6012 21.3286 28.1562 21.3505 27.0324 21.3209L24.9892 21.267L24.7867 21.5224C24.3968 22.0139 24.7637 22.438 25.665 22.5373C25.9495 22.5687 26.2181 22.6517 26.2616 22.7217C26.3053 22.7917 26.6855 23.7634 27.1064 24.8812L27.8719 26.9136L26.9003 29.8449C26.3659 31.457 25.9072 32.8421 25.8807 32.9227C25.8543 33.0033 25.8087 33.0458 25.7797 33.0168C25.7121 32.95 22.228 22.7402 22.228 22.6094C22.228 22.5559 22.4429 22.5121 22.7057 22.5121C23.0419 22.5121 23.2464 22.4496 23.3958 22.3015C23.8782 21.8232 23.4546 21.0791 22.7588 21.1826C21.8607 21.3163 19.7861 21.3803 19.7861 21.2744C19.7861 21.085 21.2905 19.558 22.0135 19.0136C23.3728 17.9901 25.4258 17.1667 27.1647 16.9476C28.2087 16.8161 28.5217 16.8147 29.6065 16.936ZM48.2918 18.2133C47.0072 18.8536 45.9468 19.3854 45.9354 19.3952C45.9238 19.4049 46.0587 19.8377 46.2352 20.3572C46.4115 20.8765 46.6729 21.7917 46.816 22.3908C47.1326 23.7161 47.2498 23.9513 47.8573 24.4816C48.8942 25.3867 50.4501 25.3864 51.4875 24.4809C52.5284 23.5724 52.6686 22.6624 52.0747 20.6698C51.7153 19.4634 50.7838 17.0338 50.6846 17.0436C50.6532 17.0467 49.5764 17.573 48.2918 18.2133ZM4.50942 20.7488C4.0495 22.1249 3.54298 24.0886 3.54277 24.4964C3.54277 24.6393 3.70085 24.9007 3.91711 25.1151C4.24803 25.4432 4.33658 25.479 4.68045 25.4238C4.89437 25.3893 5.15756 25.2738 5.26521 25.1669C5.37297 25.0601 5.69667 24.2773 5.9846 23.4274C6.27252 22.5774 6.67351 21.5271 6.87565 21.0932C7.07779 20.6594 7.20657 20.282 7.16177 20.2545C7.07832 20.2034 5.02931 19.4592 4.97209 19.4592C4.95468 19.4592 4.74649 20.0394 4.50942 20.7488ZM20.5797 29.6705C23.1158 36.6769 23.169 36.829 23.0826 36.829C22.8697 36.829 21.5745 35.8483 20.8868 35.1663C19.0305 33.3258 17.886 30.8425 17.7033 28.2596C17.6105 26.948 17.8696 25.1267 18.3039 24.0385L18.43 23.7227L18.6189 24.249C18.7228 24.5385 19.6052 26.9782 20.5797 29.6705ZM39.0785 25.407C39.3505 26.5757 39.317 28.8493 39.0103 30.0319C38.555 31.788 37.7799 33.2801 36.6278 34.6183C36.1112 35.2183 34.8554 36.3314 34.7796 36.2562C34.7558 36.2327 35.5235 33.8531 36.4856 30.9681C38.1246 26.053 38.3466 25.3239 38.5308 24.249L38.603 23.828L38.755 24.249C38.8386 24.4806 38.9841 25.0017 39.0785 25.407ZM30.2176 33.5393C31.0159 35.7249 31.6827 37.5833 31.6995 37.6689C31.7601 37.9793 30.4172 38.2261 28.5979 38.2387C26.7061 38.2519 25.6676 38.0875 25.7867 37.7937C25.8257 37.6974 26.4841 35.8066 27.2498 33.5919C28.0155 31.3772 28.67 29.5653 28.7041 29.5653C28.7383 29.5653 29.4194 31.3536 30.2176 33.5393Z" fill="#FC4649"/>
</svg>
