<?xml version="1.0" encoding="UTF-8"?>
<svg width="99px" height="123px" viewBox="0 0 99 123" version="1.1" xmlns="http://www.w3.org/2000/svg" xmlns:xlink="http://www.w3.org/1999/xlink">
    <!-- Generator: Sketch 53.2 (72643) - https://sketchapp.com -->
    <title>Group 14</title>
    <desc>Created with Sketch.</desc>
    <defs>
        <polygon id="path-1" points="0 0.198622222 98.6646778 0.198622222 98.6646778 122.544444 0 122.544444"></polygon>
    </defs>
    <g id="Page-1" stroke="none" stroke-width="1" fill="none" fill-rule="evenodd">
        <g id="Cloud-Server-Windows" transform="translate(-610.000000, -3442.000000)">
            <g id="Group-14" transform="translate(610.000000, 3442.000000)">
                <path d="M96.2448122,19.7348033 C83.1220789,19.7348033 60.93379,15.1592033 49.4515122,3.67692556 C34.4295678,18.6993256 2.31335667,19.7348033 2.31335667,19.7348033 C1.10431222,89.3204589 31.4939678,111.767048 49.2788567,120.299148 C98.3171344,99.1313033 96.7632344,25.7786589 96.2448122,19.7348033" id="Fill-1" fill="#00D0DC"></path>
                <path d="M49.4547467,6.79105778 C49.5668133,5.79749111 49.65428,4.85358 49.7271689,3.93928 C49.6365133,3.85135778 49.5408467,3.76571333 49.4515578,3.67688 C34.4296133,18.69928 2.31340222,19.7347578 2.31340222,19.7347578 C1.14718,86.8554022 29.3788689,110.115613 47.3414244,119.336513 C48.0033467,118.83768 48.66208,118.32108 49.3162578,117.782158 C5.17656889,85.9151356 8.83741333,32.4579689 8.83741333,25.5107467 C38.1068578,23.6885244 49.4547467,6.79105778 49.4547467,6.79105778" id="Fill-3" fill="#FFFFFF"></path>
                <path d="M49.60467,6.79105778 C49.4926033,5.79749111 49.4051367,4.85358 49.3322478,3.93928 C49.4229033,3.85135778 49.51857,3.76571333 49.6078589,3.67688 C64.6298033,18.69928 96.7460144,19.7347578 96.7460144,19.7347578 C97.9122367,86.8554022 69.6805478,110.115613 51.7179922,119.336513 C51.05607,118.83768 50.3973367,118.32108 49.7431589,117.782158 C93.8828478,85.9151356 90.2220033,32.4579689 90.2220033,25.5107467 C60.9525589,23.6885244 49.60467,6.79105778 49.60467,6.79105778" id="Fill-5" fill="#38B1BF"></path>
                <g id="Group-9" transform="translate(0.000000, 0.256933)">
                    <mask id="mask-2" fill="white">
                        <use xlink:href="#path-1"></use>
                    </mask>
                    <g id="Clip-8"></g>
                    <path d="M86.8124889,71.4000878 C83.6741667,80.8674433 79.2270333,90.2969878 72.9895667,98.4459656 C66.9393333,106.348032 59.2249556,113.042877 49.3161667,117.525088 C45.2949778,115.529299 40.6997889,112.816921 36.0157667,109.002554 C28.4339556,102.823854 20.6120667,93.7778878 14.6379111,80.11441 C8.66876667,66.4509322 4.55646667,48.14261 4.55555556,23.4719989 C4.55555556,22.8656544 4.56648889,22.2433656 4.57195556,21.6292767 C7.66198889,21.4083322 13.7199667,20.8192989 20.7291444,19.3086767 C25.7880889,18.21671 31.3435889,16.6459544 36.6508111,14.3576989 C41.2733333,12.36191 45.7163667,9.82218778 49.4546556,6.53398778 C52.1889,8.94934333 55.3304111,11.0216656 58.7047111,12.7905878 C64.7918444,15.9785656 71.6265444,18.2039544 78.2120556,19.6494322 C83.8964778,20.8949211 89.3859222,21.5568433 94.0726778,21.7158322 C94.0936333,22.48071 94.1091222,23.4059433 94.1091222,24.4919878 C94.1136778,33.4163211 93.0955111,52.4694767 86.8124889,71.4000878 M98.6159333,21.23841 C98.5876889,20.3637433 98.5517,19.7200433 98.5143444,19.2836211 L98.3357667,17.19991 L96.2447667,17.19991 C93.0955111,17.2003656 89.3481111,16.9238433 85.3456,16.3302544 C79.3409222,15.4414656 72.7558667,13.8374544 66.6824,11.4289322 C60.6057444,9.02496556 55.0543444,5.80874333 51.0618556,1.80896556 L49.4514667,0.198576667 L47.8410778,1.80896556 C44.3670111,5.28758778 39.7886778,8.04597667 34.8468111,10.1747878 C27.4362889,13.3741544 19.2403889,15.1526433 12.9263889,16.1056656 C9.76847778,16.5835433 7.0807,16.8582433 5.19014444,17.0131322 C4.24486667,17.0901211 3.49912222,17.1379544 2.99391111,17.1652878 C2.74107778,17.17941 2.54837778,17.1885211 2.42127778,17.1939878 C2.35704444,17.1971767 2.31012222,17.1985433 2.27914444,17.1994544 L2.24634444,17.2008211 L2.23951111,17.2012767 L0.0742555556,17.2709767 L0.0355333333,19.4375989 C0.0113888889,20.8001656 0,22.1449656 0,23.4719989 C0,40.2546656 1.86595556,54.27211 4.96692222,66.0031211 C9.61404444,83.5980433 17.0587333,96.0438211 25.0555556,104.862466 C33.0487333,113.684754 41.5721778,118.873077 48.2934444,122.095677 L49.2291556,122.544854 L50.1817222,122.133032 C61.3369111,117.320999 69.9815333,109.879499 76.6075889,101.214377 C81.5813444,94.71451 85.4335222,87.5253878 88.4237889,80.1945878 C92.9087333,69.1965656 95.4589333,57.8737322 96.8998556,47.99911 C98.3385,38.1240322 98.6642222,29.6998989 98.6646778,24.4919878 C98.6646778,23.20231 98.6446333,22.1103433 98.6159333,21.23841" id="Fill-7" fill="#000000" mask="url(#mask-2)"></path>
                </g>
                <path d="M71.2582278,63.0250178 C71.2582278,55.1525622 65.41345,48.3224178 57.3988611,47.2987844 C49.09955,46.2355178 41.47765,51.7837289 39.8312722,59.8520733 L40.0207833,59.8771289 C41.48585,54.5653511 46.6491167,51.0001733 52.2706722,51.7208622 C57.8922278,52.44064 61.9935944,57.19254 62.0733167,62.69884 C62.0733167,62.69884 62.2887944,65.5834178 60.6251056,68.9773067 C60.5617833,69.1057733 60.5276167,69.2278622 60.4939056,69.3481289 C57.2471611,75.8981067 50.1227278,79.9889956 42.4630167,79.0095511 C33.5942611,77.8779511 27.1176278,70.3348622 27.0716167,61.6373956 L26.9449722,61.6209956 C26.6128722,72.9356289 34.9208389,82.8653733 46.3876278,84.3368178 C57.5296056,85.7599733 67.7964611,78.6883844 70.69425,68.1623178 L70.6427722,68.1541178 C71.0473056,66.7264067 71.4431833,64.7638733 71.2582278,63.0250178" id="Fill-10" fill="#F2F8F9"></path>
                <path d="M52.7757467,39.7107322 C42.2228022,38.1149211 32.2930578,44.2034211 28.64178,53.7855767 L28.5875689,53.7819322 C28.5875689,53.7819322 28.5037467,54.0529878 28.3761911,54.50171 C28.2887244,54.7736767 28.1921467,55.0451878 28.1151578,55.3166989 L28.1625356,55.3294544 C27.7493467,56.99451 27.2013133,59.6749989 27.37898,61.7113322 L27.4459467,61.7236322 C27.8755356,69.0548878 33.3672578,75.34201 40.9217356,76.4840878 C49.1923467,77.7345878 56.9404356,72.3581211 58.7681244,64.3325989 L58.5786133,64.3029878 C56.9992022,69.5778656 51.7525689,73.0264211 46.1510578,72.1781767 C40.5468133,71.3267433 36.5584244,66.4841878 36.6007911,60.9783433 L36.5292689,60.9701433 C36.5292689,59.8754433 36.6937244,58.4199433 37.2786578,56.7043211 L37.3128244,56.7084211 C40.0539022,48.8696767 48.06758,43.83351 56.5782689,45.1218211 C65.4210578,46.4588767 71.7213911,54.1440989 71.5696911,62.8415656 L71.69998,62.8625211 C72.2894689,51.5560878 64.2124689,41.43501 52.7757467,39.7107322" id="Fill-12" fill="#F2F8F9"></path>
            </g>
        </g>
    </g>
</svg>