<?xml version="1.0" encoding="UTF-8"?>
<svg width="53px" height="66px" viewBox="0 0 53 66" version="1.1" xmlns="http://www.w3.org/2000/svg" xmlns:xlink="http://www.w3.org/1999/xlink">
    <!-- Generator: Sketch 53.2 (72643) - https://sketchapp.com -->
    <title>Group 8</title>
    <desc>Created with Sketch.</desc>
    <defs>
        <polygon id="path-1" points="0.000188351534 0.106577778 52.8976147 0.106577778 52.8976147 65.7555556 0.000188351534 65.7555556"></polygon>
    </defs>
    <g id="Page-1" stroke="none" stroke-width="1" fill="none" fill-rule="evenodd">
        <g id="Cloud-Server-Windows" transform="translate(-771.000000, -582.000000)">
            <g id="Group-8" transform="translate(771.000000, 582.000000)">
                <g id="Group-3" transform="translate(0.000000, 0.137867)">
                    <mask id="mask-2" fill="white">
                        <use xlink:href="#path-1"></use>
                    </mask>
                    <g id="Clip-2"></g>
                    <path d="M46.5432323,38.3123889 C44.8609097,43.3921889 42.4763982,48.4519444 39.1322691,52.8245667 C35.8885226,57.0647 31.7525687,60.6573 26.4403567,63.0623889 C24.2842092,61.9912333 21.8205641,60.5358111 19.3092922,58.4893222 C15.244412,55.1739222 11.0508175,50.3199889 7.84785899,42.9881222 C4.64783134,35.6565 2.44283594,25.8325222 2.44234747,12.5948778 C2.44234747,12.2695222 2.44845346,11.9353667 2.45114009,11.6058556 C4.10781751,11.4875444 7.35571613,11.1714778 11.1135871,10.3606556 C13.8261124,9.77496667 16.8043705,8.93212222 19.6497622,7.70427778 C22.1280618,6.63336667 24.5101309,5.27058889 26.5143613,3.50594444 C27.9802876,4.80223333 29.6645641,5.91396667 31.473647,6.86338889 C34.737177,8.57376667 38.4015041,9.76787778 41.9322323,10.5435 C44.9798544,11.2120556 47.9229419,11.5672333 50.4356793,11.6525444 C50.4469143,12.0629667 50.4554627,12.5591889 50.4554627,13.1421889 C50.4576608,17.9308556 49.9117853,28.1545 46.5432323,38.3123889 M52.8714811,11.3961222 C52.8563382,10.9270333 52.8370433,10.5816333 52.8170157,10.3472111 L52.7212737,9.22936667 L51.6002138,9.22936667 C49.9117853,9.22936667 47.90267,9.08123333 45.7567806,8.76272222 C42.5374581,8.28556667 39.0069742,7.42487778 35.7507714,6.1325 C32.492859,4.84281111 29.5165548,3.11703333 27.3762829,0.970811111 L26.5126516,0.106455556 L25.6492645,0.970811111 C23.7866931,2.83738889 21.3320848,4.31725556 18.6825733,5.45978889 C14.7095272,7.17627778 10.315412,8.13083333 6.93025069,8.64221111 C5.23742581,8.89863333 3.79616774,9.04603333 2.78257327,9.1289 C2.27602028,9.17045556 1.87595576,9.19587778 1.60509401,9.21078889 C1.46954101,9.21836667 1.36622765,9.22325556 1.29808479,9.22618889 C1.26389124,9.22765556 1.23849032,9.22863333 1.22212627,9.22912222 L1.20454101,9.22985556 L1.20087742,9.22985556 L0.039762212,9.2675 L0.0192460829,10.4300778 C0.00605714286,11.1609667 -4.88479263e-05,11.8828111 0.000195391705,12.5948778 C-4.88479263e-05,21.5999667 1.00035668,29.1217667 2.66289585,35.4162111 C5.15462857,44.8573889 9.14599263,51.5356111 13.4333751,56.2675667 C17.7185594,61.0014778 22.2882829,63.7854556 25.8920387,65.5146556 L26.3934627,65.7556778 L26.9041677,65.5349444 C32.8848636,62.9526333 37.5195548,58.9596333 41.0722645,54.3100556 C43.7386286,50.8223222 45.8039189,46.9647444 47.4073521,43.0313889 C49.811647,37.1297667 51.1789005,31.0541 51.9514304,25.7557667 C52.7229834,20.4569444 52.8976147,15.9364333 52.8976147,13.1421889 C52.8976147,12.4501667 52.8868682,11.8639889 52.8714811,11.3961222" id="Fill-1" fill="#FC4649" mask="url(#mask-2)"></path>
                </g>
                <path d="M38.204012,33.8182289 C38.204012,29.5942289 35.0704175,25.9290289 30.7735097,25.3797622 C26.3239521,24.8094733 22.237823,27.7863178 21.3548968,32.1156733 L21.4565005,32.1293622 C22.2419751,29.2788956 25.0101871,27.3661178 28.0241041,27.7525844 C31.0382654,28.1390511 33.2369106,30.6888511 33.2796525,33.6432067 C33.2796525,33.6432067 33.3951779,35.1910289 32.5032147,37.01214 C32.4692654,37.0810733 32.4509475,37.1468289 32.4328737,37.2111178 C30.6924221,40.7259844 26.8725143,42.9210956 22.7658691,42.3952956 C18.011012,41.7880956 14.5386571,37.7405844 14.5142332,33.0736511 L14.4460903,33.0648511 C14.2680396,39.1361178 18.7222378,44.4642733 24.8702378,45.2538289 C30.8438507,46.0174733 36.348035,42.2232067 37.9016433,36.5748289 L37.8740442,36.5706733 C38.090929,35.80434 38.3031733,34.7515178 38.204012,33.8182289" id="Fill-4" fill="#FC4649"></path>
                <path d="M28.2949171,21.3081244 C22.637106,20.4518356 17.313659,23.71908 15.3558341,28.86048 L15.3267696,28.8585244 C15.3267696,28.8585244 15.2818295,29.0039689 15.2136866,29.2449911 C15.1665484,29.39068 15.1147696,29.5363689 15.0737373,29.6820578 L15.098894,29.6889022 C14.8773687,30.5823467 14.5835484,32.0206578 14.6788018,33.1133244 L14.7149493,33.1201689 C14.9452673,37.0537689 17.8893318,40.4275911 21.9395576,41.0401689 C26.3737281,41.7114133 30.5277558,38.8262356 31.5076452,34.5198578 L31.4060415,34.5042133 C30.5592627,37.3343911 27.7463548,39.1848356 24.7434286,38.72968 C21.7385484,38.2728133 19.6004747,35.6743689 19.6229447,32.7200133 L19.5845991,32.7156133 C19.5845991,32.1282133 19.6727696,31.3474578 19.9863733,30.42688 L20.0046912,30.42908 C21.4745253,26.22268 25.7707005,23.5203467 30.3338295,24.2116356 C35.074765,24.92908 38.4523548,29.0528578 38.371023,33.7200356 L38.4408756,33.73128 C38.7571659,27.6644133 34.426553,22.2335911 28.2949171,21.3081244" id="Fill-6" fill="#FC4649"></path>
            </g>
        </g>
    </g>
</svg>