<?xml version="1.0" encoding="UTF-8"?>
<svg width="129px" height="90px" viewBox="0 0 129 90" version="1.1" xmlns="http://www.w3.org/2000/svg" xmlns:xlink="http://www.w3.org/1999/xlink">
    <!-- Generator: Sketch 53.2 (72643) - https://sketchapp.com -->
    <title>Group 32</title>
    <desc>Created with Sketch.</desc>
    <defs>
        <polygon id="path-1" points="0.492435754 0.240938547 61.8533296 0.240938547 61.8533296 21.6201117 0.492435754 21.6201117"></polygon>
    </defs>
    <g id="Page-1" stroke="none" stroke-width="1" fill="none" fill-rule="evenodd">
        <g id="Cloud-Server-Windows" transform="translate(-1143.000000, -3910.000000)">
            <g id="Group-32" transform="translate(1143.000000, 3910.000000)">
                <polygon id="Fill-1" fill="#FFEBB7" points="39.7678827 84.489486 45.5047542 81.6894302 47.3776592 73.1660782 81.8863743 73.1660782 83.7452011 81.626581 89.6112905 84.489486"></polygon>
                <g id="Group-31" transform="translate(0.000000, 0.020112)">
                    <path d="M122.475419,5.51021229 L6.23916201,5.51021229 C5.57094972,5.51021229 5.02793296,6.05373184 5.02793296,6.72194413 L5.02793296,51.9114972 L29.2751397,43.8527263 L21.2294413,68.1180335 L122.475419,68.1180335 C123.143631,68.1180335 123.687151,67.574514 123.687151,66.9068045 L123.687151,6.72194413 C123.687151,6.05373184 123.143631,5.51021229 122.475419,5.51021229" id="Fill-2" fill="#FFEBB7"></path>
                    <path d="M80.5280279,71.0923073 C80.8437821,71.7077263 80.1931676,81.4407989 80.1931676,81.4407989 L84.2124972,83.277 L62.4179162,84.4691229 L76.1854022,87.1701285 L89.3611006,85.9684525 L91.9851788,85.0443184 L90.1374134,81.9858268 L84.5936145,79.1309665 C84.5936145,79.1309665 82.9303743,75.0653799 82.9303743,74.4187877 C82.9303743,73.7716927 81.7292011,70.1998492 81.7292011,70.1998492 L80.5280279,71.0923073 Z" id="Fill-4" fill="#D4C499"></path>
                    <path d="M5.28184358,50.0294916 C5.28184358,50.0294916 6.43122905,12.0977598 11.3646369,10.0322849 C15.4618994,8.31725698 45.8864246,5.74748045 75.6794413,5.74748045 C37.2197765,3.35167039 11.3646369,2.44915642 11.3646369,2.44915642 L3.45418994,4.97720112 C3.45418994,4.97720112 2.19067039,19.0604413 1.82916201,20.5049665 C1.46815642,21.9494916 1.82916201,48.2807765 1.82916201,48.2807765 L5.28184358,50.0294916 Z" id="Fill-6" fill="#FFFFFF"></path>
                    <path d="M123.274307,21.4037095 C123.274307,21.4037095 122.074642,61.0011955 116.925034,63.1571732 C112.647268,64.9476201 80.8863184,67.6305251 49.7855363,67.6305251 C89.9340838,70.131419 116.925034,71.0736536 116.925034,71.0736536 L125.182408,68.4349944 C125.182408,68.4349944 126.501737,53.7328156 126.878832,52.2249385 C127.255927,50.7165587 126.878832,23.229352 126.878832,23.229352 L123.274307,21.4037095 Z" id="Fill-8" fill="#D4C499"></path>
                    <g id="Group-12" transform="translate(33.184358, 67.877095)">
                        <mask id="mask-2" fill="white">
                            <use xlink:href="#path-1"></use>
                        </mask>
                        <g id="Clip-11"></g>
                        <path d="M11.7047263,16.5922793 L6.58327374,16.5922793 L12.320648,13.7922235 L13.6977989,7.52490503 L14.1930503,5.26887151 L48.7017654,5.26887151 L49.1834413,7.46205587 L50.5605922,13.7293743 L51.8924916,14.379486 L56.4266816,16.5922793 L11.7047263,16.5922793 Z M56.8253966,11.1922793 L54.9499777,10.2761899 L53.8493631,5.26887151 L53.0991955,1.85490503 C52.8920447,0.912670391 52.0574078,0.240938547 51.0920447,0.240938547 L47.5966257,0.240938547 L15.2981899,0.240938547 L11.8027709,0.240938547 C10.8374078,0.240938547 10.0027709,0.912670391 9.79562011,1.85490503 L9.04545251,5.26887151 L7.93126257,10.3395419 L5.52036872,11.5160782 L1.64634637,13.4070838 C0.940424581,13.752 0.492435754,14.4679777 0.492435754,15.2538436 L0.492435754,16.5922793 L0.492435754,19.5652961 C0.492435754,20.7001006 1.41254749,21.6202123 2.54735196,21.6202123 L5.45148603,21.6202123 L5.52036872,21.6202123 L10.6000894,21.6202123 L56.8253966,21.6202123 L59.7984134,21.6202123 C60.9337207,21.6202123 61.8533296,20.7001006 61.8533296,19.5652961 L61.8533296,19.2414972 L61.8533296,16.5922793 L61.8533296,14.9295419 C61.8533296,14.1441788 61.4063464,13.4276983 60.6999218,13.0832849 L56.8253966,11.1922793 Z" id="Fill-10" fill="#000000" mask="url(#mask-2)"></path>
                    </g>
                    <path d="M122.475419,0.482782123 L6.23916201,0.482782123 C2.79351955,0.482782123 0,3.27630168 0,6.72194413 L0,53.5827821 L5.02793296,51.9114972 L5.02793296,6.72194413 C5.02793296,6.05373184 5.57094972,5.51021229 6.23916201,5.51021229 L122.475419,5.51021229 C123.143631,5.51021229 123.687151,6.05373184 123.687151,6.72194413 L123.687151,66.9068045 C123.687151,67.574514 123.143631,68.1185363 122.475419,68.1185363 L21.2294413,68.1185363 L19.5621788,73.1464693 L122.475419,73.1464693 C125.921564,73.1464693 128.715084,70.3529497 128.715084,66.9068045 L128.715084,6.72194413 C128.715084,3.27630168 125.921564,0.482782123 122.475419,0.482782123" id="Fill-13" fill="#000000"></path>
                    <polygon id="Fill-15" fill="#EA2127" points="0.000100558659 58.8809162 21.3471955 51.786 14.2648492 73.1461676"></polygon>
                    <polygon id="Fill-17" fill="#000000" points="5.02803352 46.6130615 5.02803352 51.9114972 29.2752402 43.8527263 21.2295419 68.1180335 26.5264693 68.1180335 37.2022793 35.9191508"></polygon>
                    <path d="M64.827,44.4035363 C54.4704637,49.5259944 44.1973911,39.2534246 49.3198492,28.8963855 C50.2490112,27.0179497 51.779514,25.4874469 53.6584525,24.5577821 C64.0154916,19.4358268 74.2880615,29.7088994 69.1651006,40.0654358 C68.2359385,41.9438715 66.7054358,43.4738715 64.827,44.4035363 M78.7171676,36.7771676 L78.7171676,32.142419 C78.7171676,31.9091229 78.5602961,31.7049888 78.3350447,31.6451564 L74.1809665,30.5375028 C73.8325307,29.2146536 73.3111341,27.9632011 72.6459385,26.8042626 L74.8758268,22.9242067 C74.9919721,22.7225866 74.9577821,22.4681732 74.7933687,22.3037598 L71.4970559,19.0069441 C71.3326425,18.8430335 71.0797374,18.8088436 70.8776145,18.9234804 L67.0081173,21.1287318 C65.8532011,20.4554916 64.6042626,19.9275587 63.2839274,19.5705754 L62.0571117,15.3008547 C61.9937598,15.0801285 61.7921397,14.9277821 61.5623631,14.9277821 L56.9225866,14.9277821 C56.6928101,14.9277821 56.4911899,15.0801285 56.427838,15.3008547 L55.2010223,19.5705754 C53.8811899,19.9275587 52.6322514,20.4554916 51.4773352,21.1287318 L47.6073352,18.9234804 C47.4062179,18.8088436 47.1528101,18.8430335 46.9883966,19.0069441 L43.691581,22.3037598 C43.5271676,22.4681732 43.4929777,22.7225866 43.6096257,22.9242067 L45.8390112,26.8042626 C45.1738156,27.9632011 44.6529218,29.2146536 44.3049888,30.5375028 L40.149905,31.6451564 C39.9246536,31.7049888 39.7677821,31.9091229 39.7677821,32.142419 L39.7677821,36.7771676 C39.7677821,37.0054358 39.9186201,37.2070559 40.137838,37.2709106 L44.3266089,38.5002402 C44.6629777,39.7542067 45.1547095,40.9443184 45.7781732,42.0509665 L43.6488436,45.939067 C43.5397374,46.1381732 43.5739274,46.3855475 43.7343184,46.5479497 L47.0406872,49.899067 C47.204095,50.0649888 47.4590112,50.1001844 47.6616369,49.9850447 L51.460743,47.8235363 C52.6292346,48.5068324 53.8952682,49.0418045 55.2337039,49.4002961 L55.7068324,51.0856592 L56.4826425,54.0335363 L56.534933,54.0335363 L61.9500168,54.0335363 L62.0023073,54.0335363 L62.7781173,51.0856592 L63.2512458,49.4002961 C64.5896816,49.0418045 65.8557151,48.5068324 67.0247095,47.8235363 L70.8238156,49.9850447 C71.0259385,50.1001844 71.2808547,50.0649888 71.4447654,49.899067 L74.7511341,46.5479497 C74.9110223,46.3855475 74.9457151,46.1381732 74.8361061,45.939067 L72.7072793,42.0509665 C73.330743,40.9443184 73.8219721,39.7542067 74.1593464,38.5002402 L78.3476145,37.2709106 C78.5668324,37.2070559 78.7171676,37.0054358 78.7171676,36.7771676" id="Fill-19" fill="#000000"></path>
                    <path d="M63.1919665,40.5147318 C56.3776089,44.3334469 49.3907933,37.3466313 53.2090056,30.5317709 C53.6967151,29.6604302 54.4227486,28.9348994 55.2935866,28.4466872 C62.1084469,24.6284749 69.0947598,31.6157933 65.2765475,38.4301508 C64.7883352,39.3009888 64.0628045,40.0265196 63.1919665,40.5147318" id="Fill-21" fill="#000000"></path>
                    <path d="M118.21495,21.9668883 L83.1516536,21.9668883 C82.3874078,21.9668883 81.7684693,21.3479497 81.7684693,20.5837039 L81.7684693,18.3221397 C81.7684693,17.5583966 82.3874078,16.9389553 83.1516536,16.9389553 L118.21495,16.9389553 C118.978693,16.9389553 119.598134,17.5583966 119.598134,18.3221397 L119.598134,20.5837039 C119.598134,21.3479497 118.978693,21.9668883 118.21495,21.9668883" id="Fill-23" fill="#000000"></path>
                    <path d="M118.21495,31.5646089 L83.1516536,31.5646089 C82.3874078,31.5646089 81.7684693,30.9456704 81.7684693,30.1814246 L81.7684693,27.9198603 C81.7684693,27.1556145 82.3874078,26.536676 83.1516536,26.536676 L118.21495,26.536676 C118.978693,26.536676 119.598134,27.1556145 119.598134,27.9198603 L119.598134,30.1814246 C119.598134,30.9456704 118.978693,31.5646089 118.21495,31.5646089" id="Fill-25" fill="#000000"></path>
                    <path d="M118.21495,41.1623799 L83.1516536,41.1623799 C82.3874078,41.1623799 81.7684693,40.5434413 81.7684693,39.7791955 L81.7684693,37.5176313 C81.7684693,36.7533855 82.3874078,36.1344469 83.1516536,36.1344469 L118.21495,36.1344469 C118.978693,36.1344469 119.598134,36.7533855 119.598134,37.5176313 L119.598134,39.7791955 C119.598134,40.5434413 118.978693,41.1623799 118.21495,41.1623799" id="Fill-27" fill="#000000"></path>
                    <path d="M118.21495,50.7601508 L83.1516536,50.7601508 C82.3874078,50.7601508 81.7684693,50.1412123 81.7684693,49.3769665 L81.7684693,47.1154022 C81.7684693,46.3511564 82.3874078,45.7322179 83.1516536,45.7322179 L118.21495,45.7322179 C118.978693,45.7322179 119.598134,46.3511564 119.598134,47.1154022 L119.598134,49.3769665 C119.598134,50.1412123 118.978693,50.7601508 118.21495,50.7601508" id="Fill-29" fill="#000000"></path>
                </g>
            </g>
        </g>
    </g>
</svg>