<?xml version="1.0" encoding="utf-8"?><svg version="1.1" id="Layer_1" xmlns="http://www.w3.org/2000/svg" xmlns:xlink="http://www.w3.org/1999/xlink" x="0px" y="0px" viewBox="0 0 426.7 426.7" style="enable-background:new 0 0 426.7 426.7;" xml:space="preserve"><style type="text/css">.st0{fill:#F05228}</style><path class="st0" d="M213.3,0C95.5,0,0,95.5,0,213.3s95.5,213.3,213.3,213.3c117.8,0,213.3-95.5,213.3-213.3S331.2,0,213.3,0z M322.2,294.6l-27.6,27.6c-0.9,0.9-2,1.3-3.2,1.3c-1.2,0-2.4-0.5-3.2-1.3l-74.8-74.8l-74.8,74.8c-0.9,0.9-2,1.3-3.2,1.3 s-2.4-0.5-3.2-1.3l-27.6-27.6c-1.8-1.8-1.8-4.7,0-6.5l74.8-74.8l-74.8-74.8c-1.8-1.8-1.8-4.7,0-6.5l27.6-27.6c1.7-1.7,4.8-1.7,6.5,0 l74.8,74.8l74.8-74.8c0.9-0.9,2-1.3,3.2-1.3c1.2,0,2.4,0.5,3.2,1.3l27.6,27.6c1.8,1.8,1.8,4.7,0,6.5l-74.8,74.8l74.8,74.8 C324,289.9,324,292.8,322.2,294.6z"/> </svg>