<?xml version="1.0" encoding="UTF-8"?>
<svg width="226px" height="90px" viewBox="0 0 226 90" version="1.1" xmlns="http://www.w3.org/2000/svg" xmlns:xlink="http://www.w3.org/1999/xlink">
    <!-- Generator: Sketch 61.2 (89653) - https://sketch.com -->
    <title>ceph-ar21</title>
    <desc>Created with Sketch.</desc>
    <g id="Page-1" stroke="none" stroke-width="1" fill="none" fill-rule="evenodd">
        <g id="Cloud-Server_color" transform="translate(-462.000000, -182.000000)" fill="#FFFFFF" fill-rule="nonzero">
            <g id="Group-2">
                <g id="Group" transform="translate(463.000000, 182.000000)">
                    <g id="ceph-ar21">
                        <path d="M75.3608193,81.4101044 C72.0723602,79.6705845 70.165054,77.7115925 69.7457754,75.5778356 C69.3429392,73.5152039 70.2719289,71.2229394 72.5923478,68.5669201 C78.1354567,62.2794498 81.1875578,54.1996237 81.1875578,45.8210716 C81.1615176,26.6882467 65.4811947,11.184446 46.1305286,11.158699 L45.9763821,11.1607311 L45.818125,11.158699 C26.4682616,11.1855651 10.7891888,26.6890388 10.7631512,45.8210716 C10.7558281,54.1815491 13.8097372,62.2620209 19.3604164,68.5689522 C21.6972777,71.2432609 22.6077698,73.4461108 22.2378181,75.4863888 C21.8349819,77.6140493 19.9420626,79.6014914 16.6063319,81.404008 C11.4681146,77.1872979 6.94648338,71.5562119 4.1759566,65.9068365 C2.66239023,62.8371056 1.50078488,59.6096383 0.712798133,56.284609 C-0.0956813131,52.8535565 -0.502558721,49.3419813 -0.499911234,45.8190395 C-0.512074637,39.6914541 0.725919697,33.6243863 3.14009199,27.9808319 C5.47695323,22.5265428 8.81679449,17.6249984 13.0732937,13.4204813 C17.2951099,9.23745339 22.2966823,5.90288327 27.8014798,3.60113527 C33.5083394,1.21317654 39.6438758,-0.0115900679 45.8407332,8.26558031e-05 L46.1551921,8.26558031e-05 C52.3526855,-0.0113061447 58.4888368,1.21344367 64.1965007,3.60113527 C69.7128908,5.90965701 74.6702429,9.20986767 78.9246869,13.4204813 C83.1559274,17.5935127 86.5285646,22.5382369 88.8558333,27.9808319 C91.2714154,33.6240966 92.5108101,39.6911753 92.499929,45.8190395 C92.499929,49.3509152 92.0887996,52.870598 91.2666848,56.284609 C90.4798663,59.6102524 89.3174991,62.837921 87.8014711,65.9068365 C85.0103914,71.5562119 80.4908155,77.1913622 75.3669852,81.4080723 M58.2402792,89.9837428 C57.701794,89.6484382 55.8623122,88.2970588 54.0680468,85.838158 C52.3477716,83.4910254 50.323314,79.595395 50.4301889,74.3808996 C50.4908008,71.2634624 51.1332347,68.1839059 52.3251634,65.2971917 C53.5183026,62.4216775 55.2269588,59.7829039 57.3688376,57.5079629 L57.3811693,57.4876414 L57.8579958,56.9389611 C58.6739448,56.0041724 59.5186677,55.0348371 60.1907465,53.904962 C61.0210824,52.5149718 61.6232815,51.0518242 61.9829567,49.5561622 C62.5360954,47.2296851 62.5669634,44.8116293 62.0733893,42.4720894 C61.6171156,40.3342682 60.6963471,38.2655401 59.4138481,36.4772486 C58.1561755,34.7332616 56.5639565,33.2508008 54.7277939,32.1142238 C52.807655,30.9338516 50.6603901,30.1608745 48.4221736,29.8443129 C47.6576272,29.736596 46.8863554,29.6822709 46.1140863,29.6817409 L45.7811299,29.6817409 C45.0102595,29.6811778 44.2403247,29.7348264 43.4771532,29.8422807 C41.2390828,30.1594184 39.0919345,30.9323535 37.1715329,32.1121916 C35.3346305,33.2485568 33.7416987,34.7310309 32.4834234,36.4752164 C31.1961995,38.2749704 30.2920953,40.3144771 29.8259375,42.4700572 C29.3317011,44.8096176 29.3632744,47.2279636 29.9184254,49.5541301 C30.2760453,51.0497921 30.8802996,52.5109075 31.706525,53.9029299 C32.3847697,55.0348371 33.2274373,56.0001081 34.0413309,56.9369289 L34.5202128,57.4856093 L34.5304892,57.5059308 C36.6967616,59.8124204 38.3944287,62.4338931 39.5762186,65.2951595 C40.7685572,68.1809614 41.4103415,71.2600556 41.4691379,74.3768353 C41.5760128,79.5913307 39.5515552,83.4869611 37.83128,85.8340937 C36.0349593,88.272673 34.1934222,89.6443739 33.6590476,89.9796785 L30.9727876,89.1810438 C28.3091357,88.2990909 25.7174189,87.1488944 23.2510746,85.8158043 C27.4849656,83.58044 30.1773915,79.1625471 30.1773915,74.3666745 C30.1773915,71.1965214 28.9298324,68.1482973 26.4717092,65.3236096 C26.434714,65.2829666 26.3977189,65.2463879 26.3689448,65.2179378 L25.6331521,64.4213353 L23.6600767,62.1351672 C21.4146388,59.1570656 19.806226,55.7579594 18.9329167,52.1451206 C17.9951259,48.2146333 17.943202,44.1283024 18.7808255,40.1757605 C19.5515581,36.5544703 21.1094656,33.0632376 23.3024567,30.0190777 C25.40296,27.0927826 28.1406022,24.5464993 31.2153114,22.6505039 C34.4702437,20.6505105 38.1094226,19.3399315 41.9028034,18.8016129 C43.1907803,18.6195129 44.49033,18.5291882 45.7914063,18.5312996 L46.1408051,18.5312996 C47.4425383,18.5299252 48.7427181,18.620246 50.0314632,18.8016129 C53.8248441,19.3399315 57.464023,20.6505105 60.7189553,22.6505039 C63.820964,24.5698034 66.5109845,27.0734919 68.6359205,30.0190777 C70.8063035,33.0408839 72.364211,36.5544703 73.1575517,40.1757605 C73.9915273,44.1355722 73.9389143,48.2278706 73.0034052,52.1654421 C72.1288546,55.7785965 70.5190328,59.1777248 68.2721347,62.1554887 C67.6555486,62.9683484 67.006078,63.6735043 66.2990593,64.4416567 L65.5858747,65.21997 C65.5344925,65.2667094 65.4954421,65.301256 65.4625575,65.3500275 C62.9694944,68.2966442 61.7568751,71.2574859 61.7568751,74.386996 C61.7655059,79.1731984 64.4280977,83.5692171 68.6914132,85.8361258 C66.2265661,87.1881094 63.6419131,88.3145403 60.9697003,89.2013653 L58.2978273,90 M45.9743268,55.305113 C40.9245988,55.2961651 36.8332392,51.2508642 36.8241894,46.2579837 C36.8332392,41.2651033 40.9245988,37.2198024 45.9743268,37.2108545 C51.0232523,37.2209202 55.1133628,41.2658947 55.1224089,46.2579837 C55.1133628,51.2500727 51.0232523,55.2950472 45.9743268,55.305113" id="Shape"></path>
                        <path d="M132.982779,50.8883387 C132.982779,57.3011781 132.405031,59.0734164 130.849241,60.6202834 C129.926909,61.5361106 128.484604,62.1651016 125.773319,62.1651016 L116.281758,62.1651016 C113.227951,62.1651016 111.383287,61.6487963 110.091609,60.3928632 C108.075684,58.3891071 107.5,55.9837801 107.5,46.7128223 C107.5,37.4418644 108.077747,35.0344886 110.091609,33.0327813 C111.362653,31.7727506 113.186683,31.2605429 116.281758,31.2605429 L125.736178,31.2605429 C128.558886,31.2605429 129.825803,31.8301178 130.807973,32.8053611 C132.305989,34.292812 132.883736,36.3539355 132.883736,42.1316374 L127.064997,42.1316374 C126.947384,38.1261738 126.718348,37.4193273 126.3717,37.0956121 C126.025052,36.7718969 125.546347,36.5834045 124.240225,36.5834045 L117.034892,36.5834045 C115.248003,36.5834045 114.765171,36.7555062 114.385509,37.157077 C113.807761,37.7307495 113.518888,38.7961414 113.518888,46.7148711 C113.518888,54.6336008 113.807761,55.7010415 114.385509,56.2726652 C114.787868,56.674236 115.25213,56.8463377 117.034892,56.8463377 L124.298,56.8463377 C125.566981,56.8463377 126.146791,56.7316032 126.567721,56.3341301 C126.988651,55.936657 127.203243,54.7872631 127.203243,50.8965341 L133.02611,50.8965341 M143.126369,43.9059245 L157.305936,43.9059245 C157.305936,38.6977975 156.959288,37.5545501 156.443442,37.0382448 C156.092667,36.6960901 155.576821,36.4645723 153.791995,36.4645723 L146.642373,36.4645723 C144.855484,36.4645723 144.372652,36.6366741 143.933152,37.0935633 C143.413179,37.6098685 143.186207,38.6383814 143.107799,43.9038757 L143.126369,43.9059245 Z M143.126369,48.6592112 C143.18827,54.7237494 143.528729,55.9264128 143.99299,56.383302 C144.457251,56.8401912 144.859611,56.9569746 146.642373,56.9569746 L154.689567,56.9569746 C156.016322,56.9569746 156.422808,56.7275055 156.767393,56.383302 C157.16769,55.9817313 157.283239,55.2974219 157.400852,52.5478914 L163.219592,52.5478914 C163.104042,57.3544477 162.641844,59.0734164 161.086054,60.6202834 C160.10801,61.5934779 158.781255,62.1651016 156.014259,62.1651016 L145.903682,62.1651016 C142.849876,62.1651016 141.003148,61.6487963 139.713534,60.3928632 C137.691418,58.3891071 137.121925,55.9837801 137.121925,46.7128223 C137.121925,37.4418644 137.695545,35.0344886 139.713534,33.0327813 C140.982514,31.7727506 142.808608,31.2605429 145.903682,31.2605429 L154.433707,31.2605429 C157.491641,31.2605429 159.447728,31.8301178 160.623856,32.975414 C162.639781,34.9791702 163.215465,37.3844972 163.215465,46.4280348 L163.215465,47.972853 C163.215465,48.4276934 163.044204,48.6592112 162.522168,48.6592112 L143.085101,48.6592112 M186.711206,56.1579307 C186.19536,56.6701383 185.440162,56.9016561 183.54185,56.9016561 L179.043675,56.9016561 C177.199011,56.9016561 175.597826,56.3853509 173.394133,55.2728359 L172.991773,55.0720505 L172.991773,38.2368107 C175.298635,37.0935633 176.9122,36.5198907 178.814639,36.5198907 L183.56042,36.5198907 C185.458732,36.5198907 186.211867,36.7493597 186.729776,37.2636162 C187.596397,38.124125 187.823369,39.77958 187.823369,46.6882363 C187.823369,53.5968926 187.59227,55.2933242 186.729776,56.1128564 L186.711206,56.1579307 Z M184.977964,31.199078 L180.77279,31.199078 C178.177054,31.199078 176.910137,31.7727506 172.98971,34.9791702 L172.98971,31.2605429 L166.999709,31.2605429 L166.999709,69 L172.993836,69 L172.993836,58.5202322 C176.914264,61.6672358 178.181181,62.2388595 180.776917,62.2388595 L184.982091,62.2388595 C188.328898,62.2388595 190.000238,61.665187 191.32493,60.3539355 C192.975636,58.7148711 193.800989,56.3464231 193.800989,46.7292129 C193.800989,37.1120027 192.992143,34.764043 191.32493,33.1044904 C190.000238,31.7891412 188.328898,31.2134198 184.982091,31.2134198 M222.628512,32.9918047 C221.473017,31.8444596 219.977065,31.2154687 217.267843,31.2154687 L212.369372,31.2154687 C209.7757,31.2154687 208.506719,31.7891412 204.586292,34.9955609 L204.586292,23.2147857 C202.723367,22.1895518 200.718119,21.4432322 198.635495,21 C198.621052,21 198.608671,21.0102442 198.594228,21.0143418 L198.594228,62.1671504 L204.588355,62.1671504 L204.588355,38.2368107 L205.832575,37.652894 C207.514232,36.903022 208.869875,36.5219396 210.413285,36.5219396 L214.449262,36.5219396 C216.46725,36.5219396 217.042934,36.7514086 217.676393,37.3824484 C218.25414,37.9561209 218.501746,38.8678504 218.501746,40.3573502 L218.501746,62.1671504 L224.5,62.1671504 L224.5,39.9578282 C224.5,35.6634796 223.864478,34.1760287 222.653272,32.975414" id="Shape"></path>
                    </g>
                </g>
            </g>
        </g>
    </g>
</svg>