<?xml version="1.0" encoding="UTF-8"?>
<svg width="31px" height="24px" viewBox="0 0 31 24" version="1.1" xmlns="http://www.w3.org/2000/svg" xmlns:xlink="http://www.w3.org/1999/xlink">
    <!-- Generator: Sketch 53.2 (72643) - https://sketchapp.com -->
    <title>check-mark_Green-01 Copy 3</title>
    <desc>Created with Sketch.</desc>
    <g id="Page-1" stroke="none" stroke-width="1" fill="none" fill-rule="evenodd">
        <g id="WordpressHosting_New_1-Expand" transform="translate(-570.000000, -2677.000000)" fill="#6AC259" fill-rule="nonzero">
            <g id="Group-50-Copy" transform="translate(72.000000, 2677.000000)">
                <g id="check-mark_Green-01-Copy-3" transform="translate(498.000000, 0.000000)">
                    <path d="M13.95,22.8342857 C12.5347826,24.2742857 10.3108696,24.2742857 8.89565217,22.8342857 L1.07826087,14.88 C-0.336956522,13.44 -0.336956522,11.1771429 1.07826087,9.73714286 C2.49347826,8.29714286 4.7173913,8.29714286 6.1326087,9.73714286 L10.7826087,14.4685714 C11.1195652,14.8114286 11.726087,14.8114286 12.0630435,14.4685714 L24.6652174,1.64571429 C26.0804348,0.205714286 28.3043478,0.205714286 29.7195652,1.64571429 C30.3934783,2.33142857 30.7978261,3.22285714 30.7978261,4.25142857 C30.7978261,5.28 30.3934783,6.17142857 29.7195652,6.85714286 L13.95,22.8342857 Z" id="Path"></path>
                </g>
            </g>
        </g>
    </g>
</svg>