<svg id="Layer_1" data-name="Layer 1" xmlns="http://www.w3.org/2000/svg" viewBox="0 0 30 30"><defs><style>.cls-1{fill:#f55b00;}.cls-2{fill:#fff;}</style></defs><title>CLOUD SERVER LINUX</title><circle class="cls-1" cx="15" cy="15" r="14.5"/><path class="cls-2" d="M15,30A15,15,0,1,1,30,15,15,15,0,0,1,15,30ZM15,1A14,14,0,1,0,29,15,14,14,0,0,0,15,1Z"/><path class="cls-2" d="M17.14,13c2.09-.52,3.19-1.76,3.19-3a2.15,2.15,0,0,0-.18-.91,1.77,1.77,0,0,0-1.67-1.05c-1.69,0-2.89,2-3.48,3.19-.59-1.23-1.79-3.18-3.48-3.18A1.83,1.83,0,0,0,9.67,10c0,1.45,1,2.53,2.88,3H6.78v4.11h.51v4.78H22.71V17.13h.51V13Zm1-3.38a.69.69,0,0,1,.67.34.54.54,0,0,1,0,.46,4.49,4.49,0,0,1-3.32,1.8C15.92,11.39,17.19,9.64,18.17,9.64Zm-7.05.52c0-.3.3-.52.71-.52,1,0,2.26,1.75,2.69,2.6a6.54,6.54,0,0,1-2.71-1.15A1.24,1.24,0,0,1,11.12,10.16Zm5,9.91h-2.4V13.66h2.4Z"/></svg>