<svg width="53" height="52" viewBox="0 0 53 52" fill="none" xmlns="http://www.w3.org/2000/svg">
<path fill-rule="evenodd" clip-rule="evenodd" d="M48.7975 47.0687C48.7975 47.9658 48.0679 48.6918 47.1707 48.6918H4.97358C4.0764 48.6918 3.35047 47.9658 3.35047 47.0687V37.33C3.35047 36.4366 4.0764 35.7069 4.97358 35.7069H47.1707C48.0679 35.7069 48.7975 36.4366 48.7975 37.33V47.0687ZM48.7975 21.0989V30.8376C48.7975 31.731 48.0679 32.4607 47.1707 32.4607H4.97358C4.0764 32.4607 3.35047 31.731 3.35047 30.8376V21.0989C3.35047 20.2055 4.0764 19.4758 4.97358 19.4758H47.1707C48.0679 19.4758 48.7975 20.2055 48.7975 21.0989ZM3.35047 4.86783C3.35047 3.97438 4.0764 3.24845 4.97358 3.24845H47.1707C48.0679 3.24845 48.7975 3.97438 48.7975 4.86783V14.6065C48.7975 15.5037 48.0679 16.2296 47.1707 16.2296H4.97358C4.0764 16.2296 3.35047 15.5037 3.35047 14.6065V4.86783ZM52.0437 4.86783C52.0437 2.18375 49.8585 -0.00149536 47.1707 -0.00149536H4.97358C2.28949 -0.00149536 0.104248 2.18375 0.104248 4.86783V14.6065C0.104248 15.8536 0.573312 16.989 1.34764 17.8527C0.573312 18.7164 0.104248 19.8518 0.104248 21.0989V30.8376C0.104248 32.0847 0.573312 33.2238 1.34764 34.0838C0.573312 34.9475 0.104248 36.0829 0.104248 37.33V47.0687C0.104248 49.7528 2.28949 51.938 4.97358 51.938H47.1707C49.8585 51.938 52.0437 49.7528 52.0437 47.0687V37.33C52.0437 36.0829 51.5709 34.9475 50.7966 34.0838C51.5709 33.2238 52.0437 32.0847 52.0437 30.8376V21.0989C52.0437 19.8518 51.5709 18.7164 50.7966 17.8527C51.5709 16.989 52.0437 15.8536 52.0437 14.6065V4.86783Z" fill="white"/>
<path fill-rule="evenodd" clip-rule="evenodd" d="M19.114 11.361H41.3536C42.8873 11.361 44.1307 10.6351 44.1307 9.73792C44.1307 8.84074 42.8873 8.11481 41.3536 8.11481H19.114C17.5802 8.11481 16.3331 8.84074 16.3331 9.73792C16.3331 10.6351 17.5802 11.361 19.114 11.361Z" fill="white"/>
<path fill-rule="evenodd" clip-rule="evenodd" d="M9.8418 29.2148C11.6324 29.2148 13.088 27.7593 13.088 25.9686C13.088 24.178 11.6324 22.7224 9.8418 22.7224C8.05489 22.7224 6.59558 24.178 6.59558 25.9686C6.59558 27.7593 8.05489 29.2148 9.8418 29.2148Z" fill="white"/>
<path fill-rule="evenodd" clip-rule="evenodd" d="M9.8418 38.9542C8.05489 38.9542 6.59558 40.4098 6.59558 42.2004C6.59558 43.9911 8.05489 45.4467 9.8418 45.4467C11.6324 45.4467 13.088 43.9911 13.088 42.2004C13.088 40.4098 11.6324 38.9542 9.8418 38.9542Z" fill="white"/>
<path fill-rule="evenodd" clip-rule="evenodd" d="M9.8418 12.9845C11.6324 12.9845 13.088 11.5289 13.088 9.73828C13.088 7.94765 11.6324 6.49207 9.8418 6.49207C8.05489 6.49207 6.59558 7.94765 6.59558 9.73828C6.59558 11.5289 8.05489 12.9845 9.8418 12.9845Z" fill="white"/>
<path fill-rule="evenodd" clip-rule="evenodd" d="M19.114 27.5917H41.3536C42.8873 27.5917 44.1307 26.8658 44.1307 25.9686C44.1307 25.0715 42.8873 24.3455 41.3536 24.3455H19.114C17.5802 24.3455 16.3331 25.0715 16.3331 25.9686C16.3331 26.8658 17.5802 27.5917 19.114 27.5917Z" fill="white"/>
<path fill-rule="evenodd" clip-rule="evenodd" d="M41.3521 40.5777H19.1125C17.5787 40.5777 16.3353 41.3037 16.3353 42.2008C16.3353 43.098 17.5787 43.8239 19.1125 43.8239H41.3521C42.8858 43.8239 44.1292 43.098 44.1292 42.2008C44.1292 41.3037 42.8858 40.5777 41.3521 40.5777Z" fill="white"/>
</svg>
