<?xml version="1.0" encoding="UTF-8"?>
<svg width="53px" height="66px" viewBox="0 0 53 66" version="1.1" xmlns="http://www.w3.org/2000/svg" xmlns:xlink="http://www.w3.org/1999/xlink">
    <!-- Generator: Sketch 53.2 (72643) - https://sketchapp.com -->
    <title>Group 12</title>
    <desc>Created with Sketch.</desc>
    <defs>
        <polygon id="path-1" points="0 -6.34615385e-05 52.9999788 -6.34615385e-05 52.9999788 52.1750519 0 52.1750519"></polygon>
    </defs>
    <g id="Page-1" stroke="none" stroke-width="1" fill="none" fill-rule="evenodd">
        <g id="Cloud-Server-Windows" transform="translate(-1272.000000, -578.000000)">
            <g id="Group-12" transform="translate(1272.000000, 578.000000)">
                <path d="M6.123302,7.00441923 L9.792386,11.1899192 L8.986786,6.09268846 C8.90559,5.55813077 8.85789,5.18920769 8.84411,4.98655385 C8.830542,4.78411154 8.878666,4.56220769 8.989118,4.32105385 C9.09957,4.08053462 9.31369,3.88613077 9.631902,3.73868846 C9.95499,3.58891923 10.244794,3.54978462 10.500254,3.62107308 C10.756138,3.69236154 10.963262,3.80193846 11.122474,3.95022692 C11.281686,4.09830385 11.53227,4.36653462 11.874014,4.75491923 L15.256898,8.65801538 L14.435822,3.15336154 C14.36883,2.7599 14.327914,2.47157308 14.31371,2.28838077 C14.299294,2.1054 14.333426,1.92241923 14.415682,1.73922692 C14.498362,1.55624615 14.669658,1.40478462 14.929358,1.28441923 C15.189058,1.16426538 15.45639,1.14945769 15.731142,1.24105385 C16.005682,1.33265 16.199662,1.49997692 16.312658,1.74324615 C16.416326,1.96557308 16.490526,2.33957308 16.53547,2.86566923 L17.177194,8.87801538 C17.227438,9.38866923 17.256058,9.7614 17.262418,9.99641923 C17.268566,10.2314385 17.215778,10.4683615 17.104478,10.7063423 C16.992754,10.9445346 16.777998,11.1374577 16.459786,11.2846885 C16.130974,11.4372077 15.834174,11.4748615 15.56981,11.3982846 C15.305446,11.3212846 15.072458,11.1846308 14.871694,10.9883231 C14.670294,10.7920154 14.428402,10.5278038 14.144958,10.1961115 L10.939306,6.54855385 L11.703142,11.3276308 C11.817198,11.9886885 11.851118,12.5116115 11.80469,12.8966115 C11.75805,13.2814 11.50153,13.5819962 11.034918,13.7981885 C10.796418,13.9088231 10.57191,13.9562077 10.361606,13.9411885 C10.151726,13.9261692 9.950962,13.8582654 9.759526,13.7376885 C9.56809,13.6175346 9.37517,13.4593038 9.180766,13.2632077 C8.986574,13.0669 8.833298,12.9112077 8.721574,12.7957077 L4.548142,8.41918846 C4.146826,8.01366923 3.902814,7.71815 3.816742,7.53284231 C3.70841,7.30015 3.703746,7.04820769 3.803386,6.77680385 C3.902602,6.50582308 4.087466,6.3074 4.35819,6.18216923 C4.71859,6.01505385 5.01009,6.00405385 5.232266,6.14853462 C5.45423,6.29365 5.751242,6.57859231 6.123302,7.00441923" id="Fill-1" fill="#FC4649"></path>
                <path d="M21.9243404,1.50463077 L23.4942004,6.84026538 L24.9067564,1.87609231 C25.0579124,1.35676538 25.1700604,1.00201538 25.2427764,0.812265385 C25.3154924,0.622515385 25.4526564,0.44165 25.6540564,0.269034615 C25.8554564,0.0966307692 26.1316924,0.0103230769 26.4825524,0.00947692308 C26.8391364,0.00905384615 27.1183404,0.0945153846 27.3203764,0.266284615 C27.5224124,0.438265385 27.6642404,0.624630769 27.7464964,0.825803846 C27.8287524,1.02676538 27.9434444,1.37538077 28.0903604,1.87080385 L29.5190284,6.83032308 L31.0888884,1.48982308 C31.1936164,1.1044 31.2777804,0.825803846 31.3420164,0.653611538 C31.4060404,0.481630769 31.5137364,0.329323077 31.6657404,0.197957692 C31.8175324,0.0663807692 32.0367404,0.000592307692 32.3231524,0.000169230769 C32.6095644,-0.000253846154 32.8582404,0.0985346154 33.0689684,0.296323077 C33.2796964,0.494534615 33.3854844,0.72765 33.3856964,0.995880769 C33.3861204,1.24105385 33.2964444,1.61166923 33.1160324,2.10772692 L31.1694484,7.83386154 C31.0006964,8.31849615 30.8696804,8.66859231 30.7766124,8.88478462 C30.6831204,9.10076538 30.5362044,9.29347692 30.3345924,9.46291923 C30.1331924,9.63257308 29.8571684,9.7174 29.5065204,9.71803462 C29.1437884,9.71866923 28.8586484,9.62876538 28.6508884,9.44811154 C28.4429164,9.26766923 28.2887924,9.04618846 28.1893644,8.78366923 C28.0895124,8.52136154 27.9805444,8.18036154 27.8630964,7.76045769 L26.4874284,3.10724615 L25.1706964,7.76511154 C24.9964324,8.41263077 24.8073284,8.90191923 24.6031724,9.23149615 C24.3990164,9.56149615 24.0396764,9.72691923 23.5253644,9.72776538 C23.2620604,9.72818846 23.0384004,9.67741923 22.8539604,9.57566923 C22.6699444,9.47413077 22.5160324,9.32838077 22.3930724,9.13905385 C22.2699004,8.94951538 22.1611444,8.72528462 22.0672284,8.46572692 C21.9733124,8.20638077 21.8999604,8.00097692 21.8471724,7.84909231 L19.8995284,2.12930385 C19.7057604,1.59284231 19.6086644,1.22265 19.6084524,1.01830385 C19.6078164,0.761707692 19.7097884,0.531130769 19.9143684,0.326573077 C20.1183124,0.122015385 20.3697444,0.0194192308 20.6678164,0.0192076923 C21.0653164,0.0183615385 21.3347684,0.130265385 21.4753244,0.354496154 C21.6158804,0.578938462 21.7655524,0.962457692 21.9243404,1.50463077" id="Fill-3" fill="#FC4649"></path>
                <path d="M38.5533024,3.09303077 L37.7500344,8.59578077 L41.1087504,4.67174231 C41.4630024,4.26220385 41.7127384,3.98678077 41.8585944,3.84441538 C42.0036024,3.70247308 42.2041544,3.5948 42.4594024,3.52203077 C42.7144384,3.44926154 43.0014864,3.48522308 43.3205464,3.63076154 C43.6449064,3.77841538 43.8630544,3.97260769 43.9747784,4.21270385 C44.0869264,4.45322308 44.1380184,4.68147308 44.1286904,4.89851154 C44.1193624,5.11555 44.0778104,5.47981923 44.0044584,5.99153077 L43.2304464,11.0938385 L46.8891424,6.89289615 C47.1450264,6.58637692 47.3381584,6.36806923 47.4685384,6.23797308 C47.5984944,6.1083 47.7600384,6.01501154 47.9529584,5.95874231 C48.1460904,5.90247308 48.3727184,5.93378077 48.6334784,6.05245385 C48.8938144,6.17133846 49.0786784,6.36468462 49.1874344,6.63206923 C49.2964024,6.89987692 49.2949184,7.15583846 49.1831944,7.39974231 C49.0810104,7.62270385 48.8444184,7.92203077 48.4729944,8.29772308 L44.3110104,12.6928577 C43.9548504,13.0628385 43.6896384,13.3268385 43.5145264,13.4842231 C43.3396264,13.6418192 43.1250824,13.7558385 42.8713184,13.8258577 C42.6173424,13.8960885 42.3307184,13.8586462 42.0118704,13.7131077 C41.6819984,13.5627038 41.4604584,13.3621654 41.3470384,13.1117038 C41.2334064,12.8614538 41.1863424,12.5959731 41.2052104,12.3161077 C41.2240784,12.0358192 41.2677504,11.6808577 41.3364384,11.2503769 L42.0305264,6.44845385 L38.8874144,10.1338769 C38.4581144,10.6502423 38.0818144,11.0157808 37.7587264,11.2309154 C37.4352144,11.4456269 37.0391984,11.4466846 36.5713144,11.2332423 C36.3321784,11.1243 36.1500704,10.9851077 36.0249904,10.8156654 C35.8999104,10.6466462 35.8210464,10.4503385 35.7883984,10.2269538 C35.7557504,10.0035692 35.7506624,9.75437692 35.7739824,9.47958846 C35.7968784,9.2048 35.8159584,8.98712692 35.8314344,8.82741538 L36.4517464,2.81824231 C36.4996584,2.25026154 36.5662264,1.87308846 36.6512384,1.68735769 C36.7580864,1.45381923 36.9471904,1.28691538 37.2183384,1.1858 C37.4892744,1.08489615 37.7608464,1.09653077 38.0319944,1.21985769 C38.3936664,1.38485769 38.5914624,1.59872308 38.6255944,1.86103077 C38.6595144,2.12355 38.6353464,2.53393462 38.5533024,3.09303077" id="Fill-5" fill="#FC4649"></path>
                <polygon id="Fill-7" fill="#FC4649" points="22.0862448 65.9873077 26.3355728 57.5257692 30.5925328 65.9873077"></polygon>
                <g id="Group-11" transform="translate(0.000000, 13.102692)">
                    <mask id="mask-2" fill="white">
                        <use xlink:href="#path-1"></use>
                    </mask>
                    <g id="Clip-10"></g>
                    <path d="M33.7240908,49.6788981 L31.5758948,45.4089942 L37.0145428,39.6538788 C37.0145428,39.6538788 37.5610788,39.3105519 38.6058148,36.4865135 C39.6505508,33.6622635 41.8956308,27.4368981 41.8956308,27.4368981 C41.8956308,27.4368981 42.3323508,26.141225 41.8956308,25.4630327 C41.4589108,24.7848404 41.0022628,24.6621481 40.4818028,24.6217442 C39.9615548,24.5809173 30.6890988,24.5745712 30.6890988,24.5745712 C30.6890988,24.5745712 29.9059708,24.7308981 29.7497268,24.249225 C29.5934828,23.7675519 29.2434708,21.5292635 31.2733708,19.9746673 C32.1188268,19.3243981 32.1461748,19.3508404 32.3106868,19.4555519 C32.4749868,19.5602635 32.5574548,19.6795712 32.4671428,20.7013019 C32.3770428,21.7230327 33.0230068,23.4223212 33.9604708,23.525975 C34.8981468,23.6298404 36.2814468,21.873225 37.4436308,20.5900327 C38.3397548,19.6006673 43.4351748,14.0046288 45.7205348,11.4949365 C48.9516268,15.6220519 50.8799788,20.8113019 50.8799788,26.4422442 C50.8799788,37.347475 43.6512028,46.5995327 33.7240908,49.6788981 L33.7240908,49.6788981 Z M26.3322868,34.9860712 L23.1698828,41.2833596 C23.1654308,34.2283404 23.1588588,26.0130327 23.1512268,25.7046096 C23.1226068,24.5724558 22.4062588,23.699225 21.6479348,22.7743788 C21.5249748,22.6243981 21.3971388,22.4687058 21.2686668,22.3075135 C20.5264548,21.3748404 19.6000148,20.4214365 18.3566348,20.4214365 C17.9824548,20.4214365 17.6114548,20.5121865 17.2837028,20.6835327 C15.8418908,21.4374558 16.0150948,23.0726481 16.1041348,23.8085904 L14.2711828,21.7765519 C12.2925868,19.6776673 9.9383268,17.079975 9.5842868,16.5430904 C9.4897348,16.3850712 9.4339788,15.8323212 9.4761668,15.4515519 L9.4931268,15.3184942 L9.4910068,15.1922058 L9.4910068,9.03199423 L9.4910068,9.02374423 C13.8872508,4.75510962 19.8900308,2.11532115 26.4999788,2.11532115 C33.5332908,2.11532115 39.8780268,5.10478269 44.3319348,9.87434038 C42.1443068,12.2765712 36.7870668,18.1600904 35.8708028,19.1714558 C35.7007788,19.3593019 35.5260908,19.5568788 35.3486468,19.7576288 C35.1495788,19.9829173 34.8786428,20.2890135 34.6043148,20.583475 C34.6727908,19.6611673 34.6511668,18.4367827 33.4512468,17.6724942 C33.2983948,17.574975 32.8408988,17.2830519 32.1701308,17.2830519 C31.3000828,17.2830519 30.7170828,17.731725 29.9791108,18.2992827 C27.1993668,20.4282058 27.2939188,23.5488212 27.7327588,24.900975 C28.0957028,26.0193788 29.1219948,26.7140712 30.4111668,26.7140712 C30.5718628,26.7140712 30.7166588,26.7034942 30.8347428,26.6901673 C33.8440828,26.6924942 38.4099268,26.7030712 39.8981668,26.7227442 C39.8954108,26.7328981 39.8928668,26.7419942 39.8903228,26.7498212 C39.7217828,27.2173212 37.6102628,33.0688981 36.6170428,35.7539558 C36.0302268,37.3400712 35.6641028,37.9503596 35.5504708,38.1198019 L30.5638068,43.3970519 L26.3322868,34.9860712 Z M18.9985708,49.5894173 C9.2147708,46.4248019 2.1199788,37.2455135 2.1199788,26.4422442 C2.1199788,20.7577827 4.0845828,15.5228404 7.3712188,11.3768981 L7.3712188,15.2004558 C7.3712188,15.2004558 7.1787228,16.7091481 7.7964908,17.6798981 C8.4142588,18.6510712 12.7269748,23.2258019 12.7269748,23.2258019 L15.3585308,26.1443981 C15.3585308,26.1443981 16.1757908,27.1538596 17.3258908,26.5814365 C18.4759908,26.0085904 18.2650508,24.0605327 18.2304948,23.7368788 C18.1957268,23.4136481 18.0727668,22.6593019 18.2678068,22.5571288 C18.4628468,22.4553788 18.8953268,22.7267827 19.6087068,23.6230712 C20.3220868,24.5193596 21.0191428,25.2559365 21.0318628,25.7577058 C21.0405548,26.1050519 21.0481868,38.1274173 21.0522148,45.5001673 L18.9985708,49.5894173 Z M26.4999788,-6.34615385e-05 C11.8645588,-6.34615385e-05 -2.12e-05,11.838475 -2.12e-05,26.4422442 C-2.12e-05,38.0925135 7.5509948,47.9825712 18.0356668,51.5065904 C18.7134308,51.7344173 19.4039148,51.9347442 20.1049988,52.1082058 L22.8754148,46.5912827 L23.1726388,45.9998212 L26.3339828,39.7046481 L29.0155708,45.0349942 L29.6354588,46.2667827 L32.6074868,52.1750519 C33.3123868,52.0089942 34.0066868,51.8167058 34.6884788,51.5960712 C45.3160388,48.1537058 52.9999788,38.1942635 52.9999788,26.4422442 C52.9999788,11.838475 41.1356108,-6.34615385e-05 26.4999788,-6.34615385e-05 L26.4999788,-6.34615385e-05 Z" id="Fill-9" fill="#FC4649" mask="url(#mask-2)"></path>
                </g>
            </g>
        </g>
    </g>
</svg>