<?xml version="1.0" encoding="UTF-8"?>
<svg width="21px" height="25px" viewBox="0 0 21 25" version="1.1" xmlns="http://www.w3.org/2000/svg" xmlns:xlink="http://www.w3.org/1999/xlink">
    <!-- Generator: Sketch 61.2 (89653) - https://sketch.com -->
    <title>Group 21</title>
    <desc>Created with Sketch.</desc>
    <g id="Page-1" stroke="none" stroke-width="1" fill="none" fill-rule="evenodd">
        <g id="CloudHosting_Op4" transform="translate(-101.000000, -451.000000)">
            <g id="Group-28" transform="translate(73.000000, 443.000000)">
                <g id="Group-26" transform="translate(28.000000, 8.000000)">
                    <g id="Group-21" transform="translate(0.000000, 0.000000)">
                        <path d="M16.904107,9.97903545 C15.4525308,8.67812313 14.8425055,6.70919006 15.1398574,4.78388516 C15.1812823,4.51361722 15.1971714,4.2337171 15.1835522,3.94815098 C15.0831108,1.80017249 13.3103492,0.0641117951 11.1579532,0.0017858564 C8.80751184,-0.0662060768 6.8803996,1.81603727 6.8803996,4.14759398 C6.8803996,4.49718584 6.92409443,4.8365789 7.00524197,5.16067378 C7.47907552,7.04461693 7.01148409,9.03734717 5.67737312,10.4510128 C4.33872243,11.8703444 3.4914967,13.7763849 3.4914967,15.8756359 C3.4914967,20.7104289 5.37604904,23.0408524 8.07264424,23.7751653 C8.69231637,23.4963984 9.59231637,23.3218857 10.5933252,23.3218857 C11.5460995,23.3218857 12.4058094,23.479967 13.0215093,23.7349367 C16.3485585,23.0691824 17.9266796,21.4509744 19.0281297,17.7153842 C19.9071335,14.7322382 18.5440818,11.4482278 16.904107,9.97903545" id="Fill-421" fill="#333333"></path>
                        <path d="M5.2522281,16.8556829 C5.2522281,13.7036902 7.78142104,6.40362298 10.9019128,6.40362298 C14.0218372,6.40362298 16.5510301,13.7405192 16.5510301,16.8556829 C16.5510301,19.9708466 14.0218372,22.4961804 10.9019128,22.4961804 C7.78142104,22.4961804 5.2522281,19.9708466 5.2522281,16.8556829" id="Fill-423" fill="#FFFFFF"></path>
                        <path d="M10.9016859,6.403453 C10.7984072,6.403453 10.6956959,6.41251859 10.5935522,6.42781678 L10.5935522,22.488078 C10.6956959,22.4931774 10.7984072,22.4960104 10.9016859,22.4960104 C14.0216102,22.4960104 16.5508031,19.9706767 16.5508031,16.8555129 C16.5508031,13.7403492 14.0216102,6.403453 10.9016859,6.403453" id="Fill-425" fill="#FFFFFF"></path>
                        <path d="M8.81800994,3.55000155 C9.33213352,3.55000155 9.74865307,4.11433459 9.74865307,4.81125191 C9.74865307,5.50760262 9.33213352,6.07193567 8.81800994,6.07193567 C8.30388636,6.07193567 7.88736682,5.50760262 7.88736682,4.81125191 C7.88736682,4.11433459 8.30388636,3.55000155 8.81800994,3.55000155" id="Fill-427" fill="#E6E6E6"></path>
                        <path d="M8.81800994,4.27983829 C9.07280187,4.27983829 9.27935925,4.64586153 9.27935925,5.09744129 C9.27935925,5.54902104 9.07280187,5.91504428 8.81800994,5.91504428 C8.56321801,5.91504428 8.35666064,5.54902104 8.35666064,5.09744129 C8.35666064,4.64586153 8.56321801,4.27983829 8.81800994,4.27983829" id="Fill-429" fill="#000100"></path>
                        <path d="M12.1310995,3.55000155 C12.6446556,3.55000155 13.0617426,4.11433459 13.0617426,4.81125191 C13.0617426,5.50760262 12.6446556,6.07193567 12.1310995,6.07193567 C11.6169759,6.07193567 11.2004563,5.50760262 11.2004563,4.81125191 C11.2004563,4.11433459 11.6169759,3.55000155 12.1310995,3.55000155" id="Fill-431" fill="#E6E6E6"></path>
                        <path d="M12.1310995,4.27983829 C12.3858914,4.27983829 12.5924488,4.64586153 12.5924488,5.09744129 C12.5924488,5.54902104 12.3858914,5.91504428 12.1310995,5.91504428 C11.8763075,5.91504428 11.6697502,5.54902104 11.6697502,5.09744129 C11.6697502,4.64586153 11.8763075,4.27983829 12.1310995,4.27983829" id="Fill-433" fill="#000100"></path>
                        <path d="M13.3774236,6.96784271 C13.681585,7.61489927 11.3668939,8.84272027 10.5610932,8.84272027 C9.55611209,8.84272027 7.4564904,7.35879632 7.74476278,6.96784271 C8.28215244,6.23806263 9.45623819,5.06010238 10.4197943,5.06010238 C11.1138044,5.06010238 13.1708662,6.52816154 13.3774236,6.96784271" id="Fill-435" fill="#FE9A0F"></path>
                        <path d="M16.8996808,17.0648148 C17.3105257,17.8563542 17.9211184,18.604832 18.7087603,18.7776449 C19.2898447,18.9056964 19.7296304,19.3992045 19.7943214,19.9896011 C19.8034009,20.071758 19.8153176,20.1539149 19.8312067,20.2366384 C19.9310806,20.7698085 20.1586342,21.2480185 20.4752798,21.6452047 C20.9508157,22.2418339 20.6080667,23.1308284 19.8578775,23.2724783 L13.9346745,24.3937786 C12.6448258,24.6374163 11.6744601,23.2407487 12.3548511,22.120015 L15.6251537,17.0002224 C15.9310175,16.5208793 16.6380793,16.5594081 16.8996808,17.0648148" id="Fill-437" fill="#FE9B0E"></path>
                        <path d="M10.5514463,8.47562049 C9.70989519,8.47562049 8.85132016,8.06483589 7.99501499,7.25176569 L8.28328737,6.94976819 C9.13675521,7.76000539 9.97433403,8.12942823 10.7733252,8.04727131 C11.8753429,7.93338482 12.5387098,6.99169654 12.5455194,6.98206435 L12.8894034,7.21890292 C12.8576253,7.26423088 12.1080036,8.32887123 10.8158851,8.4625887 C10.727928,8.47108769 10.6394034,8.47562049 10.5514463,8.47562049" id="Fill-439" fill="#AE4E32"></path>
                        <path d="M17.7054248,16.0815947 C18.7535333,16.0815947 19.6030289,16.9297941 19.6030289,17.9763033 C19.6030289,19.0222459 18.7535333,19.8704452 17.7054248,19.8704452 C16.6578838,19.8704452 15.8083883,19.0222459 15.8083883,17.9763033 C15.8083883,16.9297941 16.6578838,16.0815947 17.7054248,16.0815947" id="Fill-443" fill="#333333"></path>
                        <path d="M4.88399986,15.9001129 C4.88399986,15.9001129 6.91155345,18.3676535 8.35632016,18.9246208 C9.80108687,19.4804548 7.66911965,21.0952632 5.71930881,19.8708418 C3.77006543,18.6464204 4.88399986,15.9001129 4.88399986,15.9001129" id="Fill-445" fill="#333333"></path>
                        <path d="M3.79423945,17.0648148 C3.38339456,17.8563542 2.77280187,18.604832 1.98516001,18.7776449 C1.40407552,18.9056964 0.964857358,19.3992045 0.899598846,19.9896011 C0.890519401,20.071758 0.87860263,20.1539149 0.862713601,20.2366384 C0.762839704,20.7698085 0.535853575,21.2480185 0.218640461,21.6452047 C-0.256895479,22.2418339 0.0858535754,23.1308284 0.83604273,23.2724783 L6.75924576,24.3937786 C8.0496619,24.6374163 9.0200276,23.2407487 8.33906921,22.120015 L5.06876656,17.0002224 C4.76290276,16.5208793 4.05584097,16.5594081 3.79423945,17.0648148" id="Fill-447" fill="#FE9B0E"></path>
                    </g>
                </g>
            </g>
        </g>
    </g>
</svg>