<?xml version="1.0" encoding="UTF-8"?>
<svg width="70px" height="120px" viewBox="0 0 70 120" version="1.1" xmlns="http://www.w3.org/2000/svg" xmlns:xlink="http://www.w3.org/1999/xlink">
    <!-- Generator: Sketch 53.2 (72643) - https://sketchapp.com -->
    <title>Group 46</title>
    <desc>Created with Sketch.</desc>
    <defs>
        <polygon id="path-1" points="0.190405316 0.0922126246 4.17711628 0.0922126246 4.17711628 10.7641196 0.190405316 10.7641196"></polygon>
        <polygon id="path-3" points="0.389740864 0.0922126246 4.37645183 0.0922126246 4.37645183 10.7641196 0.389740864 10.7641196"></polygon>
        <polygon id="path-5" points="0 0.0900996678 69.3364784 0.0900996678 69.3364784 112.888904 0 112.888904"></polygon>
    </defs>
    <g id="Page-1" stroke="none" stroke-width="1" fill="none" fill-rule="evenodd">
        <g id="Cloud-Server-Windows" transform="translate(-1143.000000, -3448.000000)">
            <g id="Group-46" transform="translate(1143.000000, 3448.000000)">
                <g id="Group-3" transform="translate(44.252492, 109.145781)">
                    <mask id="mask-2" fill="white">
                        <use xlink:href="#path-1"></use>
                    </mask>
                    <g id="Clip-2"></g>
                    <path d="M0.190405316,1.93845847 L0.190405316,8.91799336 C0.190405316,9.93739535 0.933528239,10.7642392 1.85007309,10.7642392 L2.5174485,10.7642392 C3.43439203,10.7642392 4.17711628,9.93739535 4.17711628,8.91799336 L4.17711628,1.93845847 C4.17711628,0.918657807 3.43439203,0.0922126246 2.5174485,0.0922126246 L1.85007309,0.0922126246 C0.933528239,0.0922126246 0.190405316,0.918657807 0.190405316,1.93845847" id="Fill-1" fill="#000000" mask="url(#mask-2)"></path>
                </g>
                <g id="Group-6" transform="translate(19.534884, 109.145781)">
                    <mask id="mask-4" fill="white">
                        <use xlink:href="#path-3"></use>
                    </mask>
                    <g id="Clip-5"></g>
                    <path d="M0.389740864,1.93845847 L0.389740864,8.91799336 C0.389740864,9.93739535 1.13286379,10.7642392 2.04940864,10.7642392 L2.71678405,10.7642392 C3.63372757,10.7642392 4.37645183,9.93739535 4.37645183,8.91799336 L4.37645183,1.93845847 C4.37645183,0.918657807 3.63372757,0.0922126246 2.71678405,0.0922126246 L2.04940864,0.0922126246 C1.13286379,0.0922126246 0.389740864,0.918657807 0.389740864,1.93845847" id="Fill-4" fill="#000000" mask="url(#mask-4)"></path>
                </g>
                <path d="M32.1837608,105.037993 L32.1837608,112.01713 C32.1837608,113.036532 32.9268837,113.863375 33.8434286,113.863375 L34.510804,113.863375 C35.4277475,113.863375 36.1704718,113.036532 36.1704718,112.01713 L36.1704718,105.037993 C36.1704718,104.017794 35.4277475,103.191349 34.510804,103.191349 L33.8434286,103.191349 C32.9268837,103.191349 32.1837608,104.017794 32.1837608,105.037993" id="Fill-7" fill="#000000"></path>
                <path d="M11.6389635,72.3177807 C11.6389635,72.3177807 -0.246219269,85.448412 5.6397608,102.767083 C8.24308306,97.4468173 12.4311229,92.0133289 16.2802924,89.2967841 C13.1104585,81.939309 11.5257409,74.2421661 11.6389635,72.3177807" id="Fill-9" fill="#00DCAD"></path>
                <path d="M57.697515,72.3177807 C57.697515,72.3177807 69.5826977,85.448412 63.6967176,102.767083 C61.0933953,97.4468173 56.9049568,92.0133289 53.056186,89.2967841 C56.2260199,81.939309 57.8103389,74.2421661 57.697515,72.3177807" id="Fill-11" fill="#00DCAD"></path>
                <path d="M12.0539801,75.764093 C11.7430166,74.1546578 11.6026844,72.9363189 11.6389635,72.3175814 C11.6389635,72.3175814 -0.24661794,85.4482126 5.6397608,102.766884 C6.12295017,101.779375 6.66155482,100.78788 7.24162126,99.8103389 C4.90500997,88.9401728 9.23218605,80.1028306 12.0539801,75.764093" id="Fill-13" fill="#FFFFFF"></path>
                <path d="M55.6247442,89.837103 C57.9613555,84.4127841 59.4356412,78.8062724 60.0041462,75.4622193 C58.7136478,73.4413555 57.6974352,72.3179003 57.6974352,72.3179003 C57.8102591,74.241887 56.2259402,81.9390299 53.056505,89.2969037 C56.9048771,92.0134485 61.0933156,97.4469369 63.6966379,102.767203 C64.008,101.850658 64.2671362,100.94687 64.4832159,100.055442 C61.9608239,95.8801595 58.6865382,91.9986977 55.6247442,89.837103" id="Fill-15" fill="#FFFFFF"></path>
                <path d="M34.1622857,64.23301 L48.0563721,91.9111495 C54.9581661,79.9825116 55.4010897,68.9863654 55.4010897,60.8283588 C55.4010897,19.2294219 34.3468704,5.79021927 34.3468704,5.79021927 C21.3581661,20.0530764 12.9533821,34.6803189 12.9533821,56.4138738 C12.9533821,71.8639734 17.8422857,84.905701 20.6700598,91.1580598 L34.1622857,64.23301 Z" id="Fill-17" fill="#FFDF4A"></path>
                <path d="M34.3468306,5.790299 C34.0243056,6.14431894 33.7073621,6.49873754 33.3908173,6.85315615 C38.5308837,11.2700332 52.5896213,26.4566113 52.5896213,60.452093 C52.5896213,68.0344186 52.203309,78.0693688 46.6075615,89.0252492 L48.0563322,91.9112292 C54.9581262,79.9825914 55.4014485,68.9864452 55.4014485,60.8284385 C55.4014485,19.2295017 34.3468306,5.790299 34.3468306,5.790299" id="Fill-19" fill="#FF9E00"></path>
                <path d="M15.7225914,58.702206 C15.7225914,36.9686512 24.1269767,22.3414086 37.1160797,8.07895017 C37.1160797,8.07895017 37.1591362,8.1060598 37.2364784,8.15948173 C35.4875083,6.5185515 34.3469103,5.7901794 34.3469103,5.7901794 C21.358206,20.0530365 12.9534219,34.6802791 12.9534219,56.4138339 C12.9534219,71.8639336 17.8423256,84.9060598 20.6700997,91.1580199 L21.6568106,89.1893821 C18.933887,82.1636013 15.7225914,71.2244651 15.7225914,58.702206" id="Fill-21" fill="#FFFFFF"></path>
                <path d="M36.9312159,66.5214618 L36.1219136,68.1368771 L48.0561329,91.9112292 C48.3527442,91.3977409 48.6338073,90.8874419 48.906897,90.3779402 L36.9312159,66.5214618 Z" id="Fill-23" fill="#FFFFFF"></path>
                <path d="M38.1638272,47.1524252 C38.1638272,49.353887 36.3789767,51.1391362 34.1771163,51.1391362 C31.9756545,51.1391362 30.1904053,49.353887 30.1904053,47.1524252 C30.1904053,44.9509635 31.9756545,43.1657143 34.1771163,43.1657143 C36.3789767,43.1657143 38.1638272,44.9509635 38.1638272,47.1524252" id="Fill-25" fill="#00D0DC"></path>
                <path d="M31.7188704,48.4741794 C31.7188704,46.2727176 33.5037209,44.4874684 35.7055814,44.4874684 C36.3386711,44.4874684 36.9350831,44.6389635 37.4669103,44.9016877 C36.748505,43.8535814 35.5437209,43.1658738 34.1770764,43.1658738 C31.9756146,43.1658738 30.1903654,44.9503256 30.1903654,47.1525847 C30.1903654,48.7209568 31.0985382,50.0740465 32.4157475,50.7250764 C31.976412,50.0840133 31.7188704,49.309794 31.7188704,48.4741794" id="Fill-27" fill="#FFFFFF"></path>
                <path d="M34.1771163,51.1391362 C31.9756545,51.1391362 30.1904053,49.353887 30.1904053,47.1524252 C30.1904053,44.9505648 31.9756545,43.1657143 34.1771163,43.1657143 C36.3785781,43.1657143 38.1638272,44.9505648 38.1638272,47.1524252 C38.1638272,49.353887 36.3785781,51.1391362 34.1771163,51.1391362 M34.1771163,39.1790033 C29.7809701,39.1790033 26.2036944,42.7558804 26.2036944,47.1524252 C26.2036944,51.5489701 29.7809701,55.1258472 34.1771163,55.1258472 C38.5736611,55.1258472 42.1505382,51.5489701 42.1505382,47.1524252 C42.1505382,42.7558804 38.5736611,39.1790033 34.1771163,39.1790033" id="Fill-29" fill="#000000"></path>
                <path d="M17.739309,94.3034551 L17.713794,94.2496346 C17.7221661,94.2671761 17.7309369,94.2859136 17.739309,94.3034551" id="Fill-31" fill="#000000"></path>
                <polygon id="Fill-33" fill="#EA2127" points="40.181701 93.9935681 34.1701395 82.017887 28.1689435 93.9935681 26.1791761 97.9647309 42.1750565 97.9647309"></polygon>
                <path d="M17.575814,93.9589236 L17.7137542,94.2495548 C17.6695017,94.1570631 17.6220598,94.0546047 17.5762126,93.9577276 L17.575814,93.9589236 Z" id="Fill-35" fill="#000000"></path>
                <path d="M22.0448771,94.0235482 C22.040093,94.0143787 22.0345116,94.0028173 22.0297276,93.9936478 L22.0293289,93.9936478 C22.0349103,94.004412 22.0392957,94.0131827 22.0448771,94.0235482" id="Fill-37" fill="#000000"></path>
                <polygon id="Fill-39" fill="#000000" points="51.5808239 93.7883721 51.5800266 93.7879734 51.5708571 93.8043189"></polygon>
                <g id="Group-43" transform="translate(0.000000, 0.308571)">
                    <mask id="mask-6" fill="white">
                        <use xlink:href="#path-5"></use>
                    </mask>
                    <g id="Clip-42"></g>
                    <path d="M63.6966777,102.458472 C61.2356811,97.4296346 57.359402,92.3031229 53.6920266,89.461794 C56.3850498,83.8190033 57.838206,78.3739535 58.5992691,73.1262458 C61.256412,76.6437209 68.5720266,88.1146844 63.6966777,102.458472 M48.565515,90.6980731 C48.3988704,90.9990698 48.2310299,91.3004651 48.056412,91.6026578 L34.1623256,63.9245183 L20.6700997,90.8495681 C20.6613289,90.8296346 20.6517608,90.8081063 20.64299,90.7885714 C18.3203322,85.6425249 14.6342193,75.9603987 13.3851827,64.139402 C13.1116944,61.5544186 12.9534219,58.8693688 12.9534219,56.1049834 C12.9534219,43.8139535 15.6432558,35.6268439 20.3284385,25.9140199 C19.6981395,27.2208638 18.8936213,28.5504319 18.3374751,29.9003322 L49.9935548,29.9003322 C53.0868439,38.432691 55.4011296,46.7302326 55.4011296,60.5198671 C55.4011296,61.4695017 55.3947508,62.4586047 55.3732226,63.4815947 C55.2149502,71.0284385 54.2118937,80.5016611 48.565515,90.6980731 M5.63980066,102.458472 C0.74730897,88.0632558 8.13189369,76.5627907 10.7647176,73.0899668 C12.0528239,79.2940864 13.8312957,84.6263123 15.4192027,88.646113 L15.42,88.6477076 C15.5216611,88.9052492 15.6225249,89.157608 15.7225914,89.4039867 C12.0316944,92.2325581 8.1179402,97.3937542 5.63980066,102.458472 M34.3469103,5.48172757 C34.3469103,5.48172757 42.2924252,11.5726246 48.4215947,25.9136213 L20.3284385,25.9136213 C23.9276412,18.452093 28.7041196,11.6778738 34.3469103,5.48172757 M49.9903654,29.8919601 C49.4860465,28.5013953 48.9613953,27.1774086 48.422392,25.916412 C48.9613953,27.1774086 49.4860465,28.5013953 49.9903654,29.8919601 M60.6532226,69.3336877 L59.1689701,67.6883721 C59.3340199,65.254485 59.3878405,62.8648505 59.3878405,60.5198671 C59.3878405,17.4482392 37.0690365,2.41873754 36.1780066,1.67083056 C35.5477076,1.14179402 34.3469103,0.0900996678 34.3469103,0.0900996678 C34.3469103,0.0900996678 32.0908306,2.07388704 31.3995349,2.79747508 C17.4572093,17.3852492 8.96671096,35.2915615 8.96671096,56.1049834 C8.96671096,60.2718937 9.30837209,64.2713621 9.86451827,68.0288372 L8.68325581,69.3336877 C8.13388704,69.9408638 -4.70013289,84.4245847 1.86478405,103.741395 L4.97401993,112.888904 L9.22066445,104.21103 C11.3192691,99.9221262 14.4639867,95.7025914 17.3627243,93.2017276 L19.263588,97.6560797 L21.7110299,97.6716279 L22.0291694,97.0357475 L23.7083721,93.6849169 L23.908505,93.2850498 L24.5471761,92.0116944 L34.165515,72.8168771 L44.1159468,92.6392027 L44.1366777,92.6806645 L44.1295017,92.666711 L44.6421927,93.6849169 L46.6423256,97.6560797 L48.8960133,97.6560797 L50.1310963,95.7352824 L51.5706977,93.4959468 L51.5798671,93.4796013 C51.6592027,93.3420598 51.7337542,93.2053156 51.811495,93.0677741 C54.754485,95.549103 57.9777409,99.8419934 60.1162126,104.21103 L64.3628571,112.888505 L67.4716944,103.741395 C74.0366113,84.4245847 61.2025914,69.9408638 60.6532226,69.3336877" id="Fill-41" fill="#000000" mask="url(#mask-6)"></path>
                </g>
                <polygon id="Fill-44" fill="#000000" points="44.6406379 93.9935681 44.6422326 93.9935681 44.1363189 92.9889169"></polygon>
            </g>
        </g>
    </g>
</svg>