<?xml version="1.0" encoding="UTF-8"?>
<svg width="170px" height="120px" viewBox="0 0 170 120" version="1.1" xmlns="http://www.w3.org/2000/svg" xmlns:xlink="http://www.w3.org/1999/xlink">
    <!-- Generator: Sketch 53.2 (72643) - https://sketchapp.com -->
    <title>Group 65</title>
    <desc>Created with Sketch.</desc>
    <defs>
        <polygon id="path-1" points="0.338417582 0.400476331 68.3212747 0.400476331 68.3212747 53.1868132 0.338417582 53.1868132"></polygon>
        <polygon id="path-3" points="8.79120879e-05 0.221978022 82.0269088 0.221978022 82.0269088 80.8414945 8.79120879e-05 80.8414945"></polygon>
    </defs>
    <g id="Page-1" stroke="none" stroke-width="1" fill="none" fill-rule="evenodd">
        <g id="Cloud-Server-Windows" transform="translate(-610.000000, -3880.000000)">
            <g id="Group-65" transform="translate(610.000000, 3880.000000)">
                <path d="M58.6462418,69.1898901 C58.6462418,69.1898901 77.389978,66.8632967 81.2976703,94.5178022 C83.0488791,106.909011 84.9108571,112.87956 89.1016264,116.926154 C73.2049231,116.926154 57.0185495,117.576264 57.0185495,117.576264 C57.0185495,117.576264 43.8616264,94.1301099 43.7926154,93.9626374 C43.7231648,93.7956044 58.6462418,69.1898901 58.6462418,69.1898901" id="Fill-1" fill="#89181A"></path>
                <path d="M58.3341978,114.061538 C57.6968352,114.058462 57.1596923,114.055385 56.7179341,114.053187 C55.5487033,111.808791 52.8933187,106.709451 50.4845275,102.08 C49.2396923,99.6879121 48.0616703,97.4232967 47.1913407,95.7485714 C46.8282637,95.0492308 46.5227692,94.4606593 46.2845275,94.0008791 C46.4594725,93.7006593 46.6722198,93.338022 46.9152967,92.9265934 C48.6858462,89.9296703 52.0924396,84.272967 55.0511209,79.3749451 C56.5306813,76.9252747 57.8999121,74.6637363 58.8981538,73.0145055 C59.3047473,72.3437363 59.644967,71.7810989 59.9117802,71.3415385 C60.7803516,71.3551648 62.1394725,71.4641758 63.7368352,71.8984615 C65.0282637,72.2492308 66.4717802,72.8087912 67.9482637,73.6993407 C70.1627692,75.0378022 72.4660659,77.1063736 74.4823297,80.4421978 C76.4946374,83.7775824 78.2137582,88.4017582 79.1214505,94.8254945 C80.0040879,101.050989 80.7623297,105.575385 81.895956,109.215385 C82.4634286,111.032527 83.1315604,112.632527 83.9684835,114.072088 C83.982989,114.096703 83.9988132,114.118681 84.0128791,114.142857 C77.5276044,114.135824 71.1078242,114.115604 65.9974945,114.095824 C62.8493626,114.083516 60.1983736,114.070769 58.3341978,114.061538 L58.3341978,114.061538 Z M90.0458462,114.762198 C89.1333187,113.87956 88.4071648,112.96 87.7693626,111.864176 C86.8155165,110.224615 86.0594725,108.152527 85.3860659,105.297143 C84.7122198,102.445714 84.1267253,98.8342857 83.473978,94.2105495 C82.6084835,88.0835165 81.0256264,83.2830769 79.0181538,79.5292308 C77.5130989,76.7151648 75.7684835,74.4940659 73.9372747,72.7674725 C71.1909011,70.1727473 68.2625495,68.7041758 65.7214505,67.9010989 C63.1772747,67.0962637 61.0177143,66.9441758 59.7122198,66.9437363 C58.9298022,66.9437363 58.452,66.9991209 58.3741978,67.0087912 L57.3183736,67.1402198 L56.7671648,68.0496703 C56.7667253,68.0505495 53.0524396,74.1745055 49.3372747,80.3353846 C47.4796923,83.4162637 45.6216703,86.5063736 44.2256264,88.8479121 C43.5271648,90.0189011 42.9447473,91.0021978 42.532,91.7103297 C42.324967,92.0654945 42.1614505,92.3494505 42.0405714,92.5665934 C41.979033,92.6764835 41.9298022,92.7665934 41.881011,92.8610989 C41.855956,92.9098901 41.8317802,92.9564835 41.7952967,93.0378022 C41.7768352,93.0808791 41.7548571,93.1292308 41.721011,93.2246154 C41.7043077,93.2734066 41.6836484,93.3336264 41.6585934,93.432967 C41.6467253,93.4835165 41.6330989,93.5437363 41.6207912,93.6259341 C41.608044,93.7085714 41.5952967,93.8114286 41.5948571,93.9626374 L41.5948571,94.3995604 L41.7618901,94.8035165 C41.7873846,94.8646154 41.7957363,94.88 41.8036484,94.898022 L41.830022,94.9525275 C41.852,94.9969231 41.8726593,95.0373626 41.9060659,95.1024176 C42.1530989,95.5850549 42.9904615,97.1973626 44.1166154,99.3635165 C47.492,105.856703 53.4317802,117.258901 53.4317802,117.258901 L54.0432088,118.433407 L55.368044,118.441758 C55.368044,118.441758 72.6133187,118.540659 88.5192527,118.540659 L93.9601319,118.540659 L90.0458462,114.762198 Z" id="Fill-3" fill="#000000"></path>
                <path d="M6.27846154,117.347912 C6.27846154,117.347912 4.14307692,116.307033 7.52373626,93.5421978 C11.929011,63.8802198 20.4947253,70.1184615 20.4947253,70.1184615 L49.9316484,70.7083516 C49.9316484,70.7083516 69.2002198,56.2731868 69.2002198,116.415604 C16.1641758,118.268352 6.27846154,117.347912 6.27846154,117.347912" id="Fill-5" fill="#D62127"></path>
                <path d="M28.6930549,77.1757802 C28.6930549,77.1757802 26.5976703,74.2131429 27.1756923,71.5397363 C26.6429451,71.2118242 25.7981099,70.7595165 24.7449231,70.2039121 L20.4948132,70.1181978 L25.0258022,72.9392967 C25.0258022,72.9392967 26.8148132,79.7770989 28.6930549,77.1757802" id="Fill-7" fill="#FFFFFF"></path>
                <path d="M20.4946374,70.1183736 C20.4946374,70.1183736 11.9293626,63.8805714 7.52364835,93.5421099 C4.14298901,116.306945 6.27837363,117.347385 6.27837363,117.347385 C6.27837363,117.347385 7.45463736,117.456835 11.168044,117.524527 C10.924967,116.782549 10.7728791,116.342989 10.7728791,116.342989 C10.7728791,116.342989 7.67134066,73.8999121 20.4946374,70.1183736" id="Fill-9" fill="#FFFFFF"></path>
                <path d="M36.9249231,73.2614066 C36.9249231,73.2614066 45.0778901,73.0508571 50.6598681,71.5396484" id="Stroke-11" stroke="#000000" stroke-width="6.524"></path>
                <path d="M61.2166593,116.684308 C63.7647912,116.60211 66.4201758,116.51244 69.2003956,116.415736 C69.2003956,59.0627692 49.9313846,70.708044 49.9313846,70.708044 L35.8795165,75.1045275 C30.1647912,77.3981538 28.8408352,77.7665055 28.8408352,77.7665055 L28.5428132,78.6566154 L28.5428132,80.7889231 C28.5428132,80.7889231 58.4729231,69.2988132 60.206989,78.512 C61.9410549,87.7256264 64.2535824,104.200791 61.363033,116.051341 C61.3111648,116.265407 61.2645714,116.473758 61.2166593,116.684308" id="Fill-13" fill="#9E1D28"></path>
                <g id="Group-17" transform="translate(3.076923, 66.591209)">
                    <mask id="mask-2" fill="white">
                        <use xlink:href="#path-1"></use>
                    </mask>
                    <g id="Clip-16"></g>
                    <path d="M5.62984615,48.6739341 C5.3349011,48.6642637 5.076,48.6545934 4.84610989,48.6453626 C4.84391209,48.6269011 4.84171429,48.6128352 4.83951648,48.5934945 C4.77973626,48.0506374 4.73402198,47.2673407 4.73402198,46.1864615 C4.73226374,43.004044 5.13534066,37.2655824 6.62105495,27.2734945 C7.38369231,22.1337143 8.27028571,18.1227253 9.19556044,15.0255824 C9.88874725,12.7029451 10.6047912,10.895033 11.2957802,9.51085714 C12.3313846,7.43085714 13.3076484,6.32712088 14.0201758,5.78250549 C14.377978,5.50778022 14.6702857,5.36448352 14.9076484,5.28228571 C15.145011,5.20096703 15.3318242,5.17854945 15.4953407,5.17767033 C15.7362198,5.17767033 15.9353407,5.23525275 16.0632527,5.28756044 C16.1190769,5.31085714 16.1555604,5.32975824 16.1727033,5.33942857 L16.6821538,5.71041758 L47.566989,6.32931868 L48.1617143,5.88404396 C48.1898462,5.86250549 48.6017143,5.57635165 49.2298462,5.31085714 C49.8698462,5.03745055 50.719956,4.79393407 51.6210549,4.79613187 C52.123033,4.79657143 52.6439121,4.8669011 53.1938022,5.048 C53.6746813,5.20712088 54.1806154,5.45107692 54.7203956,5.83217582 C55.6614945,6.49767033 56.7155604,7.59657143 57.7749011,9.40975824 C59.3639121,12.124044 60.9283077,16.4361319 62.0645714,22.9701978 C63.1335824,29.0976703 63.8351209,37.1715165 63.9173187,47.7016264 C38.6201758,48.5684396 23.4931429,48.7869011 14.686989,48.7869011 C10.1907253,48.7869011 7.34193407,48.7301978 5.62984615,48.6739341 L5.62984615,48.6739341 Z M66.8351209,24.9877802 C66.1344615,20.1359121 65.2206154,16.2176703 64.1507253,13.0387692 C63.3480879,10.6545934 62.4562198,8.68536264 61.4905055,7.05679121 C60.0443516,4.61723077 58.4122637,2.92975824 56.6874286,1.86558242 C54.9665495,0.797450549 53.1788571,0.395252747 51.6210549,0.400527473 C49.8412747,0.403164835 48.3612747,0.884483516 47.3133626,1.3512967 C46.8764396,1.5469011 46.5168791,1.74030769 46.2333626,1.90646154 L17.9964396,1.34030769 C17.9111648,1.30074725 17.8272088,1.26030769 17.7283077,1.21942857 C17.1876484,0.99832967 16.4258901,0.782505495 15.4953407,0.782505495 C14.9441319,0.782065934 14.3375385,0.860307692 13.7111648,1.0501978 C12.6118242,1.38074725 11.4764396,2.05415385 10.4135824,3.11217582 C8.81358242,4.70558242 7.32610989,7.12975824 5.94632967,10.8633846 C4.57006593,14.6014066 3.30720879,19.6717363 2.27292308,26.6277802 C0.770505495,36.7508571 0.339736264,42.6475604 0.338417582,46.1864615 C0.341934066,48.4269011 0.502813187,49.720967 0.748087912,50.6405275 C0.875120879,51.1007473 1.02413187,51.4756923 1.25050549,51.8308571 C1.36435165,52.0066813 1.49973626,52.1772308 1.66501099,52.3332747 C1.82940659,52.4888791 2.02589011,52.6286593 2.23863736,52.731956 L2.60830769,52.9890989 L2.99028571,53.1825055 C3.11028571,53.1926154 5.61797802,53.1820659 14.686989,53.1825055 C23.8113846,53.1825055 39.5797363,52.9504176 66.2003956,52.0207473 L68.3212747,51.9464615 L68.3212747,49.8242637 C68.3212747,39.5855824 67.7683077,31.4563516 66.8351209,24.9877802 L66.8351209,24.9877802 Z" id="Fill-15" fill="#000000" mask="url(#mask-2)"></path>
                </g>
                <path d="M28.5428132,78.6567473 C28.5428132,78.6567473 37.9845714,75.4646593 43.9581978,73.0141099 C50.7023736,71.5270769 60.5296264,69.793011 65.1542418,65.4576264 C68.0443516,66.9029011 75.6557802,67.9622418 78.6425934,60.3508132 C81.628967,52.7398242 78.2570989,50.6488352 76.4267692,48.611033 C75.4628132,43.6835604 75.6557802,24.9925714 69.2003956,19.8861978 C62.7458901,14.7798242 30.4698462,13.5270769 27.5797363,12.4677363 C24.6887473,11.407956 20.6425934,5.04883516 20.6425934,5.04883516 C20.6425934,5.04883516 17.4632527,12.0822418 16.788967,12.0822418 C16.1146813,12.0822418 8.88830769,9.38421978 8.31072527,9.57718681 C7.73226374,9.76971429 11.3933626,23.3543297 11.2970989,23.8360879 C11.2008352,24.3178462 6.86545055,35.7829011 6.86545055,35.7829011 C6.86545055,35.7829011 -3.63652747,56.2083956 6.86545055,62.4708132 C17.366989,68.7332308 24.9784176,72.4009231 24.9784176,72.4009231 C24.9784176,72.4009231 25.0742418,76.6334505 28.5428132,78.6567473" id="Fill-18" fill="#F9D3B5"></path>
                <path d="M76.4471648,49.6890989 C76.4401319,49.6816264 76.4330989,48.6183297 76.4265055,48.6112967 C75.4634286,43.6833846 75.6555165,24.991956 69.2005714,19.886022 C62.7456264,14.7796484 30.4695824,13.5273407 27.5794725,12.4675604 C24.6889231,11.4077802 20.6427692,5.04865934 20.6427692,5.04865934 C20.6427692,5.04865934 17.4634286,12.0820659 16.7887033,12.0820659 C16.1144176,12.0820659 8.88848352,9.38448352 8.31046154,9.57701099 C7.79485714,9.74887912 10.6484835,20.5616264 11.2054066,23.2495385 C13.7724396,23.1066813 17.6568352,23.0108571 20.739033,23.4508571 C25.7970549,24.1734945 54.1227692,25.9075604 61.7821099,31.1101978 C69.4414505,36.3128352 67.8146374,49.7247033 67.092,51.2785495 C68.1201319,51.5044835 71.4999121,47.3044835 76.4471648,49.6890989" id="Fill-20" fill="#00293B"></path>
                <path d="M28.5651429,72.669011 C24.8077802,70.3564835 5.58712088,61.9024176 6.67063736,53.9542857 C7.75459341,46.0057143 15.7031648,25.3393407 15.2697582,23.243956 C14.8363516,21.1485714 12.5238242,13.778022 12.5238242,13.778022 C12.5238242,13.778022 17.8710769,16.8131868 19.0271209,15.8013187 C20.1831648,14.7894505 22.4231648,9.08131868 22.4231648,9.08131868 L20.8882198,8.61582418 C19.9058022,10.6474725 18.5853626,13.2114286 18.1783297,13.2114286 C17.5036044,13.2114286 10.2776703,10.5138462 9.69964835,10.7063736 C9.12206593,10.8993407 12.7831648,24.483956 12.6864615,24.9657143 C12.5901978,25.447033 8.25481319,36.9125275 8.25481319,36.9125275 C8.25481319,36.9125275 -2.24716484,57.3375824 8.25481319,63.6 C18.7563516,69.8624176 26.3677802,73.5301099 26.3677802,73.5301099 C26.3677802,73.5301099 26.3721758,73.7318681 26.4152527,74.069011 C26.4152527,74.0694505 28.2042637,80.9063736 30.0825055,78.3050549 C30.0825055,78.3050549 27.9871209,75.3428571 28.5651429,72.669011" id="Fill-22" fill="#FFFFFF"></path>
                <path d="M78.6424176,60.351033 C81.6292308,52.740044 78.2569231,50.6490549 76.4265934,48.6112527 C75.4630769,43.6833407 75.6556044,24.9927912 69.2006593,19.885978 C68.0723077,18.9936703 66.1540659,18.2191648 63.7430769,17.5426813 C64.2881319,20.9703736 64.5646154,27.1694945 62.8085714,37.2890549 C59.7734066,54.7756484 58.2389011,67.1765275 41.0138462,69.1413626 C31.3035165,70.8174066 29.2802198,76.4534505 29.2802198,76.4534505 L28.5426374,78.656967 C28.5426374,78.656967 37.9848352,75.4648791 43.9584615,73.0143297 C50.7026374,71.5272967 60.5294505,69.7927912 65.1540659,65.4574066 C68.0446154,66.9026813 75.6556044,67.962022 78.6424176,60.351033" id="Fill-24" fill="#EBBDA7"></path>
                <path d="M63.5204835,32.5848791 C69.1727912,38.4842198 67.7538901,49.8552088 67.0919121,51.2785055 C68.120044,51.5044396 71.4998242,47.3044396 76.4470769,49.6890549 C76.4404835,49.682022 76.433011,48.6187253 76.4264176,48.6112527 C75.4633407,43.6833407 75.6554286,24.9923516 69.2004835,19.885978 C68.0725714,18.9936703 66.1538901,18.2191648 63.7433407,17.5426813 C64.1978462,20.4033407 64.4650989,25.194989 63.5204835,32.5848791" id="Fill-26" fill="#081C23"></path>
                <g id="Group-30" transform="translate(0.000000, 0.217582)">
                    <mask id="mask-4" fill="white">
                        <use xlink:href="#path-3"></use>
                    </mask>
                    <g id="Clip-29"></g>
                    <path d="M76.5965714,59.3307253 C76.2049231,60.3276484 75.7403077,61.0968791 75.2396484,61.7039121 C74.4871209,62.612044 73.6537143,63.1746813 72.746022,63.5447912 C71.840967,63.9113846 70.8532747,64.0683077 69.8844835,64.0678681 C69.1156923,64.0683077 68.364044,63.968967 67.7077802,63.8151209 C67.0541538,63.663033 66.4923956,63.4529231 66.1367912,63.274022 L64.768,62.5891868 L63.6510769,63.6362198 C62.7266813,64.5052308 61.4352527,65.3276484 59.8976703,66.0546813 C57.5926154,67.1505055 54.7548132,68.034022 51.8682198,68.765011 C48.9794286,69.4986374 46.0449231,70.0863297 43.4849231,70.6502857 L43.3003077,70.6911648 L43.124044,70.7632527 C40.2000879,71.9628132 36.3636044,73.3685275 33.2743736,74.4661099 C31.7288791,75.0155604 30.368,75.488967 29.3948132,75.8243516 C29.2167912,75.8858901 29.0572308,75.9408352 28.906022,75.9922637 C28.6756923,75.7821538 28.4752527,75.5549011 28.2985495,75.3131429 C27.7847033,74.6133626 27.4827253,73.7790769 27.3310769,73.1263297 C27.2545934,72.8014945 27.2141538,72.525011 27.1939341,72.3439121 C27.1842637,72.2533626 27.178989,72.186989 27.1767912,72.1496264 L27.175033,72.1192967 L27.1447033,70.786989 L25.931956,70.2028132 L25.9139341,70.1944615 C25.4994286,69.9935824 18.0897582,66.3883077 7.99085714,60.3654505 C7.31261538,59.9601758 6.77283516,59.4981978 6.32448352,58.9777582 C5.65415385,58.1988571 5.17898901,57.2749011 4.86118681,56.1905055 C4.54382418,55.1091868 4.39481319,53.8718242 4.39569231,52.5505055 C4.39437363,50.7896264 4.65942857,48.8867692 5.07217582,47.0388571 C5.68975824,44.2652308 6.63481319,41.6173187 7.42382418,39.6845714 C7.81767033,38.7170989 8.1723956,37.9280879 8.42558242,37.3856703 C8.55217582,37.1144615 8.65371429,36.9052308 8.72184615,36.7667692 C8.75613187,36.6973187 8.78206593,36.6458901 8.79876923,36.6124835 L8.81635165,36.5768791 L8.81986813,36.5707253 L8.87701099,36.459956 L8.92096703,36.3425934 C8.92140659,36.3417143 10.0058022,33.474022 11.1033846,30.5434725 C11.651956,29.077978 12.204044,27.5970989 12.6269011,26.4463297 C12.8383297,25.8713846 13.0172308,25.3790769 13.149978,25.0058901 C13.2167912,24.8186374 13.2712967,24.6625934 13.3152527,24.5311648 C13.3372308,24.4647912 13.357011,24.4054505 13.3763516,24.3417143 C13.386022,24.3096264 13.3961319,24.2770989 13.4075604,24.2353407 C13.4194286,24.1918242 13.4326154,24.1461099 13.4523956,24.0494066 L13.4572308,24.023033 L13.4625055,23.9949011 C13.4923956,23.8217143 13.4963516,23.6907253 13.4967912,23.5927033 C13.4945934,23.3891868 13.4800879,23.299956 13.4690989,23.2032527 C13.4453626,23.0278681 13.4172308,22.8797363 13.3816264,22.7003956 C13.3148132,22.3698462 13.2216264,21.9570989 13.1064615,21.4612747 C12.7038242,19.7346813 12.0264615,17.019956 11.4506374,14.5584176 C11.2669011,13.7738022 11.0967912,13.0239121 10.9473407,12.3386374 C11.9842637,12.6766593 13.109978,13.0568791 14.0651429,13.368967 C14.5930549,13.5412747 15.0664615,13.6924835 15.4638242,13.8085275 C15.6638242,13.8665495 15.8431648,13.9166593 16.0238242,13.9592967 C16.1152527,13.9808352 16.2062418,14.0010549 16.3161319,14.019956 C16.4308571,14.0375385 16.5477802,14.059956 16.7890989,14.0621538 C17.0387692,14.0621538 17.2537143,14.0221538 17.429978,13.9716044 C17.7785495,13.8678681 17.9904176,13.7351209 18.1530549,13.6247912 C18.4598681,13.4058901 18.6071209,13.2353407 18.749978,13.074022 C19.0036044,12.7751209 19.1890989,12.4938022 19.3912967,12.1733626 C19.7372308,11.6186374 20.0945934,10.9641319 20.4572308,10.2674286 C20.6475604,9.90127473 20.8378901,9.52369231 21.0233846,9.15094505 C21.1165714,9.27050549 21.2115165,9.39138462 21.3086593,9.51314286 C22.0378901,10.4265495 22.8677802,11.3874286 23.764044,12.2384176 C24.2132747,12.6643516 24.6800879,13.0634725 25.1781099,13.4181978 C25.6778901,13.7716044 26.2066813,14.0854505 26.8229451,14.3135824 C27.0501978,14.3953407 27.2396484,14.4445714 27.4418462,14.4916044 C27.8286593,14.579956 28.2541538,14.6511648 28.7622857,14.7245714 C29.7095385,14.8608352 30.928,14.9970989 32.3745934,15.1452308 C34.9029451,15.4036923 38.1187692,15.6973187 41.6058022,16.0564396 C46.8321758,16.5931429 52.6704176,17.2792967 57.611956,18.1944615 C60.0800879,18.6502857 62.3249231,19.1654505 64.1222857,19.7280879 C65.0203077,20.0085275 65.8058022,20.3008352 66.4400879,20.5896264 C67.0739341,20.8770989 67.5548132,21.1667692 67.837011,21.3918242 C68.3851429,21.8243516 68.935033,22.4656703 69.4475604,23.3096264 C70.3486593,24.7812747 71.1082198,26.8502857 71.6858022,29.1729231 C72.5600879,32.6590769 73.0506374,36.7003956 73.3877802,40.2709451 C73.5574505,42.0581978 73.6906374,43.7294066 73.8225055,45.1773187 C73.8884396,45.9012747 73.9543736,46.5702857 74.0255824,47.176 C74.0976703,47.7825934 74.1737143,48.3232527 74.2695385,48.8151209 L74.386022,49.4111648 L74.7921758,49.863033 C75.1904176,50.3043516 75.5763516,50.6770989 75.9200879,51.0392967 C76.4387692,51.5803956 76.8537143,52.0823736 77.1429451,52.6463297 C77.4290989,53.2138022 77.6264615,53.8498462 77.6312967,54.8370989 C77.6326154,55.8836923 77.3776703,57.3412747 76.5965714,59.3307253 M81.5684396,51.8652308 C81.1310769,50.5412747 80.4233846,49.5109451 79.7530549,48.7245714 C79.2858022,48.1786374 78.8427253,47.7373187 78.484044,47.3707253 C78.418989,46.9245714 78.3539341,46.3680879 78.2906374,45.7346813 C78.1214066,44.0436923 77.9543736,41.8001758 77.7130549,39.3298462 C77.3486593,35.6190769 76.8225055,31.3935824 75.808,27.554022 C75.2981099,25.6327033 74.6669011,23.8036923 73.8352527,22.1623736 C73.0005275,20.5258901 71.9627253,19.0555604 70.564044,17.9447912 C69.9939341,17.4951209 69.3618462,17.1228132 68.6682198,16.7817143 C67.3684396,16.1465495 65.8427253,15.6234725 64.1231648,15.1487473 C61.1183297,14.3228132 57.5218462,13.6621538 53.7477802,13.103033 C48.0906374,12.2674286 42.0427253,11.6713846 37.1934945,11.2014945 C34.7710769,10.9672088 32.6475604,10.7641319 31.0458022,10.5821538 C30.2462418,10.4916044 29.5754725,10.4054505 29.0831648,10.3285275 C28.8378901,10.2898462 28.6365714,10.2533626 28.4981099,10.2234725 C28.4290989,10.208967 28.3763516,10.1962198 28.346022,10.1878681 L28.328,10.1825934 C28.2185495,10.1439121 27.9943736,10.0287473 27.7249231,9.83534066 C27.2387692,9.49248352 26.6198681,8.91841758 26.015033,8.26083516 C25.1025055,7.27358242 24.2044835,6.10171429 23.5508571,5.19138462 C23.2238242,4.73556044 22.9561319,4.34391209 22.7723956,4.06962637 C22.6805275,3.93292308 22.6097582,3.82523077 22.5627253,3.75314286 L22.5104176,3.6727033 L22.498989,3.65424176 L22.4967912,3.65072527 L20.3148132,0.221714286 L18.6396484,3.92589011 C18.6396484,3.92589011 18.6290989,3.95006593 18.6062418,3.99973626 C18.4374505,4.37072527 17.6484396,6.09336264 16.8422857,7.68413187 C16.5328352,8.296 16.2194286,8.88808791 15.9508571,9.35841758 C14.9196484,9.02918681 13.4620659,8.53336264 12.1341538,8.10127473 C11.4071209,7.86567033 10.7196484,7.64896703 10.1310769,7.48193407 C9.83525275,7.39841758 9.5658022,7.32720879 9.3069011,7.27006593 C9.17635165,7.24105495 9.04843956,7.21556044 8.90865934,7.19402198 C8.76624176,7.17336264 8.61986813,7.15314286 8.39349451,7.15182418 C8.31745055,7.15182418 8.22382418,7.15358242 8.0923956,7.16852747 C7.97635165,7.18303297 7.82074725,7.2116044 7.62382418,7.27534066 L7.62294505,7.27182418 C7.60931868,7.27665934 7.59657143,7.28281319 7.58294505,7.28764835 C7.5723956,7.29116484 7.56492308,7.2916044 7.55393407,7.296 L7.55481319,7.29863736 C7.28228571,7.39841758 7.03920879,7.54698901 6.85767033,7.70610989 C6.5090989,8.01292308 6.35569231,8.30786813 6.25942857,8.52105495 C6.12272527,8.84676923 6.09767033,9.04676923 6.07437363,9.21028571 C6.05459341,9.3716044 6.05107692,9.4938022 6.05063736,9.60676923 C6.05195604,9.87050549 6.07305495,10.085011 6.10074725,10.3228132 C6.15437363,10.7606154 6.24008791,11.2551209 6.35085714,11.8265495 C6.54514286,12.8221538 6.81591209,14.0362198 7.11525275,15.3228132 C7.5636044,17.2494066 8.07569231,19.332044 8.47393407,20.9825934 C8.67305495,21.8067692 8.84316484,22.5245714 8.96008791,23.0454505 C8.99261538,23.1918242 9.02074725,23.3210549 9.04404396,23.4322637 C8.85986813,23.9535824 8.52756044,24.863033 8.1301978,25.9342418 C7.47613187,27.7003956 6.64536264,29.9153407 5.97898901,31.6867692 C5.64536264,32.5729231 5.35305495,33.3487473 5.14382418,33.9021538 C5.00404396,34.2735824 4.90250549,34.5412747 4.8501978,34.6801758 C4.59085714,35.1992967 3.53107692,37.3694066 2.46250549,40.3513846 C1.85547253,42.0476484 1.24536264,44.0054505 0.781626374,46.0823736 C0.319648352,48.1606154 0.000967032967,50.357978 8.79120879e-05,52.5505055 C0.00140659341,54.7408352 0.317450549,56.9421538 1.20448352,58.9808352 C1.648,59.997978 2.23832967,60.9698462 2.99393407,61.8467692 C3.74865934,62.7236923 4.66734066,63.5021538 5.73942857,64.1403956 C13.9978901,69.0652308 20.4796484,72.3962198 22.9455824,73.6300659 C23.0343736,74.099956 23.1715165,74.6612747 23.3847033,75.2762198 C23.6704176,76.0938022 24.0954725,77.0085275 24.7469011,77.903033 C25.3961319,78.7953407 26.2818462,79.6661099 27.4352527,80.3377582 L28.2994286,80.8414945 L29.2466813,80.5210549 C29.2541538,80.5188571 31.6238242,79.7175385 34.7464615,78.6076484 C37.8106374,77.5184176 41.5869011,76.1368791 44.6075604,74.9043516 C47.9126154,74.1781978 52.0312967,73.3733626 55.9816264,72.1918242 C57.9930549,71.5887473 59.9636044,70.8876484 61.7816264,70.0261099 C63.1429451,69.3786374 64.4225055,68.6436923 65.5618462,67.768967 C65.9253626,67.8894066 66.3038242,68.0006154 66.7077802,68.0951209 C67.6695385,68.3197363 68.7429451,68.463033 69.8844835,68.4634725 C70.8414066,68.4634725 71.8466813,68.3623736 72.8651429,68.1127033 C74.389978,67.739956 75.9508571,67.0203956 77.3271209,65.8344615 C78.706022,64.6516044 79.8752527,63.016 80.6884396,60.936 C81.6123956,58.579956 82.0264615,56.5913846 82.0269011,54.8370989 C82.0282198,53.7425934 81.8607473,52.7452308 81.5684396,51.8652308" id="Fill-28" fill="#000000" mask="url(#mask-4)"></path>
                </g>
                <polygon id="Fill-31" fill="#EA2127" points="14.7245714 55.9742857 20.4894066 44.4696703 26.2647912 55.9742857"></polygon>
                <path d="M161.352308,57.380967 L96.4169231,57.380967 C94.0828571,57.380967 92.1905495,59.2732747 92.1905495,61.6069011 L92.1905495,66.3414066 C92.1905495,68.6754725 94.0828571,70.5677802 96.4164835,70.5677802 L161.352308,70.5677802 C163.686374,70.5677802 165.578242,68.6754725 165.578242,66.3414066 L165.578242,61.6069011 C165.578242,59.2732747 163.686374,57.380967 161.352308,57.380967" id="Fill-33" fill="#00DCAD"></path>
                <path d="M95.4705934,66.3413187 L95.4705934,61.6068132 C95.4705934,59.2731868 97.3629011,57.3808791 99.6965275,57.3808791 L95.8367473,57.3808791 C93.5026813,57.3808791 91.6108132,59.2731868 91.6108132,61.6068132 L91.6108132,66.3413187 C91.6108132,68.6758242 93.5026813,70.5676923 95.8367473,70.5676923 L99.6965275,70.5676923 C97.3624615,70.5676923 95.4705934,68.6758242 95.4705934,66.3413187" id="Fill-35" fill="#FFFFFF"></path>
                <path d="M161.718901,66.3413187 L161.718901,61.6068132 C161.718901,59.2731868 159.826593,57.3808791 157.492527,57.3808791 L161.352308,57.3808791 C163.686374,57.3808791 165.578242,59.2731868 165.578242,61.6068132 L165.578242,66.3413187 C165.578242,68.6758242 163.686813,70.5676923 161.352308,70.5676923 L157.492527,70.5676923 C159.826593,70.5676923 161.718901,68.6758242 161.718901,66.3413187" id="Fill-37" fill="#00BA8E"></path>
                <path d="M165.578374,66.3413187 C165.578374,68.6758242 163.686066,70.5676923 161.35244,70.5676923 L96.4166154,70.5676923 C94.082989,70.5676923 92.1906813,68.6758242 92.1906813,66.3413187 L92.1906813,61.6068132 C92.1906813,59.2731868 94.082989,57.3808791 96.4166154,57.3808791 L161.35244,57.3808791 C163.686066,57.3808791 165.578374,59.2731868 165.578374,61.6068132 L165.578374,66.3413187 Z M161.352,52.9852747 L96.4166154,52.9852747 C91.6627692,52.9852747 87.7946374,56.852967 87.7946374,61.6068132 L87.7946374,66.3413187 C87.7946374,71.0951648 91.6623297,74.9632967 96.4161758,74.9632967 L161.352,74.9632967 C166.105846,74.9632967 169.973978,71.0951648 169.973978,66.3413187 L169.973978,61.6068132 C169.973978,56.852967 166.105846,52.9852747 161.352,52.9852747 L161.352,52.9852747 Z" id="Fill-39" fill="#000000"></path>
                <path d="M161.352308,84.8419341 L96.4169231,84.8419341 C94.0828571,84.8419341 92.1905495,86.7342418 92.1905495,89.0683077 L92.1905495,93.8028132 C92.1905495,96.1364396 94.0828571,98.0287473 96.4164835,98.0287473 L161.352308,98.0287473 C163.686374,98.0287473 165.578242,96.1364396 165.578242,93.8023736 L165.578242,89.0683077 C165.578242,86.7342418 163.686374,84.8419341 161.352308,84.8419341" id="Fill-41" fill="#00DCAD"></path>
                <path d="M95.4705934,93.8026813 L95.4705934,89.0681758 C95.4705934,86.7341099 97.3629011,84.8418022 99.6965275,84.8418022 L95.8367473,84.8418022 C93.5026813,84.8418022 91.6108132,86.7341099 91.6108132,89.0681758 L91.6108132,93.8026813 C91.6108132,96.1367473 93.5026813,98.0286154 95.8367473,98.0286154 L99.6965275,98.0286154 C97.3624615,98.0286154 95.4705934,96.1367473 95.4705934,93.8026813" id="Fill-43" fill="#FFFFFF"></path>
                <path d="M161.718901,93.8026813 L161.718901,89.0681758 C161.718901,86.7341099 159.826593,84.8418022 157.492527,84.8418022 L161.352308,84.8418022 C163.686374,84.8418022 165.578242,86.7341099 165.578242,89.0681758 L165.578242,93.8026813 C165.578242,96.1367473 163.686813,98.0286154 161.352308,98.0286154 L157.492527,98.0286154 C159.826593,98.0286154 161.718901,96.1367473 161.718901,93.8026813" id="Fill-45" fill="#00BA8E"></path>
                <path d="M103.706769,96.2022418 L103.497099,95.9925714 C102.700176,95.1956484 102.700176,93.891033 103.497099,93.0941099 L109.923033,86.6686154 C110.719956,85.8712527 112.024571,85.8712527 112.821495,86.6686154 L113.031165,86.8778462 C113.828088,87.6752088 113.828088,88.9793846 113.031165,89.7767473 L106.60567,96.2022418 C105.808308,96.9991648 104.503692,96.9991648 103.706769,96.2022418" id="Fill-47" fill="#000000"></path>
                <path d="M113.031121,95.9927473 L112.821451,96.2024176 C112.024527,96.9993407 110.719912,96.9993407 109.922989,96.2024176 L103.497495,89.7764835 C102.700132,88.9795604 102.700132,87.6749451 103.497495,86.878022 L103.706725,86.6683516 C104.504088,85.8714286 105.808264,85.8714286 106.605626,86.6683516 L113.031121,93.0938462 C113.828044,93.8912088 113.828044,95.1958242 113.031121,95.9927473" id="Fill-49" fill="#000000"></path>
                <path d="M117.453802,96.2022418 L117.244132,95.9925714 C116.447209,95.1956484 116.447209,93.891033 117.244132,93.0941099 L123.670066,86.6686154 C124.466989,85.8712527 125.771604,85.8712527 126.568527,86.6686154 L126.778198,86.8778462 C127.575121,87.6752088 127.575121,88.9793846 126.778198,89.7767473 L120.352264,96.2022418 C119.554901,96.9991648 118.250725,96.9991648 117.453802,96.2022418" id="Fill-51" fill="#000000"></path>
                <path d="M126.778154,95.9927473 L126.568484,96.2024176 C125.77156,96.9993407 124.466945,96.9993407 123.670022,96.2024176 L117.244527,89.7764835 C116.447165,88.9795604 116.447165,87.6749451 117.244527,86.878022 L117.453758,86.6683516 C118.251121,85.8714286 119.554857,85.8714286 120.35222,86.6683516 L126.778154,93.0938462 C127.575077,93.8912088 127.575077,95.1958242 126.778154,95.9927473" id="Fill-53" fill="#000000"></path>
                <path d="M131.200352,96.2022418 L130.990681,95.9925714 C130.193758,95.1956484 130.193758,93.891033 130.990681,93.0941099 L137.417055,86.6686154 C138.213978,85.8712527 139.518593,85.8712527 140.315516,86.6686154 L140.525187,86.8778462 C141.32211,87.6752088 141.32211,88.9793846 140.525187,89.7767473 L134.099253,96.2022418 C133.30189,96.9991648 131.997275,96.9991648 131.200352,96.2022418" id="Fill-55" fill="#000000"></path>
                <path d="M140.525143,95.9927473 L140.315473,96.2024176 C139.518549,96.9993407 138.213934,96.9993407 137.417011,96.2024176 L130.991077,89.7764835 C130.193714,88.9795604 130.193714,87.6749451 130.991077,86.878022 L131.200308,86.6683516 C131.99767,85.8714286 133.301846,85.8714286 134.099209,86.6683516 L140.525143,93.0938462 C141.322066,93.8912088 141.322066,95.1958242 140.525143,95.9927473" id="Fill-57" fill="#000000"></path>
                <path d="M144.947341,96.2022418 L144.73767,95.9925714 C143.940747,95.1956484 143.940747,93.891033 144.73767,93.0941099 L151.164044,86.6686154 C151.960967,85.8712527 153.265143,85.8712527 154.062066,86.6686154 L154.272176,86.8778462 C155.069099,87.6752088 155.069099,88.9793846 154.272176,89.7767473 L147.846242,96.2022418 C147.048879,96.9991648 145.744264,96.9991648 144.947341,96.2022418" id="Fill-59" fill="#000000"></path>
                <path d="M154.272132,95.9927473 L154.062022,96.2024176 C153.265099,96.9993407 151.960923,96.9993407 151.164,96.2024176 L144.738066,89.7764835 C143.940703,88.9795604 143.940703,87.6749451 144.738066,86.878022 L144.947297,86.6683516 C145.744659,85.8714286 147.048835,85.8714286 147.846198,86.6683516 L154.272132,93.0938462 C155.069055,93.8912088 155.069055,95.1958242 154.272132,95.9927473" id="Fill-61" fill="#000000"></path>
                <path d="M165.578374,93.8022418 C165.578374,96.1367473 163.686066,98.0286154 161.35244,98.0286154 L96.4166154,98.0286154 C94.082989,98.0286154 92.1906813,96.1367473 92.1906813,93.8026813 L92.1906813,89.0681758 C92.1906813,86.7341099 94.082989,84.8418022 96.4166154,84.8418022 L161.35244,84.8418022 C163.686066,84.8418022 165.578374,86.7341099 165.578374,89.0681758 L165.578374,93.8022418 Z M161.352,80.4461978 L96.4166154,80.4461978 C91.6627692,80.4461978 87.7946374,84.3143297 87.7946374,89.0681758 L87.7946374,93.8026813 C87.7946374,98.5565275 91.6623297,102.42422 96.4161758,102.42422 L161.352,102.42422 C166.105846,102.42422 169.973978,98.5565275 169.973978,93.8022418 L169.973978,89.0681758 C169.973978,84.3143297 166.105846,80.4461978 161.352,80.4461978 L161.352,80.4461978 Z" id="Fill-63" fill="#000000"></path>
            </g>
        </g>
    </g>
</svg>