<?xml version="1.0" encoding="UTF-8"?>
<svg width="128px" height="89px" viewBox="0 0 128 89" version="1.1" xmlns="http://www.w3.org/2000/svg" xmlns:xlink="http://www.w3.org/1999/xlink">
    <!-- Generator: Sketch 53.2 (72643) - https://sketchapp.com -->
    <title>Group 32 Copy</title>
    <desc>Created with Sketch.</desc>
    <defs>
        <polygon id="path-1" points="0.488618423 0.238290871 61.3738464 0.238290871 61.3738464 21.3825281 0.488618423 21.3825281"></polygon>
    </defs>
    <g id="Page-1" stroke="none" stroke-width="1" fill="none" fill-rule="evenodd">
        <g id="Cloud-Server-Windows" transform="translate(-73.000000, -4393.000000)">
            <g id="Group-32-Copy" transform="translate(73.000000, 4393.000000)">
                <polygon id="Fill-1" fill="#006AD3" points="39.4596045 83.5610301 45.1520042 80.7917441 47.0103905 72.3620554 81.2515962 72.3620554 83.0960135 80.7295856 88.9166293 83.5610301"></polygon>
                <g id="Group-31" transform="translate(0.000000, 0.019891)">
                    <path d="M121.525997,5.44966051 L6.19079641,5.44966051 C5.52776406,5.44966051 4.98895674,5.98720732 4.98895674,6.64807662 L4.98895674,51.3410412 L29.0482006,43.3708282 L21.064872,67.3694837 L121.525997,67.3694837 C122.189029,67.3694837 122.728336,66.8319369 122.728336,66.1715649 L122.728336,6.64807662 C122.728336,5.98720732 122.189029,5.44966051 121.525997,5.44966051" id="Fill-2" fill="#00D0DC"></path>
                    <path d="M79.9037797,70.3110731 C80.2170861,70.9197293 79.5715151,80.545845 79.5715151,80.545845 L83.5596872,82.3618681 L61.9340564,83.5408908 L75.5948177,86.212215 L88.6683788,85.0237442 L91.2721154,84.1097655 L89.4386738,81.0848837 L83.9378501,78.2613954 C83.9378501,78.2613954 82.2875032,74.2404856 82.2875032,73.6009988 C82.2875032,72.9610148 81.0956414,69.4284222 81.0956414,69.4284222 L79.9037797,70.3110731 Z" id="Fill-4" fill="#004386"></path>
                    <path d="M5.24089905,49.479717 C5.24089905,49.479717 6.38137456,11.9648174 11.2765389,9.92204003 C15.3420398,8.22585855 45.5307159,5.68432132 75.092779,5.68432132 C36.9312511,3.31483885 11.2765389,2.42224262 11.2765389,2.42224262 L3.42741328,4.9225066 C3.42741328,4.9225066 2.17368845,18.8509859 1.81498246,20.2796372 C1.45677537,21.7082884 1.81498246,47.7502186 1.81498246,47.7502186 L5.24089905,49.479717 Z" id="Fill-6" fill="#FFFFFF"></path>
                    <path d="M122.318692,21.1685039 C122.318692,21.1685039 121.128327,60.3308527 116.018638,62.4631383 C111.774034,64.23391 80.2592927,66.8873326 49.3996019,66.8873326 C89.2369204,69.3607441 116.018638,70.2926245 116.018638,70.2926245 L124.212002,67.6829615 C124.212002,67.6829615 125.521104,53.1423451 125.895276,51.6510381 C126.269447,50.1592338 125.895276,22.9740844 125.895276,22.9740844 L122.318692,21.1685039 Z" id="Fill-8" fill="#01848C"></path>
                    <g id="Group-12" transform="translate(32.927114, 67.131193)">
                        <mask id="mask-2" fill="white">
                            <use xlink:href="#path-1"></use>
                        </mask>
                        <g id="Clip-11"></g>
                        <path d="M11.6139919,16.4099466 L6.53224061,16.4099466 L12.2251391,13.6406606 L13.5916144,7.44221376 L14.0830266,5.21097182 L48.3242323,5.21097182 L48.8021744,7.38005525 L50.1686496,13.5785021 L51.4902242,14.2214697 L55.9892654,16.4099466 L11.6139919,16.4099466 Z M56.3848897,11.0692872 L54.5240088,10.1632648 L53.4319262,5.21097182 L52.6875739,1.83452146 C52.4820288,0.902641046 51.653862,0.238290871 50.6959823,0.238290871 L47.2276596,0.238290871 L15.1795993,0.238290871 L11.7112766,0.238290871 C10.7533969,0.238290871 9.92523009,0.902641046 9.71968507,1.83452146 L8.97533273,5.21097182 L7.86977991,10.2259206 L5.47757516,11.3895279 L1.63358399,13.2597532 C0.933134468,13.6008791 0.488618423,14.3089889 0.488618423,15.0862189 L0.488618423,16.4099466 L0.488618423,19.3502928 C0.488618423,20.4726269 1.40159751,21.3826275 2.52760504,21.3826275 L5.40922645,21.3826275 L5.47757516,21.3826275 L10.5179181,21.3826275 L56.3848897,21.3826275 L59.3348598,21.3826275 C60.4613662,21.3826275 61.3738464,20.4726269 61.3738464,19.3502928 L61.3738464,19.0300522 L61.3738464,16.4099466 L61.3738464,14.765481 C61.3738464,13.9887482 60.9303282,13.2801412 60.2293798,12.9395126 L56.3848897,11.0692872 Z" id="Fill-10" fill="#000000" mask="url(#mask-2)"></path>
                    </g>
                    <path d="M121.525997,0.477476825 L6.19079641,0.477476825 C2.77186436,0.477476825 0,3.24029836 0,6.64807662 L0,52.9939603 L4.98895674,51.3410412 L4.98895674,6.64807662 C4.98895674,5.98720732 5.52776406,5.44966051 6.19079641,5.44966051 L121.525997,5.44966051 C122.189029,5.44966051 122.728336,5.98720732 122.728336,6.64807662 L122.728336,66.1715649 C122.728336,66.8319369 122.189029,67.369981 121.525997,67.369981 L21.064872,67.369981 L19.410534,72.3426619 L121.525997,72.3426619 C124.945428,72.3426619 127.717292,69.5798404 127.717292,66.1715649 L127.717292,6.64807662 C127.717292,3.24029836 124.945428,0.477476825 121.525997,0.477476825" id="Fill-13" fill="#000000"></path>
                    <polygon id="Fill-15" fill="#EA2127" points="9.97791347e-05 58.2338732 21.1817134 51.2169231 14.1542689 72.3423636"></polygon>
                    <polygon id="Fill-17" fill="#000000" points="4.98905652 46.10083 4.98905652 51.3410412 29.0483004 43.3708282 21.0649718 67.3694837 26.3208377 67.3694837 36.9138896 35.5244349"></polygon>
                    <path d="M64.3244651,43.9155854 C54.048212,48.9817527 43.8547756,38.8220683 48.9375247,28.5788428 C49.859484,26.7210492 51.3781224,25.2073651 53.2424955,24.2879164 C63.5192475,19.2222463 73.712185,29.382428 68.628937,39.6251562 C67.7069778,41.4829498 66.1883394,42.9961367 64.3244651,43.9155854 M78.106957,36.3730229 L78.106957,31.7892056 C78.106957,31.5584732 77.9513015,31.3565824 77.7277963,31.2974075 L73.6059202,30.2019258 C73.2601855,28.8936135 72.7428307,27.6559132 72.0827917,26.5097102 L74.295394,22.6722923 C74.410639,22.4728878 74.376714,22.2212702 74.2135752,22.0586635 L70.9428151,18.7980766 C70.7796762,18.6359672 70.5287317,18.602153 70.3281757,18.7155301 L66.4886745,20.896548 C65.3427112,20.230706 64.1034543,19.7085745 62.7933543,19.3555142 L61.5760489,15.1327135 C61.513188,14.9144128 61.3131308,14.7637406 61.0851355,14.7637406 L56.4813262,14.7637406 C56.2533309,14.7637406 56.0532737,14.9144128 55.9904129,15.1327135 L54.7731074,19.3555142 C53.4635063,19.7085745 52.2242494,20.230706 51.0782861,20.896548 L47.2382861,18.7155301 C47.0387278,18.602153 46.7872844,18.6359672 46.6241455,18.7980766 L43.3528866,22.0586635 C43.1897477,22.2212702 43.1558228,22.4728878 43.2715666,22.6722923 L45.48367,26.5097102 C44.823631,27.6559132 44.3067751,28.8936135 43.9615393,30.2019258 L39.8386655,31.2974075 C39.6151602,31.3565824 39.4595047,31.5584732 39.4595047,31.7892056 L39.4595047,36.3730229 C39.4595047,36.5987826 39.6091734,36.7981871 39.826692,36.8613402 L43.9829918,38.0771607 C44.316753,39.3173473 44.804673,40.4943809 45.4233036,41.5888679 L43.3104804,45.4342421 C43.2022201,45.6311603 43.236145,45.8758162 43.3952927,46.0364338 L46.6760307,49.3507256 C46.8381718,49.5148241 47.0911119,49.5496329 47.2921668,49.4357585 L51.0618225,47.2980029 C52.2212561,47.9737903 53.4774754,48.5028835 54.8055357,48.8574357 L55.2749965,50.5242783 L56.0447925,53.4397612 L56.0966777,53.4397612 L61.4697841,53.4397612 L61.5216692,53.4397612 L62.2914652,50.5242783 L62.7609261,48.8574357 C64.0889864,48.5028835 65.3452057,47.9737903 66.5051381,47.2980029 L70.2747938,49.4357585 C70.4753499,49.5496329 70.72829,49.5148241 70.89093,49.3507256 L74.1716679,46.0364338 C74.3303167,45.8758162 74.3647405,45.6311603 74.2559813,45.4342421 L72.143657,41.5888679 C72.7622876,40.4943809 73.2497087,39.3173473 73.5844677,38.0771607 L77.7402687,36.8613402 C77.9577872,36.7981871 78.106957,36.5987826 78.106957,36.3730229" id="Fill-19" fill="#FFFFFF"></path>
                    <path d="M62.7021063,40.069515 C55.9405732,43.8462662 49.0079189,36.9362287 52.7965327,30.196257 C53.2804615,29.3344914 54.0008668,28.6169335 54.8649541,28.1340862 C61.6269861,24.3578323 68.5591415,31.268367 64.7705277,38.0078415 C64.2861,38.8691098 63.5661936,39.5866677 62.7021063,40.069515" id="Fill-21" fill="#FFFFFF"></path>
                    <path d="M117.298555,21.7254939 L82.5070672,21.7254939 C81.7487457,21.7254939 81.1346052,21.1133569 81.1346052,20.3575094 L81.1346052,18.1207975 C81.1346052,17.3654472 81.7487457,16.7528129 82.5070672,16.7528129 L117.298555,16.7528129 C118.056377,16.7528129 118.671017,17.3654472 118.671017,18.1207975 L118.671017,20.3575094 C118.671017,21.1133569 118.056377,21.7254939 117.298555,21.7254939" id="Fill-23" fill="#FFFFFF"></path>
                    <path d="M117.298555,31.2177451 L82.5070672,31.2177451 C81.7487457,31.2177451 81.1346052,30.6056081 81.1346052,29.8497606 L81.1346052,27.6130487 C81.1346052,26.8572012 81.7487457,26.2450642 82.5070672,26.2450642 L117.298555,26.2450642 C118.056377,26.2450642 118.671017,26.8572012 118.671017,27.6130487 L118.671017,29.8497606 C118.671017,30.6056081 118.056377,31.2177451 117.298555,31.2177451" id="Fill-25" fill="#FFFFFF"></path>
                    <path d="M117.298555,40.710046 L82.5070672,40.710046 C81.7487457,40.710046 81.1346052,40.097909 81.1346052,39.3420615 L81.1346052,37.1053496 C81.1346052,36.3495021 81.7487457,35.7373651 82.5070672,35.7373651 L117.298555,35.7373651 C118.056377,35.7373651 118.671017,36.3495021 118.671017,37.1053496 L118.671017,39.3420615 C118.671017,40.097909 118.056377,40.710046 117.298555,40.710046" id="Fill-27" fill="#FFFFFF"></path>
                    <path d="M117.298555,50.202347 L82.5070672,50.202347 C81.7487457,50.202347 81.1346052,49.59021 81.1346052,48.8343625 L81.1346052,46.5976506 C81.1346052,45.8418031 81.7487457,45.229666 82.5070672,45.229666 L117.298555,45.229666 C118.056377,45.229666 118.671017,45.8418031 118.671017,46.5976506 L118.671017,48.8343625 C118.671017,49.59021 118.056377,50.202347 117.298555,50.202347" id="Fill-29" fill="#FFFFFF"></path>
                </g>
            </g>
        </g>
    </g>
</svg>