<?xml version="1.0" encoding="UTF-8"?>
<svg width="52px" height="66px" viewBox="0 0 52 66" version="1.1" xmlns="http://www.w3.org/2000/svg" xmlns:xlink="http://www.w3.org/1999/xlink">
    <!-- Generator: Sketch 53.2 (72643) - https://sketchapp.com -->
    <title>Group 19</title>
    <desc>Created with Sketch.</desc>
    <defs>
        <polygon id="path-1" points="0.0709083693 0.00745890411 41.9970912 0.00745890411 41.9970912 47.6873959 0.0709083693 47.6873959"></polygon>
        <polygon id="path-3" points="0.084978355 6.78082192e-05 9.11722078 6.78082192e-05 9.11722078 9.04109589 0.084978355 9.04109589"></polygon>
        <polygon id="path-5" points="0.150935065 6.78082192e-05 1.28097835 6.78082192e-05 1.28097835 2.26027397 0.150935065 2.26027397"></polygon>
        <polygon id="path-7" points="0 0.120268959 51.9725821 0.120268959 51.9725821 33.4520548 0 33.4520548"></polygon>
    </defs>
    <g id="Page-1" stroke="none" stroke-width="1" fill="none" fill-rule="evenodd">
        <g id="Cloud-Server-Windows" transform="translate(-275.000000, -582.000000)">
            <g id="Group-19" transform="translate(275.000000, 582.000000)">
                <path d="M11.7817143,11.7534247 L40.1912727,11.7534247 L40.1912727,9.49315068 L11.7817143,9.49315068 L11.7817143,11.7534247 Z M9.53063203,14.0136986 L42.442355,14.0136986 L42.442355,7.23287671 L9.53063203,7.23287671 L9.53063203,14.0136986 Z" id="Fill-1" fill="#FC4649"></path>
                <path d="M11.7817143,20.5192192 L40.1912727,20.5192192 L40.1912727,18.2589452 L11.7817143,18.2589452 L11.7817143,20.5192192 Z M9.53063203,22.7794932 L42.442355,22.7794932 L42.442355,15.9986712 L9.53063203,15.9986712 L9.53063203,22.7794932 Z" id="Fill-2" fill="#FC4649"></path>
                <path d="M11.7817143,29.2847877 L40.1912727,29.2847877 L40.1912727,27.0245137 L11.7817143,27.0245137 L11.7817143,29.2847877 Z M9.53063203,31.5450616 L42.442355,31.5450616 L42.442355,24.7642397 L9.53063203,24.7642397 L9.53063203,31.5450616 Z" id="Fill-3" fill="#FC4649"></path>
                <g id="Group-18" transform="translate(0.000000, 0.218568)">
                    <g id="Group-6" transform="translate(4.952381, 0.000000)">
                        <mask id="mask-2" fill="white">
                            <use xlink:href="#path-1"></use>
                        </mask>
                        <g id="Clip-5"></g>
                        <path d="M2.32199134,46.4926151 L2.32199134,4.23182055 C2.32244156,3.68573836 2.53922078,3.20203973 2.89489177,2.84288219 C3.25258874,2.4857589 3.73432035,2.26832055 4.27795671,2.26764247 L37.7898182,2.26764247 C38.3336797,2.26832055 38.8154113,2.4857589 39.1731082,2.84288219 C39.5287792,3.20203973 39.7453333,3.68573836 39.7460087,4.23182055 L39.7460087,41.4361562 C40.5793593,43.1636836 41.0705455,45.0889849 41.1232208,47.1248137 C41.4262165,47.2952384 41.7161558,47.4853274 41.9970912,47.6873959 L41.9970909,4.23182055 C41.9975411,3.06890959 41.5243636,2.00567671 40.7646234,1.24486849 C40.0069091,0.482026027 38.948,0.00669041096 37.7898182,0.00736849315 L4.27795671,0.00736849315 C3.12,0.00669041096 2.0608658,0.482026027 1.30315152,1.24486849 C0.543636364,2.00567671 0.0702337662,3.06890959 0.0709090909,4.23182055 L0.0709090909,47.6821973 C0.757489177,47.1883274 1.51362771,46.7859986 2.32199134,46.4926151" id="Fill-4" fill="#FC4649" mask="url(#mask-2)"></path>
                    </g>
                    <g id="Group-9" transform="translate(21.385281, 56.732877)">
                        <mask id="mask-4" fill="white">
                            <use xlink:href="#path-3"></use>
                        </mask>
                        <g id="Clip-8"></g>
                        <polygon id="Fill-7" fill="#FC4649" mask="url(#mask-4)" points="0.084978355 9.0411637 9.11722078 9.0411637 4.59704762 6.78082192e-05"></polygon>
                    </g>
                    <path d="M20.0804866,63.5137664 L19.5438286,64.5889788 L20.0804866,63.5137664 Z" id="Fill-10" fill="#FC4649"></path>
                    <g id="Group-14" transform="translate(31.740260, 63.513699)">
                        <mask id="mask-6" fill="white">
                            <use xlink:href="#path-5"></use>
                        </mask>
                        <g id="Clip-13"></g>
                        <path d="M0.150935065,6.78082192e-05 L1.28097835,2.26034178 L0.150935065,6.78082192e-05 Z" id="Fill-12" fill="#FC4649" mask="url(#mask-6)"></path>
                    </g>
                    <g id="Group-17" transform="translate(0.000000, 32.321918)">
                        <mask id="mask-8" fill="white">
                            <use xlink:href="#path-7"></use>
                        </mask>
                        <g id="Clip-16"></g>
                        <path d="M47.3227463,28.7830295 C45.8368069,30.2730021 43.796426,31.1911253 41.5309368,31.1918034 L40.3405645,31.1918034 L34.4100883,31.1918034 L25.9788848,14.3276733 L17.5625385,31.1918034 L10.4414649,31.1918034 C8.17642597,31.1911253 6.13581991,30.2730021 4.65010563,28.7830295 C3.16619221,27.2912486 2.25157749,25.2423103 2.25090216,22.9677966 C2.25157749,21.056961 2.89651255,19.3090911 3.98175931,17.9120158 C5.06768139,16.5162966 6.59233939,15.4815432 8.34323117,15.0175089 L8.9051013,14.8681048 L9.10949957,14.3220226 C9.75150823,12.6044404 10.9002355,11.1305158 12.371768,10.0883034 C13.8442009,9.04631712 15.6322355,8.43581712 17.5731186,8.43536507 C18.476703,8.4355911 19.3465212,8.56985137 20.1699671,8.81735137 L20.9873351,9.06304315 L21.4436294,8.33952945 C22.5727723,6.54894041 24.1338978,5.05783767 25.9775342,4.01630342 C27.8216208,2.97454315 29.9448416,2.38076918 32.215058,2.38054315 C35.6801489,2.38122123 38.8118545,3.76496096 41.1115602,6.01619384 C43.4094649,8.2690089 44.8605126,11.3762075 44.9505558,14.8321664 L44.9672139,15.4747623 L45.5257074,15.7889404 C46.7768589,16.4923377 47.8276641,17.5175979 48.5633177,18.7508034 C49.2989714,19.984461 49.7212745,21.4219952 49.7214996,22.9677966 C49.7210494,25.2423103 48.8066597,27.2912486 47.3227463,28.7830295 M50.4942961,17.5890226 C49.6645472,16.1991801 48.524374,15.0208993 47.1689974,14.1461733 C46.9132745,10.3346733 45.2438719,6.90538562 42.683716,4.39851575 C39.9853437,1.7530911 36.2845645,0.119817123 32.215058,0.120269178 C29.5518026,0.119817123 27.0427463,0.82005 24.8733784,2.04647466 C22.9453264,3.13615274 21.2851532,4.64194726 20.0065385,6.4415774 C19.2227117,6.26798836 18.4082701,6.1750911 17.5731186,6.17531712 C15.1574823,6.17463904 12.9097766,6.94041986 11.0744693,8.24143356 C9.39110996,9.43372808 8.04946494,11.0760432 7.21814026,12.9965979 C5.21287619,13.6498171 3.47504069,14.8916116 2.20768139,16.5208171 C0.825291775,18.2962623 -0.00063030303,20.5407144 -0.00018008658,22.9677966 C-0.00063030303,25.8593651 1.17060779,28.4876116 3.05814026,30.3812692 C4.94432208,32.2767349 7.56165541,33.4525295 10.4414649,33.4520774 L16.4345212,33.4520774 L18.9525818,33.4520774 L19.5439411,32.2670158 L20.080374,31.1918034 L25.9804606,19.3694404 L31.8911273,31.1918034 L33.0211706,33.4520774 L33.076097,33.4520774 L35.5399065,33.4520774 L40.3405645,33.4520774 L41.5309368,33.4520774 C44.4107463,33.4525295 47.0283048,32.2767349 48.9142615,30.3812692 C50.8022442,28.4876116 51.9732571,25.8593651 51.9725818,22.9677966 C51.973032,21.0052007 51.4327723,19.1603651 50.4942961,17.5890226" id="Fill-15" fill="#FC4649" mask="url(#mask-8)"></path>
                    </g>
                </g>
            </g>
        </g>
    </g>
</svg>