<?xml version="1.0" encoding="UTF-8"?>
<svg width="115px" height="115px" viewBox="0 0 115 115" version="1.1" xmlns="http://www.w3.org/2000/svg" xmlns:xlink="http://www.w3.org/1999/xlink">
    <!-- Generator: Sketch 53.2 (72643) - https://sketchapp.com -->
    <title>Group 18</title>
    <desc>Created with Sketch.</desc>
    <defs>
        <polygon id="path-1" points="0 115 115 115 115 0 0 0"></polygon>
    </defs>
    <g id="Page-1" stroke="none" stroke-width="1" fill="none" fill-rule="evenodd">
        <g id="Cloud-Server-Windows" transform="translate(-73.000000, -3450.000000)">
            <g id="Group-18" transform="translate(73.000000, 3450.000000)">
                <polygon id="Fill-1" fill="#FFEBB7" points="4.49209766 4.49236719 4.49209766 110.507992 40.6896953 110.507992 57.4850859 76.991332 74.3096758 110.507992 110.507723 110.507992 110.507723 4.49236719"></polygon>
                <path d="M35.8912305,59.7460938 L97.0770703,59.7460938 L97.0770703,55.2539062 L35.8912305,55.2539062 L35.8912305,59.7460938 Z M31.399043,64.2382812 L101.569258,64.2382812 L101.569258,50.7617188 L31.399043,50.7617188 L31.399043,64.2382812 Z" id="Fill-2" fill="#000000"></path>
                <path d="M17.9229297,59.7460938 L22.4151172,59.7460938 L22.4151172,55.2539062 L17.9229297,55.2539062 L17.9229297,59.7460938 Z M13.430293,64.2382812 L26.9068555,64.2382812 L26.9068555,50.7617188 L13.430293,50.7617188 L13.430293,64.2382812 Z" id="Fill-3" fill="#000000"></path>
                <path d="M35.8912305,22.9101562 L97.0770703,22.9101562 L97.0770703,18.4179688 L35.8912305,18.4179688 L35.8912305,22.9101562 Z M31.399043,27.4023438 L101.569258,27.4023438 L101.569258,13.9257812 L31.399043,13.9257812 L31.399043,27.4023438 Z" id="Fill-4" fill="#000000"></path>
                <path d="M17.9229297,22.9101562 L22.4151172,22.9101562 L22.4151172,18.4179688 L17.9229297,18.4179688 L17.9229297,22.9101562 Z M13.430293,27.4023438 L26.9068555,27.4023438 L26.9068555,13.9257812 L13.430293,13.9257812 L13.430293,27.4023438 Z" id="Fill-5" fill="#000000"></path>
                <polygon id="Fill-6" fill="#FCB82A" points="17.9229297 59.7460938 22.4151172 59.7460938 22.4151172 55.2539062 17.9229297 55.2539062"></polygon>
                <polygon id="Fill-7" fill="#EA2127" points="17.9229297 22.9101562 22.4151172 22.9101562 22.4151172 18.4179688 17.9229297 18.4179688"></polygon>
                <polygon id="Fill-8" fill="#00DCAD" points="35.8912305 22.9101562 97.0770703 22.9101562 97.0770703 18.4179688 35.8912305 18.4179688"></polygon>
                <polygon id="Fill-9" fill="#00AFDC" points="35.8912305 59.7460938 97.0770703 59.7460938 97.0770703 55.2539062 35.8912305 55.2539062"></polygon>
                <g id="Group-17">
                    <path d="M4.49209766,4.49236719 L4.49209766,73.6720547 C4.49209766,73.6720547 7.80059375,9.33539453 8.69903125,8.88617578 C9.59746875,8.43695703 49.0164141,4.49236719 49.0164141,4.49236719 L4.49209766,4.49236719 Z" id="Fill-10" fill="#FFFFFF"></path>
                    <path d="M110.507723,112.473324 L110.507723,43.2936367 C110.507723,43.2936367 107.199227,107.629848 106.300789,108.079066 C105.402352,108.528285 71.6458086,110.80268 71.6458086,110.80268 L110.507723,112.473324 Z" id="Fill-12" fill="#D2B091"></path>
                    <mask id="mask-2" fill="white">
                        <use xlink:href="#path-1"></use>
                    </mask>
                    <g id="Clip-15"></g>
                    <path d="M4.4921875,36.8359375 L110.507812,36.8359375 L110.507812,4.4921875 L4.4921875,4.4921875 L4.4921875,36.8359375 Z M4.4921875,73.671875 L110.507812,73.671875 L110.507812,41.328125 L4.4921875,41.328125 L4.4921875,73.671875 Z M110.507812,110.507812 L74.3097656,110.507812 L58.0736523,78.1640625 L110.507812,78.1640625 L110.507812,110.507812 Z M40.6897852,110.507812 L4.4921875,110.507812 L4.4921875,78.1640625 L56.8971484,78.1640625 L40.6897852,110.507812 Z M110.362715,0 L4.63728516,0 C2.07628906,0 0,2.07583984 0,4.63773437 L0,110.362715 C0,112.923711 2.07628906,115 4.63728516,115 L43.4632617,115 L45.7138477,110.507812 L57.4883203,87.0114258 L69.283457,110.507812 L71.5385352,115 L110.362715,115 C112.923711,115 115,112.923711 115,110.362715 L115,4.63773437 C115,2.07583984 112.923711,0 110.362715,0 L110.362715,0 Z" id="Fill-14" fill="#000000" mask="url(#mask-2)"></path>
                    <polygon id="Fill-16" fill="#EA2127" mask="url(#mask-2)" points="48.4879082 115.00018 66.5119121 115.00018 57.4920488 97.0314297"></polygon>
                </g>
            </g>
        </g>
    </g>
</svg>