<?xml version="1.0" encoding="UTF-8"?>
<svg width="119px" height="115px" viewBox="0 0 119 115" version="1.1" xmlns="http://www.w3.org/2000/svg" xmlns:xlink="http://www.w3.org/1999/xlink">
    <!-- Generator: Sketch 53.2 (72643) - https://sketchapp.com -->
    <title>Group 48</title>
    <desc>Created with Sketch.</desc>
    <defs>
        <polygon id="path-1" points="0 0 118.808207 0 118.808207 114.999865 0 114.999865"></polygon>
    </defs>
    <g id="Page-1" stroke="none" stroke-width="1" fill="none" fill-rule="evenodd">
        <g id="Cloud-Server-Windows" transform="translate(-73.000000, -3885.000000)">
            <g id="Group-48" transform="translate(73.000000, 3885.000000)">
                <path d="M105.576469,57.2528848 C105.576469,81.6782559 85.7758047,101.478471 61.3508828,101.478471 C36.9255117,101.478471 17.1252969,81.6782559 17.1252969,57.2528848 C17.1252969,32.8279629 36.9255117,13.0272988 61.3508828,13.0272988 C85.7758047,13.0272988 105.576469,32.8279629 105.576469,57.2528848" id="Fill-1" fill="#FFDF4A"></path>
                <path d="M61.350793,99.2324668 C37.3009687,99.2324668 17.7347969,80.0364512 17.1391328,56.1299277 C17.1301484,56.5032285 17.125207,56.8774277 17.125207,57.2529746 C17.125207,81.6783457 36.9254219,101.478561 61.350793,101.478561 C85.7757148,101.478561 105.576379,81.6783457 105.576379,57.2529746 C105.576379,56.8774277 105.571438,56.5032285 105.562004,56.1299277 C104.96634,80.0364512 85.400168,99.2324668 61.350793,99.2324668" id="Fill-3" fill="#FF9E00"></path>
                <path d="M61.350793,16.1941113 C85.2451875,16.1941113 104.710734,35.1453027 105.545383,58.8366504 C105.563801,58.3106152 105.576379,57.7832324 105.576379,57.2527051 C105.576379,32.8277832 85.7757148,13.0271191 61.350793,13.0271191 C36.9254219,13.0271191 17.125207,32.8277832 17.125207,57.2527051 C17.125207,57.7832324 17.1377852,58.3106152 17.1562031,58.8366504 C17.9904023,35.1453027 37.4559492,16.1941113 61.350793,16.1941113" id="Fill-5" fill="#FFFFFF"></path>
                <path d="M19.1439512,70.1635215 C19.1740488,70.263248 19.2027988,70.3629746 19.2333457,70.462252 C19.2050449,70.361627 19.1767441,70.2619004 19.1439512,70.1635215" id="Fill-7" fill="#00DCAD"></path>
                <path d="M61.308207,4.49205273 C46.3878555,4.49205273 32.8964688,10.6962129 23.2553359,20.6513496 L23.2490469,20.6473066 C23.1632461,20.736252 23.0819375,20.8301387 22.9965859,20.9195332 L22.9970352,20.9195332 C22.0334609,21.9280293 21.1062734,22.9715645 20.2240078,24.052834 L20.2240078,24.0532832 L8.7500625,16.8621895 L5.31803125,53.0436152 L36.3581484,34.1642988 L24.0607852,26.4570527 C25.0378359,25.2872871 26.0674453,24.163791 27.1478164,23.0906074 C27.1473672,23.0910566 27.146918,23.0915059 27.1464688,23.0924043 C35.9210586,14.3793574 47.9947109,8.98424023 61.308207,8.98424023 C88.060082,8.98424023 109.823832,30.7484395 109.823832,57.4998652 C109.823832,84.2517402 88.060082,106.01549 61.308207,106.01549 C41.6638711,106.01549 24.7090078,94.2796504 17.0866641,77.4510176 C15.3953555,73.7171113 14.1671914,69.7311934 13.4673086,65.567834 C13.2242813,65.5413301 12.9785586,65.5256074 12.7283438,65.5256074 C11.3851797,65.5256074 10.1368008,65.9222676 9.08428125,66.5978926 C9.84031641,70.9485762 11.1282266,75.119123 12.8783828,79.0394551 C21.1498477,97.5643379 39.7448086,110.507678 61.308207,110.507678 C90.536625,110.507678 114.31602,86.7282832 114.31602,57.4998652 C114.31602,28.2714473 90.536625,4.49205273 61.308207,4.49205273" id="Fill-9" fill="#00DCAD"></path>
                <path d="M61.308207,4.49205273 C46.3878555,4.49205273 32.8964688,10.6962129 23.2553359,20.6513496 L23.2490469,20.6473066 C23.1632461,20.736252 23.0819375,20.8301387 22.9965859,20.9195332 L22.9970352,20.9195332 C22.0334609,21.9280293 21.1062734,22.9715645 20.2240078,24.052834 L20.2240078,24.0532832 L8.7500625,16.8621895 L5.31803125,53.0436152 L36.3581484,34.1642988 L24.0607852,26.4570527 C25.0378359,25.2872871 26.0674453,24.163791 27.1478164,23.0906074 C27.1473672,23.0910566 27.146918,23.0915059 27.1464688,23.0924043 C35.9210586,14.3793574 47.9947109,8.98424023 61.308207,8.98424023 C88.060082,8.98424023 109.823832,30.7484395 109.823832,57.4998652 C109.823832,84.2517402 88.060082,106.01549 61.308207,106.01549 C41.6638711,106.01549 24.7090078,94.2796504 17.0866641,77.4510176 C15.3953555,73.7171113 14.1671914,69.7311934 13.4673086,65.567834 C13.2242813,65.5413301 12.9785586,65.5256074 12.7283438,65.5256074 C11.3851797,65.5256074 10.1368008,65.9222676 9.08428125,66.5978926 C9.84031641,70.9485762 11.1282266,75.119123 12.8783828,79.0394551 C21.1498477,97.5643379 39.7448086,110.507678 61.308207,110.507678 C90.536625,110.507678 114.31602,86.7282832 114.31602,57.4998652 C114.31602,28.2714473 90.536625,4.49205273 61.308207,4.49205273" id="Fill-11" fill="#00DCAD"></path>
                <path d="M25.7414023,27.5105605 C25.5819297,27.6960879 25.4143711,27.8753262 25.2575938,28.0630996 L35.6650937,34.5857559 L36.3582383,34.1643887 L25.7414023,27.5105605 Z" id="Fill-13" fill="#FFFFFF"></path>
                <path d="M62.5049707,107.621537 C89.2568457,107.621537 111.020596,85.8577871 111.020596,59.1059121 C111.020596,47.9401309 107.226494,37.6444863 100.862861,29.4359121 C106.503701,37.3637246 109.823877,47.051127 109.823877,57.4999551 C109.823877,84.2518301 88.060127,106.01558 61.308252,106.01558 C45.754502,106.01558 31.8925098,98.6542324 23.0078613,87.2377871 C31.8138965,99.565248 46.2338184,107.621537 62.5049707,107.621537" id="Fill-15" fill="#FFFFFF"></path>
                <path d="M9.94682617,18.4682813 L21.4207715,25.659375 L21.4207715,25.6589258 C22.3030371,24.5776563 23.2302246,23.5341211 24.1937988,22.525625 L24.1933496,22.525625 C24.2787012,22.4362305 24.3600098,22.3423438 24.4458105,22.2533984 L24.4520996,22.2574414 C34.0932324,12.3018555 47.5846191,6.09814453 62.5049707,6.09814453 C79.5622559,6.09814453 94.7606738,14.198457 104.4629,26.7514258 C94.8406348,13.286543 79.0824902,4.4921875 61.308252,4.4921875 C46.3879004,4.4921875 32.8965137,10.6958984 23.2553809,20.6510352 L23.2490918,20.6474414 C23.163291,20.7363867 23.0819824,20.8302734 22.9966309,20.919668 L22.9970801,20.919668 C22.0335059,21.9281641 21.1063184,22.97125 20.2240527,24.0529687 L20.2240527,24.053418 L8.75010742,16.8623242 L5.31807617,53.04375 L6.74973633,52.1727148 L9.94682617,18.4682813 Z" id="Fill-17" fill="#FFFFFF"></path>
                <path d="M14.0753262,80.6455918 C12.3251699,76.7248105 11.0368105,72.5547129 10.2812246,68.2040293 C11.2892715,67.5567051 12.4783535,67.1699277 13.7581777,67.1380332 C13.6530605,66.6173887 13.5555801,66.0940488 13.467084,65.5680137 C13.2240566,65.5415098 12.9787832,65.5257871 12.7285684,65.5257871 C11.3854043,65.5257871 10.1365762,65.9224473 9.08450586,66.5980723 C9.8400918,70.9487559 11.128002,75.1188535 12.8786074,79.0396348 C14.6193301,82.9379551 16.8218496,86.5851621 19.4084512,89.9201621 C17.3362051,87.0298887 15.5406777,83.927584 14.0753262,80.6455918" id="Fill-19" fill="#FFFFFF"></path>
                <path d="M19.7120781,43.0827285 C19.8481914,42.7795059 19.9609453,42.4646035 20.0516875,42.1398184 C19.9348906,42.4524746 19.8216875,42.7669277 19.7120781,43.0827285" id="Fill-21" fill="#00DCAD"></path>
                <path d="M18.2139336,45.1998516 L15.7117852,46.7218047 C16.6578398,46.4006133 17.5086602,45.8759258 18.2139336,45.1998516" id="Fill-23" fill="#000000"></path>
                <polygon id="Fill-25" fill="#EA2127" points="27.8076738 34.1071133 12.5346855 24.5351602 10.6358379 44.5514492"></polygon>
                <path d="M94.1981621,59.4989785 L99.1723613,59.4989785 C100.493064,59.4989785 101.563553,58.662084 101.563553,57.6288809 L101.563553,56.8768887 C101.563553,55.8441348 100.493064,55.006791 99.1723613,55.006791 L94.1981621,55.006791 C92.877459,55.006791 91.8069707,55.8441348 91.8069707,56.8768887 L91.8069707,57.6288809 C91.8069707,58.662084 92.877459,59.4989785 94.1981621,59.4989785" id="Fill-27" fill="#000000"></path>
                <path d="M86.1652773,35.614916 L89.6826602,32.0975332 C90.6165859,31.1636074 90.7814492,29.8146035 90.0510195,29.0841738 L89.5195938,28.5522988 C88.7891641,27.8218691 87.4401602,27.9871816 86.5066836,28.9211074 L82.9893008,32.4384902 C82.055375,33.3719668 81.8900625,34.7209707 82.6204922,35.4514004 L83.1523672,35.9828262 C83.8827969,36.7132559 85.2318008,36.5483926 86.1652773,35.614916" id="Fill-29" fill="#000000"></path>
                <path d="M63.5968867,24.4059199 L63.5968867,19.4312715 C63.5968867,18.1105684 62.759543,17.0405293 61.7267891,17.0405293 L60.9747969,17.0405293 C59.9415938,17.0405293 59.1046992,18.1105684 59.1046992,19.4312715 L59.1046992,24.4059199 C59.1046992,25.7261738 59.9415938,26.7966621 60.9747969,26.7966621 L61.7267891,26.7966621 C62.759543,26.7966621 63.5968867,25.7261738 63.5968867,24.4059199" id="Fill-31" fill="#000000"></path>
                <path d="M28.5034238,55.006791 L23.5292246,55.006791 C22.2080723,55.006791 21.1380332,55.8441348 21.1380332,56.8768887 L21.1380332,57.6293301 C21.1380332,58.662084 22.2080723,59.4989785 23.5292246,59.4989785 L28.5034238,59.4989785 C29.8236777,59.4989785 30.8946152,58.662084 30.8946152,57.6293301 L30.8946152,56.8768887 C30.8946152,55.8441348 29.8236777,55.006791 28.5034238,55.006791" id="Fill-33" fill="#000000"></path>
                <path d="M36.5358145,78.8912578 L33.0184316,82.4086406 C32.0849551,83.3425664 31.9200918,84.6915703 32.6500723,85.422 L33.1819473,85.953875 C33.9119277,86.6843047 35.2609316,86.5189922 36.1948574,85.5850664 L39.7122402,82.0676836 C40.646166,81.1337578 40.8114785,79.7847539 40.0810488,79.0547734 L39.5491738,78.5228984 C38.8187441,77.792918 37.4697402,77.9577812 36.5358145,78.8912578" id="Fill-35" fill="#000000"></path>
                <path d="M59.1046992,90.1002539 L59.1046992,95.0744531 C59.1046992,96.3956055 59.942043,97.4656445 60.9747969,97.4656445 L61.7267891,97.4656445 C62.759543,97.4656445 63.5968867,96.3956055 63.5968867,95.0744531 L63.5968867,90.1002539 C63.5968867,88.78 62.759543,87.7095117 61.7267891,87.7095117 L60.9747969,87.7095117 C59.942043,87.7095117 59.1046992,88.78 59.1046992,90.1002539" id="Fill-37" fill="#000000"></path>
                <path d="M82.989166,82.0678184 L86.5065488,85.5852012 C87.4400254,86.519127 88.7890293,86.683541 89.519459,85.9535605 L90.051334,85.4221348 C90.7817637,84.6917051 90.6164512,83.3427012 89.6825254,82.4087754 L86.1651426,78.8913926 C85.231666,77.957916 83.8826621,77.7926035 83.1522324,78.522584 L82.6208066,79.054459 C81.890377,79.7848887 82.0552402,81.1338926 82.989166,82.0678184" id="Fill-39" fill="#000000"></path>
                <g id="Group-43">
                    <mask id="mask-2" fill="white">
                        <use xlink:href="#path-1"></use>
                    </mask>
                    <g id="Clip-42"></g>
                    <path d="M61.308207,110.507678 C39.7448086,110.507678 21.1498477,97.5643379 12.8783828,79.0394551 C12.7081289,78.6576191 12.5450625,78.2703926 12.383793,77.8836152 C12.2777773,77.6289082 12.160082,77.3400605 12.0338516,77.0220137 C11.9615273,76.8409785 11.8896523,76.6590449 11.8195742,76.4771113 C11.7378164,76.2659785 11.6542617,76.0454121 11.5693594,75.8181074 C11.1650625,74.7242598 10.7985,73.6119941 10.4651797,72.4853535 C10.4274453,72.3227363 10.4004922,72.1560762 10.4004922,71.9817793 C10.4004922,70.7275605 11.416625,69.7114277 12.6708438,69.7114277 C13.6025234,69.7114277 14.388207,70.2783418 14.7354531,71.0815449 C14.7951992,71.2859395 14.8509023,71.4925801 14.913793,71.6965254 C14.9982461,71.970998 15.1226797,72.3645137 15.2839492,72.8420332 C15.3706484,73.1030293 15.4609414,73.3622285 15.552582,73.6209785 C15.6186172,73.8083027 15.6877969,74.0014668 15.7614688,74.203166 C15.8432266,74.4246309 15.9249844,74.6451973 16.0089883,74.8648652 C16.2623477,75.5283613 16.5489492,76.240373 16.8665469,76.9658613 C16.8692422,76.9636152 16.8710391,76.9613691 16.8732852,76.9595723 C16.9451602,77.1230879 17.0134414,77.2888496 17.0866641,77.4510176 C24.7090078,94.2796504 41.6638711,106.01549 61.308207,106.01549 C88.060082,106.01549 109.823832,84.2517402 109.823832,57.4998652 C109.823832,30.7484395 88.060082,8.98424023 61.308207,8.98424023 C47.9956094,8.98424023 35.9224063,14.378459 27.1478164,23.0906074 C26.0674453,24.163791 25.0378359,25.2872871 24.0607852,26.4570527 L27.9060977,28.8671113 L36.3581484,34.1642988 L18.2137539,45.1998066 C17.5084805,45.8758809 16.6576602,46.4005684 15.7116055,46.7217598 L5.31803125,53.0436152 L8.7500625,16.8621895 L16.3737539,21.6400801 L20.2240078,24.052834 C21.1848867,22.8754316 22.1929336,21.7380098 23.2490469,20.6473066 C32.8906289,10.6921699 46.3874063,4.49205273 61.308207,4.49205273 C90.536625,4.49205273 114.31602,28.2714473 114.31602,57.4998652 C114.31602,86.7282832 90.536625,110.507678 61.308207,110.507678 M61.308207,-0.000134765625 C44.7526992,-0.000134765625 29.8390859,7.0045332 19.3489297,18.2026582 L4.96584375,9.18908398 L-0.00026953125,61.5356465 L44.9085781,34.2213496 L31.0650039,25.5451387 C38.9573281,18.0705879 49.6051602,13.4764277 61.308207,13.4764277 C85.5826406,13.4764277 105.331645,33.2254316 105.331645,57.4998652 C105.331645,81.7742988 85.5826406,101.523303 61.308207,101.523303 C41.5434805,101.523303 24.7804336,88.430373 19.2334805,70.4620723 C19.2029336,70.3632441 19.1741836,70.2630684 19.1440859,70.1633418 C18.5839102,68.4702363 17.3741641,67.0736152 15.8095352,66.2699629 C14.8783047,65.7574043 13.8091641,65.4640645 12.6708438,65.4640645 C10.621957,65.4640645 8.79588281,66.411916 7.60051172,67.8907441 C6.58482813,69.0721895 5.96805078,70.6058223 5.96805078,72.2863496 C5.96805078,72.7396113 6.01432031,73.1811934 6.09922266,73.6092988 C6.22230859,74.0320137 6.3494375,74.4524824 6.48150781,74.8707051 C13.8464492,98.1361934 35.6066055,114.999865 61.308207,114.999865 C93.0648281,114.999865 118.808207,89.2560371 118.808207,57.4998652 C118.808207,25.7436934 93.0648281,-0.000134765625 61.308207,-0.000134765625" id="Fill-41" fill="#000000" mask="url(#mask-2)"></path>
                </g>
                <path d="M54.4725801,58.9137363 L60.0280684,51.7504941 C60.1857441,51.5474473 60.2135957,51.2720762 60.1003926,51.0411777 C59.9871895,50.8102793 59.7526973,50.663834 59.4957441,50.663834 L56.1158223,50.663834 C55.9001973,50.663834 55.6975996,50.7671543 55.5704707,50.9419004 L53.1388496,54.2912754 L52.8046309,54.7827207 C52.5162324,55.2054355 52.2210957,55.637584 51.9250605,56.0939902 C51.5364863,55.5073105 51.1335371,54.9179355 50.6834199,54.3043027 L48.2293379,50.9405527 C48.102209,50.7662559 47.9000605,50.663834 47.6848848,50.663834 L44.1980488,50.663834 C43.9419941,50.663834 43.7079512,50.8089316 43.5942988,51.0384824 C43.4806465,51.267584 43.5067012,51.5420566 43.6621309,51.7455527 L49.1848262,59.0022324 L43.379123,66.583248 C43.2227949,66.7867441 43.1958418,67.061666 43.3094941,67.2912168 C43.4231465,67.5212168 43.6571895,67.6667637 43.9136934,67.6667637 L47.3645918,67.6667637 C47.5833613,67.6667637 47.7886543,67.560748 47.9148848,67.381959 L50.4107441,63.8470566 L50.8514277,63.2069199 C51.1470137,62.7792637 51.4322676,62.3664316 51.7112324,61.9428184 C52.1406855,62.5968809 52.5665449,63.2221934 53.0418184,63.860084 L55.5677754,67.3855527 C55.6949043,67.5620957 55.8988496,67.6667637 56.1158223,67.6667637 L59.6731855,67.6667637 C59.9283418,67.6667637 60.1614863,67.5230137 60.2755879,67.2948105 C60.3901387,67.0666074 60.3654316,66.7939316 60.2126973,66.5895371 L54.4725801,58.9137363 Z" id="Fill-44" fill="#000000"></path>
                <path d="M74.5404395,55.4858379 C76.5075684,54.3740215 77.6027637,52.666541 77.6027637,50.6257402 C77.6027637,47.7947637 75.348584,44.9386309 70.3119434,44.9386309 C67.6637988,44.9386309 65.1782715,45.8074199 63.8894629,46.6690215 C63.6257715,46.8455645 63.5211035,47.1820293 63.6374512,47.477166 L64.4559277,49.547166 C64.5300488,49.7349395 64.6850293,49.8800371 64.8768457,49.9411309 C65.0686621,50.0026738 65.2788965,49.9748223 65.4491504,49.8643145 C66.360166,49.2731426 68.0222754,48.5826934 69.7072949,48.5826934 C71.8563574,48.5826934 73.0890137,49.4923613 73.0890137,51.0785527 C73.0890137,53.1795488 70.3384473,53.9625371 68.6044629,53.9625371 L66.8610449,53.9625371 C66.4890918,53.9625371 66.1872168,54.2644121 66.1872168,54.6363652 L66.1872168,56.771502 C66.1872168,57.1434551 66.4890918,57.4453301 66.8610449,57.4453301 L68.6044629,57.4453301 C71.0311426,57.4453301 73.8755957,58.3725176 73.907041,60.9905645 C73.9236621,61.7919707 73.6105566,62.581248 73.0476855,63.1557988 C72.264248,63.9554082 70.9862207,64.3785723 69.3515137,64.3785723 C67.2460254,64.3785723 65.3018066,63.570877 64.567334,63.1436699 C64.3970801,63.0443926 64.1917871,63.0259746 64.0058105,63.0902129 C63.819834,63.1553496 63.672041,63.2986504 63.600166,63.4823809 L62.7466504,65.6817559 C62.6276074,65.9885723 62.7475488,66.3358184 63.0296582,66.5042754 C64.2034668,67.2050566 66.5735449,68.0226348 69.387002,68.0226348 C75.6765137,68.0226348 78.4922168,64.5164824 78.4922168,61.0413262 C78.4922168,58.541873 76.9891309,56.4929863 74.5404395,55.4858379" id="Fill-46" fill="#000000"></path>
            </g>
        </g>
    </g>
</svg>