<?xml version="1.0" encoding="UTF-8"?>
<svg width="313px" height="62px" viewBox="0 0 313 62" version="1.1" xmlns="http://www.w3.org/2000/svg" xmlns:xlink="http://www.w3.org/1999/xlink">
    <!-- Generator: Sketch 61.2 (89653) - https://sketch.com -->
    <title>virtuozzo-logo</title>
    <desc>Created with Sketch.</desc>
    <g id="Page-1" stroke="none" stroke-width="1" fill="none" fill-rule="evenodd">
        <g id="Cloud-Server_color" transform="translate(-825.000000, -196.000000)" fill="#FFFFFF" fill-rule="nonzero">
            <g id="Group-2">
                <g id="Group" transform="translate(463.000000, 182.000000)">
                    <g id="virtuozzo-logo" transform="translate(362.000000, 14.000000)">
                        <path d="M81.2433628,26.0742332 L80.8716814,26.0742332 L80.1814159,20.1649239 L74.5,20.1649239 L74.5,60 L81.9336283,60 L81.9336283,34.6743887 C83.7389381,29.8203132 87.3495575,27.129467 92.5,26.5490884 L92.5,20.0066388 C87.1371681,19.8483538 83.2610619,22.5392 81.2433628,26.0742332" id="Path"></path>
                        <polygon id="Path" points="19.5 20 27.5091185 5.01319261 20.3784195 5.01319261 20.3784195 0 36.5 0 28.4908815 14.828496 35.9832827 14.7757256 35.9832827 20"></polygon>
                        <polygon id="Path" points="48.1651163 5 29.0469767 48.9790076 28.7344186 50.028626 28.4218605 50.028626 28.0572093 48.9790076 8.83488372 5 0.5 5 25.192093 60 31.964186 60 56.5 5"></polygon>
                        <path d="M154.5,44.3544304 C154.5,54.9417722 148.86082,62 138.000178,62 C127.139536,62 121.448141,54.8898734 121.500356,44.3544304 L121.500356,21 L129.019262,21 L129.019262,43.6278481 C129.019262,51.8797468 133.039789,55.0974684 137.947963,55.0974684 C142.856138,55.0974684 146.772235,51.8797468 146.876665,43.6278481 L146.876665,21 L154.395571,21 L154.395571,44.3544304 L154.5,44.3544304 Z" id="Path"></path>
                        <rect id="Rectangle" x="55.5" y="20" width="8" height="40"></rect>
                        <path d="M97.5,45.1280835 C97.5,54.4686907 101.970948,60 111.276758,60 L113.356269,60 L113.356269,53.5294118 C106.701835,53.4250474 104.882263,50.2941176 104.882263,42.727704 L104.882263,26.4468691 L114.5,26.4468691 L114.5,20.0806452 L104.882263,20.0806452 L104.882263,5 L97.5,5 L97.5,45.1280835 Z" id="Path"></path>
                        <polygon id="Path" points="234.355491 20 209.488439 20 209.488439 26.2796834 223.32659 26.2796834 208.5 60 235.5 60 235.5 53.7203166 219.372832 53.7203166"></polygon>
                        <polygon id="Path" points="265.305769 20 240.486538 20 240.486538 26.2796834 254.246154 26.2796834 239.5 60 266.5 60 266.5 53.7203166 250.403846 53.7203166"></polygon>
                        <path d="M184,55.0256098 C176.162562,55.0256098 170.44335,48.4707317 170.44335,40.5 C170.44335,32.5292683 176.162562,25.9743902 184,25.9743902 C191.837438,25.9743902 197.55665,32.5292683 197.55665,40.5 C197.55665,48.4707317 191.837438,55.0256098 184,55.0256098 M184,19 C171.767241,19 162.5,28.3865854 162.5,40.5 C162.5,52.6134146 171.767241,62 184,62 C196.232759,62 205.5,52.6134146 205.5,40.5 C205.5,28.3865854 196.232759,19 184,19" id="Shape"></path>
                        <path d="M291,55.0256098 C283.162562,55.0256098 277.44335,48.4707317 277.44335,40.5 C277.44335,32.5292683 283.162562,25.9743902 291,25.9743902 C298.837438,25.9743902 304.55665,32.5292683 304.55665,40.5 C304.55665,48.4707317 298.837438,55.0256098 291,55.0256098 M291,19 C278.767241,19 269.5,28.3865854 269.5,40.5 C269.5,52.6134146 278.767241,62 291,62 C303.232759,62 312.5,52.6134146 312.5,40.5 C312.5,28.3865854 303.232759,19 291,19" id="Shape"></path>
                        <path d="M81.2433628,26.0742332 L80.8716814,26.0742332 L80.1814159,20.1649239 L74.5,20.1649239 L74.5,60 L81.9336283,60 L81.9336283,34.6743887 C83.7389381,29.8203132 87.3495575,27.129467 92.5,26.5490884 L92.5,20.0066388 C87.1371681,19.8483538 83.2610619,22.5392 81.2433628,26.0742332" id="Path-Copy-7"></path>
                        <polygon id="Path-Copy-6" points="19.5 20 27.5091185 5.01319261 20.3784195 5.01319261 20.3784195 0 36.5 0 28.4908815 14.828496 35.9832827 14.7757256 35.9832827 20"></polygon>
                        <polygon id="Path-Copy-5" points="48.1651163 5 29.0469767 48.9790076 28.7344186 50.028626 28.4218605 50.028626 28.0572093 48.9790076 8.83488372 5 0.5 5 25.192093 60 31.964186 60 56.5 5"></polygon>
                        <path d="M154.5,44.3544304 C154.5,54.9417722 148.86082,62 138.000178,62 C127.139536,62 121.448141,54.8898734 121.500356,44.3544304 L121.500356,21 L129.019262,21 L129.019262,43.6278481 C129.019262,51.8797468 133.039789,55.0974684 137.947963,55.0974684 C142.856138,55.0974684 146.772235,51.8797468 146.876665,43.6278481 L146.876665,21 L154.395571,21 L154.395571,44.3544304 L154.5,44.3544304 Z" id="Path-Copy-4"></path>
                        <rect id="Rectangle-Copy" x="55.5" y="20" width="8" height="40"></rect>
                        <path d="M97.5,45.1280835 C97.5,54.4686907 101.970948,60 111.276758,60 L113.356269,60 L113.356269,53.5294118 C106.701835,53.4250474 104.882263,50.2941176 104.882263,42.727704 L104.882263,26.4468691 L114.5,26.4468691 L114.5,20.0806452 L104.882263,20.0806452 L104.882263,5 L97.5,5 L97.5,45.1280835 Z" id="Path-Copy-3"></path>
                        <polygon id="Path-Copy-2" points="234.355491 20 209.488439 20 209.488439 26.2796834 223.32659 26.2796834 208.5 60 235.5 60 235.5 53.7203166 219.372832 53.7203166"></polygon>
                        <polygon id="Path-Copy" points="265.305769 20 240.486538 20 240.486538 26.2796834 254.246154 26.2796834 239.5 60 266.5 60 266.5 53.7203166 250.403846 53.7203166"></polygon>
                        <path d="M184,55.0256098 C176.162562,55.0256098 170.44335,48.4707317 170.44335,40.5 C170.44335,32.5292683 176.162562,25.9743902 184,25.9743902 C191.837438,25.9743902 197.55665,32.5292683 197.55665,40.5 C197.55665,48.4707317 191.837438,55.0256098 184,55.0256098 M184,19 C171.767241,19 162.5,28.3865854 162.5,40.5 C162.5,52.6134146 171.767241,62 184,62 C196.232759,62 205.5,52.6134146 205.5,40.5 C205.5,28.3865854 196.232759,19 184,19" id="Shape-Copy-2"></path>
                        <path d="M291,55.0256098 C283.162562,55.0256098 277.44335,48.4707317 277.44335,40.5 C277.44335,32.5292683 283.162562,25.9743902 291,25.9743902 C298.837438,25.9743902 304.55665,32.5292683 304.55665,40.5 C304.55665,48.4707317 298.837438,55.0256098 291,55.0256098 M291,19 C278.767241,19 269.5,28.3865854 269.5,40.5 C269.5,52.6134146 278.767241,62 291,62 C303.232759,62 312.5,52.6134146 312.5,40.5 C312.5,28.3865854 303.232759,19 291,19" id="Shape-Copy"></path>
                    </g>
                </g>
            </g>
        </g>
    </g>
</svg>