<?xml version="1.0" encoding="UTF-8"?>
<svg width="23px" height="22px" viewBox="0 0 23 22" version="1.1" xmlns="http://www.w3.org/2000/svg" xmlns:xlink="http://www.w3.org/1999/xlink">
    <!-- Generator: Sketch 61.2 (89653) - https://sketch.com -->
    <title>Group 24</title>
    <desc>Created with Sketch.</desc>
    <g id="Page-1" stroke="none" stroke-width="1" fill="none" fill-rule="evenodd">
        <g id="CloudHosting_Op4" transform="translate(-340.000000, -452.000000)">
            <g id="Group-27" transform="translate(328.000000, 443.000000)">
                <g id="Group-25" transform="translate(12.000000, 8.000000)">
                    <g id="Group-12">
                        <g id="Group-24" transform="translate(0.000000, 1.000000)">
                            <path d="M9.02814166,1.75270947 L0.417150486,2.86979427 C0.176999162,2.90054928 -0.0020701951,3.10593025 -1.57139259e-14,3.34727895 L-1.57139259e-14,10.0346709 C-1.57139259e-14,10.2989555 0.214065997,10.5126768 0.478232453,10.5126768 L9.08974569,10.5126768 C9.35391215,10.5126768 9.56796007,10.2989555 9.56796007,10.0346709 L9.56796007,2.22550271 C9.56796007,2.08840831 9.50844431,1.95809043 9.40559689,1.86738919 C9.30118327,1.77825177 9.1649235,1.73655005 9.02814166,1.75270947" id="Fill-413" fill="#F44336"></path>
                            <path d="M22.8007679,0.122693526 C22.6984425,0.0304284725 22.5606166,-0.012837061 22.4238347,0.00332235511 L10.9419911,1.49885025 C10.7018398,1.52960527 10.5227704,1.73446497 10.5248406,1.97633494 L10.5248406,10.0346709 C10.5248406,10.2984342 10.7389066,10.5126768 11.0030731,10.5126768 L22.4854388,10.5126768 C22.7490831,10.5126768 22.9636531,10.2984342 22.9636531,10.0346709 L22.9636531,0.480807038 C22.9636531,0.344233908 22.9036153,0.213394765 22.8007679,0.122693526" id="Fill-415" fill="#4CAF50"></path>
                            <path d="M9.08985011,11.4674898 L0.478336867,11.4674898 C0.21417041,11.4674898 0.000104413619,11.6817324 0.000104413619,11.9454958 L0.000104413619,18.6328877 C-0.00196578148,18.8747576 0.177103575,19.0801386 0.417254899,19.1103724 L9.02824607,20.2321486 C9.04860673,20.2331911 9.06896738,20.2331911 9.08932804,20.2321486 C9.35401656,20.2321486 9.56806448,20.017906 9.56806448,19.7541426 L9.56806448,11.9454958 C9.56806448,11.6817324 9.35401656,11.4674898 9.08985011,11.4674898" id="Fill-417" fill="#2196F3"></path>
                            <path d="M22.4851777,11.4674898 L11.0033341,11.4674898 C10.7391676,11.4674898 10.5251016,11.6817324 10.5251016,11.9454958 L10.5251016,20.0038317 C10.5230314,20.2457017 10.7021008,20.4505613 10.9422521,20.4813164 L22.4240958,21.9768443 C22.4444564,21.9778868 22.4648171,21.9778868 22.4851777,21.9768443 C22.7493442,21.9768443 22.9633921,21.7626017 22.9633921,21.4988383 L22.9633921,11.9454958 C22.9633921,11.6817324 22.7493442,11.4674898 22.4851777,11.4674898" id="Fill-419" fill="#FFC107"></path>
                        </g>
                    </g>
                </g>
            </g>
        </g>
    </g>
</svg>