<?xml version="1.0" encoding="UTF-8"?>
<svg width="110px" height="35px" viewBox="0 0 110 35" version="1.1" xmlns="http://www.w3.org/2000/svg" xmlns:xlink="http://www.w3.org/1999/xlink">
    <!-- Generator: Sketch 61.2 (89653) - https://sketch.com -->
    <title>DMCA</title>
    <desc>Created with Sketch.</desc>
    <g id="Page-1" stroke="none" stroke-width="1" fill="none" fill-rule="evenodd">
        <g id="Footer_Op1" transform="translate(-594.000000, -583.000000)" fill-rule="nonzero">
            <g id="DMCA" transform="translate(594.000000, 583.000000)">
                <rect id="Rectangle" fill="#009EE7" x="0" y="0" width="109.666667" height="35" rx="3"></rect>
                <path d="M18.6537648,31.5000007 C10.9234628,31.4928753 4.66192335,25.2217092 4.66666936,17.4914031 C4.67142077,9.76109705 10.9406602,3.49762863 18.6709652,3.50000067 C26.4012701,3.50237406 32.6666694,9.76968982 32.6666694,17.5000007 C32.6524452,25.2311236 26.3848986,31.4929007 18.6537648,31.5000007 L18.6537648,31.5000007 Z M18.6537648,6.90641554 C12.8081968,6.92780732 8.0847313,11.6801182 8.09892647,17.5257096 C8.11318574,23.371301 12.8597279,28.1005633 18.7053306,28.0934772 C24.5509333,28.0863751 29.2860218,23.3456061 29.2860218,17.4999974 C29.2826053,14.6847506 28.1600903,11.9863566 26.1657821,9.99930879 C24.171474,8.01226094 21.4690046,6.89959517 18.6537648,6.90641554 Z" id="Shape" fill="#FFFFFF"></path>
                <path d="M19.25,32.6666667 C11.1958474,32.6666667 4.66666667,26.1374859 4.66666667,18.0833333 C4.66666667,10.0291807 11.1958474,3.5 19.25,3.5 C27.3041526,3.5 33.8333333,10.0291807 33.8333333,18.0833333 C33.8262491,26.1345497 27.3012164,32.6595824 19.25,32.6666667 L19.25,32.6666667 Z M19.25,4.78487518 C11.9054644,4.78487518 5.95154185,10.7387977 5.95154185,18.0833333 C5.95154185,25.427869 11.9054644,31.3817915 19.25,31.3817915 C26.5945356,31.3817915 32.5484581,25.427869 32.5484581,18.0833333 C32.5343181,10.7446627 26.5886706,4.79901524 19.25,4.78487518 Z M19.25,29.2746036 C14.7223911,29.2797944 10.6377088,26.5564289 8.90146485,22.3749547 C7.16522087,18.1934805 8.11952371,13.3778129 11.3191894,10.1744695 C14.518855,6.97112605 19.3334232,6.01129178 23.5168892,7.74273108 C27.7003551,9.47417038 30.4284141,13.5557214 30.4284141,18.0833333 C30.4213514,24.2561557 25.4228102,29.2604424 19.25,29.2746036 L19.25,29.2746036 Z M19.25,8.17693728 C15.2420751,8.17174732 11.6259051,10.5820625 10.0885353,14.2834114 C8.55116552,17.9847603 9.39553955,22.24778 12.2277332,25.0836518 C15.0599268,27.9195235 19.321847,28.7694297 23.025188,27.236865 C26.7285291,25.7043003 29.1435389,22.0912617 29.1435389,18.0833333 C29.1364805,12.6201259 24.7131937,8.19109451 19.25,8.17693728 Z" id="Shape" fill="#009DE7"></path>
                <path d="M32.3061383,9.60587088 L30.4006188,7.70036359 L29.1131057,8.98786852 C24.7383104,4.24404181 17.6059805,3.28690429 12.1352625,6.70949231 C6.66454458,10.1320803 4.4056199,16.9645702 6.75810393,22.9735944 C9.11058795,28.9826185 15.4078814,32.4654614 21.748221,31.2641755 C28.0885607,30.0628896 32.6753494,24.517871 32.6666543,18.0647783 C32.6677343,15.6308841 31.9996298,13.2435392 30.7353722,11.1637518 L32.3061383,9.60587088 Z M30.0143649,18.0519032 C29.9994915,23.2504842 26.275379,27.6974075 21.1601102,28.6246747 C16.0448415,29.551942 10.9967438,26.6951958 9.15801795,21.8326249 C7.31929214,16.970054 9.21414605,11.4879432 13.6631232,8.79864589 C18.1121003,6.10934858 23.8468286,6.97956455 27.2977122,10.8676257 L17.9889922,20.1762864 L13.5728221,15.7601445 L11.602927,17.6527767 L17.9246165,23.9744259 L28.7912274,13.1078843 C29.591442,14.6332287 30.0110716,16.329405 30.0143649,18.0519032 L30.0143649,18.0519032 Z" id="Shape" fill="#FFFFFF"></path>
                <path d="M41.8306424,19.8333333 L36.1666667,19.8333333 L36.1666667,3.50047723 L41.5283885,3.50047723 C42.2266987,3.49508062 42.924629,3.53545835 43.617883,3.62136185 C44.2634076,3.7007224 44.8981741,3.85390691 45.5102554,4.07803711 C46.7951159,4.53131628 47.9108201,5.38070368 48.7036338,6.50916125 C49.7080806,7.98870527 50.2195686,9.75956739 50.1623375,11.5594523 C50.1623375,17.0664186 47.3851058,19.8243789 41.8306424,19.8333333 Z M45.0897282,8.41645201 C44.3532518,7.54101227 43.2608651,7.06463661 42.1328963,7.127016 L40.2930898,7.127016 L40.2930898,16.1530681 L42.1328963,16.1530681 C43.2795995,16.2406046 44.4010952,15.7791244 45.168577,14.9039269 C45.8321704,13.966636 46.1530538,12.8211241 46.0753388,11.6669053 C46.1301576,10.4987805 45.781264,9.34816146 45.0897282,8.41645201 L45.0897282,8.41645201 Z" id="Shape" fill="#FFFFFF"></path>
                <polygon id="Path" fill="#FFFFFF" points="66.3061538 19.7797814 66.4192308 7.51639344 66.4192308 7.51639344 63.0897436 19.7797814 60.4764103 19.7797814 57.1720513 7.51639344 57.1720513 7.51639344 57.2851282 19.7396175 53.6666667 19.7396175 53.6666667 3.5 58.6923077 3.5 61.7579487 14.2103825 61.7579487 14.2103825 64.7858974 3.5 70 3.5 70 19.8333333"></polygon>
                <path d="M88.6666667,13.6709872 C88.2459055,15.4522118 87.2183939,17.0311489 85.7607029,18.1364689 C82.4301394,20.6266802 77.7905271,20.3493794 74.7797602,17.4801589 C73.1612746,15.9659214 72.2713642,13.8283795 72.3366934,11.6119754 C72.2905861,9.43062734 73.1687523,7.33157971 74.7540437,5.83387363 C76.3184985,4.29569967 78.4377256,3.45566545 80.6302625,3.50461657 C83.4504308,3.40803698 86.1057304,4.83256617 87.5865739,7.23657539 C88.1304581,8.00505432 88.4991652,8.88365043 88.6666667,9.8103401 L84.4234453,9.8103401 C83.91406,8.12214529 82.3264064,6.99398403 80.5659713,7.06928069 C79.3868272,7.04242475 78.2582203,7.54811628 77.4928503,8.44624481 C76.7450737,9.32871275 76.3470048,10.4552127 76.3741828,11.6119754 C76.3471144,12.7988006 76.7592636,13.9537678 77.531425,14.8549189 C78.286407,15.787202 79.4316319,16.3151046 80.6302625,16.2833583 C82.3313346,16.3035488 83.856501,15.2376413 84.4234453,13.6323807 L88.6666667,13.6709872 Z" id="Path" fill="#FFFFFF"></path>
                <path d="M100.510332,19.8333333 L99.6710169,17.4692982 L94.0222947,17.4692982 L93.156335,19.8333333 L88.6666667,19.8333333 L95.2346384,3.5 L98.5386079,3.5 L105,19.8333333 L100.510332,19.8333333 Z M96.9265905,8.5504386 L96.9265905,8.5504386 L95.2346384,14.1515899 L98.6052202,14.1515899 L96.9265905,8.5504386 Z" id="Shape" fill="#FFFFFF"></path>
                <path d="M36.1666667,31.5 L36.1666667,23.3350727 L39.0399186,23.3350727 C39.4301328,23.3260124 39.8203626,23.3523606 40.2064098,23.413834 C40.5436941,23.4657877 40.8663368,23.5956949 41.1518816,23.7945139 C41.4094163,24.004255 41.6192901,24.2734975 41.7658243,24.5821275 C41.9193193,24.9312175 41.998974,25.3121786 41.9991225,25.6979134 C42.015927,26.3496629 41.7907953,26.982039 41.3729009,27.456917 C40.752717,28.0162071 39.9442725,28.2773905 39.1381494,28.1788961 L37.1735327,28.1788961 L37.1735327,31.5 L36.1666667,31.5 Z M37.1735327,27.220633 L39.1504283,27.220633 C39.6421182,27.2711943 40.134456,27.1314578 40.5379388,26.8268262 C40.8301908,26.5544764 40.984959,26.1505659 40.9554199,25.7372941 C40.9625956,25.4237434 40.8766193,25.1158306 40.7098428,24.8577923 C40.5604918,24.6170762 40.3330214,24.4440438 40.0713424,24.3720972 C39.7587836,24.3188001 39.4422519,24.2968265 39.1258706,24.3064628 L37.1735327,24.3064628 L37.1735327,27.220633 Z" id="Shape" fill="#FFFFFF"></path>
                <path d="M44.3333333,31.4608187 L44.3333333,23.337223 L47.8461071,23.337223 C48.395351,23.3147385 48.9442459,23.3898619 49.4683698,23.5592506 C49.8398166,23.7053029 50.1509574,23.9773226 50.3497567,24.3298167 C50.5676382,24.7005303 50.682467,25.1249991 50.6818735,25.5574984 C50.6953919,26.1002068 50.4978635,26.6262476 50.1326034,27.020268 C49.6685174,27.4553626 49.0744403,27.717654 48.446472,27.7647133 C48.6699901,27.8739713 48.8800866,28.009873 49.0723844,28.169587 C49.4072941,28.4938055 49.7031803,28.8577156 49.9537713,29.2536038 L51.3333333,31.4608187 L50.0559611,31.4608187 L49.0085158,29.7760215 C48.7019465,29.2927851 48.446472,28.9140323 48.2420925,28.6528234 C48.1017805,28.4424361 47.9241384,28.2608066 47.7183698,28.1173452 C47.5696149,28.0165418 47.4056117,27.941525 47.2329684,27.8953177 C47.0375602,27.876001 46.8407853,27.876001 46.6453771,27.8953177 L45.406326,27.8953177 L45.406326,31.5 L44.3333333,31.4608187 Z M45.406326,26.9288449 L47.6672749,26.9288449 C48.0480017,26.9431688 48.4282876,26.8901477 48.7913625,26.7721196 C49.0397106,26.6797658 49.253931,26.5109311 49.4045012,26.2888832 C49.5465997,26.0726841 49.6222234,25.8179794 49.6216577,25.5574984 C49.6205156,25.1955085 49.472487,24.8502385 49.2128954,24.604086 C48.8437713,24.3295153 48.3904274,24.1997298 47.9355231,24.2383936 L45.406326,24.2383936 L45.406326,26.9288449 Z" id="Shape" fill="#FFFFFF"></path>
                <path d="M51.3410597,27.5383376 C51.2709926,26.4121007 51.6796385,25.3053162 52.4790798,24.4561018 C53.2447496,23.7091813 54.3172544,23.3014049 55.4269633,23.3352888 C56.1732506,23.3270309 56.9078941,23.5075435 57.5521816,23.8574858 C58.1501292,24.2143798 58.6258398,24.7225618 58.9232902,25.3221846 C59.289787,25.9665552 59.487108,26.6822805 59.4991558,27.4109725 C59.5141001,28.1583861 59.3304359,28.8976936 58.9644234,29.5634429 C58.6475223,30.1768563 58.1289691,30.6808519 57.4836262,31.0026687 C56.8527094,31.3348924 56.1384495,31.5062576 55.4132522,31.4993927 C54.6540366,31.5122033 53.9068458,31.3221047 53.2606117,30.9517227 C52.6626641,30.5948287 52.1869535,30.0866467 51.8895031,29.4870239 C51.5547404,28.8827963 51.3674828,28.217447 51.3410597,27.5383376 Z M52.506502,27.5383376 C52.4566648,28.3603282 52.751511,29.1682999 53.3291672,29.7927001 C53.878824,30.3163232 54.6327904,30.6116124 55.4201077,30.6116124 C56.2074251,30.6116124 56.9613915,30.3163232 57.5110483,29.7927001 C58.1005566,29.1344189 58.3950915,28.2908203 58.3337135,27.4364455 C58.3393221,26.8580592 58.213161,26.2851122 57.9635142,25.755226 C57.7470066,25.2957219 57.3892774,24.9058208 56.9351827,24.634413 C55.7894531,23.9924794 54.3226797,24.1438701 53.3565893,25.0037718 C52.7010749,25.7105505 52.3841736,26.6350757 52.4790798,27.5638106 L52.506502,27.5383376 Z" id="Shape" fill="#FFFFFF"></path>
                <polygon id="Path" fill="#FFFFFF" points="63.0331305 31.5 63.0331305 24.3049303 60.6666667 24.3049303 60.6666667 23.3333333 66.5 23.3333333 66.5 24.3049303 64.0033807 24.3049303 64.0033807 31.5"></polygon>
                <polygon id="Path" fill="#FFFFFF" points="67.6666667 31.5 67.6666667 23.3333333 73.3239943 23.3333333 73.3239943 24.3049303 68.6975575 24.3049303 68.6975575 26.7995713 73.0222701 26.7995713 73.0222701 27.7580386 68.6975575 27.7580386 68.6975575 30.5415327 73.5 30.5415327 73.5 31.5"></polygon>
                <path d="M80.6308139,28.6126928 L81.6666667,28.8772239 C81.5059502,29.6411026 81.0921439,30.3288345 80.4918581,30.8297154 C79.8936131,31.2824906 79.1582757,31.5180237 78.4075203,31.4973415 C77.6858333,31.524346 76.9714341,31.3451573 76.3484472,30.980876 C75.7811878,30.6244754 75.3395875,30.1004532 75.0852121,29.4818665 C74.7992444,28.8088994 74.657262,28.0838283 74.6683446,27.3530209 C74.648266,26.6120266 74.8086458,25.8772247 75.1357415,25.2115787 C75.4302652,24.6245719 75.8974117,24.1411647 76.4747707,23.8259395 C77.079929,23.4883158 77.7648003,23.3186684 78.4580497,23.3346675 C79.1657414,23.314562 79.8611274,23.5221477 80.4413287,23.9267133 C80.9919514,24.3484581 81.3836524,24.9432295 81.5529755,25.6146737 L80.5297551,25.8540113 C80.4012548,25.3653097 80.128375,24.9264224 79.7465494,24.5943394 C79.3775388,24.3341157 78.9352291,24.1973865 78.4833144,24.2038411 C77.9458805,24.1878006 77.4165525,24.3373539 76.9674323,24.6321296 C76.5620841,24.9202226 76.2608156,25.3310894 76.1084325,25.8036245 C75.9144777,26.2981031 75.8076374,26.8222747 75.7926237,27.3530209 C75.78291,27.9493562 75.8813395,28.5425343 76.0831678,29.1039649 C76.2469849,29.5681795 76.5688268,29.9604322 76.992697,30.2124762 C77.3960765,30.4565363 77.8599322,30.5830822 78.3317262,30.577781 C78.8670309,30.5926838 79.3904343,30.4187081 79.8097112,30.086509 C80.2380269,29.6982736 80.5265278,29.1804369 80.6308139,28.6126928 L80.6308139,28.6126928 Z" id="Path" fill="#FFFFFF"></path>
                <polygon id="Path" fill="#FFFFFF" points="85.233882 31.5 85.233882 24.3049303 82.8333333 24.3049303 82.8333333 23.3333333 88.6666667 23.3333333 88.6666667 24.3049303 86.266118 24.3049303 86.266118 31.5"></polygon>
                <polygon id="Path" fill="#FFFFFF" points="89.8333333 31.5 89.8333333 23.3333333 95.4780891 23.3333333 95.4780891 24.3049303 90.8642241 24.3049303 90.8642241 26.7995713 95.1889368 26.7995713 95.1889368 27.7580386 90.8642241 27.7580386 90.8642241 30.5415327 95.6666667 30.5415327 95.6666667 31.5"></polygon>
                <path d="M98,31.4859872 L98,23.3356079 L100.913757,23.3356079 C101.420463,23.323041 101.927115,23.3625756 102.425098,23.4535394 C102.882945,23.5470101 103.309018,23.7497799 103.664126,24.0431971 C104.116198,24.4143575 104.458964,24.8933493 104.658071,25.4321685 C104.899376,26.0562579 105.0149,26.7188826 104.998463,27.3845905 C105.005597,27.9385638 104.927598,28.4905092 104.766996,29.0225285 C104.645304,29.4473833 104.452127,29.8501881 104.195137,30.2149473 C103.990362,30.5072971 103.726397,30.7568763 103.419043,30.9487435 C103.1132,31.1475863 102.771504,31.2897884 102.411483,31.3680556 C101.964548,31.463041 101.507542,31.5070224 101.049914,31.4990907 L98,31.4859872 Z M99.1164863,30.5294314 L100.927373,30.5294314 C101.387193,30.5512353 101.847536,30.4980723 102.288941,30.3721894 C102.575,30.2947429 102.836859,30.150738 103.05142,29.9528772 C103.340436,29.6589801 103.554809,29.3046665 103.677741,28.9177004 C103.83338,28.4205192 103.911388,27.9038401 103.909208,27.3845905 C103.947895,26.703806 103.797508,26.0253865 103.473506,25.419065 C103.235605,25.0048641 102.862282,24.6778269 102.411483,24.4887162 C101.941989,24.3635432 101.454908,24.3104761 100.96822,24.3314741 L99.1164863,24.3314741 L99.1164863,30.5294314 Z" id="Shape" fill="#FFFFFF"></path>
            </g>
        </g>
    </g>
</svg>