<svg width="79" height="19" viewBox="0 0 79 19" fill="none" xmlns="http://www.w3.org/2000/svg">
<path d="M12.779 10.0345C12.7576 7.65075 14.7242 6.49105 14.8142 6.43699C13.7004 4.80766 11.974 4.585 11.3673 4.5673C9.91742 4.41416 8.511 5.43782 7.77239 5.43782C7.01899 5.43782 5.88164 4.58208 4.65577 4.60717C3.07834 4.63166 1.60256 5.54799 0.793224 6.97108C-0.877103 9.87261 0.368617 14.1365 1.96891 16.4818C2.76948 17.6304 3.70489 18.9129 4.9293 18.8678C6.12707 18.8183 6.57453 18.1016 8.02005 18.1016C9.45234 18.1016 9.87248 18.8678 11.1211 18.839C12.4067 18.8183 13.2161 17.6852 13.9886 16.5262C14.9137 15.2097 15.2852 13.9131 15.3 13.8465C15.2697 13.8362 12.8033 12.8917 12.779 10.0345Z" fill="white"/>
<path d="M10.4199 3.02431C11.0642 2.21591 11.505 1.11609 11.3826 0C10.4501 0.0414209 9.28395 0.647171 8.61245 1.43782C8.01838 2.13455 7.48764 3.27652 7.62471 4.35042C8.67218 4.42888 9.74766 3.82011 10.4199 3.02431Z" fill="white"/>
<path d="M28.2817 16.0025H26.6077L25.6907 13.1114H22.5033L21.6299 16.0025H20L23.1579 6.15964H25.1083L28.2817 16.0025ZM25.4143 11.8984L24.585 9.32816C24.4973 9.06563 24.3329 8.44732 24.0904 7.47393H24.0609C23.9644 7.89261 23.8088 8.51092 23.595 9.32816L22.7805 11.8984H25.4143Z" fill="white"/>
<path d="M36.4024 12.3666C36.4024 13.5736 36.0773 14.5277 35.4272 15.2281C34.8448 15.8517 34.1218 16.163 33.2586 16.163C32.3268 16.163 31.6575 15.8273 31.2499 15.1557H31.2204V18.8945H29.6488V11.2416C29.6488 10.4828 29.6289 9.70393 29.5906 8.90516H30.9728L31.0604 10.0301H31.0899C31.614 9.18247 32.4094 8.75941 33.4767 8.75941C34.3112 8.75941 35.0078 9.09001 35.5651 9.75197C36.1238 10.4147 36.4024 11.286 36.4024 12.3666ZM34.8014 12.4242C34.8014 11.7335 34.6466 11.1639 34.3355 10.7157C33.9957 10.2482 33.5394 10.0146 32.9674 10.0146C32.5797 10.0146 32.2273 10.1447 31.9126 10.4014C31.5971 10.6602 31.3907 10.9983 31.2941 11.4169C31.2454 11.6121 31.2211 11.7719 31.2211 11.8976V13.081C31.2211 13.5973 31.3789 14.0329 31.6944 14.3887C32.0098 14.7445 32.4197 14.9219 32.9239 14.9219C33.5158 14.9219 33.9765 14.6927 34.306 14.2356C34.6363 13.7778 34.8014 13.1742 34.8014 12.4242Z" fill="white"/>
<path d="M44.538 12.3666C44.538 13.5736 44.213 14.5277 43.5621 15.2281C42.9805 15.8517 42.2574 16.163 41.3941 16.163C40.4624 16.163 39.7932 15.8273 39.3863 15.1557H39.3568V18.8945H37.7852V11.2416C37.7852 10.4828 37.7653 9.70393 37.7269 8.90516H39.109L39.1968 10.0301H39.2262C39.7496 9.18247 40.545 8.75941 41.6131 8.75941C42.4468 8.75941 43.1434 9.09001 43.7021 9.75197C44.2586 10.4147 44.538 11.286 44.538 12.3666ZM42.937 12.4242C42.937 11.7335 42.7815 11.1639 42.4704 10.7157C42.1306 10.2482 41.6757 10.0146 41.103 10.0146C40.7146 10.0146 40.3629 10.1447 40.0474 10.4014C39.732 10.6602 39.5262 10.9983 39.4297 11.4169C39.3818 11.6121 39.3568 11.7719 39.3568 11.8976V13.081C39.3568 13.5973 39.5145 14.0329 39.8285 14.3887C40.144 14.7437 40.5539 14.9219 41.0595 14.9219C41.6514 14.9219 42.1121 14.6927 42.4416 14.2356C42.7719 13.7778 42.937 13.1742 42.937 12.4242Z" fill="white"/>
<path d="M53.6345 13.2423C53.6345 14.0796 53.3448 14.7608 52.7632 15.2866C52.1241 15.8613 51.2344 16.1483 50.0911 16.1483C49.0356 16.1483 48.1893 15.9441 47.5487 15.5352L47.9129 14.2209C48.6028 14.6395 49.3599 14.8495 50.1847 14.8495C50.7766 14.8495 51.2373 14.7149 51.5683 14.4471C51.8978 14.1795 52.0622 13.82 52.0622 13.3717C52.0622 12.9724 51.9265 12.6359 51.6545 12.363C51.384 12.09 50.9322 11.8363 50.3011 11.6018C48.5836 10.9591 47.7256 10.0176 47.7256 8.77945C47.7256 7.97028 48.0264 7.30686 48.6287 6.79064C49.2287 6.27365 50.0291 6.0155 51.0302 6.0155C51.9228 6.0155 52.6644 6.17156 53.2564 6.48291L52.8635 7.76841C52.3106 7.46661 51.6855 7.31579 50.986 7.31579C50.4331 7.31579 50.0011 7.4526 49.6916 7.72476C49.4299 7.96813 49.2987 8.26469 49.2987 8.616C49.2987 9.00503 49.4483 9.32677 49.7491 9.57976C50.0108 9.81342 50.4862 10.0664 51.1761 10.3393C52.0202 10.6803 52.6401 11.0789 53.0389 11.536C53.4362 11.9916 53.6345 12.5619 53.6345 13.2423Z" fill="white"/>
<path d="M58.8306 10.0886H57.0984V13.5344C57.0984 14.4109 57.4036 14.8488 58.0153 14.8488C58.2963 14.8488 58.5291 14.8243 58.7135 14.7755L58.757 15.973C58.4473 16.0891 58.0397 16.1475 57.5348 16.1475C56.9141 16.1475 56.429 15.9574 56.0789 15.578C55.7303 15.1979 55.5548 14.5603 55.5548 13.6646V10.0871H54.5228V8.90369H55.5548V7.60418L57.0984 7.13669V8.90369H58.8306V10.0886Z" fill="white"/>
<path d="M66.6463 12.3955C66.6463 13.4864 66.3352 14.3821 65.7145 15.0825C65.0636 15.8037 64.1997 16.1631 63.1228 16.1631C62.0849 16.1631 61.2586 15.8177 60.6423 15.1269C60.0261 14.4361 59.718 13.564 59.718 12.5131C59.718 11.4133 60.0349 10.5124 60.6711 9.81202C61.3058 9.11078 62.1623 8.76025 63.2392 8.76025C64.2771 8.76025 65.1123 9.10563 65.7425 9.79724C66.3455 10.468 66.6463 11.3341 66.6463 12.3955ZM65.0158 12.4465C65.0158 11.792 64.8764 11.2306 64.5941 10.7624C64.2646 10.1959 63.7936 9.91334 63.1832 9.91334C62.5515 9.91334 62.0716 10.1966 61.7421 10.7624C61.4598 11.2313 61.3205 11.8016 61.3205 12.4761C61.3205 13.1307 61.4598 13.692 61.7421 14.1595C62.0819 14.7261 62.5566 15.0085 63.1692 15.0085C63.7693 15.0085 64.2403 14.7201 64.5801 14.1447C64.8698 13.6676 65.0158 13.1003 65.0158 12.4465Z" fill="white"/>
<path d="M71.7543 10.2919C71.5987 10.263 71.4329 10.2482 71.2589 10.2482C70.706 10.2482 70.2785 10.4576 69.9777 10.877C69.7161 11.2467 69.5848 11.7142 69.5848 12.2786V16.0026H68.014L68.0288 11.1403C68.0288 10.3222 68.0089 9.57743 67.9698 8.90585H69.3386L69.3961 10.2638H69.4397C69.6055 9.79709 69.8672 9.42138 70.2254 9.13959C70.5756 8.88591 70.9537 8.75941 71.3614 8.75941C71.5065 8.75941 71.6377 8.76981 71.7543 8.78829V10.2919Z" fill="white"/>
<path d="M78.7831 12.118C78.7831 12.4005 78.765 12.6387 78.7255 12.8332H74.0111C74.0291 13.5344 74.2569 14.0706 74.6951 14.4404C75.0922 14.771 75.6061 14.9367 76.2368 14.9367C76.9355 14.9367 77.5723 14.825 78.1446 14.6009L78.3912 15.6955C77.7218 15.9885 76.9312 16.1341 76.0194 16.1341C74.9229 16.1341 74.0618 15.8102 73.4353 15.163C72.8101 14.5159 72.4968 13.6468 72.4968 12.5566C72.4968 11.4864 72.788 10.5951 73.3709 9.88431C73.981 9.1255 74.806 8.74609 75.8441 8.74609C76.8633 8.74609 77.635 9.1255 78.1592 9.88431C78.5743 10.4871 78.7831 11.2326 78.7831 12.118ZM77.2844 11.709C77.2947 11.2416 77.1924 10.8377 76.9793 10.4968C76.7069 10.0582 76.2892 9.83919 75.7272 9.83919C75.2133 9.83919 74.7948 10.053 74.476 10.482C74.2139 10.8229 74.0584 11.2319 74.0111 11.7083H77.2844V11.709Z" fill="white"/>
</svg>
