<svg width="82" height="19" viewBox="0 0 82 19" fill="none" xmlns="http://www.w3.org/2000/svg">
<path fill-rule="evenodd" clip-rule="evenodd" d="M39.7621 7.04671C38.0415 7.04671 36.6468 8.39968 36.6468 10.2659C36.6468 12.1153 38.0507 13.4853 39.7621 13.4853C41.4827 13.4853 42.8773 12.1228 42.8773 10.2659C42.8773 8.39968 41.4827 7.04671 39.7621 7.04671ZM39.7621 12.2096C38.8208 12.2096 38.0105 11.402 38.0105 10.2585C38.0105 9.0979 38.8226 8.30721 39.7621 8.30721C40.7034 8.30721 41.5136 9.0979 41.5136 10.2585C41.5155 11.4095 40.7034 12.2096 39.7621 12.2096ZM32.9653 7.04671C31.2447 7.04671 29.8501 8.39968 29.8501 10.2659C29.8501 12.1153 31.2538 13.4853 32.9653 13.4853C34.6859 13.4853 36.0806 12.1228 36.0806 10.2659C36.0806 8.39968 34.6841 7.04671 32.9653 7.04671ZM32.9653 12.2096C32.024 12.2096 31.2138 11.402 31.2138 10.2585C31.2138 9.0979 32.0259 8.30721 32.9653 8.30721C33.9067 8.30721 34.7169 9.0979 34.7169 10.2585C34.7169 11.4095 33.9067 12.2096 32.9653 12.2096ZM24.8777 8.02981V9.39232H28.033C27.9365 10.1565 27.6925 10.7207 27.3193 11.1076C26.8568 11.5869 26.1431 12.1077 24.885 12.1077C22.946 12.1077 21.4293 10.4849 21.4293 8.47522C21.4293 6.46553 22.946 4.84264 24.885 4.84264C25.9319 4.84264 26.6948 5.27103 27.261 5.81826L28.1933 4.85209C27.4067 4.07085 26.3597 3.47266 24.8923 3.47266C22.2322 3.47266 20 5.71824 20 8.46765C20 11.2245 22.2304 13.4626 24.8923 13.4626C26.3288 13.4626 27.4067 12.9757 28.2588 12.0586C29.1273 11.1586 29.4022 9.8886 29.4022 8.8639C29.4022 8.545 29.3786 8.25814 29.3294 8.01477H24.8759C24.8777 8.01288 24.8777 8.02981 24.8777 8.02981ZM57.9584 9.09034C57.698 8.36762 56.9114 7.03915 55.2983 7.03915C53.6997 7.03915 52.3706 8.34305 52.3706 10.2585C52.3706 12.0662 53.6852 13.4777 55.453 13.4777C56.8732 13.4777 57.6998 12.5776 58.0403 12.0492L56.9861 11.317C56.6365 11.8549 56.1504 12.2077 55.4603 12.2077C54.763 12.2077 54.275 11.8794 53.9509 11.2321L58.104 9.44886C58.104 9.45076 57.9584 9.09034 57.9584 9.09034ZM53.7234 10.166C53.6906 8.92242 54.6556 8.29028 55.3456 8.29028C55.89 8.29028 56.3434 8.56768 56.4982 8.97149L53.7234 10.166ZM50.3496 13.2852H51.7133V3.8274H50.3496V13.2852ZM48.1101 7.76187H48.0609C47.7532 7.38255 47.1687 7.03915 46.4223 7.03915C44.8728 7.03915 43.4454 8.45253 43.4454 10.2678C43.4454 12.0757 44.8656 13.472 46.4223 13.472C47.1596 13.472 47.7532 13.1267 48.0609 12.7398H48.1101V13.2022C48.1101 14.4306 47.4765 15.093 46.4551 15.093C45.6193 15.093 45.1005 14.4702 44.8892 13.9495L43.7039 14.4628C44.0444 15.3119 44.953 16.363 46.4533 16.363C48.0518 16.363 49.4064 15.3873 49.4064 13.0078V7.23165H48.1174V7.76187C48.1192 7.76187 48.1101 7.76187 48.1101 7.76187ZM46.5443 12.2096C45.603 12.2096 44.8164 11.3944 44.8164 10.2678C44.8164 9.13185 45.603 8.3091 46.5443 8.3091C47.4765 8.3091 48.1993 9.1413 48.1993 10.2678C48.2084 11.3944 47.4783 12.2096 46.5443 12.2096ZM64.3436 3.8274H61.0827V13.2852H62.4464V9.70366H64.3454C65.8548 9.70366 67.3387 8.56957 67.3387 6.76931C67.3387 4.96905 65.8603 3.8274 64.3436 3.8274ZM64.3837 8.38275H62.4446V5.13705H64.3837C65.4051 5.13705 65.9823 6.01067 65.9823 6.75986C65.9823 7.50148 65.3978 8.38275 64.3837 8.38275ZM72.8045 7.0297C71.814 7.0297 70.7927 7.48447 70.3702 8.47522L71.5791 8.99598C71.8395 8.47522 72.3166 8.29776 72.8209 8.29776C73.5275 8.29776 74.2407 8.7356 74.2571 9.51684V9.61687C74.0139 9.47344 73.4785 9.25457 72.8373 9.25457C71.5319 9.25457 70.2081 9.99421 70.2081 11.3812C70.2081 12.6512 71.2787 13.4663 72.4713 13.4663C73.3874 13.4663 73.8918 13.038 74.2064 12.5418H74.2553V13.2739H75.5702V9.65081C75.5702 7.96381 74.361 7.0297 72.8045 7.0297ZM72.6334 12.2096C72.1873 12.2096 71.5628 11.9832 71.5628 11.402C71.5628 10.6698 72.3421 10.3924 73.0066 10.3924C73.6074 10.3924 73.8918 10.5264 74.2485 10.7113C74.1496 11.5605 73.4579 12.2021 72.6334 12.2096ZM80.3662 7.23165L78.8005 11.334H78.7506L77.129 7.23165H75.6613L78.0958 12.9663L76.7079 16.1535H78.1285L81.8735 7.23165H80.3662ZM68.0907 13.2852H69.4544V3.8274H68.0907V13.2852Z" fill="white"/>
<path fill-rule="evenodd" clip-rule="evenodd" d="M0.305827 1.16039C0.111954 1.37086 0 1.69246 0 2.1134V17.0434C0 17.4643 0.111954 17.7859 0.312485 17.9879L0.3643 18.0334L8.66692 9.66845V9.48159L0.357642 1.11493L0.305827 1.16039Z" fill="url(#paint0_linear_126_207)"/>
<path fill-rule="evenodd" clip-rule="evenodd" d="M11.4295 12.4652L8.66028 9.67524V9.47992L11.4295 6.68993L11.4896 6.72698L14.7652 8.60268C15.7028 9.1348 15.7028 10.0137 14.7652 10.5525L11.4896 12.4283L11.4295 12.4652Z" fill="url(#paint1_linear_126_207)"/>
<path fill-rule="evenodd" clip-rule="evenodd" d="M11.4895 12.4283L8.66015 9.57766L0.305786 17.9948C0.611613 18.3248 1.12463 18.3619 1.69785 18.0403L11.4895 12.4283Z" fill="url(#paint2_linear_126_207)"/>
<path fill-rule="evenodd" clip-rule="evenodd" d="M11.4895 6.72708L1.69785 1.12353C1.12463 0.79351 0.609948 0.838972 0.305786 1.16899L8.66015 9.57772L11.4895 6.72708Z" fill="url(#paint3_linear_126_207)"/>
<path opacity="0.2" fill-rule="evenodd" clip-rule="evenodd" d="M11.4291 12.3676L1.70427 17.9342C1.16108 18.249 0.676433 18.2271 0.363949 17.9409L0.312134 17.9931L0.363949 18.0385C0.676433 18.3231 1.16108 18.3467 1.70427 18.0318L11.4959 12.4282L11.4291 12.3676Z" fill="black"/>
<path opacity="0.12" fill-rule="evenodd" clip-rule="evenodd" d="M14.7651 10.4549L11.421 12.3677L11.4812 12.4283L14.7567 10.5526C15.2263 10.2832 15.457 9.92958 15.457 9.57766C15.4285 9.90093 15.1896 10.2074 14.7651 10.4549Z" fill="black"/>
<path opacity="0.25" fill-rule="evenodd" clip-rule="evenodd" d="M1.69797 1.22108L14.7651 8.70034C15.1896 8.94118 15.4286 9.25598 15.4654 9.57759C15.4654 9.22573 15.2347 8.87214 14.7651 8.60272L1.69797 1.12342C0.760369 0.582938 0 1.03419 0 2.11348V2.21114C0 1.13016 0.760369 0.687328 1.69797 1.22108Z" fill="white"/>
<defs>
<linearGradient id="paint0_linear_126_207" x1="7.92218" y1="1.95232" x2="-5.39025" y2="5.47299" gradientUnits="userSpaceOnUse">
<stop stop-color="#00A0FF"/>
<stop offset="0.00657" stop-color="#00A1FF"/>
<stop offset="0.2601" stop-color="#00BEFF"/>
<stop offset="0.5122" stop-color="#00D2FF"/>
<stop offset="0.7604" stop-color="#00DFFF"/>
<stop offset="1" stop-color="#00E3FF"/>
</linearGradient>
<linearGradient id="paint1_linear_126_207" x1="15.9879" y1="9.57762" x2="-0.227793" y2="9.57762" gradientUnits="userSpaceOnUse">
<stop stop-color="#FFE000"/>
<stop offset="0.4087" stop-color="#FFBD00"/>
<stop offset="0.7754" stop-color="#FFA500"/>
<stop offset="1" stop-color="#FF9C00"/>
</linearGradient>
<linearGradient id="paint2_linear_126_207" x1="9.95104" y1="11.1288" x2="-0.844115" y2="29.1625" gradientUnits="userSpaceOnUse">
<stop stop-color="#FF3A44"/>
<stop offset="1" stop-color="#C31162"/>
</linearGradient>
<linearGradient id="paint3_linear_126_207" x1="-1.79796" y1="-3.80537" x2="3.01821" y2="4.24877" gradientUnits="userSpaceOnUse">
<stop stop-color="#32A071"/>
<stop offset="0.0685" stop-color="#2DA771"/>
<stop offset="0.4762" stop-color="#15CF74"/>
<stop offset="0.8009" stop-color="#06E775"/>
<stop offset="1" stop-color="#00F076"/>
</linearGradient>
</defs>
</svg>
