<?xml version="1.0" encoding="UTF-8"?>
<svg width="150px" height="27px" viewBox="0 0 150 27" version="1.1" xmlns="http://www.w3.org/2000/svg" xmlns:xlink="http://www.w3.org/1999/xlink">
    <!-- Generator: Sketch 61.2 (89653) - https://sketch.com -->
    <title>GeoTrust_mau</title>
    <desc>Created with Sketch.</desc>
    <g id="Page-1" stroke="none" stroke-width="1" fill="none" fill-rule="evenodd">
        <g id="Footer_Op1" transform="translate(-260.000000, -587.000000)" fill-rule="nonzero">
            <g id="GeoTrust_mau" transform="translate(260.000000, 587.000000)">
                <path d="M11.7283951,6.17283951 C13.8987895,4.57837207 16.577035,3.83197576 19.2592593,4.07407407 L19.2592593,0 L0,0 L0,19.4444444 L6.60493827,19.4444444 C6.53286323,19.2948023 6.45035524,19.1504133 6.35802469,19.0123457 C4.56790123,15.1851852 6.97530864,9.44444444 11.7283951,6.17283951 Z" id="Path" fill="#2F6BAE"></path>
                <path d="M19.1358025,6.2962963 C14.0617767,6.30986328 9.95183859,10.4198014 9.9382716,15.4938272 C9.93882375,16.0544855 10.0009241,16.6133889 10.1234568,17.1604938 C10.2250992,17.8465388 10.7015554,18.4182861 11.3580247,18.6419753 C11.5399019,18.7132169 11.7253335,18.7750275 11.9135802,18.8271605 C12.9525443,18.8765512 13.9830529,18.6189241 14.8765432,18.0864198 C16.2053831,17.2405979 17.1900051,15.9496491 17.654321,14.4444444 C16.1111111,14.6296296 14.5061728,14.8765432 12.962963,15.1851852 L12.962963,12.2839506 L23.2716049,11.6049383 L23.2098765,21.3580247 L20.0617284,21.5432099 L20.0617284,21.5432099 L20.1234568,21.2345679 C20.308642,19.9382716 20.4938272,18.5802469 20.5555556,17.2839506 C20.1355514,17.8067606 19.6819148,18.3016369 19.1975309,18.7654321 C18.4298507,19.4455739 17.5795326,20.0262789 16.6666667,20.4938272 C15.9833733,20.8516907 15.2574021,21.1213372 14.5061728,21.2962963 C13.6921481,21.4521404 12.8658027,21.534775 12.037037,21.5432099 C14.5404518,24.4667156 18.6002823,25.5208314 22.2097424,24.1845045 C25.8192024,22.8481777 28.2137992,19.4044458 28.2098765,15.5555556 C28.2769096,13.1120961 27.3485439,10.7462151 25.6376533,9.00040839 C23.9267627,7.25460166 21.5801175,6.27863467 19.1358025,6.2962963 Z" id="Path-2" fill="#D76F32"></path>
                <path d="M48.5802469,5.30864198 C48.0864198,3.08641975 46.1728395,2.4691358 44.1975309,2.4691358 C39.6296296,2.4691358 37.962963,6.48148148 38.0864198,9.9382716 C38.2716049,14.691358 39.7530864,17.345679 45.1234568,17.4074074 C46.3849133,17.4235797 47.6391359,17.2145426 48.8271605,16.7901235 L48.8271605,11.5432099 L44.5679012,11.5432099 L44.5679012,9.32098765 L51.4197531,9.32098765 L51.4197531,18.5802469 C49.3409538,19.2434242 47.1807628,19.6173034 45,19.691358 C42.345679,19.691358 40.2469136,19.382716 38.1481481,17.5308642 C36.0493827,15.6790123 35.3703704,12.5925926 35.3703704,9.9382716 C35.4064464,7.91905043 35.9589741,5.94270127 36.9753086,4.19753086 C38.5802469,1.35802469 41.3580247,0.24691358 44.5061728,0.24691358 C47.654321,0.24691358 51.1728395,1.66666667 51.2962963,5.30864198 L48.5802469,5.30864198 Z M56.5432099,13.2716049 C56.3580247,15.5555556 57.2839506,17.9012346 59.8148148,17.9012346 C61.7283951,17.9012346 62.654321,17.1604938 62.962963,15.2469136 L65.5555556,15.2469136 C65.1851852,18.2098765 62.9012346,19.691358 59.8148148,19.691358 C55.6790123,19.691358 54.0123457,16.7283951 54.0123457,12.9012346 C54.0123457,9.07407407 55.9259259,5.92592593 60.0617284,5.92592593 C63.9506173,5.98765432 65.8024691,8.45679012 65.8024691,12.037037 L65.8024691,13.2716049 L56.5432099,13.2716049 Z M63.0864198,11.6049383 C63.1481481,9.44444444 62.1604938,7.77777778 59.7530864,7.77777778 C57.7160494,7.77777778 56.4814815,9.50617284 56.4814815,11.6049383 L63.0864198,11.6049383 Z M80.3703704,12.8395062 C80.3703704,16.8518519 78.1481481,19.691358 73.8888889,19.691358 C69.6296296,19.691358 67.4074074,16.8518519 67.4074074,12.8395062 C67.4074074,8.82716049 69.6296296,5.98765432 73.8888889,5.98765432 C78.1481481,5.98765432 80.3703704,8.7654321 80.3703704,12.8395062 Z M73.8888889,17.9012346 C76.7901235,17.9012346 77.7777778,15.5555556 77.7777778,12.7777778 C77.7777778,10 76.7901235,7.65432099 73.8888889,7.65432099 C70.9876543,7.65432099 70,10 70,12.7777778 C70,15.5555556 70.9876543,17.9012346 73.8888889,17.9012346 Z" id="Shape" fill="#FFFFFF"></path>
                <polygon id="Path-3" fill="#FFFFFF" points="83.0864198 4.25925926 77.4074074 4.25925926 77.4074074 0.679012346 94.1358025 0.679012346 94.1358025 4.32098765 88.2716049 4.32098765 88.2716049 19.382716 83.0864198 19.382716"></polygon>
                <path d="M96.8518519,8.7654321 L96.8518519,8.7654321 C97.4691358,6.60493827 99.0740741,5.92592593 101.234568,5.92592593 L101.234568,10.0617284 L100.185185,10.0617284 C97.654321,10.0617284 96.7283951,11.6049383 96.8518519,14.0740741 L96.8518519,19.2592593 L91.9135802,19.2592593 L91.9135802,9.69135802 C91.913441,8.57768009 91.8516179,7.46486465 91.7283951,6.35802469 L96.7283951,6.35802469 L96.8518519,8.7654321 L96.8518519,8.7654321 Z M112.345679,17.9012346 C111.348699,19.1106788 109.836765,19.7750137 108.271605,19.691358 C105.493827,19.691358 103.395062,17.9012346 103.395062,15 L103.395062,6.35802469 L108.333333,6.35802469 L108.333333,14.0123457 C108.395062,15.308642 108.703704,16.6666667 110.246914,16.6666667 C112.654321,16.6666667 112.345679,14.0123457 112.345679,13.8271605 L112.345679,6.35802469 L117.283951,6.35802469 L117.283951,15.9876543 C117.259833,17.1018749 117.321746,18.2162952 117.469136,19.3209877 L112.469136,19.3209877 L112.345679,17.9012346 Z M127.530864,10.3703704 C127.561851,9.97522852 127.452568,9.58180862 127.222222,9.25925926 C126.87073,8.89279464 126.368983,8.71034125 125.864198,8.7654321 C125.544634,8.7344062 125.227948,8.84796652 125.00092,9.07499442 C124.773892,9.30202233 124.660332,9.61870826 124.691358,9.9382716 C124.691358,10.8641975 126.666667,10.8641975 129.753086,11.7901235 C131.296296,12.2839506 132.345679,13.2098765 132.345679,15.3703704 C132.345679,18.8271605 129.135802,19.691358 126.111111,19.691358 C122.901235,19.691358 119.814815,19.0740741 119.876543,15.0617284 L124.506173,15.0617284 C124.444972,15.4994607 124.570628,15.9427556 124.852427,16.2832622 C125.134225,16.6237687 125.546199,16.83011 125.987654,16.8518519 C126.91358,16.8518519 127.654321,16.4814815 127.654321,15.6790123 C127.654321,13.3950617 120,14.7530864 120,10.0617284 C120,6.85185185 123.395062,5.98765432 125.987654,5.98765432 C129.074074,5.98765432 131.91358,6.79012346 132.098765,10.3703704 L127.530864,10.3703704 Z M136.17284,6.35802469 L136.17284,4.38271605 L141.111111,2.5308642 L141.111111,6.35802469 L143.950617,6.35802469 L143.950617,9.44444444 L141.111111,9.44444444 L141.111111,14.5679012 C141.111111,14.8765432 140.925926,16.6049383 142.037037,16.6049383 C142.654321,16.6049383 143.333333,16.6049383 143.950617,16.5432099 L143.950617,19.4444444 C143.074494,19.6022196 142.186489,19.6848247 141.296296,19.691358 C137.962963,19.691358 135.925926,19.1975309 136.17284,15.2469136 L136.17284,9.44444444 L133.641975,9.44444444 L133.641975,6.35802469 L136.17284,6.35802469 Z M149.938272,7.65432099 C149.945566,8.11535762 149.767683,8.56006569 149.444444,8.88888889 C149.125088,9.22633722 148.673857,9.40682961 148.209877,9.38271605 C147.732598,9.37857128 147.272643,9.20334999 146.91358,8.88888889 C146.551767,8.5866437 146.366196,8.12271431 146.419753,7.65432099 C146.423898,7.17704291 146.599119,6.71708702 146.91358,6.35802469 C147.243187,5.99154324 147.717179,5.78840384 148.209877,5.80246914 C148.684631,5.78947933 149.139309,5.99408455 149.444444,6.35802469 C149.758906,6.71708702 149.934127,7.17704291 149.938272,7.65432099 Z M149.506173,7.65432099 C149.509931,7.27847456 149.352656,6.91898932 149.074074,6.66666667 C148.812222,6.40163881 148.458779,6.24700775 148.08642,6.2345679 C147.708385,6.21966089 147.344385,6.37891061 147.098765,6.66666667 C146.826712,6.91922203 146.689487,7.2851549 146.728395,7.65432099 C146.729321,8.01731919 146.860779,8.36787491 147.098765,8.64197531 C147.335696,8.94122021 147.705845,9.10316037 148.08642,9.07407407 C148.462266,9.07783212 148.821751,8.92055733 149.074074,8.64197531 C149.352656,8.38965266 149.509931,8.03016742 149.506173,7.65432099 L149.506173,7.65432099 Z M148.333333,8.58024691 L148.333333,8.20987654 C148.343063,8.08324217 148.321879,7.95613995 148.271605,7.83950617 C148.209877,7.71604938 148.148148,7.71604938 148.08642,7.71604938 L147.962963,7.71604938 L147.962963,8.51851852 L147.530864,8.51851852 L147.530864,6.60493827 L148.271605,6.60493827 C148.425102,6.59909225 148.576465,6.64233878 148.703704,6.72839506 C148.82716,6.79012346 148.82716,6.91358025 148.82716,7.03703704 L148.82716,7.22222222 C148.841552,7.4088894 148.704721,7.57308716 148.518519,7.59259259 C148.648559,7.64598487 148.741888,7.76264537 148.765432,7.90123457 C148.815706,8.01786834 148.83689,8.14497057 148.82716,8.27160494 L148.82716,8.58024691 L148.333333,8.58024691 Z M148.395062,7.28395062 L148.395062,7.28395062 L148.395062,7.22222222 C148.395062,7.16049383 148.395062,7.09876543 148.333333,7.09876543 C148.271605,7.09876543 148.271605,7.03703704 148.209877,7.03703704 L147.962963,7.03703704 L147.962963,7.5308642 L148.209877,7.5308642 C148.271605,7.5308642 148.333333,7.5308642 148.333333,7.4691358 C148.38058,7.41975237 148.403229,7.35180562 148.395062,7.28395062 L148.395062,7.28395062 Z" id="Shape-2" fill="#FFFFFF"></path>
                <path d="M31.8518519,15.9876543 C31.8518519,21.7283951 26.4197531,26.4197531 19.8148148,26.4197531 C13.2098765,26.4197531 7.77777778,21.7283951 7.77777778,15.9876543 C7.77777778,10.2469136 13.2098765,5.55555556 19.8148148,5.55555556 C26.4197531,5.55555556 31.8518519,10.2469136 31.8518519,15.9876543 Z" id="Path-4" fill="#FFFFFF"></path>
                <path d="M19.1975309,6.2962963 C14.1235051,6.30986328 10.013567,10.4198014 10,15.4938272 C10.0005521,16.0544855 10.0626525,16.6133889 10.1851852,17.1604938 C10.2868276,17.8465388 10.7632838,18.4182861 11.4197531,18.6419753 C11.6016303,18.7132169 11.7870619,18.7750275 11.9753086,18.8271605 C13.0142727,18.8765512 14.0447813,18.6189241 14.9382716,18.0864198 C16.2671115,17.2405979 17.2517335,15.9496491 17.7160494,14.4444444 C16.1728395,14.6296296 14.5679012,14.8765432 13.0246914,15.1851852 L13.0246914,12.2839506 L23.3333333,11.6049383 L23.2716049,21.3580247 L20.1234568,21.5432099 L20.1234568,21.5432099 L20.1851852,21.2345679 C20.3703704,19.9382716 20.4938272,18.5802469 20.617284,17.2839506 C20.1972798,17.8067606 19.7436432,18.3016369 19.2592593,18.7654321 C17.8976379,19.9394653 16.2968021,20.8030741 14.5679012,21.2962963 C13.7538765,21.4521404 12.9275311,21.534775 12.0987654,21.5432099 C14.6021802,24.4667156 18.6620107,25.5208314 22.2714707,24.1845045 C25.8809308,22.8481777 28.2755276,19.4044458 28.2716049,15.5555556 C28.338638,13.1120961 27.4102723,10.7462151 25.6993817,9.00040839 C23.9884911,7.25460166 21.6418459,6.27863467 19.1975309,6.2962963 L19.1975309,6.2962963 Z" id="Path-5" fill="#D7712C"></path>
            </g>
        </g>
    </g>
</svg>