<svg width="43" height="46" viewBox="0 0 43 46" fill="none" xmlns="http://www.w3.org/2000/svg">
<path d="M35.2722 27.2348C34.3011 28.6478 33.1295 29.9133 31.7939 30.992C31.7481 31.0558 31.6108 31.033 31.565 30.992C31.0021 30.6277 30.3842 30.3361 29.8396 29.9718C30.5781 29.1204 31.2397 28.2059 31.8168 27.2389H31.0982C30.5421 28.1186 29.9031 28.9436 29.1897 29.7026C28.2353 29.2937 27.2554 28.9468 26.256 28.6641L26.1415 28.573C26.3524 28.1405 26.5343 27.6947 26.6862 27.2385H26.0866L25.4733 28.4591C24.0942 28.1762 22.696 27.995 21.2901 27.9171C21.2215 27.7121 21.2901 27.4161 21.2215 27.2385H20.6311C20.5853 27.5072 20.6997 27.6939 20.5624 27.9399C19.1821 27.9886 17.8079 28.1458 16.4525 28.4099L15.8575 27.2166C15.6458 27.1853 15.4302 27.193 15.2213 27.2394L15.7843 28.5739L15.7156 28.6422C14.697 28.9394 13.6961 29.2937 12.7178 29.7035L12.6263 29.6625C11.985 28.9616 11.399 28.2125 10.8733 27.422C10.7635 27.0349 10.3058 27.2626 10.0587 27.217C10.6414 28.2016 11.3107 29.1327 12.0587 29.9996C11.4454 30.3639 10.8276 30.7693 10.1914 31.0654C8.79822 29.9883 7.58689 28.6967 6.6032 27.2394C6.3617 27.2072 6.11698 27.2072 5.87549 27.2394C7.58028 29.8602 9.94792 31.9885 12.7407 33.4106H12.7636C12.7864 33.4106 12.8322 33.4562 12.7864 33.4789C14.5854 34.3822 16.5212 34.9854 18.5166 35.2644C21.8979 35.7384 25.3448 35.2332 28.4453 33.8093C31.5457 32.3853 34.1685 30.1029 36 27.2348C35.7579 27.212 35.5143 27.212 35.2722 27.2348ZM25.7891 29.2749L25.8578 29.2293C26.8189 29.4429 27.7514 29.7685 28.6359 30.1995C27.884 31.0197 27.0376 31.7488 26.1141 32.3717C25.5997 32.703 25.068 33.0071 24.5214 33.2826L23.5419 32.8272L23.6106 32.6723C24.4198 31.5947 25.148 30.4592 25.7891 29.2749ZM21.313 28.5962C22.5922 28.6086 23.8662 28.7613 25.1118 29.0517L25.1346 29.12C24.4803 30.3557 23.7144 31.5296 22.8462 32.6272C22.4632 32.6137 22.082 32.568 21.7066 32.4906L21.3222 32.445C21.2673 31.1059 21.2444 29.9312 21.313 28.5967V28.5962ZM16.9101 29.0021C18.1151 28.7525 19.341 28.6167 20.5716 28.5967L20.5945 32.4177C20.1368 32.5316 19.5921 32.5316 19.139 32.6454C18.2271 31.5472 17.434 30.3564 16.7728 29.0927L16.9101 29.0021ZM13.2487 30.2273C14.1369 29.8021 15.0662 29.4679 16.0222 29.2298H16.1138C16.8031 30.4724 17.5673 31.6723 18.4022 32.8231C18.0818 33.0052 17.6974 33.1191 17.377 33.2785C15.8426 32.5067 14.45 31.4829 13.2579 30.2501L13.2487 30.2273ZM16.1824 34.0893C14.2675 33.58 12.4643 32.7215 10.8642 31.5573V31.489C11.4 31.1287 11.9631 30.8104 12.5485 30.537C13.7897 31.747 15.162 32.8163 16.6401 33.7254C16.512 33.869 16.3623 33.992 16.1962 34.0897L16.1824 34.0893ZM24.6175 34.3853C22.1445 34.9236 19.5823 34.9081 17.1161 34.3398C17.0703 34.2259 17.2305 34.2032 17.2992 34.1394C19.4136 32.773 22.7089 32.773 24.7777 34.2487C24.86 34.3853 24.6907 34.3398 24.6312 34.3853H24.6175ZM31.0524 31.4885C29.7658 32.4677 28.3305 33.2364 26.8006 33.7659L25.7296 34.1075C25.5493 34.0063 25.3818 33.884 25.2308 33.7431L25.2765 33.6748C26.7501 32.7941 28.1063 31.7322 29.3133 30.5142C29.9334 30.7689 30.5216 31.0945 31.0662 31.4844L31.0524 31.4885Z" fill="white"/>
<path d="M42.3423 13.9548C41.8754 12.827 41.0779 11.8653 40.0539 11.1951C37.0973 9.29576 32.5983 9.15911 29.5501 10.8808C28.7476 11.3258 28.054 11.9421 27.519 12.6854C26.9841 13.4287 26.6212 14.2806 26.4562 15.1801C25.8429 18.0537 25.9985 21.4693 28.1863 23.6191C30.7309 25.8965 34.4382 26.3789 37.7334 25.4411C38.0791 25.3692 38.4143 25.2544 38.7312 25.0994L38.8273 25.0539C39.9096 24.6108 40.8563 23.8933 41.5734 22.9728C43.2485 20.4959 43.3629 16.761 42.3423 13.9548ZM36.9783 20.4048C36.9263 20.6927 36.8033 20.9633 36.6204 21.1922C36.4375 21.4212 36.2003 21.6014 35.9302 21.7166C35.4507 21.9063 34.935 21.9883 34.42 21.9568C33.905 21.9253 33.4033 21.7811 32.9507 21.5344C32.2459 21.038 32.1589 20.1999 32.0674 19.4078C31.9987 17.8455 31.8843 16.2195 32.3145 14.7715C32.6578 13.8879 33.5914 13.6647 34.429 13.5964C34.8522 13.5321 35.2849 13.5771 35.6856 13.727C36.0863 13.8769 36.4416 14.1268 36.7174 14.4527C37.0607 14.9765 37.0378 15.6506 37.1064 16.2746C37.0927 17.5526 37.2025 19.0922 36.9783 20.4048Z" fill="white"/>
<path d="M20.5401 21.9887C19.4986 22.3112 18.388 22.3425 17.3298 22.0793C16.2716 21.816 15.3065 21.2684 14.5399 20.4961C14.3568 20.2684 14.2424 19.9997 14.0822 19.7719L11.0112 19.7947C10.97 21.6166 10.9426 23.7296 11.0112 25.5424H14.4209L14.4667 24.4583C14.8511 24.636 15.2402 24.8637 15.6246 25.0687C17.9908 26.0616 21.039 26.2894 23.3777 25.0687C24.2092 24.6074 24.8805 23.906 25.3029 23.0571C25.7254 22.2082 25.8792 21.2517 25.7439 20.3139C25.4922 18.3918 23.6752 16.6701 21.8353 16.1741L16.3432 14.5708L15.9358 14.3659C15.8416 14.297 15.7682 14.2036 15.7238 14.0959C15.6794 13.9882 15.6656 13.8705 15.6841 13.7555C16.1189 13.0086 17.1166 13.2363 17.8672 13.2591C19.46 13.4868 21.0939 14.0288 22.0276 15.4996C23.0299 15.4996 24.1878 15.5223 25.2817 15.4996C25.3228 13.6412 25.2588 12.0156 25.2359 10.1345C24.2153 10.1345 22.9475 10.1345 21.9406 10.1573C21.9489 10.4625 21.9258 10.7677 21.8719 11.0682L20.7918 10.4756C20.6133 10.4028 20.1145 10.2206 20.1145 10.2206C20.1145 10.2206 14.6223 9.40983 12.5124 10.9311C11.0341 12.0152 10.581 13.9596 10.97 15.6813C11.2629 17.3119 12.8007 18.5093 14.2882 19.0741C16.3111 19.7983 18.4073 20.3176 20.4714 21.019C20.6774 21.1101 20.9291 21.3151 20.9017 21.5656C20.8742 21.8161 20.7003 21.8976 20.5401 21.9887Z" fill="white"/>
<path d="M10.0449 21.8063C9.29433 21.7608 8.45677 21.8063 7.72906 21.738V13.7954L7.77026 13.7316H10.022C10.0449 12.4381 10.0632 11.0584 9.99916 9.88332L1.44055 9.83777H0.0308934C0.00800939 11.0402 0.00800939 12.4426 0.0308934 13.6638C0.804372 13.6865 1.53208 13.6638 2.28268 13.7321V21.7608L0.0308934 21.8063C-0.0102978 23.0726 -0.0102978 24.2928 0.0308934 25.5362H10.0449V21.8063Z" fill="white"/>
<path d="M6.55779 8.11611C7.11579 7.32846 7.72746 6.57987 8.38851 5.87561C8.92788 5.31521 9.52112 4.80873 10.1597 4.36343C10.7501 4.74603 11.4092 5.06487 11.9904 5.42469C11.2659 6.28164 10.6124 7.19558 10.0362 8.15755C10.2596 8.21666 10.4947 8.21666 10.7181 8.15755C11.2814 7.29708 11.92 6.48788 12.6266 5.73943C13.6061 6.09925 14.5626 6.48641 15.5603 6.75514L15.6519 6.84624L15.0798 8.13888C15.2979 8.17532 15.5207 8.17532 15.7388 8.13888C15.9448 7.75628 16.105 7.32358 16.3338 6.94098C17.6883 7.23424 19.0673 7.40045 20.4529 7.43744C20.6314 7.59686 20.4941 7.93847 20.5674 8.13888H21.1807C21.2493 7.91114 21.1807 7.66063 21.2493 7.46022C22.5885 7.41241 23.9202 7.23855 25.2265 6.94098H25.341L25.9542 8.11611C26.1668 8.14807 26.3838 8.13409 26.5904 8.07511L26.0229 6.75878L26.0687 6.71779C27.0985 6.42324 28.1076 6.0611 29.0894 5.63376C29.804 6.41134 30.4574 7.24262 31.0436 8.1202C31.2717 8.14317 31.502 8.12933 31.7256 8.07921C31.4503 7.57218 31.1236 7.09449 30.7507 6.65357C30.4483 6.23235 30.1131 5.83532 29.7484 5.46614V5.35227L31.3411 4.44132L31.57 4.35022C32.9579 5.41672 34.1701 6.69222 35.1628 8.13068C35.4328 8.13068 35.6616 8.21722 35.8905 8.10791C34.403 5.83682 32.4155 3.93262 30.0785 2.53972C27.7416 1.14682 25.1166 0.3018 22.4027 0.0687379L22.3798 0.114286L22.334 0.0641831C21.6546 -0.0129526 20.9691 -0.0205838 20.2882 0.0414093C20.0088 0.0262243 19.7287 0.0338411 19.4506 0.0641831C16.7071 0.268764 14.0488 1.1046 11.6852 2.50583C9.32158 3.90705 7.31723 5.83538 5.83008 8.13888C6.07251 8.16554 6.31752 8.15787 6.55779 8.11611ZM15.9951 6.13068H15.9036C14.98 5.89609 14.0757 5.59155 13.1987 5.21973L13.2445 5.08308C14.4397 3.91265 15.7939 2.91471 17.2675 2.11838C17.6062 2.25503 17.9494 2.3689 18.2881 2.52831L18.2195 2.73328C17.4004 3.81349 16.6572 4.94865 15.9951 6.13068ZM20.517 6.74102C19.9061 6.78605 19.2921 6.76314 18.6863 6.6727C18.0107 6.60634 17.3417 6.48447 16.6862 6.30832C17.3458 5.04477 18.1374 3.85395 19.0479 2.7556L20.5033 2.96056C20.5719 4.13569 20.517 5.49301 20.517 6.74148V6.74102ZM21.2218 6.74102C21.1807 5.53856 21.199 4.20447 21.2218 2.96056L22.6315 2.77837C23.5384 3.86721 24.3241 5.05061 24.9748 6.30786C23.7463 6.60691 22.4865 6.75981 21.2218 6.76334V6.74102ZM28.4761 5.15596C27.5872 5.56694 26.6576 5.88446 25.7025 6.10335C24.9872 4.87857 24.2065 3.69278 23.3638 2.55109C23.6796 2.3689 24.0686 2.23681 24.4073 2.05462C25.9343 2.84026 27.3249 3.86423 28.5264 5.08764L28.4761 5.15596ZM25.5652 1.28441C27.4909 1.79903 29.3036 2.6655 30.9109 3.83963L30.8697 3.93073L29.2999 4.81435H29.1855C27.9813 3.60492 26.6244 2.55629 25.1487 1.69479C25.1762 1.53537 25.4096 1.4215 25.5652 1.30764V1.28441ZM24.6499 1.05667V1.10222C23.5848 1.82548 22.3359 2.23413 21.0474 2.28096C19.7589 2.32779 18.4834 2.01088 17.3682 1.36685C17.2538 1.28031 17.0249 1.23476 17.002 1.07534C19.5188 0.487149 22.1384 0.488709 24.6544 1.0799L24.6499 1.05667ZM10.7867 3.88973C12.2124 2.83873 13.8019 2.02797 15.4917 1.48983C15.5603 1.4215 15.6061 1.35318 15.6976 1.35318V1.39873C15.8807 1.43972 16.018 1.23931 16.1553 1.39873C16.2926 1.55815 16.4482 1.6037 16.5627 1.71756C15.0898 2.62409 13.7249 3.69368 12.4939 4.9059C11.8776 4.66583 11.2959 4.34574 10.7639 3.95396L10.7867 3.88973Z" fill="white"/>
<path d="M4.5526 43.1337C4.41577 43.2771 4.25112 43.3914 4.06861 43.4697C3.8861 43.548 3.68952 43.5886 3.49078 43.5891C3.25682 43.5991 3.02359 43.5567 2.80819 43.4653C2.59278 43.3739 2.40066 43.2357 2.24589 43.0608C1.92109 42.6567 1.75806 42.1472 1.78821 41.6306C1.78601 41.2648 1.87235 40.904 2.03994 40.5784C2.19068 40.2673 2.42719 40.0053 2.72188 39.8228C3.02775 39.6423 3.37776 39.5493 3.73335 39.5541C4.09731 39.5483 4.4551 39.648 4.76313 39.841C5.07413 40.0432 5.31909 40.3313 5.46796 40.67C5.63595 41.058 5.71865 41.4773 5.71053 41.8998V42.3553C5.75478 43.1773 5.49602 43.9871 4.98282 44.6326C4.7233 44.9214 4.40505 45.152 4.04918 45.309C3.69332 45.4661 3.30796 45.546 2.91868 45.5436H2.63492V44.5552H2.89122C3.90422 44.5063 4.45801 44.0325 4.5526 43.1337ZM3.77454 42.6782C3.94717 42.6832 4.11697 42.6338 4.25968 42.537C4.38895 42.4465 4.49418 42.3262 4.56633 42.1863V41.7308C4.58536 41.4116 4.50721 41.0941 4.34206 40.8198C4.27737 40.7192 4.18792 40.6367 4.0822 40.5801C3.97647 40.5235 3.85797 40.4947 3.73793 40.4965C3.62299 40.4957 3.50983 40.5248 3.40955 40.5806C3.30926 40.6365 3.22528 40.7174 3.16583 40.8153C3.00672 41.0502 2.9266 41.3293 2.93699 41.6124C2.92525 41.89 3.00215 42.1643 3.15667 42.3958C3.2247 42.4901 3.31491 42.5665 3.41944 42.6181C3.52396 42.6697 3.6396 42.695 3.75624 42.6919L3.77454 42.6782Z" fill="white"/>
<path d="M10.5028 43.0517C10.5463 43.7067 10.3692 44.3574 9.99935 44.9009C9.82104 45.1197 9.59227 45.2924 9.33249 45.4043C9.07272 45.5162 8.78963 45.564 8.50731 45.5436C8.23081 45.5601 7.95427 45.5118 7.69991 45.4027C7.44555 45.2935 7.22047 45.1265 7.04274 44.9151C6.66821 44.3835 6.48588 43.7412 6.52556 43.0931V42.041C6.47984 41.3837 6.65888 40.7304 7.03359 40.1872C7.21038 39.9744 7.43517 39.8061 7.68968 39.6961C7.94418 39.586 8.22119 39.5374 8.49816 39.5541C8.77475 39.5369 9.05152 39.5848 9.306 39.694C9.56048 39.8032 9.78548 39.9706 9.96273 40.1826C10.3403 40.713 10.5243 41.3558 10.4845 42.0046L10.5028 43.0517ZM9.34029 41.872C9.36216 41.5093 9.28964 41.147 9.12976 40.8203C9.06178 40.7207 8.97036 40.6392 8.86346 40.5829C8.75656 40.5266 8.63743 40.4971 8.51647 40.4971C8.3955 40.4971 8.27638 40.5266 8.16948 40.5829C8.06258 40.6392 7.97115 40.7207 7.90318 40.8203C7.75279 41.1259 7.68197 41.4642 7.69722 41.8041V43.2207C7.675 43.5846 7.74092 43.9486 7.88945 44.2819C7.95011 44.393 8.0413 44.4845 8.15235 44.5458C8.2634 44.6071 8.3897 44.6357 8.51647 44.6281C8.64171 44.6343 8.7661 44.6045 8.87482 44.5423C8.98355 44.4801 9.07204 44.3882 9.12976 44.2774C9.27345 43.9603 9.33933 43.6137 9.32198 43.2662L9.34029 41.872Z" fill="white"/>
<path d="M15.2074 43.0515C15.2522 43.706 15.0767 44.3567 14.7085 44.9008C14.5332 45.1147 14.3096 45.2844 14.0559 45.3961C13.8022 45.5078 13.5255 45.5583 13.2485 45.5434C12.972 45.5603 12.6953 45.5122 12.4409 45.403C12.1865 45.2938 11.9614 45.1266 11.7839 44.9149C11.407 44.3844 11.2245 43.7413 11.2668 43.093V42.0408C11.221 41.3835 11.4001 40.7302 11.7748 40.187C11.9525 39.9729 12.1788 39.8038 12.435 39.6938C12.6912 39.5837 12.9701 39.5358 13.2485 39.5539C13.5251 39.5371 13.8017 39.5852 14.0561 39.6944C14.3106 39.8035 14.5356 39.9708 14.7131 40.1825C15.0914 40.7123 15.2741 41.3559 15.2303 42.0044L15.2074 43.0515ZM14.0449 41.8718C14.0709 41.5101 14.0031 41.1479 13.8481 40.8197C13.7876 40.7156 13.7 40.6297 13.5944 40.5712C13.4888 40.5128 13.3693 40.4839 13.2485 40.4876C13.1285 40.4797 13.0087 40.5049 12.9021 40.5603C12.7955 40.6158 12.7064 40.6994 12.6444 40.8019C12.4897 41.106 12.4186 41.4455 12.4384 41.7858V43.2023C12.4162 43.5663 12.4821 43.9302 12.6307 44.2636C12.687 44.3777 12.7753 44.4733 12.8849 44.5387C12.9945 44.6042 13.1208 44.6367 13.2485 44.6325C13.372 44.6415 13.4955 44.6149 13.6043 44.5559C13.713 44.497 13.8024 44.4081 13.8618 44.3C14.0083 43.9759 14.0713 43.6205 14.0449 43.2661V41.8718Z" fill="white"/>
<path d="M18.8183 45.4612H17.6558V40.9889L16.2827 41.417V40.4924L18.6947 39.6224H18.8183V45.4612Z" fill="white"/>
<path d="M20.8231 41.6172C20.8197 41.5324 20.8347 41.4478 20.8671 41.3692C20.8995 41.2906 20.9485 41.2198 21.0108 41.1618C21.1435 41.0529 21.3102 40.9934 21.4822 40.9934C21.6542 40.9934 21.8208 41.0529 21.9536 41.1618C22.0159 41.2198 22.0648 41.2906 22.0972 41.3692C22.1296 41.4478 22.1446 41.5324 22.1412 41.6172C22.1459 41.7022 22.1314 41.7872 22.099 41.866C22.0665 41.9448 22.0169 42.0154 21.9536 42.0727C21.8208 42.1815 21.6542 42.2411 21.4822 42.2411C21.3102 42.2411 21.1435 42.1815 21.0108 42.0727C20.9475 42.0154 20.8978 41.9448 20.8654 41.866C20.8329 41.7872 20.8185 41.7022 20.8231 41.6172ZM20.8231 44.8967C20.8194 44.8118 20.8343 44.7271 20.8667 44.6484C20.8991 44.5698 20.9482 44.4991 21.0108 44.4412C21.1423 44.3298 21.3094 44.2687 21.4822 44.2687C21.6549 44.2687 21.822 44.3298 21.9536 44.4412C22.0739 44.5626 22.1413 44.7262 22.1413 44.8967C22.1413 45.0671 22.0739 45.2308 21.9536 45.3521C21.8208 45.461 21.6542 45.5205 21.4822 45.5205C21.3102 45.5205 21.1435 45.461 21.0108 45.3521C20.9479 45.2944 20.8986 45.2236 20.8662 45.1449C20.8337 45.0661 20.819 44.9812 20.8231 44.8962V44.8967Z" fill="white"/>
<path d="M27.0612 45.4612H23.0473V44.6686L24.9421 42.66C25.1564 42.4319 25.3494 42.185 25.5188 41.9221C25.6331 41.7415 25.6978 41.5342 25.7064 41.3209C25.7191 41.0994 25.6471 40.8814 25.505 40.7106C25.4342 40.6335 25.3468 40.5734 25.2493 40.5348C25.1518 40.4961 25.0468 40.4799 24.9421 40.4874C24.8254 40.4825 24.709 40.5042 24.602 40.5507C24.4949 40.5973 24.3999 40.6675 24.3242 40.7561C24.1637 40.9574 24.0823 41.21 24.0954 41.4666H22.9283C22.925 41.1263 23.0135 40.7912 23.1846 40.4965C23.3546 40.202 23.6054 39.9618 23.9077 39.8042C24.234 39.6351 24.5972 39.5491 24.965 39.5536C25.4735 39.5294 25.9734 39.6915 26.3701 40.0091C26.5396 40.1625 26.6724 40.3518 26.7588 40.5631C26.8451 40.7743 26.8828 41.0022 26.8689 41.2298C26.8647 41.5377 26.7879 41.8404 26.6447 42.1134C26.4342 42.4935 26.1741 42.8443 25.8712 43.1565L24.5439 44.5548H27.0612V45.4612Z" fill="white"/>
<path d="M31.7154 43.0517C31.759 43.7066 31.5818 44.3574 31.212 44.9009C31.024 45.1014 30.7966 45.2614 30.5438 45.3707C30.2911 45.48 30.0184 45.5364 29.7428 45.5364C29.4673 45.5364 29.1946 45.48 28.9419 45.3707C28.6891 45.2614 28.4617 45.1014 28.2737 44.9009C27.8992 44.3693 27.7168 43.727 27.7565 43.079V42.0405C27.7108 41.3832 27.8898 40.7299 28.2645 40.1867C28.4524 39.9876 28.6793 39.8289 28.9312 39.7205C29.1831 39.612 29.4547 39.556 29.7291 39.556C30.0036 39.556 30.2751 39.612 30.527 39.7205C30.7789 39.8289 31.0058 39.9876 31.1937 40.1867C31.5712 40.7171 31.7553 41.3599 31.7154 42.0086V43.0517ZM30.5529 41.872C30.5777 41.5099 30.5084 41.1475 30.3516 40.8198C30.289 40.7114 30.197 40.6228 30.0861 40.564C29.9751 40.5053 29.8499 40.4789 29.7245 40.4878C29.6046 40.4804 29.4849 40.5058 29.3785 40.5611C29.272 40.6165 29.1828 40.6998 29.1204 40.8021C28.97 41.1077 28.8992 41.446 28.9144 41.7859V43.2024C28.8922 43.5664 28.9582 43.9303 29.1067 44.2637C29.163 44.3779 29.2513 44.4734 29.3609 44.5389C29.4705 44.6043 29.5968 44.6369 29.7245 44.6326C29.8486 44.6414 29.9727 44.6147 30.0821 44.5558C30.1915 44.497 30.2818 44.4083 30.3424 44.3001C30.4929 43.9766 30.565 43.6225 30.5529 43.2662V41.872Z" fill="white"/>
<path d="M35.3222 45.4612H34.1597V40.9889L32.7866 41.417V40.4924L35.2169 39.6224H35.3405L35.3222 45.4612Z" fill="white"/>
<path d="M37.3998 42.5962L37.7339 39.6224H41.0201V40.588H38.6905L38.544 41.8406C38.8135 41.694 39.1157 41.6173 39.4228 41.6174C39.6664 41.6041 39.9101 41.6436 40.1369 41.7333C40.3637 41.8229 40.5682 41.9606 40.7363 42.1367C41.0676 42.5426 41.2313 43.0589 41.194 43.5805C41.1996 43.9325 41.1162 44.2802 40.9514 44.5917C40.7985 44.8849 40.561 45.126 40.2695 45.284C39.944 45.4546 39.58 45.5393 39.2122 45.53C38.8723 45.5322 38.5362 45.4591 38.2282 45.3159C37.9375 45.1854 37.6887 44.9773 37.5097 44.7147C37.333 44.4513 37.2361 44.1431 37.2305 43.8265H38.4204C38.4326 44.0412 38.5239 44.2439 38.6767 44.3958C38.8349 44.5326 39.0395 44.6043 39.2488 44.5962C39.3659 44.6033 39.4829 44.5812 39.5892 44.5318C39.6955 44.4825 39.7877 44.4076 39.8575 44.3139C40.0139 44.0783 40.0894 43.7986 40.0727 43.5168C40.0792 43.2414 39.9793 42.974 39.7935 42.7698C39.7026 42.6797 39.5937 42.6096 39.4738 42.5641C39.354 42.5186 39.2259 42.4987 39.0978 42.5056C38.8536 42.4947 38.6135 42.5706 38.4204 42.7197L38.3106 42.8244L37.3998 42.5962Z" fill="white"/>
</svg>
