<?xml version="1.0" encoding="UTF-8"?>
<svg width="60px" height="60px" viewBox="0 0 60 60" version="1.1" xmlns="http://www.w3.org/2000/svg" xmlns:xlink="http://www.w3.org/1999/xlink">
    <!-- Generator: Sketch 61.2 (89653) - https://sketch.com -->
    <title>icann-seeklogo.com</title>
    <desc>Created with Sketch.</desc>
    <g id="Page-1" stroke="none" stroke-width="1" fill="none" fill-rule="evenodd">
        <g id="Footer_Op1" transform="translate(-172.000000, -570.000000)">
            <g id="icann-seeklogo.com" transform="translate(172.000000, 570.000000)">
                <path d="M15.9856374,42.769753 C12.2711877,43.0283504 8.54103064,42.9598295 4.83870968,42.5649901 C12.0780439,42.8099816 19.2895006,41.5548401 26.0151992,38.879259 C26.2531073,39.4483401 26.699519,39.9722139 26.9267346,40.458858 C24.8924871,41.118354 22.8528934,41.7698721 20.5433141,42.1554644 C20.9853317,42.7571154 21.5099082,43.2941878 22.1017455,43.7510191 C24.9192183,46.1097806 28.9529627,47.7718167 34.277826,47.527165 C35.6724676,47.4502278 37.0536672,47.214679 38.3944372,46.8251209 C38.8064184,46.7338004 39.2097588,46.607465 39.6000162,46.4475064 C40.0758323,46.2108324 40.6692658,45.5992032 41.0996388,45.2189293 C44.3501578,42.2777903 47.0713982,38.0974372 47.0713982,32.1114482 C47.0713982,25.8276222 44.3020416,21.6206766 40.8964814,18.652945 C37.5711149,15.7543541 32.3665422,13.3503852 25.9269861,14.7012881 C28.5578602,17.2984383 31.0144035,20.0647029 33.2807507,22.9822165 C34.9698843,21.5881577 36.5531232,20.0717951 38.0175267,18.4455229 C38.175241,18.2700119 38.4960159,17.7940048 38.6644227,17.7727307 C38.8328295,17.7514566 39.2685488,18.0386565 39.46636,18.1530046 C40.138462,18.6489155 40.7337812,19.2402506 41.233295,19.9081146 C39.390627,21.990758 37.3405616,23.8822879 35.1145138,25.5537187 C36.3200928,27.3593547 37.4294394,29.2766795 38.5548246,31.1381598 C40.5120049,29.5571924 42.3407497,27.8250734 44.0240366,25.9579259 C44.1764047,25.7930519 44.6442015,25.2106745 44.7912233,25.2239707 C44.9382451,25.237267 45.1601144,25.7903926 45.2322888,25.9579259 C45.4872113,26.5374184 45.6668665,27.1468647 45.7669136,27.7715396 C45.8530328,28.1191779 45.8828119,28.4782643 45.8551267,28.8352427 C45.8096836,29.0187315 45.3926762,29.3458202 45.1788263,29.5372867 C43.5321818,31.0078562 41.7037649,32.4624702 39.9715804,33.792099 C40.3645297,35.0073798 40.9766751,36.1083125 41.5326849,37.4193265 C41.8935567,38.2756075 42.200966,39.333992 42.5351065,40.3179174 C42.6786285,40.6264879 42.7862511,40.9503572 42.8558814,41.2832279 C42.8745933,41.7539165 42.4762978,42.3229977 42.2410628,42.6580642 C41.9870419,43.049178 41.6690005,43.3952313 41.3001231,43.6818784 C38.239396,31.8907298 32.8049346,22.4663205 25.7398674,14.65874 C24.8096202,15.0230583 23.6387919,15.092199 22.737949,15.5070432 C22.4368245,15.685432 22.1600987,15.9017316 21.9146268,16.1505835 C21.3586169,16.6265906 20.9442827,17.001546 20.3855998,17.5546716 C20.1904617,17.7514566 19.7387037,18.1423675 19.7092993,18.3178785 C19.6638562,18.5838043 20.0354205,19.5039075 20.1209605,19.8097221 C21.0281499,23.1169449 22.2286382,26.3375337 23.7082931,29.4335757 C24.1653973,29.4335757 24.5476541,29.1437166 24.9138721,28.9389537 C27.4185894,27.5215694 29.7254956,25.8435778 32.0029973,24.1522899 C32.5376222,24.9819783 33.029477,25.8621926 33.5320243,26.7264513 C30.9551327,28.6783465 27.9425217,30.1834863 24.7695234,31.553004 C24.9793432,32.1381237 25.2555694,32.6975244 25.5928456,33.2203586 C26.4430978,34.799332 27.3755009,36.3331451 28.3862603,37.8155559 C31.4095638,36.5151789 34.0746685,34.6962466 36.5312696,32.9278403 C36.9456039,33.6378621 37.1754926,34.5233949 37.5042868,35.3211722 C35.2000538,37.073623 32.3665422,38.3048593 29.5918393,39.5892808 C31.1086436,41.7541767 32.7687667,43.816123 34.5611771,45.7614179 C34.8170974,46.0168546 35.0538574,46.2906048 35.269555,46.5804692 C34.4624788,46.714228 33.6420563,46.7499464 32.8263196,46.6868395 C32.5575986,46.7008774 32.2881699,46.6812218 32.0243823,46.6283359 C31.7944601,46.4246105 31.5962641,46.1880091 31.436295,45.9262919 C26.0151992,38.3287926 21.6286025,29.3724127 19.5836625,18.5359377 C19.3764161,18.6817667 19.1956271,18.8616179 19.0490377,19.0677892 C16.6432259,22.0674319 14.9698502,26.1999183 15.3440876,31.8322261 C14.3149348,32.1619741 13.2055883,32.4278998 12.1951473,32.7656256 C11.9216571,29.9086846 12.4190187,27.030873 13.6359613,24.4288527 C14.6238157,22.2452211 16.0470428,20.283847 17.8194006,18.663582 C19.5435656,17.0680274 21.7007768,15.9325244 23.9087774,14.7704288 C26.2956419,13.4391072 28.9687027,12.6967943 31.7036074,12.605793 C35.1330563,12.4244784 38.5427247,13.2265551 41.5273387,14.9166879 C44.0474416,16.3291433 46.1480188,18.3784614 47.6167155,20.8574696 C47.9909529,21.5089878 48.4186528,22.0940244 48.7340814,22.7588389 C49.8019894,25.0595318 50.3442613,27.5670169 50.3219172,30.1010493 C50.3219172,33.8506027 49.3328612,37.0683045 47.734333,39.5227993 C45.7522479,42.5567686 42.948041,44.971217 39.6454593,46.4873952 C38.9878707,46.7878913 38.3810716,47.2452837 37.7341755,47.5697131 C35.1252063,48.8727494 31.5565856,49.6678674 27.5763037,49.2370677 C22.1712467,48.6493717 18.861919,45.990114 15.9856374,42.769753 Z" id="Path" fill="#A4DDF1"></path>
                <path d="M22.2580645,31.7822216 C20.0709904,32.5438936 17.8246293,33.1247686 15.5417803,33.518951 C15.383276,34.142461 15.6653599,34.7713229 15.8668484,35.3145526 C16.4486018,36.905406 17.2438659,38.410499 18.2309805,39.7888386 C17.0166763,40.1500997 15.6653599,40.3748844 14.3570277,40.6451613 C13.6846664,39.7392361 13.1563944,38.7355631 12.7907902,37.66944 C12.3463036,36.5178711 12.0195812,35.3245737 11.8155858,34.1076728 C10.0344272,34.2173892 8.51117391,34.3137255 6.64136037,34.3137255 C6.12017671,34.3137255 5.20676205,34.2387973 4.83870968,34.2869654 C6.42912579,34.0942928 7.95775208,33.9738724 9.47831884,33.6982436 C10.9397823,33.4306427 12.3743806,33.1630419 13.7767408,32.7857247 C16.4146817,32.0498229 18.9937472,31.118657 21.4924081,30 C21.7395674,30.5967499 22.0404569,31.1533596 22.2580645,31.7822216 Z" id="Path" fill="#A4DDF1"></path>
                <path d="M26.0415239,28.325766 C26.7769885,27.7108968 27.8815323,27.0987244 28.2910218,27.0987244 C28.7005112,27.0987244 29.3551555,27.1391763 29.805055,27.5490891 C29.805055,27.5490891 31.809398,29.3694255 32.0734109,29.5150524 C32.3374239,29.6606793 33.0755824,29.7847319 33.3207373,29.3316704 C33.5658921,28.8786089 36.7340472,22.5896836 38.390863,19.4856729 C40.0476787,16.3816622 43.1754236,10.9503177 43.563361,10.3165709 C44.2848187,9.17386228 45.2396543,8.19690113 46.3651307,7.44987816 C47.8026925,6.56219931 49.2996125,5.77467029 50.8452684,5.09287959 C51.5187707,4.80701935 51.9094021,4.76656743 52.173415,4.94994947 C52.4374279,5.13333151 52.0090804,5.62414814 51.904014,5.75898788 C51.7989477,5.89382761 48.9190516,10.0738594 47.5693529,12.3904061 C46.2196542,14.7069527 41.4970558,22.808124 38.8380685,28.4579089 C36.1790813,34.1076938 36.1440591,34.2721983 35.9958886,34.434006 C35.270841,35.0011209 34.4735942,35.4690807 33.6251604,35.825552 C32.7038091,36.1734386 31.7231897,36.7047071 30.9661731,36.7667334 C30.2091564,36.8287597 29.799667,36.4970539 29.1261647,36.0305084 C28.4526623,35.563963 25.0528225,33.1260605 24.4224243,31.464835 C23.9725247,30.2782453 24.2796418,30.0517146 24.5463487,29.7038281 C25.0190966,29.2173521 25.5182438,28.7573018 26.0415239,28.325766 Z" id="Path" fill="#ED1C24"></path>
                <path d="M4.31099131,16.4516129 C4.88416808,16.7233218 5.55501622,16.9642713 6.0665058,17.2539233 C5.83517885,17.6384171 5.48818844,17.725569 5.2080258,17.9203792 C4.75239105,18.2222591 4.37176646,18.6237621 4.09508616,19.0943669 C3.73516212,19.7027337 3.64929939,20.4343002 3.85861861,21.1091144 C4.22874173,22.2113299 5.91485814,23.1110454 7.13575035,22.8418997 C8.75760927,22.4830388 9.19198987,20.4554749 8.93495993,19.1276897 C8.90154604,18.9559491 8.74732808,18.7585756 8.87841335,18.5150629 C9.41560592,18.5996515 10.0633214,19.0149048 10.644209,19.2276581 C10.6549065,19.928683 10.5754361,20.628183 10.4077415,21.3090511 C9.56468329,24.3491154 7.41077239,25.6435778 5.15404951,25.0001915 C2.58889071,24.2747799 1.30374101,22.1139248 2.24190029,19.5275632 C2.64215996,18.3355776 3.35687619,17.2730668 4.31099131,16.4516129 L4.31099131,16.4516129 Z" id="Path" fill="#FFFFFF"></path>
                <path d="M0,33.8305981 L0,28.0645161 L1.38141401,28.0645161 L1.38141401,29.692415 L6.36553568,29.692415 C6.42319906,29.2177325 6.36553568,28.5974419 6.39060672,28.0645161 L7.74193548,28.0645161 L7.74193548,33.8626319 L6.39060672,33.8626319 L6.39060672,32.2696789 C4.7835534,32.1910505 3.06117332,32.2696789 1.40648504,32.234733 C1.34631456,32.7094155 1.40648504,33.3297061 1.38141401,33.8626319 C0.92077947,33.8804234 0.459656192,33.8697304 0,33.8305981 Z" id="Path" fill="#FFFFFF"></path>
                <path d="M8.70967742,9.5789447 L10.6711409,7.74193548 C13.2431262,9.1238801 15.8125135,10.5560773 18.3870968,11.9296465 C17.8804936,12.4880079 17.1998268,13.0463694 16.6230786,13.6047308 C16.1190734,13.3087993 15.6098723,13.0463694 15.1032691,12.7197279 L12.666378,15.0034263 C12.814462,15.5897058 13.0508768,16.1759854 13.2509201,16.7650567 L11.5128816,18.3870968 C10.5646244,15.4501155 9.61636718,12.5243014 8.70967742,9.5789447 Z M12.0870318,13.4595569 L13.705564,11.9436055 C12.8371433,11.3874329 11.943174,10.8786778 11.0270621,10.4192787 C11.4115609,11.4327048 11.7389045,12.4461308 12.0948257,13.4595569 L12.0870318,13.4595569 Z" id="Shape" fill="#FFFFFF"></path>
                <path d="M17.4604929,3.40471955 L20.1530506,2.60162465 C21.7735713,3.74811185 23.2749769,5.09398812 24.878877,6.26816824 L23.4882762,1.60190997 L25.6212694,0.967741935 L28.0645161,9.16207915 L25.8705803,9.81563224 C23.9813578,8.4171394 22.20017,6.83587325 20.3303383,5.38476385 L21.9924109,10.967658 L19.8261763,11.6129032 L17.4244814,3.50718338 C17.4106037,3.46881335 17.4256579,3.42597941 17.4604929,3.40471955 Z" id="Path" fill="#FFFFFF"></path>
                <path d="M32.317314,0 L35.0603467,0.425894378 C36.0204082,2.14595812 36.7912004,3.99791174 37.7320606,5.7234709 L38.4671933,0.953453866 L40.6451613,1.29142166 L39.3531929,9.67741935 L38.2175774,9.50156619 C37.8801843,9.44935978 37.3946675,9.47134143 37.1203643,9.33120844 C36.9804696,9.2625158 36.8104016,8.80639666 36.6897081,8.56185085 C35.8146807,6.740122 34.9067369,4.69582898 34.0262234,3.00324229 L33.1457099,8.71847008 L30.9677419,8.38050228 L32.2405091,0.0769357586 C32.2419278,0.0350480828 32.2754976,0.00142113305 32.317314,0 Z" id="Path" fill="#FFFFFF"></path>
                <path d="M10.7284768,51.2903226 L9.95941038,50.3502559 L10.5439009,49.407511 L9.47489853,48.092489 L8.48792993,48.5451137 L7.74193548,47.626473 L12.6895962,45.483871 L13.5483871,46.533746 L10.7284768,51.2903226 Z M11.0822474,48.5531484 L12.1204871,46.8819188 L10.3747063,47.6853946 L11.0822474,48.5531484 Z" id="Shape" fill="#FFFFFF" fill-rule="nonzero"></path>
                <path d="M12.3338036,53.7180867 C12.1408288,53.5513038 11.97633,53.3552929 11.8465542,53.1374977 C11.5907509,52.7356776 11.5420433,52.2394205 11.7149968,51.7971258 C11.9379977,51.259238 12.3363518,50.8089169 12.8478517,50.5164851 C13.0685851,50.3996271 13.3134953,50.3334534 13.5641083,50.3229555 C13.7950982,50.3180116 14.024455,50.3620202 14.2365125,50.4519753 C14.4554156,50.5431339 14.6584492,50.6672799 14.8382655,50.8199205 C14.9934298,50.9482484 15.1288283,51.0979354 15.2402463,51.2643219 C15.338249,51.4148239 15.4199029,51.5749818 15.483871,51.7421729 L14.833393,52.4852312 L14.7237619,52.3944395 C14.7237619,52.3394866 14.7237619,52.2749767 14.7042719,52.2009098 C14.693548,52.1196728 14.6747815,52.0396532 14.6482382,51.9619843 C14.6189353,51.8785389 14.5805456,51.7984343 14.5337346,51.7230589 C14.4759943,51.6325139 14.4035802,51.5518124 14.3193449,51.4841334 C14.1410663,51.3175238 13.8892209,51.2501635 13.649377,51.3049393 C13.3735883,51.381836 13.1302231,51.5434623 12.9550466,51.7660654 C12.75438,51.9658018 12.6304189,52.2275151 12.604227,52.5067345 C12.602879,52.7453782 12.7155855,52.9708645 12.9087579,53.1159944 C12.9964348,53.1922815 13.0959437,53.2543838 13.2035438,53.2999671 C13.2898376,53.3365832 13.380815,53.3615012 13.4739672,53.374034 C13.5461087,53.3801345 13.6186517,53.3801345 13.6907932,53.374034 L13.8856929,53.3573092 L13.995324,53.4504901 L13.3448461,54.1935484 C13.1671471,54.1558365 12.9940202,54.0997746 12.8283617,54.0263005 C12.6494302,53.9471 12.4829068,53.8433209 12.3338036,53.7180867 L12.3338036,53.7180867 Z" id="Path" fill="#FFFFFF" fill-rule="nonzero"></path>
                <path d="M16.458961,55.8021378 C16.2330331,55.6699006 16.0308841,55.5039398 15.8602458,55.3106031 C15.5388949,54.9501142 15.4136943,54.4669166 15.5220593,54.0054113 C15.666449,53.4400959 16.0039433,52.9364984 16.4815067,52.5737567 C16.6880633,52.4266508 16.9270797,52.3262833 17.1804253,52.2802675 C17.4146918,52.2424547 17.6547536,52.2530332 17.8843541,52.3112867 C18.1202277,52.3699918 18.3450466,52.4633761 18.5507066,52.5880732 C18.7279014,52.6927493 18.8882248,52.8213454 19.0266726,52.9698478 C19.152369,53.1062119 19.262384,53.2549966 19.3548387,53.4136607 L18.8062252,54.2416343 L18.680971,54.1652794 C18.6684455,54.1127854 18.65091,54.0483609 18.6308693,53.9767782 C18.607701,53.8943773 18.5758063,53.8144307 18.5356761,53.7381691 C18.4937029,53.653212 18.4415871,53.5731471 18.3803608,53.49956 C18.3091996,53.4179093 18.2245968,53.3478012 18.1298524,53.2919701 C17.9229779,53.1528965 17.6564851,53.1224005 17.4209134,53.210843 C17.1526846,53.3268602 16.9305573,53.5217109 16.787127,53.7668022 C16.6114718,53.9914982 16.5229511,54.2672112 16.5366186,54.5470539 C16.5711124,54.7839353 16.720482,54.991603 16.9399372,55.1077853 C17.0409061,55.1702405 17.151686,55.2169583 17.2681033,55.2461786 C17.3619446,55.2706806 17.4588881,55.2827247 17.556188,55.28197 C17.6310885,55.2801502 17.7056837,55.2721669 17.7791405,55.2581091 L17.9745371,55.2127733 L18.0997914,55.2891282 L17.5536829,56.1290323 C17.367109,56.1176041 17.1823527,56.0872075 17.0025643,56.0383608 C16.8105487,55.9844972 16.6275247,55.9049641 16.458961,55.8021378 L16.458961,55.8021378 Z" id="Path" fill="#FFFFFF" fill-rule="nonzero"></path>
                <path d="M21.7699289,55.2466424 L21.6806998,55.2089871 C21.6237149,55.1594345 21.5601892,55.1172363 21.4917441,55.0834693 C21.4007654,55.0349358 21.3237835,54.9972804 21.2607983,54.9705033 C21.1350194,54.9153627 21.0040987,54.8716575 20.8697649,54.8399649 C20.737795,54.8119796 20.6033514,54.7960095 20.468234,54.7922681 L19.3922362,57.0967742 L18.3870968,56.6675035 L19.990596,53.2258065 L20.9957354,53.6550772 L20.7595407,54.1571482 C21.003779,54.0590304 21.26394,54.0021246 21.5284855,53.9889544 C21.6994421,53.9857647 21.8692313,54.0165375 22.0271186,54.0793272 L22.145216,54.1320447 L22.2580645,54.1897829 L21.7699289,55.2466424 Z" id="Path" fill="#FFFFFF" fill-rule="nonzero"></path>
                <path d="M24.9302559,57.3308766 L22.4444893,56.5890841 C22.3707383,56.8816431 22.4117324,57.1949129 22.5574787,57.4525306 C22.7447649,57.718989 23.0133887,57.9013947 23.3134315,57.9658509 C23.5431688,58.0338395 23.783272,58.0479902 24.0182701,58.0073913 C24.2227205,57.9787133 24.4221779,57.916716 24.6101193,57.8234268 L24.7311794,57.8590328 L24.462157,58.9657872 C24.2110398,59.0159391 23.9559512,59.0378107 23.7008237,59.0310649 C23.4496202,59.0189053 23.2005014,58.9751023 22.958322,58.9005094 C22.3775481,58.7731975 21.8665189,58.3963719 21.5378839,57.8530985 C21.2650354,57.2941576 21.2153297,56.6352098 21.4006825,56.0342234 C21.5195437,55.4101867 21.8507376,54.8601297 22.3261194,54.4972294 C22.7954541,54.1815847 23.3664047,54.1078817 23.8891394,54.2954618 C24.3621683,54.3941455 24.7705712,54.7205557 25.002892,55.1856128 C25.1980946,55.7115891 25.2133913,56.2978724 25.0459355,56.8353592 L24.9302559,57.3308766 Z M24.0478626,56.2003849 C24.116968,55.9731897 24.116968,55.727328 24.0478626,55.5001328 C23.9602347,55.3076524 23.795977,55.1715025 23.6039757,55.1322037 C23.4156573,55.0679976 23.2120753,55.0871527 23.0363385,55.1856128 C22.8417497,55.3204907 22.701978,55.533126 22.6462561,55.7790468 L24.0478626,56.2003849 Z" id="Shape" fill="#FFFFFF" fill-rule="nonzero"></path>
                <path d="M29.5340863,60 L28.4399742,59.8979389 L28.4766191,59.467627 C28.3058848,59.6150622 28.1164735,59.7366841 27.9138581,59.8289786 C27.7306936,59.9035938 27.5332652,59.9310195 27.3380097,59.9089725 C26.9331201,59.8758621 26.5748842,59.6199861 26.3957123,59.2359206 C26.165314,58.7400446 26.0814262,58.1827151 26.1549029,57.6360432 C26.1767109,57.3204525 26.2456122,57.010461 26.3590674,56.7174929 C26.452907,56.4757326 26.5867307,56.2534495 26.7543088,56.0609915 C26.8996375,55.8944905 27.078518,55.7644181 27.2778074,55.680331 C27.4676824,55.5991429 27.6729945,55.5660739 27.8772132,55.5837867 C28.0480613,55.5940544 28.2157029,55.6370527 28.3719194,55.7106735 C28.5054441,55.7798526 28.6340378,55.8591344 28.7566909,55.9478967 L28.905888,54.1935484 L30,54.2956095 L29.5340863,60 Z M28.5368215,58.7614742 L28.7069585,56.7340434 C28.633228,56.6874978 28.5540295,56.6513308 28.4713841,56.6264654 C28.3961602,56.6032979 28.3190443,56.5875985 28.2410448,56.5795724 C27.9864739,56.5412721 27.7314068,56.6458631 27.5683491,56.8554134 C27.3926762,57.1055866 27.2915451,57.4051507 27.2778074,57.7160371 C27.230681,58.01855 27.2642094,58.3289119 27.3746546,58.6125201 C27.482928,58.8102432 27.6815687,58.9337507 27.8981532,58.9380124 C28.0059531,58.9463086 28.1142729,58.9332092 28.2174873,58.8993947 C28.3301932,58.872923 28.4380518,58.8272706 28.5368215,58.7642326 L28.5368215,58.7614742 Z" id="Shape" fill="#FFFFFF" fill-rule="nonzero"></path>
                <path d="M31.9035597,55.2080792 L30.9863755,55.2386541 L30.9677419,54.2241233 L31.8849262,54.1935484 L31.9035597,55.2080792 Z M31.9677419,59.9722046 L31.1002471,60 L31.0236426,55.8306953 L31.8911374,55.8029 L31.9677419,59.9722046 Z" id="Shape" fill="#FFFFFF" fill-rule="nonzero"></path>
                <path d="M35.8064516,58.8195946 C35.6907818,58.8651698 35.5721069,58.9032266 35.4512154,58.9335122 C35.2974071,58.9698676 35.1411138,58.9955232 34.9835302,59.0102828 C34.6532772,59.0708275 34.3116585,59.0051532 34.0302703,58.827024 C33.8070763,58.661926 33.6707746,58.3531927 33.6213653,57.9008242 L33.429691,56.1672951 L32.9926738,56.2118715 L32.9032258,55.4070188 L33.3402431,55.3624423 L33.2226829,54.3049895 L34.2883916,54.1935484 L34.4059518,55.2510011 L35.3975466,55.1469894 L35.4869945,55.9493657 L34.4953998,56.0533775 L34.6410722,57.3659066 C34.6547024,57.4963341 34.6683326,57.6094262 34.6819627,57.705183 C34.6933565,57.7912425 34.7192577,57.8749048 34.7586324,57.95283 C34.7928219,58.0255105 34.8513635,58.0848565 34.9247501,58.12123 C35.0230297,58.1617742 35.1313374,58.1738179 35.2365402,58.1559006 C35.30989,58.1449918 35.3812944,58.1241508 35.4486597,58.0939888 C35.5120203,58.0708344 35.5721239,58.0400496 35.6275557,58.0023594 L35.7170036,58.0023594 L35.8064516,58.8195946 Z" id="Path" fill="#FFFFFF" fill-rule="nonzero"></path>
                <path d="M39.3970496,56.9660904 L36.9997595,57.5007566 C37.0587468,57.7435119 37.2230333,57.9516524 37.4524666,58.0743077 C37.7204183,58.1857175 38.0221053,58.2012653 38.3012925,58.1180531 C38.5224731,58.0687787 38.7301867,57.9760338 38.9109038,57.8458594 C39.0710091,57.7365692 39.2131559,57.6055399 39.3327446,57.4570112 L39.4484936,57.4302779 L39.6774194,58.3440711 C39.4872862,58.4880754 39.2821738,58.6134735 39.0652358,58.7183375 C38.8487329,58.8172857 38.6208738,58.8923106 38.3861751,58.9419252 C37.8448392,59.1004671 37.2589732,59.0488728 36.7579727,58.7985374 C36.2981977,58.5130539 35.9850381,58.0595417 35.8937136,57.5469323 C35.7383993,57.0466797 35.7917857,56.5092193 36.0429012,56.0450063 C36.3077292,55.6159176 36.7578124,55.3176185 37.2749848,55.2284251 C37.7155452,55.0975572 38.194981,55.1599766 38.5816623,55.3985462 C38.9619518,55.6935538 39.2160317,56.1089151 39.2967338,56.567521 L39.3970496,56.9660904 Z M38.1881157,56.5310665 C38.1497968,56.3382207 38.0459425,56.1624489 37.8923128,56.0304245 C37.7415156,55.9334088 37.5521597,55.9065723 37.3778728,55.9575155 C37.193029,55.9918399 37.0296719,56.0929927 36.9225935,56.2394304 C36.8145845,56.4203454 36.7850772,56.6337973 36.8402831,56.8348541 L38.1881157,56.5310665 Z" id="Shape" fill="#FFFFFF" fill-rule="nonzero"></path>
                <path d="M43.5483871,57.0791672 L42.6253764,57.4798822 L42.4826428,57.1167342 C42.4045802,57.3111157 42.3013053,57.4931693 42.1757655,57.6576995 C42.0575708,57.7985153 41.9091309,57.9075648 41.7428069,57.9757671 C41.4026292,58.1291012 41.0107774,58.0814641 40.712746,57.8505436 C40.3302866,57.553485 40.0411145,57.1426263 39.8825122,56.6709388 C39.7746873,56.4023761 39.7080419,56.1174956 39.6850641,55.8269327 C39.664788,55.5880059 39.684924,55.3471867 39.7445364,55.1156636 C39.7961358,54.916065 39.8896236,54.7312013 40.0181091,54.5746983 C40.139116,54.4255594 40.2914125,54.3080941 40.4629622,54.231586 C40.6041294,54.1644346 40.7556187,54.1245631 40.9101942,54.113876 C41.045335,54.1113005 41.180479,54.1188328 41.3146061,54.1364162 L40.7341561,52.6587795 L41.6571668,52.2580645 L43.5483871,57.0791672 Z M42.2495112,56.5231751 L41.5881789,54.8101184 C41.5084939,54.8044158 41.4284427,54.8103152 41.3502895,54.8276496 C41.2802935,54.8425012 41.2117922,54.8643041 41.1457047,54.8927658 C40.9283747,54.9697167 40.7639171,55.1589394 40.7103672,55.3936596 C40.6674605,55.6792988 40.7081159,55.9719213 40.8269329,56.2326567 C40.9102197,56.4972563 41.0617735,56.7322514 41.2646493,56.9113678 C41.4324719,57.0236992 41.6442185,57.0341786 41.8213104,56.9389169 C41.9098445,56.8968659 41.9904349,56.8383231 42.0591998,56.7661086 C42.1350012,56.6939284 42.1992618,56.6093626 42.2495112,56.5156617 L42.2495112,56.5231751 Z" id="Shape" fill="#FFFFFF" fill-rule="nonzero"></path>
                <path d="M51.2903226,51.5849882 L50.1273479,52.4406375 L47.9407411,51.6604101 L47.4985964,51.9855049 L48.6803287,53.4965453 L47.7317272,54.1935484 L44.516129,50.071347 L46.1239281,48.8932037 C46.3105726,48.7525017 46.509639,48.6280501 46.7188138,48.5212953 C46.8915958,48.4410725 47.0794365,48.3959377 47.2708248,48.3886566 C47.4809996,48.3785344 47.6905872,48.4177901 47.8817885,48.50309 C48.1035161,48.6101694 48.2941813,48.7692951 48.4364792,48.9660249 C48.6514829,49.2183121 48.7872797,49.5252391 48.8277103,49.8502826 C48.8484475,50.1521476 48.7913472,50.4542698 48.661571,50.7293388 L51.2903226,51.5849882 Z M47.5682677,49.8190735 C47.4982678,49.725142 47.4064703,49.6485209 47.3003011,49.5954083 C47.1964153,49.5486554 47.0792178,49.5376477 46.9680227,49.5641992 C46.8724214,49.5853055 46.7816045,49.6232068 46.7000561,49.6760318 C46.6089475,49.7332485 46.506227,49.803469 46.3918947,49.8866932 L46.0462178,50.146769 L46.9144294,51.2572927 L47.2065129,51.0414298 C47.3352404,50.9485436 47.456202,50.8459275 47.5682677,50.7345403 C47.6531659,50.6507241 47.7117215,50.5451802 47.7370866,50.4302516 C47.7596851,50.3326397 47.7596851,50.2313771 47.7370866,50.1337652 C47.7000034,50.0172896 47.6389218,49.9093416 47.557549,49.8164728 L47.5682677,49.8190735 Z" id="Shape" fill="#FFFFFF" fill-rule="nonzero"></path>
                <path d="M53.0423264,47.3491072 L51.1833161,49.0894009 C51.3943959,49.265044 51.6800119,49.3552267 51.9706951,49.3380143 C52.2896857,49.2892628 52.5775736,49.1408373 52.7808143,48.9203438 C52.9523354,48.7595968 53.0831029,48.5689766 53.1645549,48.3609637 C53.2412453,48.1822482 53.2872253,47.9945776 53.300996,47.8040697 L53.3919568,47.7195412 L54.1935484,48.3758805 C54.1117627,48.6002961 54.0041427,48.8168711 53.8723432,49.0222753 C53.7381969,49.2226 53.5779455,49.4086449 53.3947993,49.5766832 C52.9991617,49.9997309 52.4276026,50.2680126 51.8058288,50.3225233 C51.1971547,50.3266423 50.6140825,50.1085995 50.1969605,49.7208789 C49.7289458,49.3780053 49.4288732,48.8913606 49.3584161,48.3609637 C49.3236382,47.8540492 49.5437521,47.3591365 49.9610311,47.0060208 C50.281829,46.6586073 50.7637136,46.455172 51.2742769,46.4516129 C51.8173116,46.4974984 52.3226034,46.7149326 52.6955386,47.0632018 L53.0423264,47.3491072 Z M51.64949,47.6275542 C51.4893863,47.48343 51.2797272,47.3891242 51.0525601,47.3590518 C50.8459717,47.3551136 50.6492168,47.4360953 50.5210082,47.5778315 C50.3730346,47.7063043 50.288363,47.8802906 50.2850788,48.0626276 C50.3033684,48.2738931 50.4143954,48.4707791 50.5949138,48.6120632 L51.64949,47.6275542 Z" id="Shape" fill="#FFFFFF" fill-rule="nonzero"></path>
                <path d="M56.9650817,44.5428063 C57.2577633,44.7153145 57.5177013,44.9356386 57.7334775,45.1941003 C57.8963771,45.3893868 58.0047779,45.6222631 58.0482078,45.8702318 C58.0831322,46.107274 58.0617933,46.3489532 57.9858288,46.5767202 C57.896641,46.8431694 57.7707355,47.0966139 57.6115549,47.3301239 C57.4748708,47.5380507 57.323272,47.7363238 57.1578895,47.9234638 C57.014911,48.0872242 56.8614963,48.2420739 56.6985533,48.3870968 L55.8025642,47.8351527 L55.8819556,47.7164847 C56.0370485,47.6154803 56.1831168,47.5019297 56.3186085,47.3770391 C56.4599318,47.2549186 56.5847437,47.1158192 56.6900471,46.9630811 C56.7920355,46.8177428 56.8695646,46.6575078 56.9197152,46.4884092 C56.9537179,46.3701736 56.9537179,46.2451214 56.9197152,46.1268858 C56.8815391,46.0226781 56.8194812,45.9283011 56.738249,45.8509138 C56.6306586,45.7456428 56.5107521,45.6530192 56.3809875,45.5749417 L56.3129377,45.5335459 C56.3440851,45.7162784 56.3440851,45.9027575 56.3129377,46.08549 C56.2812008,46.2768788 56.207723,46.4594337 56.0974467,46.6208758 C55.8684866,47.0132306 55.4585272,47.2734136 54.9973081,47.319085 C54.5436427,47.3614007 54.0086956,47.1893781 53.3924668,46.8030173 C53.1304858,46.6462154 52.8959641,46.4496311 52.6977917,46.2207163 C52.5362131,46.0280848 52.4122457,45.8082811 52.332024,45.572182 C52.2613082,45.3614128 52.2409434,45.137716 52.2724804,44.9181283 C52.3009843,44.701042 52.3784434,44.4927733 52.4993131,44.3082301 C52.597294,44.1558394 52.7198389,44.0197929 52.8622454,43.9053109 C52.9922464,43.8025967 53.1375769,43.7197734 53.2932275,43.6596958 L53.1571279,43.5244695 L53.7809178,42.5806452 L56.9650817,44.5428063 Z M55.6040856,45.0671532 L53.9822318,44.0515761 C53.9083889,44.0974345 53.8407551,44.152137 53.7809178,44.2143996 C53.7187595,44.2772682 53.6627544,44.3456368 53.6136287,44.4186189 C53.4515737,44.6301141 53.4070247,44.9057585 53.4945415,45.1554642 C53.6161979,45.4285118 53.8263137,45.6553109 54.0928128,45.8012388 C54.3307505,45.9781679 54.6213296,46.0750249 54.9207521,46.0772108 C55.1422325,46.0443478 55.3352203,45.9126582 55.4424673,45.7212069 C55.5067427,45.6233849 55.5519205,45.5148588 55.5757315,45.4010794 C55.6010278,45.2915861 55.6105704,45.1792029 55.6040856,45.0671532 L55.6040856,45.0671532 Z" id="Shape" fill="#FFFFFF" fill-rule="nonzero"></path>
                <path d="M53.560882,40.9372363 L53.2180353,42.1785552 L52.2580645,41.8864802 L52.6009112,40.6451613 L53.560882,40.9372363 Z M58.0645161,42.380087 L57.7408688,43.5483871 L53.7912749,42.3158305 L54.1149222,41.1475303 L58.0645161,42.380087 Z" id="Shape" fill="#FFFFFF" fill-rule="nonzero"></path>
                <path d="M56.9568192,36.8935757 C57.3153338,36.9278129 57.6378844,37.172672 57.8217547,37.5501778 C58.0326941,38.0119914 58.1093446,38.5474695 58.0392102,39.0693163 C58.0139489,39.3855003 57.9556496,39.6964323 57.8657345,39.9945283 C57.7985149,40.2225275 57.7108356,40.4407346 57.6042991,40.6451613 L56.6440741,40.51981 L56.6440741,40.4063969 C56.6904972,40.3496904 56.7418069,40.2840301 56.7980033,40.2094163 C56.8689722,40.1084661 56.9319647,39.9995421 56.986139,39.8840998 C57.0516566,39.7501407 57.107259,39.6093083 57.1522848,39.4632775 C57.2039512,39.2972349 57.2376285,39.1236553 57.252461,38.9469495 C57.2775902,38.7625975 57.2675567,38.5736487 57.2231411,38.3948069 C57.1932051,38.2809349 57.1105098,38.1998891 57.0130155,38.1888726 C56.9390178,38.1710492 56.8626684,38.2002638 56.8102199,38.266471 C56.7431329,38.381457 56.6927187,38.5096684 56.6611774,38.6455095 C56.6334864,38.7350461 56.6017232,38.8574129 56.5658879,39.0126097 C56.5332804,39.1548516 56.493292,39.2944131 56.4461651,39.4304474 C56.356824,39.7293678 56.1915959,39.9855754 55.9746042,40.1616634 C55.76116,40.3122802 55.5125364,40.3711282 55.2684846,40.3287985 C54.9244745,40.2882799 54.6168549,40.0499647 54.4401989,39.6871192 C54.227521,39.2358527 54.1489782,38.7087026 54.2178567,38.1948417 C54.2415848,37.9133572 54.2941189,37.6366188 54.3742292,37.3711045 C54.4337115,37.1624711 54.5115382,36.9623311 54.6063447,36.7741935 L55.5274766,36.8935757 L55.5274766,37.0010197 C55.3884978,37.1774717 55.2723298,37.3787498 55.1829683,37.5979307 C55.0899576,37.8165178 55.0311271,38.0543723 55.0094926,38.2993011 C54.98982,38.4723942 55.0014971,38.6486524 55.0436991,38.8156291 C55.0649809,38.9372653 55.1457879,39.0300262 55.2464947,39.0484244 C55.3195236,39.0658545 55.3950749,39.0416841 55.4517336,38.9827642 C55.5322657,38.8582669 55.5912815,38.715105 55.6252094,38.561942 C55.6594159,38.4395752 55.6960657,38.3052702 55.7302722,38.1620116 C55.7644787,38.018753 55.8060151,37.8635561 55.8548815,37.7322357 C55.9382342,37.4545744 56.0935134,37.2177413 56.2971226,37.0577263 C56.4963928,36.9163071 56.7281398,36.8586421 56.9568192,36.8935757 Z" id="Path" fill="#FFFFFF" fill-rule="nonzero"></path>
                <path d="M58.9108458,33.8709677 C58.9461131,34.0073989 58.9733596,34.146532 58.9923915,34.2873783 C59.0149231,34.4657324 59.026485,34.6457725 59.0269867,34.8260912 C59.0566753,35.2071344 58.9601608,35.5869439 58.7576386,35.8860452 C58.5731311,36.1209435 58.2543614,36.2413046 57.8013295,36.2471285 L56.0715714,36.2733361 L56.0715714,36.7741935 L55.2659984,36.7741935 L55.2659984,36.2733361 L54.2059038,36.2878959 L54.1935484,35.064872 L55.253643,35.0503122 L55.253643,33.9146472 L56.059216,33.9146472 L56.059216,35.0503122 L57.3763032,35.0328405 L57.7173127,35.0328405 C57.8059597,35.0307067 57.893671,35.011019 57.9767764,34.9746012 C58.0519568,34.9438 58.116294,34.8843767 58.1596365,34.8057074 C58.209021,34.6988887 58.2313217,34.5775987 58.2238847,34.456272 C58.2196916,34.3718698 58.2055532,34.2885655 58.1818763,34.2087553 C58.1646087,34.1346024 58.1397132,34.0632152 58.1077438,33.9961821 L58.1077438,33.8942634 L58.9108458,33.8709677 Z" id="Path" fill="#FFFFFF" fill-rule="nonzero"></path>
                <path d="M55.2908497,30.9677419 L55.2908497,31.0760276 C55.2767537,31.1597679 55.2718458,31.2453699 55.2762515,31.3306452 C55.2762515,31.4457596 55.2811176,31.5433143 55.2908497,31.6233091 C55.3039218,31.7770633 55.329178,31.9289633 55.366274,32.0769381 C55.4055038,32.2199609 55.4560167,32.3581421 55.5171225,32.4895942 L57.9501632,32.1618106 L58.0645161,33.382219 L54.4368525,33.8709677 L54.3224995,32.6505593 L54.8553355,32.5773933 C54.6578509,32.4016236 54.4874095,32.1857095 54.351696,31.9393861 C54.268875,31.7769312 54.2150208,31.5955479 54.1935484,31.4067378 C54.1935484,31.3628382 54.1935484,31.316012 54.1935484,31.2604058 C54.1935484,31.2047997 54.1935484,31.1579735 54.1935484,31.1170005 L55.2908497,30.9677419 Z" id="Path" fill="#FFFFFF" fill-rule="nonzero"></path>
                <path d="M57.1249013,27.3010469 L57.3871987,27.4644651 C57.4796063,27.520974 57.5654753,27.585109 57.6436017,27.6559707 C57.7329456,27.7425688 57.8092024,27.8386685 57.8705332,27.9419525 C57.9359393,28.0531836 57.9863721,28.1705595 58.0208384,28.2917695 C58.1132916,28.5819354 58.0574792,28.8925273 57.867586,29.1446081 C57.6627147,29.4096988 57.3446676,29.593402 56.9834375,29.6552898 C56.7174944,29.7203278 56.435964,29.7203278 56.1700209,29.6552898 C55.9406502,29.5896125 55.7366732,29.4703233 55.5805886,29.3105796 C55.3887855,29.1139382 55.2354669,28.8913971 55.1267257,28.6518002 C54.9950858,28.3794365 54.8732698,28.0926036 54.7612777,27.7913014 L54.7377004,27.7913014 C54.5334031,27.817844 54.3661062,27.9457957 54.3103619,28.1181377 C54.26632,28.3433129 54.2844997,28.5743256 54.3634108,28.7922376 C54.4270288,28.9758799 54.5267289,29.1486394 54.658127,29.3029194 C54.7956612,29.4731467 54.8938999,29.5982637 54.9528432,29.6782705 L54.9793676,29.7727466 L53.9449139,30 C53.874182,29.8995659 53.7759433,29.7293387 53.6501977,29.4893182 C53.5269597,29.2566567 53.4283174,29.0147956 53.3554816,28.7667035 C53.1825814,28.1777173 53.1825814,27.7257639 53.3554816,27.4108435 C53.5587349,27.0702041 53.935612,26.8326455 54.3722523,26.7699379 L57.2899423,26.1290323 L57.5846585,27.1503958 L57.1249013,27.3010469 Z M56.4588428,27.4491446 L55.5746943,27.6457571 C55.6316727,27.7819389 55.6965103,27.9291855 55.7692069,28.0874968 C55.8237508,28.209535 55.8918557,28.3266914 55.9725611,28.4373138 C56.0344742,28.5237723 56.1247849,28.5922365 56.2319113,28.6339263 C56.3455508,28.6677774 56.468984,28.6677774 56.5826236,28.6339263 C56.655921,28.6196897 56.7271108,28.5982736 56.7948192,28.5700911 C56.8529511,28.5416916 56.900112,28.499055 56.9303886,28.4475274 C56.9680647,28.3913935 56.9902548,28.328474 56.9952262,28.263682 C56.9966687,28.163464 56.9807742,28.0636242 56.9480716,27.9674866 C56.9143299,27.8589095 56.8540223,27.7578923 56.7712419,27.6712912 C56.6834135,27.5808452 56.577613,27.5047459 56.4588428,27.4465912 L56.4588428,27.4491446 Z" id="Shape" fill="#FFFFFF" fill-rule="nonzero"></path>
                <path d="M53.4182551,23.2258065 L53.4594941,23.3197262 C53.4684329,23.4001934 53.4878435,23.479134 53.5172287,23.5545256 C53.5529692,23.6567325 53.5859604,23.7423652 53.6162023,23.8086615 C53.6744793,23.9422352 53.7453681,24.0698872 53.8278959,24.1898653 C53.9093726,24.3042216 54.0014241,24.4105845 54.1028226,24.5075351 L56.6184018,23.3556367 L57.0967742,24.410853 L53.3412757,26.1290323 L52.8629032,25.073816 L53.4127566,24.8224425 C53.1497535,24.7342876 52.9041186,24.6006024 52.6869501,24.427427 C52.5500983,24.3117766 52.4386843,24.1687893 52.3597874,24.0075504 C52.3432918,23.9716399 52.3240469,23.9274424 52.3048021,23.8804825 C52.2855572,23.8335226 52.2718109,23.7893251 52.2580645,23.7534146 L53.4182551,23.2258065 Z" id="Path" fill="#FFFFFF" fill-rule="nonzero"></path>
            </g>
        </g>
    </g>
</svg>