<svg width="84" height="41" viewBox="0 0 84 41" fill="none" xmlns="http://www.w3.org/2000/svg">
<path fill-rule="evenodd" clip-rule="evenodd" d="M42.6293 0.00573324C42.8119 0.0263748 42.9944 0.048163 43.1781 0.066511C45.4634 0.305036 47.4829 1.13185 49.1858 2.69602C50.1459 3.57902 51.0032 4.54115 51.6224 5.69478C52.0123 6.42428 52.3144 7.19676 52.5224 7.99631C52.53 8.06196 52.5631 8.12207 52.6147 8.16385C52.6663 8.20562 52.7322 8.22574 52.7986 8.21993C53.9707 8.31871 55.0969 8.7178 56.067 9.37815C57.0479 10.0433 57.8 10.9148 58.4273 11.9102C58.8606 12.604 59.2072 13.331 59.3585 14.1418C59.5412 15.1647 59.4982 16.2148 59.2326 17.2197C58.9611 18.293 58.559 19.3194 57.8462 20.1748C56.7151 21.5326 55.3726 22.606 53.5819 23.0004C52.955 23.1409 52.3147 23.214 51.6721 23.2183C48.3956 23.2241 45.1179 23.2183 41.8414 23.2183C41.7913 23.2217 41.7413 23.2114 41.6967 23.1886C41.6521 23.1657 41.6146 23.1312 41.5884 23.0887C40.4546 21.5337 39.3205 19.9803 38.1859 18.4283C38.1568 18.3824 38.1155 18.3454 38.0667 18.3211C38.0178 18.2968 37.9631 18.2863 37.9087 18.2907C37.3236 18.2804 36.757 18.0854 36.2911 17.7341C35.8252 17.3827 35.4841 16.8931 35.3174 16.3364C35.1506 15.7796 35.1668 15.1847 35.3637 14.6377C35.5605 14.0907 35.9277 13.6202 36.4121 13.2943C36.8965 12.9684 37.4728 12.8041 38.0576 12.8252C38.6424 12.8464 39.2052 13.0518 39.6644 13.4117C40.1237 13.7717 40.4555 14.2675 40.6118 14.8272C40.768 15.3869 40.7406 15.9815 40.5336 16.5247C40.5182 16.5586 40.5134 16.5962 40.5198 16.6328C40.5261 16.6694 40.5434 16.7032 40.5694 16.73C41.4313 17.8553 42.2931 18.9807 43.155 20.106C43.2002 20.1563 43.263 20.1875 43.3306 20.1932C46.3819 20.1932 49.4319 20.2035 52.4831 20.1932C53.3365 20.1816 54.1569 19.8648 54.7938 19.301C55.6453 18.5843 56.2588 17.7059 56.5048 16.6084C56.6514 15.9 56.6043 15.1655 56.3685 14.4812C56.0855 13.5856 55.6511 12.7714 54.9394 12.1418C54.2083 11.4719 53.2915 11.0352 52.3075 10.8884C51.5799 10.7819 50.837 10.9093 50.1875 11.2519L50.0131 11.3425C50.0666 10.7825 50.0445 10.2179 49.9472 9.66369C49.5128 7.05139 48.198 5.04916 45.8042 3.80034C44.9011 3.32154 43.9204 3.00366 42.9066 2.86115C40.7277 2.56414 38.7567 3.06757 37.0202 4.42303C36.362 4.94702 35.779 5.55777 35.2872 6.23834C35.2517 6.29006 35.1975 6.3262 35.1359 6.33925C34.0961 6.34499 33.0482 6.33925 31.976 6.33925C32.0234 6.22458 32.0615 6.12366 32.1101 6.02504C33.4895 3.20518 35.6592 1.31189 38.7232 0.463288C39.568 0.224871 40.4366 0.0787499 41.3134 0.0275218C41.3527 0.0216803 41.3913 0.012472 41.429 0L42.6293 0.00573324Z" fill="#3C3C3C"/>
<path fill-rule="evenodd" clip-rule="evenodd" d="M0 29.2055C0.0415919 28.9555 0.0774067 28.7044 0.125931 28.4556C0.297886 27.5537 0.746355 26.7266 1.40999 26.0874C2.07363 25.4482 2.92002 25.0281 3.83338 24.8846C4.91362 24.7022 5.9615 24.7768 6.96433 25.2504C7.45889 25.4907 7.91013 25.8104 8.29989 26.1964L7.14456 27.3076C6.8401 27.0062 6.46963 26.7786 6.06201 26.6425C4.83852 26.2641 3.69012 26.3708 2.69423 27.2343C2.16855 27.693 1.89243 28.2996 1.77574 28.9762C1.62969 29.7256 1.73521 30.5018 2.07613 31.186C2.51168 32.0529 3.24417 32.5346 4.19385 32.6928C5.1805 32.8556 6.09552 32.6767 6.91465 32.0873C7.03018 32.007 7.13069 31.9142 7.21272 31.8476L8.43506 33.007C8.27331 33.1458 8.13698 33.2742 7.98679 33.3877C7.21301 33.9721 6.27877 34.3096 5.30758 34.3556C4.38332 34.4129 3.4891 34.3143 2.63877 33.9451C1.29859 33.3625 0.508345 32.3224 0.160591 30.9337C0.0970476 30.6722 0.0739411 30.4004 0.0288832 30.131C0.0215513 30.0975 0.0119007 30.0645 0 30.0323V29.2055Z" fill="#E11B22"/>
<path fill-rule="evenodd" clip-rule="evenodd" d="M83.87 40.5114C83.7834 40.5114 83.6967 40.5022 83.6089 40.5022C82.7239 40.5022 81.8389 40.5022 80.9516 40.5022H80.7599V36.3463H83.8665V37.1124H81.5351V38.0665H83.7706V38.7947H81.5351V39.7212H82.33C82.8441 39.7212 83.357 39.7144 83.87 39.7109V40.5114Z" fill="#3C3C3C"/>
<path fill-rule="evenodd" clip-rule="evenodd" d="M65.781 40.6031C65.625 40.5779 65.4691 40.5618 65.3189 40.5274C64.3888 40.3187 63.8008 39.6272 63.7522 38.6731C63.7176 37.9748 63.877 37.3349 64.3923 36.8234C64.8544 36.3647 65.4321 36.2122 66.0687 36.2386C66.573 36.2588 67.0539 36.4554 67.4262 36.7936C67.4513 36.811 67.478 36.8259 67.5059 36.8383C67.3176 37.0115 67.1593 37.1629 66.9802 37.3257C66.7658 37.1521 66.5113 37.0339 66.2397 36.9817C66.0547 36.9404 65.8632 36.9368 65.6768 36.9713C65.4903 37.0057 65.3129 37.0774 65.1553 37.1819C64.9976 37.2865 64.8631 37.4218 64.7597 37.5796C64.6563 37.7373 64.5864 37.9143 64.554 38.0998C64.4885 38.3948 64.5028 38.7019 64.5956 38.9896C64.8348 39.6972 65.5037 39.9392 66.1484 39.8543C66.3644 39.8245 66.5689 39.7087 66.7769 39.6249C66.8198 39.6078 66.8556 39.5767 66.8783 39.5366C66.901 39.4966 66.9092 39.4501 66.9017 39.4048C66.8913 39.2121 66.9017 39.0172 66.9017 38.8039H65.8318C65.8318 38.5837 65.8318 38.3807 65.8318 38.1789C65.8375 38.1619 65.8475 38.1466 65.8609 38.1346C65.8742 38.1225 65.8905 38.1141 65.9081 38.1101C66.4684 38.1101 67.0276 38.1101 67.5983 38.1101C67.5983 38.1651 67.6122 38.2076 67.6122 38.2523C67.6122 38.7488 67.6122 39.2431 67.6122 39.7373C67.6086 39.8158 67.578 39.8907 67.5255 39.9495C67.1827 40.3238 66.7067 40.5512 66.1981 40.5836C66.1643 40.5896 66.131 40.5984 66.0987 40.61L65.781 40.6031Z" fill="#3C3C3C"/>
<path fill-rule="evenodd" clip-rule="evenodd" d="M39.4672 23.2194H39.25C36.8851 23.2194 34.5132 23.2126 32.1517 23.2194C31.1155 23.2276 30.0901 23.0099 29.1478 22.5819C28.2121 22.178 27.3504 21.6227 26.598 20.9386C25.6841 20.0842 25.118 19.0154 24.7784 17.8297C24.2515 15.9834 24.3012 14.1601 25.1365 12.4113C26.0331 10.5352 27.416 9.13043 29.4112 8.38963C30.1133 8.12908 30.8569 7.99623 31.6064 7.99744C35.4236 8.00279 39.2404 8.00279 43.0568 7.99744C43.1165 7.99326 43.1763 8.00498 43.2299 8.03139C43.2835 8.0578 43.3291 8.09794 43.3618 8.14766C44.4402 9.58111 45.5231 11.0138 46.6106 12.4457C46.6374 12.4845 46.6741 12.5155 46.7169 12.5357C46.7597 12.5558 46.8072 12.5644 46.8544 12.5604C47.3793 12.56 47.8932 12.7088 48.3356 12.9891C48.778 13.2694 49.1304 13.6696 49.351 14.1422C49.5717 14.6149 49.6514 15.1404 49.5808 15.6566C49.5103 16.1728 49.2923 16.6582 48.9527 17.0555C48.6132 17.4527 48.1662 17.7452 47.6645 17.8983C47.1629 18.0515 46.6275 18.0589 46.1217 17.9198C45.6159 17.7806 45.1609 17.5007 44.8102 17.1131C44.4595 16.7255 44.228 16.2463 44.1428 15.7323C44.0675 15.2875 44.1072 14.8309 44.2584 14.4055C44.2748 14.3667 44.2802 14.3241 44.2739 14.2824C44.2676 14.2407 44.2498 14.2016 44.2226 14.1693C43.4647 13.1754 42.711 12.1816 41.9616 11.1877C41.9324 11.1474 41.8929 11.1156 41.8473 11.0954C41.8016 11.0753 41.7513 11.0676 41.7016 11.073C39.0228 11.073 36.3428 11.073 33.6617 11.073C33.0655 11.073 32.4682 11.0627 31.8732 11.1006C31.0859 11.1452 30.3149 11.3427 29.6042 11.682C28.7666 12.0879 28.2617 12.8023 27.9139 13.6314C27.1491 15.4536 27.5373 17.4777 28.9098 18.8228C29.575 19.4731 30.4358 19.8902 31.3614 20.0108C31.712 20.0596 32.0657 20.0826 32.4197 20.0796C33.8708 20.0888 35.3207 20.0796 36.7718 20.0865C36.85 20.0847 36.9258 20.1131 36.9833 20.1656C37.792 21.1507 38.5938 22.1426 39.3956 23.1323C39.421 23.1587 39.4337 23.1736 39.4672 23.2194Z" fill="#E11B22"/>
<path fill-rule="evenodd" clip-rule="evenodd" d="M69.3059 34.1584C68.7283 34.1584 68.1841 34.1584 67.6399 34.1584C67.6111 34.1584 67.5729 34.1033 67.5544 34.0678C67.548 34.0325 67.548 33.9964 67.5544 33.9611V24.9935C67.6134 24.9878 67.6573 24.982 67.7012 24.982C68.0824 24.982 68.4637 24.982 68.8438 24.982C68.8836 24.9792 68.9235 24.9868 68.9596 25.0039C68.9956 25.0209 69.0266 25.047 69.0494 25.0795C70.4797 26.8791 71.9112 28.6757 73.3438 30.4692C73.3865 30.5231 73.4316 30.577 73.5021 30.663V24.9579H73.8683C74.2796 24.9579 74.6921 24.9579 75.1034 24.9579C75.2189 24.9579 75.2512 24.9924 75.2512 25.1059C75.2512 28.0775 75.2512 31.0487 75.2512 34.0196C75.2512 34.1239 75.2281 34.1652 75.1149 34.1641C74.8319 34.1561 74.5488 34.1641 74.2669 34.1561C74.2315 34.153 74.197 34.1431 74.1655 34.1267C74.1339 34.1104 74.106 34.088 74.0832 34.0609C72.8193 32.4554 71.5584 30.85 70.3007 29.2445C69.9772 28.834 69.656 28.4234 69.3094 27.9831L69.3059 34.1584Z" fill="#E11B22"/>
<path fill-rule="evenodd" clip-rule="evenodd" d="M36.8296 34.1584V24.9935C36.8679 24.9877 36.9064 24.9839 36.9451 24.982C38.216 24.982 39.4868 24.9522 40.7577 24.9923C43.0222 25.0646 44.5703 26.4258 44.9793 28.5278C45.2173 29.7514 45.0948 30.936 44.4652 32.038C43.8101 33.1951 42.7888 33.8487 41.4879 34.0723C41.1125 34.1302 40.7332 34.159 40.3533 34.1584C39.2477 34.1687 38.1409 34.1584 37.0352 34.1584H36.8296ZM38.5557 32.4944C38.6712 32.4944 38.7867 32.4944 38.8907 32.4944C39.6001 32.4829 40.3118 32.5116 41.0165 32.4462C41.3913 32.4187 41.7542 32.3034 42.0755 32.1099C42.3968 31.9164 42.6674 31.65 42.865 31.3327C43.3618 30.5656 43.4427 29.7273 43.2844 28.8466C43.0418 27.5508 42.0632 26.6907 40.7427 26.6288C40.0495 26.5978 39.3563 26.6127 38.6631 26.6081C38.6282 26.6109 38.5937 26.6175 38.5603 26.6276L38.5557 32.4944Z" fill="#E11B22"/>
<path fill-rule="evenodd" clip-rule="evenodd" d="M16.3156 29.8328C16.3421 28.3088 16.7245 27.115 17.6592 26.1357C18.3044 25.4595 19.158 25.0157 20.0854 24.8742C21.1148 24.7011 22.1269 24.7596 23.0892 25.1758C24.4133 25.7435 25.2416 26.7561 25.6136 28.1207C26.0411 29.6906 25.8447 31.1883 24.9112 32.5483C24.2284 33.5471 23.2394 34.0918 22.0506 34.2856C21.0949 34.4607 20.1096 34.3816 19.1946 34.0563C17.6927 33.5013 16.8123 32.3901 16.4553 30.8603C16.3907 30.5204 16.3441 30.1775 16.3156 29.8328ZM24.1175 29.4486C24.0967 29.2961 24.0771 29.0037 24.0147 28.7227C23.824 27.8696 23.3966 27.1677 22.6109 26.7308C22.0364 26.424 21.3794 26.3037 20.7324 26.3868C19.718 26.482 18.9347 26.9499 18.4598 27.8512C17.8891 28.9372 17.8914 30.0587 18.3755 31.1768C18.5343 31.5586 18.7843 31.8964 19.1039 32.1609C19.4235 32.4254 19.8032 32.6087 20.2102 32.6951C20.7966 32.8383 21.4097 32.834 21.994 32.6825C22.6564 32.5238 23.2287 32.1116 23.586 31.5357C23.9615 30.9325 24.1013 30.2754 24.1175 29.4486Z" fill="#E11B22"/>
<path fill-rule="evenodd" clip-rule="evenodd" d="M61.3815 24.7768C62.501 24.7963 63.5293 25.0703 64.4108 25.7767C65.2419 26.4392 65.8074 27.3746 66.0051 28.4143C66.2963 29.8099 66.1207 31.147 65.3535 32.3706C64.6603 33.4714 63.6379 34.085 62.3601 34.2925C61.4335 34.4586 60.4797 34.3896 59.5873 34.0918C58.2795 33.6435 57.3852 32.7559 56.9427 31.4612C56.3812 29.8213 56.5176 28.2308 57.4707 26.7595C58.1836 25.6575 59.2372 25.052 60.5358 24.8628C60.8189 24.8169 61.1008 24.802 61.3815 24.7768ZM64.4293 29.4314C64.3997 29.1547 64.3546 28.8798 64.2941 28.6081C64.0723 27.7308 63.5928 27.0382 62.7471 26.6425C62.2107 26.4004 61.6175 26.31 61.0326 26.3811C60.0922 26.4717 59.3354 26.8811 58.8571 27.6964C58.1743 28.8569 58.1709 30.0656 58.7358 31.2708C58.8922 31.6088 59.1222 31.9081 59.4094 32.1471C59.6965 32.386 60.0335 32.5587 60.396 32.6527C60.8617 32.7843 61.3493 32.8214 61.8298 32.7616C62.6743 32.6653 63.3675 32.3029 63.8493 31.5931C64.2629 30.983 64.4062 30.2961 64.4293 29.4314Z" fill="#E11B22"/>
<path fill-rule="evenodd" clip-rule="evenodd" d="M28.8382 24.9935V25.2068C28.8382 26.8887 28.8382 28.5733 28.8382 30.2605C28.8283 30.6902 28.9106 31.1171 29.0797 31.5128C29.4263 32.2731 30.0328 32.6595 30.8462 32.7662C31.2599 32.8283 31.6825 32.7913 32.0789 32.6584C32.8772 32.3774 33.2793 31.7708 33.4306 30.9772C33.4731 30.7418 33.4944 30.5031 33.4942 30.264C33.4942 28.5736 33.4942 26.8833 33.4942 25.193V24.9935H35.2156C35.2156 25.0497 35.2237 25.1082 35.2237 25.1575C35.2237 26.8585 35.2237 28.5587 35.2237 30.2582C35.2363 30.8974 35.1224 31.5329 34.8887 32.1286C34.7023 32.6173 34.4026 33.0555 34.0138 33.4077C33.625 33.76 33.158 34.0164 32.6508 34.156C31.6597 34.4607 30.5957 34.4374 29.6192 34.0895C28.2559 33.6056 27.4703 32.6205 27.2092 31.2226C27.1506 30.8918 27.1219 30.5563 27.1237 30.2204C27.1156 28.5392 27.1237 26.8604 27.1156 25.1804C27.1156 25.0187 27.1641 24.9855 27.3143 24.9877C27.7626 24.9992 28.2097 24.9877 28.658 24.9877L28.8382 24.9935Z" fill="#E11B22"/>
<path fill-rule="evenodd" clip-rule="evenodd" d="M50.6647 29.1734H55.2756V30.7616H50.6543V34.1583H50.1794C49.8086 34.1583 49.4377 34.1526 49.068 34.1583C48.9351 34.1583 48.9051 34.1171 48.9063 33.9921C48.9063 32.5116 48.9063 31.0311 48.9063 29.5507C48.9063 28.0897 48.9063 26.6299 48.9063 25.1701C48.9063 25.0244 48.9421 24.9809 49.0923 24.9809C51.1919 24.9862 53.2911 24.9862 55.39 24.9809H55.5517V26.6379H50.6647V29.1734Z" fill="#E11B22"/>
<path fill-rule="evenodd" clip-rule="evenodd" d="M3.65201 38.6582V37.9828H40.9414V38.6582H3.65201Z" fill="#3C3C3C"/>
<path fill-rule="evenodd" clip-rule="evenodd" d="M76.8398 28.7778H83.5511V30.3649H78.5693V32.4474H83.7337V34.148H76.8398V28.7778Z" fill="#E11B22"/>
<path fill-rule="evenodd" clip-rule="evenodd" d="M15.7645 32.5529V34.1584H15.59C13.5474 34.1584 11.5048 34.1584 9.46679 34.1584C9.30736 34.1584 9.27155 34.1171 9.27155 33.9623C9.27771 31.0273 9.27771 28.092 9.27155 25.1563V24.9935H11.0115V32.5621L15.7645 32.5529Z" fill="#E11B22"/>
<path fill-rule="evenodd" clip-rule="evenodd" d="M83.7371 24.9935V26.6471H76.841V24.9935H83.7371Z" fill="#3C3C3C"/>
<path fill-rule="evenodd" clip-rule="evenodd" d="M75.4511 39.032C75.8867 39.5183 76.3026 39.9861 76.7381 40.4758C76.6957 40.487 76.6524 40.4951 76.6088 40.4999C76.5065 40.4924 76.4037 40.4924 76.3014 40.4999C75.9109 40.571 75.6498 40.4081 75.4222 40.102C75.1753 39.7883 74.9123 39.4875 74.6343 39.2006C74.5789 39.146 74.5054 39.113 74.4275 39.1077C74.2288 39.0951 74.0278 39.1077 73.8129 39.1077V40.4999C73.5575 40.4999 73.3195 40.4999 73.0804 40.4942C73.0584 40.4942 73.0215 40.4334 73.0191 40.3978C73.0139 40.3058 73.0139 40.2135 73.0191 40.1215V36.3463C73.2317 36.3463 73.427 36.3463 73.6211 36.3463C74.1803 36.3532 74.7429 36.336 75.2986 36.3819C75.5454 36.3935 75.783 36.4787 75.9802 36.6264C76.1775 36.7741 76.3253 36.9775 76.4043 37.2098C76.588 37.7098 76.5475 38.1949 76.1975 38.6227C76.0126 38.8497 75.7561 38.9541 75.4511 39.032ZM73.8094 38.4105C74.2299 38.4105 74.6366 38.4197 75.041 38.4105C75.4453 38.4013 75.7342 38.1169 75.7226 37.7351C75.7111 37.3532 75.4222 37.0883 75.0109 37.086H73.9457C73.9018 37.086 73.8579 37.094 73.8094 37.0963V38.4105Z" fill="#3C3C3C"/>
<path fill-rule="evenodd" clip-rule="evenodd" d="M63.1711 40.4999C63.036 40.5068 62.9007 40.5068 62.7656 40.4999C62.7074 40.488 62.6561 40.4543 62.6223 40.4059C61.9692 39.5794 61.3184 38.7503 60.6698 37.9185L60.5035 37.7121V40.5033C60.2551 40.5033 60.0205 40.5033 59.786 40.5033C59.7606 40.5033 59.7317 40.4586 59.7144 40.4288C59.697 40.399 59.7144 40.3783 59.7144 40.3531V36.4874C59.7144 36.4473 59.7144 36.4083 59.7225 36.3498C59.9212 36.3498 60.1153 36.3418 60.3082 36.3498C60.3556 36.3498 60.4076 36.414 60.4434 36.4587C61.0372 37.2034 61.6303 37.9476 62.2226 38.6915C62.2688 38.7511 62.3173 38.8061 62.3924 38.9036V36.3578H63.1746L63.1711 40.4999Z" fill="#3C3C3C"/>
<path fill-rule="evenodd" clip-rule="evenodd" d="M80.1348 36.3601V37.1044H77.8242V38.0665H80.0678V38.7947H77.8242V39.727H80.1348V40.4919H77.0304V36.3636L80.1348 36.3601Z" fill="#3C3C3C"/>
<path fill-rule="evenodd" clip-rule="evenodd" d="M50.2973 40.4999C50.0281 40.4999 49.7774 40.4999 49.5267 40.4999C49.5016 40.4937 49.4782 40.482 49.4583 40.4658C49.4383 40.4495 49.4222 40.429 49.4112 40.4058C49.3176 40.212 49.2275 40.0171 49.1454 39.821C49.1351 39.7874 49.113 39.7585 49.0831 39.7396C49.0533 39.7207 49.0176 39.713 48.9825 39.7178C48.334 39.7178 47.6859 39.7178 47.0381 39.7178C47.0006 39.7125 46.9624 39.7205 46.9302 39.7404C46.8981 39.7604 46.8741 39.7909 46.8625 39.8267C46.7828 40.0148 46.6869 40.196 46.6106 40.3852C46.5992 40.4261 46.573 40.4614 46.5369 40.4843C46.5009 40.5071 46.4576 40.516 46.4154 40.5091C46.1843 40.501 45.9625 40.5091 45.7153 40.5091C45.7349 40.4552 45.7464 40.4127 45.7638 40.3737C46.353 39.0687 46.9422 37.763 47.5314 36.4564C47.5411 36.423 47.5628 36.3941 47.5923 36.3753C47.6219 36.3566 47.6573 36.3491 47.692 36.3544C47.9023 36.3601 48.1137 36.3544 48.324 36.3601C48.3536 36.3633 48.382 36.3732 48.4072 36.3889C48.4324 36.4046 48.4537 36.4257 48.4696 36.4507C49.0734 37.7733 49.6734 39.097 50.2696 40.4219C50.2804 40.4473 50.2896 40.4734 50.2973 40.4999ZM48.7792 38.977C48.5227 38.3944 48.2732 37.8302 48.0074 37.2225L47.2368 38.977H48.7792Z" fill="#3C3C3C"/>
<path fill-rule="evenodd" clip-rule="evenodd" d="M54.2231 36.3567H55.0006V38.0665C55.0147 38.0734 55.0283 38.0815 55.0411 38.0906C55.0658 38.0537 55.0924 38.0181 55.1208 37.9839C55.5829 37.4679 56.05 36.9518 56.5222 36.4358C56.5564 36.3942 56.6042 36.3658 56.6574 36.3555C56.9543 36.3487 57.2524 36.3555 57.5955 36.3555L55.7169 38.3658L57.7538 40.4747C57.7069 40.485 57.6595 40.4923 57.6117 40.4965C57.3806 40.4965 57.138 40.4965 56.9023 40.4965C56.8542 40.4984 56.8063 40.489 56.7625 40.469C56.7188 40.4491 56.6804 40.4192 56.6504 40.3818C56.1271 39.8268 55.5979 39.2752 55.0723 38.7224C55.0595 38.7098 55.0445 38.6984 55.0076 38.6685V40.4919C54.758 40.4919 54.5223 40.4919 54.2878 40.4919C54.2624 40.4919 54.2335 40.446 54.2196 40.415C54.2138 40.3851 54.2138 40.3544 54.2196 40.3245C54.2196 39.0523 54.2196 37.781 54.2196 36.5103C54.2173 36.461 54.2196 36.414 54.2231 36.3567Z" fill="#3C3C3C"/>
<path fill-rule="evenodd" clip-rule="evenodd" d="M70.2648 38.2477H72.3363V38.9472H70.2568V40.4999C70.006 40.4999 69.7761 40.4999 69.5462 40.4999C69.5173 40.4999 69.4838 40.4494 69.4665 40.4162C69.4492 40.3829 69.4665 40.3554 69.4665 40.3256C69.4665 39.0642 69.4665 37.7947 69.4665 36.5275C69.4665 36.3991 69.4931 36.3532 69.6352 36.3532C70.5294 36.3601 71.4236 36.3532 72.3179 36.3532C72.4392 36.3532 72.4808 36.3854 72.475 36.5092C72.4657 36.7019 72.475 36.8945 72.475 37.1044H70.2648V38.2477Z" fill="#3C3C3C"/>
<path fill-rule="evenodd" clip-rule="evenodd" d="M44.3323 40.493H43.5502V40.305C43.5502 39.2832 43.5502 38.2637 43.5502 37.242C43.5502 37.0986 43.5167 37.047 43.363 37.0516C42.9898 37.0631 42.6155 37.0516 42.2308 37.0516V36.3567H45.6402V37.0505H44.3323V40.493Z" fill="#3C3C3C"/>
<path fill-rule="evenodd" clip-rule="evenodd" d="M53.6466 39.7706V40.493C53.5934 40.493 53.5484 40.4999 53.5033 40.4999C52.6287 40.4999 51.7553 40.4999 50.8807 40.4999C50.7744 40.4999 50.7247 40.4838 50.7259 40.36C50.7259 39.0603 50.7259 37.7607 50.7259 36.461C50.7259 36.4312 50.7259 36.4003 50.7259 36.3613H51.5057V39.7717L53.6466 39.7706Z" fill="#3C3C3C"/>
<path fill-rule="evenodd" clip-rule="evenodd" d="M58.1397 36.3521H58.9103C58.9103 36.4048 58.9172 36.4541 58.9172 36.5035C58.9172 37.7786 58.9172 39.055 58.9172 40.3313C58.9172 40.4643 58.8872 40.5125 58.7462 40.5045C58.5463 40.493 58.3465 40.5045 58.1362 40.5045L58.1397 36.3521Z" fill="#3C3C3C"/>
</svg>
