<?xml version="1.0" encoding="utf-8"?>
<!-- Generator: Adobe Illustrator 16.0.2, SVG Export Plug-In . SVG Version: 6.00 Build 0)  -->
<!DOCTYPE svg PUBLIC "-//W3C//DTD SVG 1.1//EN" "http://www.w3.org/Graphics/SVG/1.1/DTD/svg11.dtd">
<svg version="1.1" id="Layer_1" xmlns="http://www.w3.org/2000/svg" xmlns:xlink="http://www.w3.org/1999/xlink" x="0px" y="0px" viewBox="0 0 509.369 165" enable-background="new 0 0 509.369 165" xml:space="preserve">
<g>
	<defs>
		<rect id="SVGID_1_" x="-63.292" y="-18.158" width="635.954" height="203.158"/>
	</defs>
	<clipPath id="SVGID_2_">
		<use xlink:href="#SVGID_1_"  overflow="visible"/>
	</clipPath>
	<path clip-path="url(#SVGID_2_)" fill="#FF0000" d="M287.463,82.808c0,14.507-8.585,21.806-25.839,21.806h-53.063
		c-17.262,0-25.847-7.299-25.847-21.806V57.822c0-14.598,8.585-21.897,25.847-21.897h53.063c17.254,0,25.839,7.299,25.839,21.897
		V82.808z M208.561,51.9c-6.013,0-9.019,1.972-9.019,5.922v24.986c0,3.86,3.006,5.838,9.019,5.838h53.063
		c6.005,0,9.012-1.979,9.012-5.838V57.822c0-3.95-3.007-5.922-9.012-5.922H208.561z"/>
	<path clip-path="url(#SVGID_2_)" fill="#4D4D4D" d="M402.237,82.808c0,14.507-8.585,21.806-25.847,21.806h-80.279V35.925h80.279
		c17.262,0,25.847,7.299,25.847,21.897V82.808z M312.854,51.9v36.746h63.536c6.013,0,9.02-1.979,9.02-5.838V57.822
		c0-3.95-3.007-5.922-9.02-5.922H312.854z"/>
	<path clip-path="url(#SVGID_2_)" fill="#57B94A" d="M507.223,51.9h-75.817c-2.658,0-3.951,0.854-3.951,2.489v5.321
		c0,1.628,1.293,2.489,3.951,2.489h57.354c13.738,0,20.61,5.495,20.61,16.4v9.362c0,11.074-6.872,16.653-20.61,16.653h-75.811
		V88.646h75.811c2.58,0,3.867-0.776,3.867-2.405v-5.579c0-1.636-1.287-2.489-3.867-2.489h-57.354
		c-13.823,0-20.695-4.893-20.695-14.681V52.67c0-11.158,6.872-16.745,20.695-16.745h75.817V51.9z"/>
	<path clip-path="url(#SVGID_2_)" fill="#FF0000" d="M85.131,69.59c-6.946,5.116-12.875,11.534-17.416,18.904
		c7.746,3.47,16.107,5.42,24.601,5.782C91.542,85.678,89.083,77.283,85.131,69.59"/>
	<path clip-path="url(#SVGID_2_)" fill="#FF0000" d="M25.758,46.457c9.372,0,18.652,2.484,26.802,7.197
		c1.738,0.998,3.396,2.082,4.996,3.259c-14.733,14.851-23.193,34.998-23.193,56.319c0,7.699,1.097,15.262,3.225,22.493
		c-15.017-12.604-24.454-31.502-24.454-52.308c0-13.266,3.733-25.93,10.865-36.935C24.587,46.463,25.169,46.457,25.758,46.457
		 M25.758,33.323c-3.001,0-5.995,0.198-8.956,0.596C6.279,47.639,0,64.792,0,83.418c0,41.415,30.946,75.573,70.96,80.676
		c-14.348-12.281-23.471-30.498-23.471-50.861c0-23.206,11.826-43.616,29.763-55.625C72.309,51.619,66.24,46.39,59.129,42.28
		C48.594,36.198,37.107,33.323,25.758,33.323"/>
	<path clip-path="url(#SVGID_2_)" fill="#57B94A" d="M81.357,15.187c26.161,0,49.565,14.66,61.06,37.774
		c-4.713,8.817-11.7,16.035-20.411,21.072c-1.553,0.891-3.126,1.698-4.739,2.431c-5.294-20.634-18.612-38.421-37.509-49.327
		c-6.438-3.714-13.345-6.504-20.49-8.301C66.268,16.443,73.711,15.187,81.357,15.187 M81.357,2.061
		c-26.107,0-49.333,12.32-64.218,31.441c7.271-2.597,14.95-3.945,22.717-3.945c11.335,0,22.816,2.875,33.346,8.948
		c20.489,11.832,32.346,32.864,33.397,54.861c7.529-1.31,14.965-3.92,21.97-7.965c13.253-7.648,22.843-19.175,28.289-32.294
		C144.83,23.191,115.568,2.061,81.357,2.061"/>
	<path clip-path="url(#SVGID_2_)" fill="#4D4D4D" d="M148.008,98.044c-6.709,30.615-34.045,53.61-66.651,53.61
		c-0.839,0-1.672-0.02-2.524-0.053c-5.189-8.44-7.906-18.037-7.906-28.071c0-1.526,0.06-3.053,0.186-4.573
		c6.63,1.731,13.463,2.617,20.291,2.617c13.979,0,27.794-3.708,39.961-10.735C137.519,107.291,143.097,102.975,148.008,98.044
		 M157.109,53.733c-3.47,18.56-14.686,35.56-32.307,45.738c-10.542,6.088-22.049,8.976-33.398,8.976
		c-10.37,0-20.608-2.412-29.875-6.999c-2.406,6.913-3.734,14.343-3.734,22.082c0,15.288,5.142,29.366,13.767,40.642
		c3.219,0.385,6.478,0.609,9.795,0.609c44.926,0,81.357-36.426,81.357-81.363C162.714,72.941,160.713,62.934,157.109,53.733"/>
	<path clip-path="url(#SVGID_2_)" fill="#4D4D4D" d="M189.719,131.142c1.468,0,2.318-0.043,2.551-0.13
		c0.233-0.086,0.349-0.432,0.349-1.035c0-0.725-0.163-1.18-0.488-1.365c-0.325-0.186-1.129-0.279-2.412-0.279
		c-2.548,0-4.154-0.353-4.82-1.06c-0.667-0.707-1-2.454-1-5.24c0-2.579,0.436-4.231,1.307-4.956
		c0.664-0.552,2.144-0.829,4.439-0.829c2.046,0,3.343,0.109,3.888,0.325c1.284,0.491,1.925,2.574,1.925,6.249h-3.049
		c0-1.009-0.115-1.596-0.345-1.76c-0.231-0.164-1.033-0.246-2.406-0.246c-1.377,0-2.172,0.048-2.385,0.142
		c-0.212,0.096-0.319,0.454-0.319,1.075c0,0.655,0.181,1.08,0.542,1.274c0.362,0.194,1.103,0.291,2.223,0.291
		c2.517,0,4.137,0.38,4.861,1.139c0.726,0.759,1.088,2.506,1.088,5.24c0,2.527-0.406,4.145-1.22,4.853
		c-0.705,0.604-2.286,0.905-4.743,0.905c-1.896,0-3.128-0.082-3.692-0.246c-0.872-0.25-1.465-0.827-1.778-1.733
		c-0.315-0.905-0.472-2.484-0.472-4.735h3.057c0,1.06,0.119,1.68,0.358,1.856C187.417,131.053,188.265,131.142,189.719,131.142"/>
	<path clip-path="url(#SVGID_2_)" fill="#4D4D4D" d="M202.552,116.494h5.245l4.912,18.917h-3.565l-0.941-3.157h-6.051l-0.948,3.157
		h-3.564L202.552,116.494z M205.412,120.751h-0.474l-1.646,6.599h3.76L205.412,120.751z"/>
	<polygon clip-path="url(#SVGID_2_)" fill="#4D4D4D" points="221.267,130.43 221.403,130.43 221.544,130.43 225.291,116.493 
		228.734,116.493 223.719,135.41 219.085,135.41 214.078,116.493 217.52,116.493 	"/>
	<polygon clip-path="url(#SVGID_2_)" fill="#4D4D4D" points="230.42,135.411 230.42,116.469 241.106,116.469 241.106,121.049 
		233.476,121.049 233.476,123.676 240.76,123.676 240.76,128.229 233.476,128.229 233.476,130.831 241.106,130.831 241.106,135.411 
			"/>
	<polygon clip-path="url(#SVGID_2_)" fill="#4D4D4D" points="251.587,121.372 251.587,116.469 263.397,116.469 263.397,121.372 
		259.026,121.372 259.026,135.411 255.972,135.411 255.972,121.372 	"/>
	<rect x="265.858" y="116.52" clip-path="url(#SVGID_2_)" fill="#4D4D4D" width="3.056" height="18.916"/>
	<path clip-path="url(#SVGID_2_)" fill="#4D4D4D" d="M276.691,116.521l2.608,10.622c0.028,0.121,0.063,0.531,0.105,1.229
		c0.043,0.699,0.088,1.047,0.133,1.047c0.035,0,0.069-0.206,0.101-0.62c0.032-0.414,0.077-0.966,0.136-1.656l2.608-10.622h5.205
		v18.916h-3.057v-13.224c0-0.232,0.023-0.515,0.071-0.847c0.047-0.332,0.07-0.537,0.07-0.616c0-0.137-0.029-0.207-0.087-0.207
		c-0.037,0-0.082,0.103-0.136,0.306c-0.055,0.202-0.103,0.395-0.143,0.575l-3.522,14.013h-2.5l-3.803-14.064
		c-0.054-0.232-0.104-0.438-0.147-0.614c-0.046-0.177-0.088-0.266-0.129-0.266c-0.056,0-0.081,0.061-0.081,0.182
		c0,0.017,0.03,0.311,0.094,0.88c0.032,0.25,0.047,0.452,0.047,0.607v13.275h-3.055v-18.916H276.691z"/>
	<polygon clip-path="url(#SVGID_2_)" fill="#4D4D4D" points="290.466,135.411 290.466,116.469 301.152,116.469 301.152,121.049 
		293.522,121.049 293.522,123.676 300.806,123.676 300.806,128.229 293.522,128.229 293.522,130.831 301.152,130.831 
		301.152,135.411 	"/>
	<rect x="312.406" y="123.378" clip-path="url(#SVGID_2_)" fill="#4D4D4D" width="10.13" height="4.244"/>
	<rect x="333.126" y="116.52" clip-path="url(#SVGID_2_)" fill="#4D4D4D" width="3.056" height="18.916"/>
	<path clip-path="url(#SVGID_2_)" fill="#4D4D4D" d="M343.96,116.521l2.608,10.622c0.028,0.121,0.063,0.531,0.105,1.229
		c0.043,0.699,0.087,1.047,0.133,1.047c0.035,0,0.069-0.206,0.101-0.62c0.032-0.414,0.077-0.966,0.136-1.656l2.608-10.622h5.205
		v18.916H351.8v-13.224c0-0.232,0.023-0.515,0.071-0.847c0.047-0.332,0.07-0.537,0.07-0.616c0-0.137-0.029-0.207-0.087-0.207
		c-0.037,0-0.082,0.103-0.136,0.306c-0.055,0.202-0.103,0.395-0.143,0.575l-3.523,14.013h-2.5l-3.802-14.064
		c-0.054-0.232-0.104-0.438-0.147-0.614c-0.046-0.177-0.088-0.266-0.129-0.266c-0.056,0-0.081,0.061-0.081,0.182
		c0,0.017,0.03,0.311,0.094,0.88c0.032,0.25,0.047,0.452,0.047,0.607v13.275h-3.055v-18.916H343.96z"/>
	<path clip-path="url(#SVGID_2_)" fill="#4D4D4D" d="M357.931,116.469h7.467c1.626,0,2.699,0.379,3.219,1.138
		c0.646,0.932,0.97,2.938,0.97,6.018c0,3.053-0.319,5.046-0.955,5.978c-0.529,0.785-1.607,1.178-3.233,1.178h-4.411v4.632h-3.056
		V116.469z M360.986,125.875h4.411c0.361,0,0.635-0.15,0.82-0.453c0.221-0.354,0.332-0.953,0.332-1.798
		c0-0.837-0.111-1.44-0.332-1.812c-0.186-0.294-0.459-0.44-0.82-0.44h-4.411V125.875z"/>
	<path clip-path="url(#SVGID_2_)" fill="#4D4D4D" d="M371.97,116.469h8.883c1.089,0,1.861,0.379,2.318,1.138
		c0.488,0.827,0.73,2.285,0.73,4.373c0,1.622-0.102,2.821-0.305,3.598c-0.203,0.775-0.557,1.357-1.063,1.747
		c0.551,0.466,0.916,0.928,1.097,1.385s0.271,1.276,0.271,2.458v4.244h-3.049v-3.391c0-0.491-0.07-0.905-0.21-1.241
		c-0.176-0.449-0.439-0.674-0.793-0.674h-4.824v5.306h-3.056V116.469z M375.025,121.372v3.843h4.899c0.33,0,0.566-0.138,0.711-0.414
		c0.145-0.275,0.217-0.777,0.217-1.501c0-0.725-0.074-1.227-0.223-1.507c-0.149-0.28-0.384-0.421-0.705-0.421H375.025z"/>
	<path clip-path="url(#SVGID_2_)" fill="#4D4D4D" d="M400.361,125.953c0,4.604-0.292,7.362-0.874,8.268
		c-0.628,0.965-2.524,1.449-5.687,1.449c-2.312,0-3.83-0.155-4.553-0.466c-0.908-0.405-1.481-1.289-1.72-2.652
		c-0.187-1.044-0.279-3.244-0.279-6.599c0-4.615,0.287-7.371,0.861-8.27c0.628-0.991,2.524-1.487,5.69-1.487
		c3.153,0,5.044,0.486,5.672,1.463C400.065,118.573,400.361,121.338,400.361,125.953 M390.305,125.953
		c0,2.415,0.146,3.823,0.438,4.225c0.292,0.4,1.311,0.602,3.059,0.602c1.758,0,2.782-0.201,3.073-0.602
		c0.291-0.401,0.437-1.81,0.437-4.225c0-2.441-0.146-3.86-0.437-4.258c-0.291-0.396-1.311-0.596-3.059-0.596
		c-1.758,0-2.781,0.199-3.073,0.596C390.451,122.093,390.305,123.512,390.305,125.953"/>
	<polygon clip-path="url(#SVGID_2_)" fill="#4D4D4D" points="409.42,130.43 409.557,130.43 409.697,130.43 413.444,116.493 
		416.887,116.493 411.872,135.41 407.238,135.41 402.231,116.493 405.673,116.493 	"/>
	<polygon clip-path="url(#SVGID_2_)" fill="#4D4D4D" points="418.573,135.411 418.573,116.469 429.26,116.469 429.26,121.049 
		421.63,121.049 421.63,123.676 428.913,123.676 428.913,128.229 421.63,128.229 421.63,130.831 429.26,130.831 429.26,135.411 	"/>
	<polygon clip-path="url(#SVGID_2_)" fill="#4D4D4D" points="446.231,130.43 446.368,130.43 446.509,130.43 450.256,116.493 
		453.698,116.493 448.684,135.41 444.05,135.41 439.043,116.493 442.484,116.493 	"/>
	<path clip-path="url(#SVGID_2_)" fill="#4D4D4D" d="M459.513,116.494h5.245l4.911,18.917h-3.564l-0.941-3.157h-6.051l-0.948,3.157
		h-3.563L459.513,116.494z M462.371,120.751h-0.474l-1.646,6.599h3.761L462.371,120.751z"/>
	<polygon clip-path="url(#SVGID_2_)" fill="#4D4D4D" points="471.634,116.494 474.69,116.494 474.69,130.507 481.614,130.507 
		481.614,135.411 471.634,135.411 	"/>
	<path clip-path="url(#SVGID_2_)" fill="#4D4D4D" d="M496.5,116.494v11.528c0,3.425-0.394,5.576-1.18,6.456
		c-0.714,0.82-2.425,1.23-5.135,1.23c-2.702,0-4.409-0.41-5.123-1.23c-0.786-0.896-1.179-3.048-1.179-6.456v-11.528h3.056v11.528
		c0,1.147,0.165,1.881,0.495,2.2c0.396,0.388,1.313,0.582,2.751,0.582c1.414,0,2.31-0.181,2.689-0.543
		c0.379-0.362,0.568-1.108,0.568-2.239v-11.528H496.5z"/>
	<polygon clip-path="url(#SVGID_2_)" fill="#4D4D4D" points="498.979,135.411 498.979,116.469 509.666,116.469 509.666,121.049 
		502.036,121.049 502.036,123.676 509.319,123.676 509.319,128.229 502.036,128.229 502.036,130.831 509.666,130.831 
		509.666,135.411 	"/>
</g>
</svg>
