<?xml version="1.0" encoding="utf-8"?>
<!-- Generator: Adobe Illustrator 16.0.2, SVG Export Plug-In . SVG Version: 6.00 Build 0)  -->
<!DOCTYPE svg PUBLIC "-//W3C//DTD SVG 1.1//EN" "http://www.w3.org/Graphics/SVG/1.1/DTD/svg11.dtd">
<svg version="1.1" id="Layer_1" xmlns="http://www.w3.org/2000/svg" xmlns:xlink="http://www.w3.org/1999/xlink" x="0px" y="0px"
	 viewBox="0 0 576.481 144.24" enable-background="new 0 0 576.481 144.24"
	 xml:space="preserve">
<g>
	<g>
		<path fill-rule="evenodd" clip-rule="evenodd" fill="#4980EB" d="M0.24,47.28C2.152,45.824,3.719,44,5.433,42.336
			c5.193-5.04,10.292-10.175,15.443-15.258c8.791-8.676,17.593-17.342,26.396-26.007c0.188-0.185,0.328-0.456,0.673-0.478
			c0.271,0.347,0.135,0.756,0.135,1.128c0.009,9.796-0.002,19.593,0.024,29.389c0.002,0.829-0.242,1.411-0.832,1.989
			c-7.449,7.305-14.869,14.641-22.323,21.94c-0.573,0.561-0.757,1.117-0.757,1.884c0.016,20.752,0.007,41.505,0.031,62.257
			c0.001,0.911-0.258,1.555-0.906,2.198c-7.437,7.379-14.844,14.786-22.263,22.183c-0.25,0.248-0.542,0.453-0.815,0.678
			C0.24,111.92,0.24,79.601,0.24,47.28z"/>
		<path fill-rule="evenodd" clip-rule="evenodd" fill="#4980EB" d="M287.486,62.931c-1.137,1.488-2.051,2.673-2.953,3.868
			c-7.009,9.282-14.015,18.566-21.023,27.849c-0.12,0.159-0.279,0.295-0.374,0.468c-0.432,0.792-0.765,0.642-1.255-0.008
			c-7.737-10.235-15.494-20.455-23.248-30.679c-0.31-0.408-0.63-0.808-0.971-1.245c-0.373,0.451-0.205,0.904-0.206,1.314
			c-0.01,17.036-0.007,34.072-0.012,51.109c0,1.734,0.172,1.507-1.556,1.51c-5.919,0.009-11.837-0.018-17.756,0.024
			c-0.928,0.006-1.196-0.22-1.195-1.179c0.027-29.233,0.026-58.467,0.002-87.701c-0.001-0.933,0.225-1.207,1.182-1.2
			c5.958,0.045,11.917,0.037,17.876,0.005c0.766-0.004,1.222,0.243,1.68,0.852c8.004,10.634,16.047,21.24,24.036,31.886
			c0.711,0.947,0.982,0.839,1.627-0.022c7.952-10.624,15.943-21.218,23.903-31.836c0.447-0.596,0.877-0.887,1.662-0.882
			c6.039,0.037,12.078,0.041,18.116-0.001c0.92-0.006,1.124,0.275,1.124,1.153c-0.022,29.273-0.023,58.547,0.003,87.821
			c0.001,0.946-0.31,1.105-1.164,1.101c-6.118-0.034-12.237-0.043-18.355,0.006c-0.993,0.009-1.162-0.326-1.161-1.221
			c0.023-17.156,0.018-34.313,0.018-51.469C287.486,64.073,287.486,63.691,287.486,62.931z"/>
		<path fill-rule="evenodd" clip-rule="evenodd" fill="#4980EB" d="M432.686,72.135c0-14.559,0.012-29.117-0.022-43.675
			c-0.002-1.059,0.222-1.404,1.358-1.402c24.317,0.036,48.634,0.034,72.951,0.005c1.028-0.001,1.352,0.216,1.342,1.305
			c-0.056,6.479-0.058,12.958,0.001,19.437c0.01,1.145-0.261,1.461-1.436,1.458c-17.357-0.041-34.716-0.014-52.073-0.058
			c-1.215-0.003-1.549,0.288-1.511,1.508c0.095,3.037,0.072,6.079,0.008,9.118c-0.021,0.971,0.287,1.185,1.21,1.183
			c13.878-0.028,27.757-0.003,41.635-0.048c1.177-0.004,1.445,0.316,1.435,1.458c-0.058,6.399-0.027,12.798-0.027,19.198
			c-0.001,1.505-0.002,1.506-1.578,1.506c-13.758,0.001-27.517,0.013-41.274-0.022c-1.074-0.003-1.408,0.239-1.403,1.37
			c0.047,10.438,0.007,20.878,0.057,31.316c0.005,1.146-0.352,1.36-1.404,1.353c-5.999-0.048-11.999-0.057-17.998,0.007
			c-1.104,0.012-1.292-0.329-1.29-1.342C432.696,101.251,432.686,86.692,432.686,72.135z"/>
		<path fill-rule="evenodd" clip-rule="evenodd" fill="#4980EB" d="M95.847,144.359c0-0.723,0-1.151,0-1.58
			c0-31.28,0.004-62.561-0.021-93.84c0-1,0.268-1.708,0.992-2.41c10.362-10.048,20.695-20.126,31.039-30.194
			c5.043-4.908,10.093-9.809,15.142-14.71c0.394-0.382,0.802-0.749,1.211-1.131c0.382,0.368,0.228,0.748,0.228,1.078
			c0.01,9.88,0.003,19.76,0.019,29.64c0.001,0.679-0.137,1.2-0.657,1.694c-5.449,5.176-10.873,10.377-16.308,15.568
			c-2.254,2.153-4.517,4.298-6.777,6.446c-0.437,0.415-0.822,0.803-0.817,1.509c0.029,4.76,0.015,9.52,0.019,14.28
			c0,0.147,0.042,0.294,0.101,0.677c8.154-7.924,16.18-15.724,24.427-23.739c0,0.661,0,1.002,0,1.343
			c0,8.48-0.011,16.96,0.017,25.439c0.003,0.828-0.236,1.415-0.829,1.989c-7.383,7.147-14.725,14.337-22.132,21.459
			c-1.111,1.069-1.657,2.114-1.63,3.712c0.103,5.919,0.035,11.84,0.05,17.76c0.001,0.668-0.109,1.2-0.624,1.712
			c-7.605,7.555-15.187,15.133-22.776,22.703C96.384,143.902,96.23,144.023,95.847,144.359z"/>
		<path fill-rule="evenodd" clip-rule="evenodd" fill="#4980EB" d="M95.966,0.291c0,0.738,0,1.161,0,1.584
			c0,9.637-0.02,19.274,0.027,28.911c0.005,1.107-0.361,1.839-1.128,2.587C87.512,40.549,80.2,47.765,72.852,54.945
			c-0.622,0.607-0.873,1.21-0.872,2.084c0.025,20.753,0.015,41.507,0.036,62.261c0.001,0.861-0.219,1.478-0.846,2.098
			c-7.417,7.34-14.805,14.711-22.202,22.071c-0.241,0.24-0.511,0.451-0.935,0.823c0-0.604,0-0.988,0-1.371
			c0-31.351,0.004-62.7-0.02-94.05c-0.001-0.961,0.281-1.626,0.962-2.296c10.938-10.773,21.851-21.573,32.773-32.362
			c4.294-4.242,8.598-8.474,12.901-12.708C95.003,1.148,95.382,0.825,95.966,0.291z"/>
		<path fill-rule="evenodd" clip-rule="evenodd" fill="#4980EB" d="M381.121,72.094c0,14.559-0.013,29.117,0.024,43.676
			c0.003,1.083-0.257,1.389-1.364,1.378c-5.959-0.059-11.919-0.048-17.878-0.007c-0.951,0.007-1.295-0.176-1.294-1.223
			c0.03-29.197,0.029-58.394,0.003-87.591c-0.001-0.999,0.266-1.272,1.265-1.264c5.959,0.046,11.919,0.049,17.878-0.001
			c1.062-0.008,1.396,0.225,1.394,1.357C381.106,42.977,381.121,57.536,381.121,72.094z"/>
		<path fill-rule="evenodd" clip-rule="evenodd" fill="#4980EB" d="M576.568,72.121c0,14.559-0.01,29.117,0.021,43.676
			c0.002,1.002-0.177,1.364-1.29,1.353c-6.039-0.063-12.078-0.05-18.118-0.008c-0.906,0.007-1.12-0.242-1.119-1.132
			c0.023-29.276,0.024-58.553-0.002-87.831c-0.001-0.923,0.272-1.119,1.146-1.113c6.039,0.037,12.079,0.042,18.118-0.003
			c0.998-0.007,1.268,0.263,1.266,1.264C576.558,42.925,576.568,57.523,576.568,72.121z"/>
	</g>
</g>
</svg>
