<svg id="Layer_1" data-name="Layer 1" xmlns="http://www.w3.org/2000/svg" viewBox="0 0 311.93 90.84"><defs><style>.cls-1{fill:#ec2227;}.cls-2{fill:#f26f24;}.cls-3{fill:#eb2027;}.cls-4{fill:none;}.cls-5{fill:#ef5425;}.cls-6{fill:#5fba46;}.cls-7{fill:#ee3d25;}</style></defs><title>matbao_icon_bot</title><path class="cls-1" d="M147.23,4.71h18.56V90.84H147.23V63.48h-30V90.84H98.62V4.71h18.57V44.1h30.4Z"/><path class="cls-1" d="M224.36,4.7h18.91V71.46h36.58V90.84H224.36Z"/><polygon class="cls-2" points="311.93 4.71 294 4.71 294 20.88 311.93 4.72 311.93 4.71"/><polygon class="cls-3" points="294 29.66 294 90.84 311.93 90.84 311.93 13.5 294 29.66"/><polygon class="cls-2" points="204.26 4.71 186.33 4.71 186.33 20.88 204.26 4.72 204.26 4.71"/><polygon class="cls-3" points="186.33 29.66 186.33 90.84 204.26 90.84 204.26 13.5 186.33 29.66"/><path class="cls-4" d="M57,65l-2.51,1.72C55.38,66.16,56.22,65.57,57,65Z"/><path class="cls-5" d="M48.13,69.28l-1,.21L13.9,78a45.07,45.07,0,0,0,9.46,7L48,69.35Z"/><path class="cls-1" d="M76.22,11.72a38.16,38.16,0,0,0-8.28-6,44.25,44.25,0,0,0-10.49-4.3A54.45,54.45,0,0,0,44.51,0,44.81,44.81,0,0,0,27.63,3.65a42.64,42.64,0,0,0-13.87,9.23A45.17,45.17,0,0,0,3.62,27.08,44.86,44.86,0,0,0,0,45.27a44.12,44.12,0,0,0,3.69,18.2,46,46,0,0,0,2.1,4.15H35.88c-2.53-1.25-5.45-2.87-7.14-4.86-.42-.5-.88-1-1.34-1.61a22.47,22.47,0,0,1-6.67-15.87,22,22,0,0,1,2.59-10.34,23.13,23.13,0,0,1,8.39-9.57,22.57,22.57,0,0,1,8.43-3.61,21.88,21.88,0,0,1,6.23-.91,22.64,22.64,0,0,1,18.54,9.89,10.38,10.38,0,0,1,1,1.19L84,21A72.37,72.37,0,0,0,76.22,11.72Z"/><path class="cls-2" d="M57,65h0c-.77.57-1.61,1.16-2.51,1.72L25.93,86.2c.62.29,1.26.56,1.92.82a47.73,47.73,0,0,0,12.53,3L57.06,65Z"/><path class="cls-1" d="M65.66,56a21.41,21.41,0,0,1-2.82,4.15h0L42.39,90.2c1.14.07,2.28.11,3.42.11a47.93,47.93,0,0,0,22.77-6c6.21-3.32,11.88-9.35,16.28-16.67Z"/><polygon class="cls-6" points="57 65 57 65 56.99 65 57 65"/><path class="cls-7" d="M6.69,69.13a43.24,43.24,0,0,0,5.13,6.72l32.54-6.62-5.29-.1Z"/></svg>