<?xml version="1.0" encoding="utf-8"?>
<!-- Generator: Adobe Illustrator 21.1.0, SVG Export Plug-In . SVG Version: 6.00 Build 0)  -->
<svg version="1.1" id="logoMatBao" xmlns="http://www.w3.org/2000/svg" xmlns:xlink="http://www.w3.org/1999/xlink" x="0px" y="0px"
	 viewBox="0 0 187 75" style="enable-background:new 0 0 187 75;" xml:space="preserve">
<style type="text/css">
	.st0{fill:#E82429;}
	.st1{fill:#F17125;}
	.st2{fill:#808066;}
</style>
<path class="st0" d="M186.6,38.4c0-7.3-5.9-13.2-13.2-13.3c-6.3,0-11.7,4.4-13,10.6h0.2c1.3-5,6.3-8.1,11.3-6.8
	c4.2,1,7.1,4.8,7.1,9.2c0,1.8-0.4,3.6-1.2,5.2c-0.1,0.1-0.1,0.2-0.1,0.3c-3.6,7.3-12.4,10.2-19.7,6.6c-5-2.5-8.1-7.5-8.2-13.1h-0.1
	c-0.3,10.2,7.8,18.8,18,19.1c8.6,0.3,16.2-5.4,18.4-13.6l0,0C186.6,41.3,186.8,39.8,186.6,38.4"/>
<path class="st1" d="M171.2,18.9c-8.6-1.3-17,3.6-20.1,11.7l0,0c0,0-0.1,0.2-0.2,0.6c-0.1,0.2-0.2,0.4-0.2,0.7l0,0
	c-0.5,1.7-0.7,3.5-0.7,5.3h0.1c0.4,7.3,6.7,12.9,14,12.4c5.9-0.4,10.8-4.5,12.1-10.2H176c-1.5,4.9-6.7,7.8-11.6,6.3
	c-4-1.2-6.7-4.9-6.7-9.1h-0.1c0-1.2,0.2-2.4,0.6-3.6l0,0c2.7-7.7,11.1-11.7,18.7-9c5.9,2.1,9.9,7.8,9.8,14.1h0.1
	C187.4,28.7,180.6,20.4,171.2,18.9"/>
<polygon class="st0" points="32.7,55.7 32.5,20.7 17.2,34.2 0,20.5 0,26.8 0,29.8 0,55.9 7.9,55.9 7.9,36.1 17.1,43.6 25.3,36.5 
	25.3,55.7 "/>
<polygon class="st0" points="89.1,21.2 64.9,21.2 64.9,29 73.4,29 73.4,55.8 80.6,55.8 80.6,29 89.1,29 "/>
<polygon class="st0" points="137.2,36.7 147.4,55.8 155.1,55.8 137.2,20.4 119,55.8 127.3,55.8 137.2,36.8 "/>
<polygon class="st1" points="133.1,55.8 137.2,47.5 141.3,55.8 "/>
<polygon class="st0" points="63,55.8 70.7,55.8 52.8,20.4 34.6,55.8 42.9,55.8 52.8,35.6 "/>
<polygon class="st1" points="48.7,55.8 52.8,46.5 56.9,55.8 "/>
<path class="st0" d="M116.9,37.3c3.3-4.6,2.3-11-2.3-14.3c-1.5-1.1-3.3-1.7-5.1-1.9c-0.5-0.1-1-0.1-1.4-0.1H91.4v34.6h19.2
	c5.7,0,10.2-4.6,10.2-10.2C120.9,42.3,119.4,39.3,116.9,37.3 M109.9,48.3H98.6V27.2h9.3l0,0c2-0.1,3.8,1.4,3.9,3.5
	c0.1,2-1.4,3.8-3.5,3.9c-0.1,0-0.3,0-0.4,0H103V41h6.9c2,0.1,3.6,1.8,3.5,3.9C113.3,46.8,111.8,48.3,109.9,48.3"/>
</svg>
