<svg width="60" height="29" viewBox="0 0 60 29" fill="none" xmlns="http://www.w3.org/2000/svg">
<path d="M11.1926 15.896C11.1118 15.7785 11.0437 15.6526 10.9893 15.5205C10.0307 13.1627 8.4484 11.2865 6.15652 9.79702L5.39302 9.90591L5.1233 9.18419C3.9966 8.58335 2.80653 8.11227 1.57552 7.77983L0.121827 7.70166V6.10048C0.116272 5.93608 0.133025 5.77169 0.17162 5.61188C0.207728 5.473 0.261177 5.33931 0.330683 5.21403C0.464887 4.96417 0.654176 4.74877 0.883943 4.58445C1.20317 4.36311 1.58104 4.24393 1.96833 4.24243H2.03196C3.12004 4.24243 4.2072 4.24243 5.29343 4.24243H8.92836C9.24806 4.24524 9.56693 4.27607 9.88135 4.33457C11.2963 4.58445 12.2728 5.54488 12.5591 6.96877C12.9492 8.90359 13.3323 10.8775 13.703 12.7746L14.0363 14.4847C14.0631 14.6274 14.077 14.7722 14.0778 14.9175V14.944L11.1732 15.8597L11.1926 15.896Z" fill="white"/>
<path d="M33.0574 25.0857C32.752 25.0977 32.446 25.0883 32.1418 25.0578C32.0643 25.0467 31.9855 25.0397 31.9067 25.0327C31.7863 25.0201 31.666 25.009 31.5498 24.9922C30.4588 24.858 29.3848 24.6091 28.345 24.2496C27.3436 23.888 26.8388 23.0183 27.0269 21.9797C27.2358 20.8252 27.41 19.6749 27.5387 18.8025C27.7143 17.6047 28.5733 17.1803 29.2552 17.1803C29.569 17.1852 29.8774 17.2641 30.1556 17.4107C31.0436 17.8518 31.7269 18.0919 32.3686 18.191C32.8296 18.269 33.2956 18.3124 33.7629 18.3208C34.103 18.3255 34.4422 18.2837 34.7712 18.1966C34.8168 18.184 34.8583 18.1715 34.8984 18.1561C34.5884 17.9384 34.2609 17.7474 33.9191 17.5852L33.8458 17.5489C33.0547 17.1412 32.2359 16.7211 31.4544 16.132C29.8651 14.937 28.9301 13.2618 28.8236 11.4331C28.7171 9.60437 29.453 7.8259 30.8983 6.4383C32.1819 5.20705 33.7808 4.44345 35.7878 4.10283C36.5117 3.97908 37.2445 3.91651 37.9787 3.91577C39.4107 3.91806 40.8324 4.15957 42.1862 4.63051C43.7077 5.14981 43.5487 6.51229 43.5002 6.78031C43.3619 7.60534 43.2236 8.42338 43.0853 9.29307C43.0355 9.61228 42.9843 9.93243 42.9318 10.2535L42.6178 12.1953L40.8045 11.4694L40.496 11.3438C40.3245 11.2726 40.1572 11.2042 39.9884 11.1399C39.0789 10.7879 38.0972 10.6685 37.1308 10.7923L37.2885 10.8803C37.5306 11.0115 37.7754 11.1399 38.0188 11.2684C38.5154 11.5294 39.0271 11.7975 39.5403 12.106C41.0064 12.991 41.9774 14.0603 42.5058 15.3725C43.5473 17.9663 42.6233 21.1966 40.3065 23.0504C39.0299 24.0737 37.4545 24.7102 35.4918 24.9964C35.3396 25.0187 35.2082 25.0257 35.1017 25.0313C35.0644 25.0313 35.0271 25.0313 34.9897 25.0397C34.9095 25.0508 34.7131 25.0857 33.0574 25.0857Z" fill="white"/>
<path d="M41.9636 6.50236C41.7616 7.65543 41.5832 8.8113 41.3909 9.9923C41.0949 9.87364 40.8225 9.75777 40.5458 9.65307C39.2895 9.16765 37.9264 9.03452 36.6011 9.26779C36.1638 9.33224 35.757 9.53168 35.4365 9.83874C34.9413 10.3273 34.9219 10.9318 35.3964 11.4441C35.7339 11.7792 36.123 12.0569 36.5485 12.2663C37.2774 12.6642 38.0257 13.0285 38.7367 13.4571C39.7422 14.063 40.5998 14.8321 41.0535 15.9601C41.8322 17.8977 41.0963 20.3909 39.3328 21.8036C38.1433 22.7571 36.7532 23.2066 35.2691 23.423C35.0921 23.4481 34.9095 23.4397 34.7324 23.4704C34.6176 23.4914 32.5429 23.5095 32.3673 23.4844C32.1916 23.4593 31.9648 23.4453 31.7697 23.4188C30.786 23.2979 29.8172 23.0748 28.8789 22.7529C28.6272 22.6622 28.5221 22.5575 28.576 22.2587C28.7697 21.1866 28.937 20.1089 29.0961 19.0298C29.1376 18.7506 29.2068 18.6948 29.4723 18.826C30.3216 19.2448 31.1985 19.605 32.1418 19.7502C33.1584 19.9065 34.182 19.9986 35.1958 19.7181C35.5205 19.6326 35.8248 19.4821 36.0907 19.2755C36.7823 18.7171 36.8487 17.8488 36.229 17.2137C35.7767 16.7544 35.2096 16.4599 34.6439 16.1695C33.8749 15.7744 33.1031 15.3836 32.4074 14.8587C29.8914 12.9615 29.7047 9.77173 31.9924 7.58005C33.1349 6.48421 34.5333 5.91744 36.0617 5.65779C37.9469 5.33029 39.8836 5.49022 41.6911 6.12265C41.8612 6.19105 42.0037 6.23712 41.9636 6.50236Z" fill="#01579F"/>
<path d="M45.5031 24.868C45.3053 24.8819 45.1033 24.8819 44.9055 24.8805L40.496 24.8582C40.3669 24.8668 40.2374 24.8463 40.1171 24.7982C39.9889 24.7231 39.8873 24.6093 39.8266 24.4729C39.2927 23.4469 39.7353 22.2031 40.1821 21.1365L45.9332 7.39873C46.3233 6.46762 46.7507 5.48764 47.5709 4.90552C48.4699 4.26756 49.6456 4.24243 50.7452 4.24243H52.8393C53.3926 4.24243 53.9915 4.255 54.4341 4.59282C54.9223 4.96694 55.08 5.62584 55.2045 6.2317L56.7536 13.7504L58.3014 21.2678L58.7039 23.2221C58.7592 23.4929 58.8519 23.7805 58.8311 24.0597C58.8196 24.3281 58.8344 24.597 58.8754 24.8624L53.7715 24.8819C53.2183 24.8819 52.6387 24.8819 52.1726 24.5832C51.4312 24.1155 51.257 23.1216 51.1518 22.2463H47.7659C47.5142 23.2137 47.1628 24.304 46.2555 24.7046C46.0156 24.8015 45.7612 24.8568 45.5031 24.868Z" fill="white"/>
<path d="M57.1133 23.2807C55.7758 23.2807 54.4479 23.2807 53.1215 23.2807C52.9002 23.2807 52.9361 23.1076 52.9112 22.9917C52.7619 22.3007 52.6166 21.6083 52.4963 20.9117C52.459 20.7093 52.3829 20.6465 52.1809 20.6478C50.429 20.6544 48.6742 20.6544 46.9167 20.6478C46.7092 20.6478 46.64 20.7358 46.5847 20.9089C46.3371 21.6194 46.0771 22.3258 45.824 23.035C45.7714 23.1829 45.723 23.2862 45.5225 23.2848C44.0452 23.2751 42.5667 23.2848 41.0964 23.2848C41.03 23.1452 41.124 23.0545 41.1641 22.9582C43.3163 17.7596 45.4731 12.5628 47.6345 7.36793C48.0495 6.36562 48.7493 5.83236 49.8337 5.83236C50.9762 5.83236 52.1201 5.83236 53.2626 5.81421C53.5475 5.81421 53.5392 5.9915 53.5779 6.16181C54.0417 8.38792 54.5042 10.615 54.9652 12.8429C55.6762 16.2705 56.3862 19.6986 57.0953 23.1271C57.1036 23.1648 57.105 23.2109 57.1133 23.2807ZM47.9665 17.0895C49.1269 17.0895 50.2348 17.0769 51.3414 17.0895C51.6733 17.0895 51.6802 16.9792 51.618 16.7098C51.3856 15.6349 51.1726 14.5544 50.9513 13.4753L50.3704 10.6722H50.3054C49.535 12.7969 48.759 14.9188 47.9665 17.0895Z" fill="#01579F"/>
<path d="M14.7902 24.8596C14.1636 24.8512 13.5191 24.847 12.8164 24.847C12.1802 24.847 11.5011 24.847 10.7417 24.8582H10.7154C9.77213 24.8582 9.06257 24.2998 8.81913 23.3715C7.71261 19.1528 6.58119 14.8658 5.48435 10.7198L5.03345 8.99154C5.0127 8.91197 4.98919 8.83379 4.96429 8.75422L4.92003 8.60485L4.39581 6.84732L6.19391 6.58767C6.28001 6.57486 6.36691 6.56833 6.45394 6.56813C6.86834 6.57304 7.27025 6.712 7.60058 6.96458C10.0571 8.51551 11.9354 10.4894 13.2037 12.8542C14.0834 10.481 14.9921 8.01436 15.876 5.59513C16.0099 5.18792 16.271 4.83549 16.6201 4.59062C16.9692 4.34574 17.3875 4.22162 17.8124 4.23685H17.84C18.5427 4.24383 19.2232 4.24522 19.811 4.24522H21.836C21.8872 4.24522 21.9383 4.24522 21.9923 4.24522C22.3302 4.24216 22.6633 4.32574 22.9605 4.48812L24.1901 5.16517L23.2772 7.43084C23.0089 8.09811 22.7401 8.76539 22.4708 9.43267L21.2163 12.508C19.7543 16.118 18.2425 19.8508 16.7612 23.5236C16.2923 24.6865 15.3518 24.8596 14.8331 24.8596H14.7902Z" fill="white"/>
<path d="M6.41656 8.15382C6.55488 8.13288 6.65308 8.23478 6.75682 8.30039C9.32948 9.91693 11.2839 12.0695 12.4402 14.9215C12.461 14.9625 12.4851 15.0017 12.5121 15.0388C12.6975 15.9001 12.8842 16.7586 13.0847 17.6911C13.454 16.6986 13.7998 15.7703 14.1429 14.8419C15.2153 11.9411 16.2821 9.04119 17.3435 6.14222C17.4361 5.89094 17.5565 5.81695 17.8151 5.81974C19.154 5.8337 20.4929 5.81975 21.8332 5.82812C21.9553 5.80804 22.0805 5.82354 22.1942 5.87279C21.7968 6.85742 21.3998 7.84251 21.0033 8.82807C19.1001 13.5288 17.1987 18.2286 15.2992 22.9274C15.1996 23.1745 15.0945 23.282 14.8081 23.2778C13.4457 23.2597 12.0833 23.2639 10.7209 23.2778C10.4775 23.2778 10.3917 23.2052 10.3295 22.9693C9.07544 18.1727 7.81309 13.3776 6.54243 8.58378C6.5037 8.43999 6.45806 8.2976 6.41656 8.15382Z" fill="#01579F"/>
<path d="M25.345 24.8678C25.0808 24.8678 24.8166 24.8678 24.5525 24.8678H22.3795C22.0937 24.8678 21.8069 24.8678 21.5192 24.8678H21.4653C21.2044 24.8781 20.9447 24.829 20.7052 24.7241C20.4658 24.6192 20.2528 24.4613 20.0821 24.262C19.9131 24.0571 19.792 23.8165 19.7276 23.5579C19.6632 23.2994 19.6572 23.0295 19.71 22.7683C20.3905 18.5804 21.0752 14.3157 21.7364 10.1933L22.2592 6.93933C22.2827 6.79973 22.3076 6.66013 22.3325 6.51355C22.3726 6.28461 22.4113 6.06684 22.4362 5.86163C22.4768 5.40988 22.6863 4.99066 23.0221 4.68912C23.3578 4.38758 23.7947 4.22633 24.244 4.23811H26.3049C26.9679 4.23811 27.6295 4.23811 28.2897 4.23811C28.5514 4.22695 28.8121 4.27651 29.0517 4.38296C29.2914 4.48942 29.5037 4.64994 29.6723 4.85218C29.8409 5.05442 29.9613 5.293 30.0242 5.54955C30.0871 5.80611 30.0909 6.07382 30.0353 6.33208C29.446 9.96161 28.8591 13.5912 28.2745 17.2207L28.0906 18.3598C27.8333 19.9526 27.5663 21.5985 27.3215 23.2178C27.1666 24.2397 26.4349 24.8748 25.4114 24.8748L25.345 24.8678Z" fill="white"/>
<path d="M23.4695 23.2806C22.8125 23.2806 22.1541 23.2806 21.4957 23.2806C21.2951 23.2806 21.2191 23.2638 21.2578 23.0195C22.1135 17.7427 22.9637 12.4655 23.8083 7.18776C23.8678 6.81085 23.9466 6.43533 23.9923 6.05563C24.0144 5.88392 24.0684 5.81552 24.2468 5.81692C25.5986 5.8225 26.949 5.8225 28.298 5.81692C28.5069 5.81692 28.5152 5.90486 28.4875 6.07238C27.8983 9.70192 27.3114 13.3315 26.7268 16.961C26.4031 18.9642 26.0739 20.966 25.771 22.9721C25.7268 23.2596 25.6092 23.2903 25.3741 23.2862C24.7392 23.2736 24.1043 23.2806 23.4695 23.2806Z" fill="#01579F"/>
<path d="M1.69727 5.99296C1.69878 5.98422 1.70158 5.97575 1.70556 5.96784C1.72506 5.93381 1.75145 5.90431 1.78302 5.88129C1.84967 5.84081 1.9266 5.82091 2.00432 5.82405H2.03061C4.32802 5.82405 6.62544 5.82405 8.92285 5.83103C9.15488 5.83406 9.38623 5.85695 9.61443 5.89943C10.3973 6.03903 10.8717 6.52344 11.0252 7.29541C11.5246 9.79002 12.0073 12.2944 12.5024 14.7974C12.5128 14.8775 12.5184 14.9581 12.519 15.0389C12.492 15.0018 12.4679 14.9626 12.4471 14.9216C11.2839 12.0738 9.3295 9.91147 6.75683 8.30051C6.6531 8.2363 6.55489 8.133 6.41658 8.15393C6.37094 8.03109 6.2506 7.99759 6.1524 7.94314C4.79047 7.18218 3.33798 6.59955 1.83005 6.20934C1.7843 6.20221 1.738 6.19941 1.69173 6.20096V6.08231C1.68936 6.05241 1.69122 6.02233 1.69727 5.99296Z" fill="#F8A61B"/>
</svg>
