<svg id="Layer_1" data-name="Layer 1" xmlns="http://www.w3.org/2000/svg" viewBox="0 0 788.69 230.56"><defs><style>.cls-1{fill:#e32227;}.cls-2{fill:#ee6624;}</style></defs><title>Logo mới Công ty</title><path class="cls-1" d="M787.18,81.48a54.85,54.85,0,0,0-108.62-11h.67a38.79,38.79,0,0,1,76.42,9.8,46.36,46.36,0,0,1-5,21.7,5.14,5.14,0,0,0-.46,1.28A60.94,60.94,0,0,1,634.67,76.67h-.45A77,77,0,0,0,785.44,99.32h0a48.73,48.73,0,0,0,2.11-17.71"/><path class="cls-2" d="M723.33.87a77.07,77.07,0,0,0-83.47,48.66h0s-.3.95-.71,2.53c-.33.92-.67,1.83-1,2.82h0A76.55,76.55,0,0,0,635.46,77h.25A54.89,54.89,0,0,0,744,86h-.66a38.79,38.79,0,0,1-76-11.49h-.3a45.64,45.64,0,0,1,2.62-14.73h0A60.95,60.95,0,0,1,788.1,80.94h.49A77,77,0,0,0,723.33.87"/><polygon class="cls-1" points="135.63 153.38 134.96 8.04 71.4 64.05 0 7.38 0 33.43 0 45.92 0 154.33 32.61 154.33 32.61 72.1 71.15 103.09 104.97 73.81 104.97 153.38 135.63 153.38"/><polygon class="cls-1" points="369.75 10.24 269.35 10.24 269.35 42.6 304.52 42.6 304.52 153.71 334.52 153.71 334.52 42.6 369.75 42.6 369.75 10.24"/><polygon class="cls-1" points="569.18 74.63 611.67 153.71 643.62 153.71 569.1 7.13 493.84 153.71 528.07 153.71 569.06 75.05 569.18 74.63"/><polygon class="cls-2" points="552.05 153.71 569.23 119.44 586.4 153.71 552.05 153.71"/><polygon class="cls-1" points="261.5 153.71 293.41 153.71 218.94 7.13 143.68 153.71 177.9 153.71 218.85 70.03 261.5 153.71"/><polygon class="cls-2" points="201.84 153.71 219.06 115.25 236.24 153.71 201.84 153.71"/><path class="cls-1" d="M485.13,77.2A42.44,42.44,0,0,0,454.56,10a46.68,46.68,0,0,0-6-.33H379.29V153.17H459a42.48,42.48,0,0,0,26.18-76m-29,45.64h-47V35.3h38.51a15.23,15.23,0,0,1,1.58,30.41,13.88,13.88,0,0,1-1.58,0H427.34v26.8h28.54a15.27,15.27,0,0,1,0,30.5"/><path class="cls-2" d="M357.49,211.31c0,10.24-7.62,17.84-20.37,17.84H310.73V169.79H332c13.64,0,22.68,4.59,22.68,15.55,0,5.91-3.19,10.15-7.18,11.92C354.83,199.12,357.49,205.12,357.49,211.31ZM322.06,192.4h10.63c6.73,0,10.63-1.77,10.63-5.65,0-4.59-3.9-5.66-10.63-5.66H322.06Zm24.09,17.67c0-5.3-4.69-7.77-12-7.77H322.06v15.54h12.05C341.46,217.84,346.15,215.46,346.15,210.07Z"/><path class="cls-2" d="M409,189.58c0,10.07-7.26,19.78-19.84,19.78H376.36v19.79H365V169.79h21.26C401.78,169.79,409,178.09,409,189.58Zm-11.34,0c0-5.57-4.43-8.49-9.92-8.49H376.36v17h11.33C393.18,198.06,397.61,194.52,397.61,189.58Z"/><path class="cls-2" d="M475.47,199.47a31.18,31.18,0,1,1-31.18-31.1A31.18,31.18,0,0,1,475.47,199.47Zm-11.34,0a19.84,19.84,0,1,0-19.84,19.79A19.79,19.79,0,0,0,464.13,199.47Z"/><rect class="cls-2" y="199.47" width="293.41" height="9.02"/><rect class="cls-2" x="495.28" y="199.47" width="293.41" height="9.02"/></svg>