<?xml version="1.0" encoding="utf-8"?>
<!-- Generator: Adobe Illustrator 16.0.2, SVG Export Plug-In . SVG Version: 6.00 Build 0)  -->
<!DOCTYPE svg PUBLIC "-//W3C//DTD SVG 1.1//EN" "http://www.w3.org/Graphics/SVG/1.1/DTD/svg11.dtd">
<svg version="1.1" id="Layer_1" xmlns="http://www.w3.org/2000/svg" xmlns:xlink="http://www.w3.org/1999/xlink" x="0px" y="0px"
	 width="451px" height="451px" viewBox="0 0 451 451" enable-background="new 0 0 451 451" xml:space="preserve">
<g>
	<g>
		<path fill-rule="evenodd" clip-rule="evenodd" fill="#AD2070" d="M0.841,226.422c0-59.485,0.477-118.976-0.253-178.452
			C0.325,26.6,16.525,1.1,47.727,1.127C149.534,1.216,251.341,1.16,353.148,1.16c16.829,0,33.659,0.146,50.486-0.032
			c30.549-0.324,47.696,24.352,47.599,47.441c-0.503,119.135-0.232,238.272-0.234,357.408c0,25.517-18.652,44.879-44.237,45.929
			c-1.165,0.047-2.331,0.09-3.497,0.09c-118.303,0.004-236.606,0.021-354.909-0.012c-22.487-0.006-39.722-12.264-45.837-32.305
			c-1.276-4.183-1.705-8.438-1.702-12.805C0.852,346.724,0.841,286.572,0.841,226.422z"/>
		<path fill-rule="evenodd" clip-rule="evenodd" fill="#FEFEFE" d="M56.84,310.396c0-13.996-0.088-27.993,0.019-41.988
			c0.204-26.747,19.202-48.394,45.693-52.423c14.203-2.16,27.535,0.132,39.884,7.436c2.512,1.485,4.19,1.407,6.679-0.057
			c23.7-13.937,52.913-9.927,71.841,9.789c8.93,9.302,13.523,20.528,13.575,33.394c0.123,30.158-0.039,60.317,0.133,90.476
			c0.023,4.084-1.314,4.979-5.118,4.901c-11.326-0.231-22.665-0.285-33.987,0.018c-4.43,0.119-5.879-0.905-5.839-5.648
			c0.241-28.99,0.132-57.982,0.111-86.975c-0.004-6.371-2.307-10.045-7.239-11.834c-7.342-2.663-14.41,2.589-14.419,10.835
			c-0.033,29.326-0.132,58.652,0.107,87.976c0.039,4.746-1.415,5.763-5.841,5.646c-11.489-0.301-22.997-0.305-34.485,0.007
			c-4.162,0.112-4.889-1.34-4.872-5.098c0.138-29.658,0.043-59.317,0.112-88.976c0.01-4.479-1.729-7.756-5.637-9.757
			c-3.863-1.978-7.725-1.655-11.368,0.715c-3.423,2.228-4.402,5.489-4.391,9.454c0.078,29.325-0.075,58.651,0.161,87.976
			c0.038,4.716-1.356,5.801-5.825,5.681c-11.489-0.308-22.996-0.295-34.485,0c-4.092,0.104-4.94-1.262-4.892-5.061
			C56.956,341.39,56.84,325.892,56.84,310.396z"/>
		<path fill-rule="evenodd" clip-rule="evenodd" fill="#FEFEFE" d="M56.84,141.446c0-13.998-0.085-27.996,0.018-41.993
			c0.201-27.194,20.263-49.314,47.289-52.507c13.867-1.639,26.89,0.583,38.81,7.952c2.556,1.58,4.127,0.709,6.252-0.503
			c24.829-14.168,55.705-9.192,73.58,11.85c7.725,9.093,11.734,19.672,11.76,31.615c0.065,30.162-0.039,60.325,0.103,90.486
			c0.017,3.649-0.794,4.847-4.657,4.754c-11.658-0.279-23.331-0.284-34.989-0.001c-4.059,0.099-5.303-0.828-5.272-5.108
			c0.206-29.161,0.127-58.324,0.095-87.486c-0.009-7.899-4.301-12.639-11.113-12.499c-6.21,0.128-10.535,4.727-10.542,11.418
			c-0.029,29.496-0.103,58.992,0.089,88.486c0.027,4.157-1,5.309-5.187,5.196c-11.49-0.309-22.999-0.307-34.489-0.003
			c-4.278,0.113-5.587-0.828-5.55-5.391c0.239-29.494,0.083-58.99,0.161-88.485c0.013-4.899-1.906-8.37-6.345-10.312
			c-4.215-1.844-8.146-1.056-11.667,1.82c-2.846,2.323-3.391,5.451-3.383,8.963c0.066,29.328-0.075,58.658,0.157,87.985
			c0.036,4.505-1.18,5.54-5.518,5.424c-11.823-0.315-23.662-0.219-35.49-0.036c-3.234,0.05-4.223-0.822-4.187-4.135
			C56.934,173.109,56.84,157.277,56.84,141.446z"/>
		<path fill-rule="evenodd" clip-rule="evenodd" fill="#FEFEFE" d="M321.475,193c-40.47-0.015-73.387-33.026-73.314-73.527
			c0.071-40.55,32.88-73.07,73.69-73.044c40.555,0.026,73.009,32.782,72.99,73.665C394.821,160.198,361.799,193.015,321.475,193z"/>
		<path fill-rule="evenodd" clip-rule="evenodd" fill="#FEFEFE" d="M321.82,215.159c40.398,0.02,73.055,32.998,73.021,73.74
			c-0.034,40.151-33.014,72.954-73.333,72.941c-40.492-0.014-73.406-32.998-73.348-73.506
			C248.218,247.865,281.16,215.14,321.82,215.159z"/>
		<path fill-rule="evenodd" clip-rule="evenodd" fill="#FDFCFD" d="M56.836,395.617c0-2.498,0.201-5.016-0.047-7.488
			c-0.384-3.846,2.207-4.826,4.44-3.34c2.347,1.562,3.547,0.339,5.233-0.299c3.579-1.354,6.34,1.674,9.139,1.855
			c2.629,0.171,5.581-3.156,9.201-1.974c3.361,1.099,4.619,3.675,4.718,6.897c0.127,4.159-0.033,8.326,0.082,12.486
			c0.066,2.398-0.921,3.123-3.258,3.151c-2.67,0.032-2.957-1.393-2.937-3.464c0.033-3.495,0.022-6.994-0.115-10.485
			c-0.071-1.811-0.154-3.928-2.716-4.007c-2.402-0.074-3.491,1.5-3.984,3.686c-0.819,3.63-0.364,7.301-0.385,10.949
			c-0.013,2.202-0.457,3.347-3.023,3.326c-2.5-0.02-3.129-1.049-3.06-3.307c0.108-3.493,0.033-6.992-0.031-10.488
			c-0.035-1.857-0.096-3.933-2.558-4.16c-2.659-0.246-4.1,1.525-4.318,3.88c-0.307,3.303-0.214,6.648-0.195,9.975
			c0.013,2.252,0.268,4.174-3.177,4.134c-3.583-0.043-2.986-2.238-3.004-4.335C56.821,400.279,56.836,397.948,56.836,395.617z"/>
		<path fill-rule="evenodd" clip-rule="evenodd" fill="#FDFCFD" d="M275.002,397.694c0,1.995-0.106,3.996,0.028,5.981
			c0.155,2.28-0.552,3.24-3.038,3.243c-2.507,0.003-3.117-0.998-3.029-3.259c0.128-3.318,0.094-6.648-0.012-9.97
			c-0.067-2.131,0.047-4.729-3.082-4.7c-2.957,0.026-3.836,2.261-3.932,4.794c-0.112,2.988-0.111,5.981-0.078,8.972
			c0.025,2.255,0.246,4.232-3.18,4.177c-3.229-0.052-2.81-1.983-2.852-3.97c-0.073-3.481-0.129-6.966-0.315-10.442
			c-0.103-1.907-0.547-3.789-3.108-3.578c-2.096,0.173-3.42,1.448-3.549,3.514c-0.216,3.476-0.288,6.968-0.246,10.45
			c0.029,2.442-0.203,4.073-3.41,4.032c-3.002-0.039-3.098-1.585-3.067-3.792c0.071-5.15,0.192-10.311-0.031-15.453
			c-0.167-3.845,2.976-4.159,4.437-3.026c2.32,1.8,3.563,0.692,5.418-0.124c3.502-1.542,6.311,1.602,9.123,1.753
			c2.667,0.143,5.577-3.122,9.152-1.924c3.051,1.023,4.555,3.239,4.721,6.345c0.123,2.319,0.023,4.651,0.023,6.978
			C274.984,397.694,274.993,397.694,275.002,397.694z"/>
		<path fill-rule="evenodd" clip-rule="evenodd" fill="#FEFDFD" d="M136.156,386.163c4.768-2.715,9.215-3.293,12.758,0.594
			c3.877,4.253,3.682,9.52,1.905,14.602c-1.233,3.527-3.87,5.835-7.898,5.776c-3.585-0.053-6.985-2.415-10.81-0.409
			c-1.542,0.81-2.123-0.855-2.119-2.381c0.022-8.496,0.066-16.992-0.029-25.487c-0.026-2.31,1.021-2.78,3.029-2.735
			c1.862,0.041,3.304,0.175,3.187,2.608C136.07,381.005,136.156,383.29,136.156,386.163z"/>
		<path fill-rule="evenodd" clip-rule="evenodd" fill="#FDFCFD" d="M372.065,384.968c4.495-1.495,6.987-0.396,7.983,4.063
			c0.718,3.209,2.049,6.28,3.44,10.403c1.62-4.625,3.206-8.315,4.173-12.161c0.838-3.335,3.193-3.29,5.364-2.696
			c3.261,0.893,0.69,2.974,0.245,4.277c-2.413,7.061-5.082,14.033-7.596,21.06c-1.576,4.404-4.78,6.063-9.261,5.95
			c-1.938-0.05-2.497-1.069-2.794-2.76c-0.347-1.975,0.703-2.096,2.216-2.316c4.351-0.635,4.802-3.187,3.345-6.87
			C376.702,397.648,374.43,391.297,372.065,384.968z"/>
		<path fill-rule="evenodd" clip-rule="evenodd" fill="#FDFCFD" d="M295.139,407.163c-7.07-0.095-11.334-4.494-11.285-11.643
			c0.047-6.795,4.9-11.597,11.641-11.518c6.696,0.079,11.46,5.046,11.349,11.833C306.73,402.694,302.018,407.256,295.139,407.163z"
			/>
		<path fill-rule="evenodd" clip-rule="evenodd" fill="#FEFDFD" d="M110.063,407.161c-7.233,0.042-11.561-4.184-11.633-11.356
			c-0.07-6.985,4.583-11.794,11.415-11.797c6.629-0.003,11.229,4.594,11.318,11.313
			C121.259,402.614,117.034,407.122,110.063,407.161z"/>
		<path fill-rule="evenodd" clip-rule="evenodd" fill="#FDFBFC" d="M203.227,407.149c-4.345,0.203-7.805-1.001-9.629-5.021
			c-2.287-5.042-2.242-10.059,1.215-14.562c2.581-3.362,6.304-4.145,10.318-3.266c4.66,1.02,7.995,5.866,7.901,10.81
			c-0.04,2.072-0.945,2.532-2.726,2.483c-2.487-0.067-4.984-0.117-7.464,0.03c-1.335,0.08-3.189-0.853-3.854,1.142
			c-0.409,1.227,0.488,2.256,1.423,2.953c1.421,1.06,3.115,1.584,4.537,0.193c1.359-1.328,2.561-2.274,4.681-1.959
			c2.665,0.396,3.184,1.382,1.613,3.521C209.2,406.255,206.438,407.441,203.227,407.149z"/>
		<path fill-rule="evenodd" clip-rule="evenodd" fill="#FDFCFD" d="M355.632,407.155c-4.84,0.23-8.206-1.646-9.99-6.045
			c-1.913-4.713-0.844-11.394,2.465-14.424c3.252-2.979,7.037-3.388,11.112-1.842c4.813,1.825,5.847,5.938,6.295,10.376
			c0.214,2.126-1.235,2.386-2.897,2.364c-2.488-0.033-4.984-0.125-7.462,0.043c-1.318,0.09-3.214-0.933-3.834,1.075
			c-0.361,1.171,0.658,2.184,1.577,2.896c1.375,1.066,3.017,1.848,4.489,0.415c1.493-1.453,2.85-2.462,5.147-2.031
			c2.336,0.438,2.896,1.232,1.5,3.231C361.933,406.222,359.03,407.424,355.632,407.155z"/>
		<path fill-rule="evenodd" clip-rule="evenodd" fill="#FDFDFD" d="M315.838,395.543c0.002-2.825,0.066-5.652-0.021-8.476
			c-0.059-1.907,0.989-3.355,2.556-2.521c3.471,1.85,6.396,0.013,9.6-0.44c4.584-0.647,7.791,2.163,7.982,6.747
			c0.18,4.314-0.066,8.645,0.089,12.961c0.088,2.446-0.871,3.056-3.19,3.101c-2.688,0.054-2.935-1.299-2.882-3.396
			c0.088-3.488,0.081-6.982-0.027-10.469c-0.066-2.141-0.808-4.054-3.367-4.126c-2.513-0.069-4.21,1.348-4.426,3.81
			c-0.304,3.468-0.313,6.971-0.274,10.456c0.025,2.265-0.188,3.729-3.135,3.737c-3.17,0.008-2.935-1.854-2.912-3.905
			C315.857,400.529,315.837,398.036,315.838,395.543z"/>
		<path fill-rule="evenodd" clip-rule="evenodd" fill="#F9EFF5" d="M177.371,391.019c0-3.981,0.074-7.964-0.027-11.942
			c-0.063-2.5,1.184-3.01,3.389-3.008c2.195,0.003,2.921,0.93,2.912,2.975c-0.038,8.294-0.063,16.588,0.013,24.882
			c0.023,2.498-1.186,3.009-3.39,3.007c-2.195-0.003-2.936-0.93-2.911-2.975C177.407,399.645,177.371,395.331,177.371,391.019z"/>
		<path fill-rule="evenodd" clip-rule="evenodd" fill="#FDFCFD" d="M167.003,395.812c0,2.645-0.112,5.295,0.034,7.932
			c0.129,2.326-0.669,3.161-3.08,3.176c-2.516,0.015-3.04-1.039-2.996-3.261c0.108-5.452,0.104-10.909,0.001-16.361
			c-0.04-2.116,0.665-2.925,2.833-2.926c2.207-0.002,3.409,0.474,3.249,3.014C166.867,390.184,167.004,393.002,167.003,395.812z"/>
		<path fill-rule="evenodd" clip-rule="evenodd" fill="#F9EFF5" d="M163.553,381.853c-2.449,0.355-2.515-1.181-2.626-3.033
			c-0.169-2.838,1.583-2.646,3.506-2.736c2.408-0.114,2.545,1.228,2.643,3.104C167.223,382.014,165.519,382.014,163.553,381.853z"/>
		<path fill-rule="evenodd" clip-rule="evenodd" fill="#AD2070" d="M321.329,151.159c-17.553-0.039-31.648-14.299-31.481-31.847
			c0.164-17.261,14.347-31.303,31.626-31.313c17.571-0.01,31.732,14.162,31.685,31.707
			C353.11,137.332,339.076,151.2,321.329,151.159z"/>
		<path fill-rule="evenodd" clip-rule="evenodd" fill="#AD2070" d="M321.819,320.158c-17.586,0.097-31.9-14.002-31.974-31.491
			c-0.073-17.504,14.121-31.768,31.671-31.825c17.318-0.057,31.489,13.943,31.642,31.262
			C353.313,305.757,339.327,320.063,321.819,320.158z"/>
		<path fill-rule="evenodd" clip-rule="evenodd" fill="#AF2472" d="M135.997,395.282c0.37-2.996,0.823-6.253,4.751-6.324
			c4.319-0.078,4.905,3.55,4.934,6.658c0.029,3.114-0.542,6.857-4.843,6.66C136.81,402.092,136.305,398.597,135.997,395.282z"/>
		<path fill-rule="evenodd" clip-rule="evenodd" fill="#AE2371" d="M300.449,395.693c-0.154,3.482-1.066,6.525-5.282,6.379
			c-3.731-0.13-5.038-2.889-5.104-6.178c-0.069-3.508,1.299-6.568,5.168-6.675C299.223,389.11,300.397,392.161,300.449,395.693z"/>
		<path fill-rule="evenodd" clip-rule="evenodd" fill="#AE2372" d="M104.816,395.06c-0.059-3.004,1.205-5.961,5.193-5.832
			c3.9,0.126,5.126,3.104,4.998,6.704c-0.119,3.335-1.19,6.094-5.009,6.148C105.835,402.139,104.805,399.223,104.816,395.06z"/>
		<path fill-rule="evenodd" clip-rule="evenodd" fill="#B4347C" d="M202.663,393.992c-1.435-0.526-3.858,0.924-3.745-1.905
			c0.083-2.062,1.591-3.174,3.662-3.228c2.325-0.061,4.056,1.283,4.049,3.422C206.62,395.299,203.866,393.153,202.663,393.992z"/>
		<path fill-rule="evenodd" clip-rule="evenodd" fill="#B4337C" d="M354.956,393.982c-1.262-0.641-3.815,1.138-3.647-1.714
			c0.125-2.127,1.743-3.492,4.081-3.411c2.069,0.071,3.655,1.22,3.631,3.244C358.983,395.115,356.332,393.32,354.956,393.982z"/>
	</g>
</g>
</svg>
