<?xml version="1.0" encoding="utf-8"?>
<!-- Generator: Adobe Illustrator 16.0.2, SVG Export Plug-In . SVG Version: 6.00 Build 0)  -->
<!DOCTYPE svg PUBLIC "-//W3C//DTD SVG 1.1//EN" "http://www.w3.org/Graphics/SVG/1.1/DTD/svg11.dtd">
<svg version="1.1" id="Layer_1" xmlns="http://www.w3.org/2000/svg" xmlns:xlink="http://www.w3.org/1999/xlink" x="0px" y="0px"
	 width="540px" height="541px" viewBox="0 0 540 541" enable-background="new 0 0 540 541" xml:space="preserve">
<g>
	<g>
		<path fill="#FFFFFF" d="M528.817,11.737c5.971-1.603,5.254,2.291,5.251,6.078c-0.055,81.333-0.041,162.668-0.041,244.001
			c0,90.885,0,181.771,0,272.656c-174.245,0-348.49,0-522.736,0c0-171.64-0.008-343.279,0.072-514.921
			c0.002-2.604,1.085-5.21,1.665-7.815c0,36.282,0,72.562,0,108.814c37.051,0,72.982,0,109.41,0c0-36.667,0-72.742,0-108.814
			c10.42,0,20.84,0,31.26,0c0.048,5.242,0.096,10.482,0.144,15.725c-5.049,0.002-10.097,0.002-15.25,0.002c0,5.588,0,10.274,0,15.75
			c5.313,0,10.122,0,14.93,0c0,5.04,0,10.083,0,15.699c-5.688,0-10.204,0-14.912,0c0,5.332,0,10.04,0,14.721
			c10.467,0,20.381,0,30.023,0c0-10.556,0-20.476,0-30.154c-5.58,0-10.462,0-15.335-0.01c0.105-5.425,0.201-10.84,0.297-16.254
			c10.281,0,20.562,0,31.363,0c0-5.763,0-10.622,0-15.479c15.63,0,31.26,0,46.89,0c0.045,5.249,0.089,10.498,0.134,15.747
			c-5.088,0-10.176,0-15.63,0c0,16.312,0,31.601,0,46.89c-10.296,0-20.593,0-31.277,0c0,11.112,0,21.195,0,31.277
			c-5.087,0-10.173,0-15.066,0c0,31.796,0,62.563,0,93.173c10.42,0,20.152,0,30.796,0c0-5.188,0-9.932,0-14.488
			c5.668,0,10.395,0,15.716,0c0,5.201,0,9.74,0,14.392c5.349,0,10.065,0,15.192,0c0-15.854,0-31.146,0-46.437
			c15.482,0,30.965,0,46.402,0c0-5.654,0-10.361,0-15.396c-15.878,0-31.14,0-46.402,0c0-5.288,0-10.576,0-15.864
			c5.098,0,10.196,0,15.647,0c0-5.887,0-10.766,0-15.647c5.28-0.003,10.562-0.007,15.843-0.009c0,5.063,0,10.123,0,15.206
			c5.642,0,10.337,0,14.918,0c0-5.29,0-9.986,0-14.96c-5.463,0-10.313,0-15.166,0c0.012-10.5,0.024-20.998,0.035-31.498
			c5.07,0,10.138,0,16.048,0c0,5.911,0,10.625,0,15.63c5.737,0,10.591,0,15.444,0c0,15.466,0,30.933,0,47.279
			c10.847,0,20.781,0,31.262,0c0,5.766,0,10.639,0,15.509c-10.271,0-20.54,0-31.688,0c0,10.885,0,20.825,0,31.616
			c-5.634,0-10.365,0-14.845,0c0,5.417,0,9.93,0,15.279c20.78,0,41.104,0,62.305,0c0,5.586,0,10.315,0,15.374
			c5.768,0,10.636,0,15.503,0c0,20.713,0,41.427,0,61.978c5.738,0,10.463,0,15.781,0c0-5.182,0-9.701,0-15.13
			c15.76,0,30.928,0,46.976,0c0-5.661,0-10.398,0-15.035c5.445,0,9.964,0,14.727,0c0,10.381,0,20.321,0,31.17
			c-5.266,0-10.002,0-15.323,0c0,5.44,0,9.979,0,14.897c-5.324,0.281-10.081,0.533-15.71,0.83c0,5.313,0,10.054,0,15.379
			c-5.439,0-9.965,0-15.402,0c0,10.543,0,20.506,0,30.463c-5.675,0-10.399,0-16.028,0c0-5.336,0-10.07,0-15.387
			c-5.451,0-9.977,0-14.565,0c0-5.361,0-10.086,0-15.713c5.317,0,10.059,0,14.566,0c0-5.455,0-9.972,0-14.603
			c-10.414,0-20.345,0-30.665,0c0,21.079,0,41.573,0,62.069c-5.094,0-10.188,0-16.146,0c0-5.998,0-10.729,0-15.313
			c-5.445,0-9.966,0-14.688,0c0,10.394,0,20.329,0,31.17c5.273,0,10.008,0,14.662,0c0,5.445,0,9.966,0,14.897
			c-5.142,0.27-9.891,0.517-15.512,0.813c0,5.318,0,10.055,0,15.377c-5.441,0-9.965,0-14.828,0c0,5.341,0,10.063,0,15.71
			c5.211,0,9.936,0,15.564,0c0,10.865,0,20.817,0,31.324c5.463,0,9.988,0,15.41,0c0,5.337,0,10.075,0,15.163
			c5.788,0,10.663,0,15.537,0c0,5.073,0,10.146,0,15.186c16.105,0,31.221,0,46.656,0c0-5.444,0-10.315,0-15.186
			c5.063,0,10.127,0,16.027,0c0,5.886,0,10.595,0,16.171c5.578,0,10.273,0,15.491,0c0,10.91,0,20.929-0.001,30.948
			c-5.092,0-10.184,0-16.134,0c0-5.919,0-10.647,0-15.305c-5.429,0-9.94,0-14.756,0c0,10.343,0,20.259,0,30.263
			c10.448,0,20.378,0,30.645,0c0-5.45,0-10.328,0-15.205c5.275,0.003,10.552,0.007,15.829,0.008c0,5.063,0,10.125,0,15.208
			c5.643,0,10.338,0,14.918,0c0-5.29,0-9.984,0-14.962c-5.462,0-10.313,0-15.166,0c0-15.43,0-30.861,0-46.459
			c5.807,0,10.507,0,16.081,0c0,5.24,0,9.957,0,14.963c5.736,0,10.592,0,15.448,0c0,10.305,0,20.609,0,31.25
			c5.857,0,10.731,0,15.607,0.002c0,5.063,0,10.123,0,15.206c5.643,0,10.339,0,14.92,0c0-5.283,0-9.982,0-14.96
			c-5.466,0-10.315,0-15.166,0c0.012-10.5,0.022-20.998,0.033-31.498c5.074,0,10.148,0,15.104,0c0-10.92,0-20.833,0-31.331
			c-10.354,0-20.073,0-30.129,0c0-5.33,0-10.042,0-15.655c5.198,0,9.935,0,15.293,0c0-5.765,0-10.634,0-15.503l-0.246,0.246
			c10.301,0,20.602,0,31.796,0c0-6.036,0-10.775,0-16.097c5.445,0,9.971,0,14.621,0c0-5.354,0-10.08,0-15.715
			c-5.302,0-10.037,0-15.359,0c0-5.455,0-9.992,0-15.404c-5.332,0-10.08,0-15.477,0c0-5.79,0-10.666,0-15.541
			c10.258,0,20.514,0,30.829,0c0-5.616,0-10.312,0-14.938c-10.487,0-20.392,0-30.582,0c0,5.459,0,10.322,0,15.187
			c-5.284-0.007-10.566-0.014-15.852-0.019c0-20.728,0-41.451,0-62.537c-5.878,0-10.763,0-15.646,0
			c0.006-10.504,0.012-21.008,0.017-31.511c5.094,0,10.188,0,16.145,0c0,5.994,0,10.727,0,16.041c5.447,0,9.981,0,14.87,0
			c0.271,5.323,0.515,10.063,0.753,14.709c10.638,0,20.563,0,30.457,0c0-20.778,0-40.911,0-61.488
			c-5.113-0.28-9.869-0.543-14.622-0.804c0-5.322,0-10.045,0-15.36c5.105,0,9.637,0,14.563,0c0-15.752,0-30.89,0-46.956
			c-5.174,0-9.921,0-15.528,0c0-10.864,0-20.825,0-30.604c-5.46,0-9.988,0-14.928,0c-0.246,5.152-0.472,9.915-0.692,14.558
			c-5.451,0-10.175,0-15.487,0c0-5.15,0-9.674,0-14.492c-5.343,0-10.064,0-15.696,0c0,5.232,0,9.967,0,14.426
			c-5.661,0-10.384,0-15.7,0c0-5.215,0-9.731,0-15.133c-20.963,0-41.322,0-62.309,0c0-5.776,0-10.652,0-15.526
			c5.063-0.002,10.124-0.002,15.206-0.002c0-5.641,0-10.337,0-14.917c-5.282,0-9.981,0-14.961,0c0,5.462,0,10.315,0,15.165
			c-5.282-0.005-10.566-0.012-15.851-0.017c0-5.075,0-10.147,0-15.169c-5.67,0-10.379,0-15.396,0c0,5.449,0,10.308,0,15.169
			c-5.068,0-10.136,0-16.043,0c0-5.9,0-10.619,0-15.915c-5.732,0-10.585,0-15.438,0l0.246,0.246
			c-0.093-5.281-0.186-10.561-0.276-15.842c10.309,0,20.616,0,31.515,0c0-5.875,0-10.754,0-15.633l-0.242,0.241
			c5.29-0.085,10.578-0.169,15.868-0.254c0,5.074,0,10.147,0,15.169c5.676,0,10.381,0,15.396,0c0-5.451,0-10.31,0-15.169
			c5.055,0,10.11,0,15.201,0c0-10.824,0-20.706,0-31.452c-5.253,0-9.965,0-14.95,0c0-5.719,0-10.571,0-15.421l-0.257,0.238
			c5.084,0,10.168,0,15.751,0c0-6.044,0-10.898,0-15.75c5.21,0,10.422,0,15.632,0c0,36.282,0,72.562,0,108.814
			c37.051,0,72.981,0,109.408,0C528.817,83.885,528.817,47.81,528.817,11.737z M279.128,464.545c0,5.261,0,10.521,0,15.989
			c5.737,0,10.563,0,15.392,0c0,5.078,0,10.157,0,15.097c-16.444,0-31.582,0-47.297,0c0-5.163,0-9.688,0-14.478
			c-5.329,0-10.048,0-15.673,0c0,5.241,0,9.973,0,15.286c-5.431,0-9.95,0-14.849,0c0,10.542,0,20.47,0,30.517
			c5.214,0,9.933,0,15.567,0c0-5.286,0-10.004,0-14.634c21.054,0,41.174,0,61.702,0c0.288,5.127,0.555,9.865,0.82,14.594
			c10.543,0,20.466,0,30.151,0c0-10.551,0-20.478,0-30.983c-5.22,0-9.75,0-15.149,0c0-5.336,0-10.07,0-15.151
			c-5.777,0-10.648,0-15.52-0.001c0-5.063,0-10.124,0-15.99c-5.726,0-10.543,0-15.358,0c-0.099-5.183-0.194-10.363-0.292-15.547
			c5.07,0,10.141,0,15.148,0c0-5.659,0-10.367,0-15.379c-5.451,0-10.31,0-15.166,0c0-5.086,0-10.172,0-16.146
			c-10.97,0-20.935,0-30.654,0c0-5.471,0-9.999,0-15.434c10.409,0,20.367,0,31.212,0c0-5.677,0-10.416,0-15.733
			c5.444,0,9.972,0,14.646,0c0-5.356,0-10.082,0-15.73c-5.281,0-10.006,0-15.352,0c0-10.661,0-20.396,0-30.292
			c-10.601,0-20.54,0-30.315,0c0,5.309,0,10.036,0,15.362c5.187,0,9.708,0,14.411,0c0,10.57,0,20.515,0,30.311
			c-5.312,0-10.037,0-15.349,0c0-5.189,0-9.723,0-14.798c-5.439,0-10.289,0-15.159-0.019l0.287,0.25c0-10.464,0-20.928,0-31.533
			c-17.071,0-32.281,0-47.49,0c0-10.246,0-20.492,0-30.849c-5.575,0-10.273,0-15.837,0c0,5.25,0,9.979,0,15.2
			c-5.732,0-10.586,0-15.44,0c0-10.307,0-20.611,0-31.26c-5.869,0-10.749,0-15.63,0c0-5.084,0-10.165,0-15.096
			c11.232,0,21.171,0,31.686,0c0,5.178,0,9.698,0,14.428c10.536,0,20.459,0,30.346,0c0-26.091,0-51.625,0-78.085
			c-15.754,0-30.9,0-46.575,0c0-41.885,0-82.838,0-124.012c-5.303,0-10.014,0-15.648,0c0,15.667,0,30.814,0,46.541
			c-15.862,0-30.794,0-46.172,0c-0.289,5.32-0.545,10.076-0.804,14.852c-5.314,0-10.036,0-15.352,0c0-5.105,0-9.625,0-14.574
			c-10.545,0-20.479,0-31.326,0c0,5.193,0,9.929,0,15.305c-5.781,0-10.653,0-15.526-0.002c0-5.061,0-10.123,0-15.206
			c-5.641,0-10.337,0-14.918,0c0,5.283,0,9.982,0,14.962c5.463,0,10.314,0,15.166,0c-0.002,5.274-0.005,10.551-0.008,15.829
			c-5.063,0-10.125,0-15.207,0c0,5.641,0,10.337,0,14.917c5.289,0,9.985,0,14.961,0c0-5.464,0-10.314,0-15.165
			c5.095,0,10.189,0,16.168,0c0,6.025,0,10.752,0,16.081c10.669,0,20.408,0,30.245,0c0,5.376,0,10.091,0,15.727
			c-10.523,0-20.488,0-31.004,0c0,5.471,0,10.001,0,14.67c-5.347,0-10.072,0-15.706,0c0-5.294,0-10.031,0-14.61
			c-5.452,0-9.974,0-14.682,0c0,15.616,0,30.768,0,46.291c5.421,0,10.299,0,15.177,0c0,5.063,0,10.124,0,15.206
			c5.642,0,10.338,0,14.917,0c0-5.283,0-9.982,0-14.96c-5.463,0-10.315,0-15.165,0c0-5.076,0-10.15,0-16.084
			c11.213,0,21.16,0,31.649,0c0-5.429,0-9.945,0-14.786c10.521,0,20.442,0,31.265,0c0,5.213,0,9.943,0,15.004
			c5.769,0,10.638,0,15.506,0c0,5.298,0,10.596,0,15.895c-15.476,0-30.951,0-47.333,0c0,10.868,0,20.801,0,31.608
			c-10.851,0-20.788,0-30.451,0c0,5.439,0,9.943,0,14.594c15.604,0,30.719,0,46.736,0c0-10.481,0-20.43,0-30.297
			c5.434,0,9.953,0,14.951,0c0.253,5.11,0.488,9.848,0.765,15.448c10.505,0,20.45,0,30.979,0c0,5.776,0,10.649,0,15.521
			c-10.308,0-20.617,0-31.26,0c0,5.867,0,10.749,0,15.63c-10.314,0-20.628,0-31.291,0c0,5.892,0,10.778,0,15.666
			c-10.486-0.004-20.972-0.007-31.459-0.011c0-5.063,0-10.123,0-15.205c-5.646,0-10.341,0-14.917,0c0,5.281,0,9.982,0,14.96
			c5.463,0,10.315,0,15.165,0c-0.012,10.499-0.023,20.997-0.035,31.497c-5.066,0-10.133,0-15.153,0c0,10.888,0,20.798,0,31.578
			c5.318,0,10.042,0,15.323,0c0,5.403,0,9.914,0,14.664c5.312,0,10.021,0,15.615,0c0-5.222,0-9.948,0-15.25
			c5.752,0,10.614,0,15.476,0c0,5.074,0,10.146,0,15.169c5.67,0,10.379,0,15.396,0c0-5.451,0-10.312,0-15.169
			c5.07,0,10.14,0,15.149,0c0-5.66,0-10.367,0-15.379c-5.452,0-10.309,0-15.166,0c0-5.086,0-10.168,0-15.613
			c-11.087,0-21.166,0-31.243,0c0-5.071,0-10.141,0-16.051c5.874,0,10.593,0,15.604,0c0-5.734,0-10.586,0-15.438
			c10.513-0.007,21.024-0.015,31.537-0.021c0,10.305,0,20.606,0,31.242c5.858,0,10.735,0,15.613,0c0,5.096,0,10.192,0,15.631
			c5.874,0,10.752,0,15.632,0c0.008,5.287,0.016,10.571,0.024,15.859c-5.062,0-10.124,0-15.206,0c0,5.641,0,10.337,0,14.918
			c5.283,0,9.981,0,14.961,0c0-5.465,0-10.314,0-15.166c5.288,0.012,10.577,0.021,15.865,0.032c0,20.705,0,41.409,0,63.027
			c10.963,0,20.926,0,31.441,0c0,5.466,0,9.995,0,15.429c5.319,0,10.066,0,15.459,0c0,5.788,0,10.662,0,15.538
			c-4.992,0-9.984,0-15.656,0c0,5.687,0,10.678,0,15.669c-5.28,0.003-10.561,0.005-15.842,0.009c0-10.258,0-20.513,0-30.828
			c-5.615,0-10.312,0-14.939,0c0,10.488,0,20.392,0,30.582c5.458,0,10.322,0,15.187,0c0,5.084,0,10.169,0,16.122
			c-6.004,0-10.733,0-15.348,0c0,5.436,0,9.941,0,14.742c20.756,0,41.075,0,61.52,0c0-10.436,0-20.364,0-30.627
			c-5.433,0-10.308,0-15.182,0c0.004-5.305,0.009-10.61,0.014-15.917c10.306,0,20.61,0,31.797,0c0-5.735,0-10.477,0-15.794
			c5.446,0,9.972,0,14.621,0c0-5.349,0-10.064,0-15.717c-15.713,0-30.87,0-45.848,0c0-15.896,0-30.837,0-45.915
			c5.196,0,9.911,0,15.564,0c0,10.505,0,20.457,0,30.986c15.896,0,30.84,0,46.688,0c0,5.361,0,10.101,0,15.197
			c5.793,0,10.67,0,15.548,0c0,5.027,0,10.052,0,15.281C269.072,464.523,274.109,464.523,279.128,464.545z M121.819,527.145
			c0-36.664,0-72.62,0-108.332c-36.582,0-72.541,0-108.325,0c0,36.45,0,72.203,0,108.332
			C49.71,527.145,85.462,527.145,121.819,527.145z M341.818,496.442c0,10.653,0,20.588,0,30.435c10.521,0,20.469,0,30.248,0
			c0-5.193,0-9.723,0-15.155c-5.162,0-9.909,0-15.554,0c0-5.653,0-10.393,0-15.278C351.273,496.442,346.955,496.442,341.818,496.442
			z M247.894,168.374c0,10.693,0,20.397,0,30.424c5.126,0,9.831,0,14.652,0c0-10.425,0-20.343,0-30.424
			C257.471,168.374,252.961,168.374,247.894,168.374z M528.114,511.574c0-10.887,0-20.796,0-30.456c-5.22,0-9.731,0-14.381,0
			c0,10.408,0,20.326,0,30.456C518.793,511.574,523.304,511.574,528.114,511.574z M185.606,43.327c0,5.542,0,10.254,0,14.881
			c5.16,0,9.668,0,14.487,0c0-5.136,0-9.845,0-14.881C195.096,43.327,190.587,43.327,185.606,43.327z M528.257,464.588
			c0-5.275,0-9.988,0-14.575c-5.289,0-10.002,0-14.662,0c0,5.148,0,9.656,0,14.575C518.501,464.588,523.009,464.588,528.257,464.588
			z"/>
		<path d="M122.438,11.737c0,36.073,0,72.148,0,108.814c-36.428,0-72.359,0-109.41,0c0-36.253,0-72.533,0-108.814
			C49.498,11.737,85.968,11.737,122.438,11.737z M29.052,104.911c26.208,0,51.746,0,77.073,0c0-26.152,0-51.693,0-77.092
			c-26.019,0-51.353,0-77.073,0C29.052,53.602,29.052,78.934,29.052,104.911z"/>
		<path d="M528.817,11.737c0,36.073,0,72.148,0,108.814c-36.428,0-72.358,0-109.409,0c0-36.253,0-72.533,0-108.814
			C455.878,11.737,492.348,11.737,528.817,11.737z M512.799,27.979c-26.225,0-51.763,0-77.072,0c0,26.157,0,51.698,0,77.078
			c26.024,0,51.358,0,77.072,0C512.799,79.27,512.799,53.938,512.799,27.979z"/>
		<path d="M294.484,89.752c-4.854,0-9.709,0-15.445,0c0-5.004,0-9.719,0-15.63c-5.91,0-10.979,0-16.048,0l0.238,0.254
			c0-5.29,0-10.581,0-15.871l-0.237,0.254c15.468,0,30.938,0,46.409,0c0-11.138,0-21.061,0-30.709c-5.335,0-10.056,0-15.355,0
			c0,5.205,0,9.721,0,14.39c-5.325,0-10.032,0-15.308,0c0-10.6,0-20.653,0-30.705c15.631,0,31.261,0,46.891,0
			c0,5.078,0,10.154,0,15.794c5.723,0,10.243,0,15.15,0c0,10.545,0,20.475,0,31.316c-5.204,0-9.938,0-15.284,0
			c0,5.78,0,10.654,0,15.526l0.255-0.237c-10.303,0-20.605,0-31.503,0c0,6.109,0,10.99,0,15.871L294.484,89.752z"/>
		<path fill="#FFFFFF" d="M325.494,74.374c0-4.873,0-9.747,0-15.526c5.347,0,10.08,0,15.284,0c0-10.841,0-20.771,0-31.316
			c-4.907,0-9.429,0-15.15,0c0-5.641,0-10.717,0-15.794c10.42,0,20.84,0,31.26,0c0,10.242,0,20.482,0,31.574
			c5.779,0,10.496,0,15.765,0c0,5.727,0,10.579,0,15.433c-5.098,0-10.193,0-15.886,0c0,5.878,0,10.756,0,15.633l0.242-0.241
			C346.504,74.214,335.999,74.294,325.494,74.374z"/>
		<path fill="#FFFFFF" d="M278.738,11.737c0,10.052,0,20.105,0,30.705c5.273,0,9.979,0,15.307,0c0-4.669,0-9.185,0-14.39
			c5.301,0,10.021,0,15.355,0c0,9.648,0,19.571,0,30.709c-15.473,0-30.94,0-46.41,0c0-10.312,0-20.621,0-31.277
			c-5.883,0-10.765,0-15.647,0c0.045-5.249,0.089-10.498,0.134-15.747C257.898,11.737,268.318,11.737,278.738,11.737z"/>
		<path d="M372.651,58.744c0-4.854,0-9.706,0-15.433c-5.269,0-9.984,0-15.765,0c0-11.092,0-21.332,0-31.574c5.21,0,10.42,0,15.63,0
			c0,5.069,0,10.14,0,15.513c6.035,0,10.899,0,15.766,0c0,4.851,0,9.703,0,15.421c4.985,0,9.698,0,14.951,0
			c0,10.746,0,20.628,0,31.452c-5.092,0-10.147,0-15.202,0l0.237,0.254c0-5.096,0-10.194,0-15.871c-6.118,0-10.995,0-15.872,0
			L372.651,58.744z"/>
		<path d="M153.841,27.461c-0.047-5.242-0.096-10.482-0.144-15.725c10.42,0,20.84,0,31.26,0c0,4.857,0,9.716,0,15.479
			c-10.801,0-21.082,0-31.363,0L153.841,27.461z"/>
		<path d="M247.478,11.737c-0.045,5.249-0.089,10.498-0.134,15.747l0.255-0.238c-5.291,0-10.582,0-15.873,0l0.255,0.238
			c-0.045-5.249-0.089-10.498-0.134-15.747C237.058,11.737,242.268,11.737,247.478,11.737z"/>
		<path fill="#FFFFFF" d="M388.282,27.25c-4.865,0-9.729,0-15.766,0c0-5.373,0-10.444,0-15.513c5.21,0,10.421,0,15.631,0
			c-0.04,5.25-0.08,10.501-0.121,15.75L388.282,27.25z"/>
		<path d="M388.026,27.487c0.041-5.249,0.081-10.5,0.121-15.75c5.21,0,10.42,0,15.63,0c0,4.852,0,9.706,0,15.75
			C398.194,27.487,393.11,27.487,388.026,27.487z"/>
		<path d="M106.927,230.424c-4.868,0-9.737,0-15.506,0c0-5.061,0-9.791,0-15.004c-10.823,0-20.744,0-31.265,0
			c0,4.84,0,9.357,0,14.786c-10.489,0-20.436,0-31.649,0c0,5.934,0,11.008,0,16.084l0.247-0.246c-4.877,0-9.755,0-15.176,0
			c0-15.523,0-30.675,0-46.291c4.708,0,9.23,0,14.682,0c0,4.579,0,9.316,0,14.61c5.634,0,10.359,0,15.706,0c0-4.669,0-9.199,0-14.67
			c10.516,0,20.48,0,31.004,0c0-5.636,0-10.351,0-15.727c-9.837,0-19.576,0-30.245,0c0-5.329,0-10.056,0-16.081
			c-5.979,0-11.074,0-16.168,0l0.246,0.246c0.002-5.276,0.005-10.552,0.008-15.827l-0.246,0.246c4.872,0,9.744,0,15.525,0
			c0-5.376,0-10.111,0-15.305c10.847,0,20.781,0,31.326,0c0,4.949,0,9.469,0,14.574c5.316,0,10.038,0,15.352,0
			c0.259-4.776,0.516-9.531,0.804-14.852c15.378,0,30.31,0,46.172,0c0-15.727,0-30.874,0-46.541c5.635,0,10.345,0,15.648,0
			c0,41.174,0,82.127,0,124.012c15.675,0,30.821,0,46.575,0c0,26.46,0,51.995,0,78.085c-9.886,0-19.81,0-30.346,0
			c0-4.729,0-9.25,0-14.429c-10.514,0-20.453,0-31.686,0c0,4.931,0,10.013,0,15.097l0.255-0.237c-5.291,0-10.582,0-15.873,0
			l0.255,0.237c0-4.873,0-9.746,0-15.521c-10.528,0-20.474,0-30.979,0c-0.277-5.6-0.511-10.338-0.765-15.448
			c-4.998,0-9.517,0-14.951,0c0,9.867,0,19.815,0,30.297c-16.017,0-31.131,0-46.736,0c0-4.649,0-9.153,0-14.594
			c9.663,0,19.601,0,30.451,0c0-10.808,0-20.741,0-31.609c16.383,0,31.858,0,47.333,0l-0.24-0.253c0,5.068,0,10.137,0,15.169
			c11.135,0,21.045,0,31.503,0c0-5.442,0-10.307,0-15.169l-0.243,0.241c5.093,0,10.187,0,16.159,0c0,5.748,0,10.482,0,15.048
			c5.452,0,9.973,0,14.651,0c0-10.398,0-20.33,0-30.919c-10.647,0-20.729,0-30.811,0l0.243,0.241c0-5.067,0-10.137,0-15.168
			c-11.135,0-21.045,0-31.503,0c0,5.442,0,10.306,0,15.168L106.927,230.424z M106.912,168.189c-5.075,0-10.148,0-15.09,0
			c0,10.906,0,20.818,0,30.698c10.359,0,20.067,0,30.129,0c0-5.127,0-9.836,0-15.448c-5.206,0-9.936,0-15.287,0
			c0-5.767,0-10.632,0.001-15.498c10.256,0,20.513,0,30.827,0c0-5.615,0-10.312,0-14.938c-10.486,0-20.39,0-30.581,0
			C106.912,158.461,106.912,163.325,106.912,168.189z"/>
		<path d="M341.375,464.872c-4.874,0-9.749,0-15.537,0c0-5.088,0-9.826,0-15.163c-5.422,0-9.947,0-15.41,0
			c0-10.507,0-20.459,0-31.324c-5.63,0-10.354,0-15.563,0c0-5.647,0-10.369,0-15.71c4.862,0,9.386,0,14.827,0
			c0-5.321,0-10.059,0-15.377c5.622-0.296,10.371-0.543,15.512-0.812c0-4.935,0-9.453,0-14.898c-4.654,0-9.389,0-14.662,0
			c0-10.841,0-20.777,0-31.17c4.723,0,9.242,0,14.688,0c0,4.584,0,9.314,0,15.313c5.96,0,11.054,0,16.146,0l-0.238-0.254
			c0,15.515,0,31.029,0,47.438c6.004,0,10.744,0,16.065,0c0,5.448,0,9.977,0,15.408c5.345,0,10.083,0,15.721,0
			c0,5.659,0,10.395,0,14.962c5.46,0,9.979,0,14.663,0c0-10.413,0-20.358,0-31.211c-5.301,0-10.039,0-14.605,0
			c0-5.452,0-9.971,0-15.396c31.241,0,62.036,0,93.185,0c0-5.806,0-10.688,0-15.568c5.097,0,10.193,0,15.885,0
			c0-5.879,0-10.756,0-15.635l-0.237,0.256c5.283,0.004,10.565,0.012,15.851,0.019l-0.247-0.247c0,4.875,0,9.751,0,15.541
			c5.396,0,10.145,0,15.477,0c0,5.412,0,9.949,0,15.404c5.322,0,10.059,0,15.359,0c0,5.635,0,10.359,0,15.715
			c-4.65,0-9.176,0-14.621,0c0,5.32,0,10.061,0,16.097c-11.193,0-21.495,0-31.796,0c-0.001-5.063-0.001-10.123-0.001-15.206
			c-5.642,0-10.338,0-14.919,0c0,5.283,0,9.982,0,14.96c5.465,0,10.316,0,15.166,0c0,4.869,0,9.738,0,15.503
			c-5.358,0-10.095,0-15.293,0c0,5.613,0,10.325,0,15.655c10.056,0,19.774,0,30.129,0c0,10.498,0,20.411,0,31.331
			c-4.956,0-10.03,0-15.104,0l0.238,0.255c0-5.069,0-10.141,0-15.157c-5.909,0-10.615,0-15.872,0c0,5.446,0,10.303,0,15.157
			l0.238-0.255c-4.856,0-9.712,0-15.448,0c0-5.006,0-9.723,0-14.963c-5.574,0-10.274,0-16.081,0c0,15.598,0,31.029,0,46.459
			l0.247-0.246c-5.275-0.001-10.553-0.005-15.828-0.008l0.246,0.247c0-10.021,0-20.038,0-30.948c-5.218,0-9.913,0-15.49,0
			c0-5.576,0-10.285,0-16.171c-5.901,0-10.966,0-16.028,0l0.238,0.255c0-5.058,0-10.115,0-15.978c-11.063,0-20.957,0-31.696,0
			c0-5.561,0-10.271,0-15.26c-5.714,0-10.563,0-15.411,0c-0.001-5.063-0.001-10.125-0.001-15.208c-5.64,0-10.337,0-14.918,0
			c0,5.283,0,9.981,0,14.962c5.465,0,10.314,0,15.166,0c-0.091,10.495-0.182,20.987-0.272,31.482L341.375,464.872z M404.433,402.832
			c0,15.94,0,31.062,0,46.119c15.572,0,30.484,0,45.733,0c0-15.544,0-30.662,0-46.119
			C434.754,402.832,419.842,402.832,404.433,402.832z"/>
		<path d="M263.225,449.242c-4.878,0-9.754,0-15.548,0c0-5.099,0-9.836,0-15.197c-15.847,0-30.791,0-46.688,0
			c0-10.53,0-20.481,0-30.987c-5.653,0-10.368,0-15.564,0c0,15.079,0,30.02,0,45.915c14.978,0,30.135,0,45.848,0
			c0,5.652,0,10.369,0,15.718c-4.649,0-9.175,0-14.621,0c0,5.317,0,10.059,0,15.794c-11.187,0-21.492,0-31.797,0l0.247,0.248
			c0-4.876,0-9.75,0-15.538c-5.393,0-10.141,0-15.459,0c0-5.434,0-9.963,0-15.43c-10.516,0-20.479,0-31.441,0
			c0-21.617,0-42.321,0-63.026l-0.253,0.238c15.444,0,30.889,0,46.455,0c0-5.789,0-10.486,0-16.041c-10.459,0-20.38,0-30.583,0
			c0-5.735,0-10.599,0-15.459l-0.243,0.24c10.303,0,20.606,0,31.502,0c0-6.113,0-10.992,0-15.871l-0.238,0.256
			c15.209,0,30.419,0,47.49,0c0,10.605,0,21.069-0.01,31.525c-5.426-0.105-10.841-0.201-16.255-0.297c0-5.053,0-10.104,0-15.171
			c-5.589,0-10.281,0-14.874,0c0,5.274,0,9.969,0,14.925c5.441,0,10.282,0,15.122,0c0,5.047,0,10.096,0,15.25
			c5.59,0,10.276,0,15.751,0c0-5.32,0-10.127,0-14.932c4.85,0,9.699,0,15.138,0c0,5.076,0,9.607,0,14.798c5.312,0,10.037,0,15.349,0
			c0-9.796,0-19.739,0-30.312c-4.703,0-9.224,0-14.411,0c0-5.324,0-10.054,0-15.361c9.775,0,19.714,0,30.315,0
			c0,9.896,0,19.631,0,30.291c5.346,0,10.068,0,15.352,0c0,5.65,0,10.375,0,15.73c-4.675,0-9.201,0-14.646,0
			c0,5.318,0,10.059,0,15.734c-10.845,0-20.803,0-31.212,0c0,5.435,0,9.963,0,15.434c9.721,0,19.686,0,30.654,0
			c0,5.975,0,11.061,0,16.146l0.256-0.237c-5.1,0-10.195,0-15.873,0c0,6.114,0,10.993,0,15.871L263.225,449.242z M231.155,417.806
			c0-5.653,0-10.364,0-14.855c-5.211,0-9.727,0-14.398,0c0,5.187,0,9.896,0,14.855C221.804,417.806,226.311,417.806,231.155,417.806
			z"/>
		<path d="M372.4,121.281c5.282,0.005,10.566,0.012,15.85,0.017l-0.245-0.246c0,4.874,0,9.75,0,15.526c20.985,0,41.346,0,62.31,0
			c0,5.402,0,9.918,0,15.133c5.315,0,10.038,0,15.699,0c0-4.459,0-9.194,0-14.426c5.633,0,10.354,0,15.696,0
			c0,4.818,0,9.342,0,14.492c5.313,0,10.036,0,15.487,0c0.222-4.644,0.446-9.406,0.692-14.558c4.938,0,9.469,0,14.929,0
			c0,9.779,0,19.739,0,30.604c5.606,0,10.354,0,15.527,0c0,16.066,0,31.204,0,46.956c-4.928,0-9.458,0-14.563,0
			c0,5.315,0,10.039,0,15.36c4.753,0.261,9.509,0.524,14.622,0.804c0,20.579,0,40.709,0,61.489c-9.894,0-19.819,0-30.457,0
			c-0.238-4.646-0.48-9.386-0.753-14.709c-4.889,0-9.422,0-14.87,0c0-5.313,0-10.047,0-16.041c-5.957,0-11.05,0-16.145,0
			l0.238,0.254c0-5.071,0-10.14,0-16.068c10.903,0,20.836,0,30.752,0c0-5.412,0-9.921,0-15.33c-10.279,0-20.212,0-31.017,0
			c0-10.802,0-20.725,0-30.668c-10.838,0-20.756,0-31.238,0c0,5.439,0,10.308,0,15.175l0.243-0.241c-5.291,0-10.582,0-15.873,0
			l0.243,0.241c0.03-10.401,0.063-20.803,0.096-31.204c10.259,0,20.519,0,30.598,0c0-6.024,0-10.545,0-15.47
			c-5.156-0.248-9.9-0.475-15.508-0.745c0-5.376,0-10.103,0-14.823c-5.427,0-9.937,0-14.824,0c0,10.681,0,20.976-0.011,31.262
			c-5.415-0.18-10.818-0.351-16.224-0.521l0.243,0.241c0-5.097,0-10.194,0-16.161c-5.993,0-10.729,0-16.057,0
			c0-5.451,0-9.97,0-15.401c-10.562,0-20.521,0-30.835,0c0-5.805,0-10.688,0-15.569l-0.242,0.241c5.099,0,10.195,0,15.872,0
			c0-6.114,0-10.993,0-15.871L372.4,121.281z M481.566,183.889c0.265,5.295,0.5,10.03,0.74,14.854c10.536,0,20.452,0,30.243,0
			c0-5.295,0-10.008,0-15.298c-5.149,0-9.665,0-14.646,0c-0.254-5.286-0.481-10.033-0.713-14.853c-10.55,0-20.467,0-30.259,0
			c0,5.288,0,10.004,0,15.297C472.085,183.889,476.601,183.889,481.566,183.889z"/>
		<path d="M466.181,261.683c-0.005,10.502-0.011,21.008-0.017,31.51l0.255-0.236c-5.065,0-10.13,0-16.044,0
			c0,5.859,0,10.579,0,16.086c-10.782,0-20.685,0-30.833,0c0,5.704,0,10.559,0,15.411c-5.089,0-10.178,0-15.647,0
			c0,11.108,0,21.192,0,31.276c-20.92-0.084-41.838-0.17-62.758-0.254l0.238,0.254c0-20.496,0-40.989,0-62.068
			c10.32,0,20.251,0,30.665,0c0,4.631,0,9.146,0,14.604c-4.509,0-9.249,0-14.566,0c0,5.627,0,10.351,0,15.713
			c4.591,0,9.114,0,14.565,0c0,5.314,0,10.051,0,15.386c5.629,0,10.354,0,16.028,0c0-9.957,0-19.919,0-30.464
			c5.438,0,9.963,0,15.402,0c0-5.324,0-10.064,0-15.379c5.629-0.297,10.387-0.547,15.71-0.828c0-4.918,0-9.457,0-14.898
			c5.321,0,10.059,0,15.323,0c0-10.85,0-20.79,0-31.17c-4.763,0-9.28,0-14.727,0c0,4.637,0,9.374,0,15.035
			c-16.047,0-31.216,0-46.976,0c0,5.429,0,9.947,0,15.13c-5.318,0-10.043,0-15.781,0c0-20.55,0-41.265,0-61.978l-0.255,0.237
			c5.068,0,10.137,0,16.043,0c0,5.647,0,10.362,0,15.367c5.729,0,10.581,0,15.435,0c0,5.063,0,10.123,0,15.206
			c5.642,0,10.338,0,14.919,0c0-5.283,0-9.982,0-14.96c-5.465,0-10.314,0-15.166,0c0-10.263,0-20.523,0-31.65
			c-5.603,0-10.322,0-15.357,0c0-5.746,0-10.604,0-15.464l-0.241,0.241c10.501,0,21.002,0,31.503,0l-0.243-0.241
			c0,10.302,0,20.604,0,31.501c6.114,0,10.993,0,15.873,0l-0.243-0.241c0,5.069,0,10.14,0,15.157c5.91,0,10.616,0,15.873,0
			c0-5.442,0-10.299,0-15.157l-0.243,0.241c5.07,0,10.141,0,16.036,0c0,16.097,0,31.221,0,46.89c5.731,0,10.6,0,15.467,0
			L466.181,261.683z"/>
		<path d="M121.819,527.145c-36.356,0-72.109,0-108.325,0c0-36.129,0-71.882,0-108.332c35.785,0,71.743,0,108.325,0
			C121.819,454.523,121.819,490.479,121.819,527.145z M29.042,511.279c26.238,0,51.777,0,77.072,0c0-26.162,0-51.702,0-77.07
			c-26.029,0-51.362,0-77.072,0C29.042,460.003,29.042,485.334,29.042,511.279z"/>
		<path d="M231.714,152.29c0,15.291,0,30.583,0,46.437c-5.127,0-9.843,0-15.192,0c0-4.652,0-9.19,0-14.392
			c-5.321,0-10.048,0-15.716,0c0,4.557,0,9.3,0,14.488c-10.644,0-20.376,0-30.796,0c0-30.61,0-61.377,0-93.173
			c4.893,0,9.979,0,15.066,0l-0.238-0.254c0,5.069,0,10.14,0,15.157c5.91,0,10.616,0,15.873,0c0-5.442,0-10.299,0-15.157
			l-0.242,0.241c5.29-0.085,10.579-0.17,15.868-0.254c0,5.096,0,10.192,0,15.884c5.878,0,10.756,0,15.634,0l-0.255-0.237
			c0,5.288,0,10.576,0,15.864l0.255-0.237c-5.095,0-10.19,0-15.608,0c0,6.104,0,10.975,0,15.847
			c-5.199-0.105-10.398-0.21-15.597-0.314c0-5.021,0-10.042,0-14.733c-6.154,0-10.847,0-15.38,0c0,5.18,0,9.667,0,14.467
			c5.479,0,10.546,0,15.604,0.01c-0.009,5.266-0.009,10.52-0.009,15.447c5.597,0,10.271,0,15.137,0c0-5.478,0-10.301,0-15.125
			c5.285,0.09,10.569,0.181,15.854,0.271L231.714,152.29z"/>
		<path d="M357.021,214.81c-4.868,0-9.736,0-15.504,0c0-5.059,0-9.788,0-15.374c-21.2,0-41.523,0-62.305,0c0-5.349,0-9.862,0-15.279
			c4.479,0,9.211,0,14.844,0c0-10.792,0-20.731,0-31.616c11.147,0,21.417,0,31.688,0l-0.238-0.254
			c0.088,5.281,0.176,10.564,0.266,15.845c-5.063,0.002-10.124,0.002-15.207,0.002c0,5.644,0,10.338,0,14.917
			c5.288,0,9.983,0,14.961,0c0-5.464,0-10.314,0-15.165c15.505,0,31.012,0,46.871,0c0,6.146,0,11.023,0,15.901l0.241-0.241
			c-5.088,0-10.177,0-15.872,0c0,11.341,0,21.422,0,31.501L357.021,214.81z"/>
		<path d="M294.271,480.78c4.871,0,9.74,0,15.52,0c0,5.081,0,9.815,0,15.151c5.399,0,9.931,0,15.149,0c0,10.507,0,20.434,0,30.983
			c-9.687,0-19.608,0-30.151,0c-0.266-4.729-0.532-9.467-0.82-14.594c-20.527,0-40.648,0-61.702,0c0,4.63,0,9.348,0,14.634
			c-5.634,0-10.353,0-15.567,0c0-10.047,0-19.976,0-30.518c4.898,0,9.417,0,14.849,0c0-5.313,0-10.045,0-15.285
			c5.625,0,10.345,0,15.673,0c0,4.787,0,9.313,0,14.478c15.716,0,30.853,0,47.297,0c0-4.938,0-10.019,0-15.097L294.271,480.78z"/>
		<path d="M325.494,89.77c0.092,5.281,0.185,10.561,0.277,15.842c-5.063,0.002-10.125,0.002-15.207,0.002c0,5.644,0,10.34,0,14.917
			c5.281,0,9.98,0,14.961,0c0-5.461,0-10.313,0-15.165c4.852,0,9.703,0,15.437,0c0,5.296,0,10.015,0,15.915
			c5.907,0,10.976,0,16.043,0l-0.238-0.254c0,5.29,0,10.581,0,15.871l0.242-0.241c-5.068,0-10.14,0-16.052,0
			c0,5.895,0,10.611,0,15.63c-5.739,0-10.595,0-15.45,0l0.238,0.254c0-4.871,0-9.743,0-15.509c-10.479,0-20.415,0-31.261,0
			c0-16.346,0-31.813,0-47.279l-0.238,0.254c10.501,0,21.002,0,31.503,0L325.494,89.77z"/>
		<path d="M137.934,293.193c4.881,0,9.761,0,15.63,0c0,10.646,0,20.953,0,31.26l0.255-0.237c-5.07,0-10.14,0-15.157,0
			c0,5.909,0,10.615,0,15.871c5.442,0,10.299,0,15.157,0l-0.243-0.241c0,5.291,0,10.581,0,15.871l0.243-0.24
			c-10.5,0-21.002,0-31.502,0l0.242,0.24c0-5.068,0-10.14,0-15.156c-5.91,0-10.616,0-15.873,0c0,5.445,0,10.301,0,15.156
			l0.238-0.254c-4.877,0-9.755,0-15.613,0c0-10.636,0-20.938,0-31.242l-0.255,0.236c10.303,0,20.606,0,31.502,0
			c0-6.114,0-10.993,0-15.871l-0.242,0.241c5.098,0,10.195,0,15.873,0c0-6.114,0-10.993,0-15.871L137.934,293.193z"/>
		<path d="M44.171,355.73c10.078,0,20.156,0,31.243,0c0,5.444,0,10.527,0,15.612l0.255-0.237c-5.098,0-10.195,0-15.873,0
			c0,6.119,0,10.994,0,15.871l0.238-0.254c-4.862,0-9.723,0-15.476,0c0,5.301,0,10.028,0,15.249c-5.594,0-10.303,0-15.615,0
			c0-4.749,0-9.26,0-14.663c-5.281,0-10.005,0-15.323,0c0-10.781,0-20.69,0-31.578c5.02,0,10.087,0,15.153,0l-0.238-0.256
			c0,5.069,0,10.142,0,15.157c5.91,0,10.616,0,15.873,0c0-5.442,0-10.3,0-15.157L44.171,355.73z"/>
		<path d="M247.344,27.484c4.882,0,9.764,0,15.647,0c0,10.656,0,20.965,0,31.277c0.001,0,0.238-0.254,0.238-0.254
			c-10.264,0-20.528,0-31.663,0c0,5.863,0,10.589,0,15.63c-5.749,0-10.609,0-15.47,0l0.255,0.237c0-15.289,0-30.578,0-46.89
			c5.454,0,10.542,0,15.63,0l-0.255-0.238c0,5.069,0,10.14,0,15.157c5.91,0,10.616,0,15.873,0c0-5.446,0-10.302,0-15.157
			L247.344,27.484z"/>
		<path d="M153.604,496.409c5.28-0.004,10.561-0.006,15.841-0.009l-0.238-0.256c0,5.069,0,10.142,0,15.157c5.91,0,10.617,0,15.873,0
			c0-5.444,0-10.301,0-15.157l-0.238,0.256c4.874,0,9.749,0,15.182,0c0,10.263,0,20.191,0,30.627c-20.444,0-40.764,0-61.52,0
			c0-4.802,0-9.308,0-14.742c4.615,0,9.343,0,15.348,0c0-5.953,0-11.038,0-16.122L153.604,496.409z"/>
		<path d="M466.164,293.193c4.884,0,9.769,0,15.646,0c0,21.086,0,41.811,0,62.537l0.238-0.256
			c-5.295,0.078-10.59,0.158-15.885,0.238c0.085-20.92,0.17-41.84,0.255-62.758L466.164,293.193z"/>
		<path d="M28.563,324.479c10.486,0.004,20.972,0.008,31.458,0.012l-0.246-0.248c0,4.854,0,9.703,0,15.438c-5.011,0-9.73,0-15.604,0
			c0,5.91,0,10.979,0,16.051l0.238-0.254c-5.291,0-10.582,0-15.873,0l0.238,0.254c0.011-10.5,0.023-20.998,0.035-31.496
			L28.563,324.479z"/>
		<path d="M153.289,43.48c4.882,0,9.765,0,15.345,0c0,9.679,0,19.599,0,30.154c-9.642,0-19.556,0-30.023,0c0-4.681,0-9.389,0-14.721
			c4.708,0,9.224,0,14.912,0c0-5.617,0-10.659,0.009-15.709C153.54,43.193,153.289,43.48,153.289,43.48z"/>
		<path d="M231.714,136.894c15.262,0,30.524,0,46.403,0c0,5.035,0,9.742,0,15.396c-15.438,0-30.921,0-46.403,0l0.255,0.237
			c0-5.29,0-10.581,0-15.871L231.714,136.894z"/>
		<path d="M185.075,105.65c0-10.082,0-20.165,0-31.277c10.685,0,20.981,0,31.277,0l-0.255-0.237
			c0.085,5.288,0.17,10.578,0.255,15.868c-5.097,0-10.194,0-15.885,0c0,5.878,0,10.755,0,15.633l0.242-0.241
			c-5.291,0-10.582,0-15.873,0L185.075,105.65z"/>
		<path d="M419.305,511.744c0,4.877,0,9.755,0,15.205c-10.267,0-20.195,0-30.645,0c0-10.004,0-19.92,0-30.264
			c4.814,0,9.327,0,14.756,0c0,4.657,0,9.387,0,15.306c5.95,0,11.042,0,16.134,0C419.551,511.991,419.305,511.744,419.305,511.744z"
			/>
		<path d="M388.031,464.872c0,4.869,0,9.74,0,15.186c-15.437,0-30.55,0-46.656,0c0-5.04,0-10.111,0-15.186l-0.238,0.255
			c15.71,0,31.422,0,47.133,0L388.031,464.872z"/>
		<path d="M153.564,324.453c4.854,0,9.708,0,15.44,0c0-5.221,0-9.95,0-15.2c5.563,0,10.262,0,15.837,0c0,10.356,0,20.603,0,30.849
			l0.238-0.256c-10.5,0-21.002,0-31.502,0l0.243,0.241c0-5.29,0-10.581,0-15.871L153.564,324.453z"/>
		<path d="M341.818,496.442c5.137,0,9.455,0,14.694,0c0,4.887,0,9.625,0,15.278c5.645,0,10.392,0,15.554,0c0,5.434,0,9.962,0,15.155
			c-9.779,0-19.729,0-30.248,0C341.818,517.03,341.818,507.097,341.818,496.442z"/>
		<path d="M262.991,74.123c-0.011,10.5-0.023,20.998-0.035,31.498l0.247-0.246c-5.28,0.002-10.562,0.005-15.842,0.009l0.238,0.254
			c0-10.305,0-20.611,0-31.26c5.873,0,10.751,0,15.63,0L262.991,74.123z"/>
		<path d="M91.312,308.823c0-4.882,0-9.763,0-15.63c10.643,0,20.952,0,31.26,0l-0.255-0.237c0,5.29,0,10.581,0,15.871l0.242-0.241
			c-10.5,0-21.002,0-31.502,0L91.312,308.823z"/>
		<path d="M325.494,74.374c10.505-0.08,21.01-0.159,31.515-0.237c0,4.879,0,9.758,0,15.633c-10.896,0-21.206,0-31.515,0l0.255,0.237
			c0-5.29,0-10.581,0-15.871L325.494,74.374z"/>
		<path d="M60.021,324.489c0-4.888,0-9.775,0-15.666c10.663,0,20.977,0,31.291,0l-0.255-0.237c0,5.29,0,10.581,0,15.871l0.255-0.236
			c-10.513,0.006-21.024,0.014-31.537,0.021L60.021,324.489z"/>
		<path d="M153.851,496.163c-4.864,0-9.728,0-15.187,0c0-10.191,0-20.094,0-30.582c4.627,0,9.324,0,14.939,0
			c0,10.315,0,20.57,0,30.828C153.604,496.409,153.851,496.163,153.851,496.163z"/>
		<path d="M106.927,246.319c0-5.298,0-10.596,0-15.895l-0.24,0.252c10.501,0,21.002,0,31.503,0l-0.243-0.241
			c0,5.29,0,10.581,0,15.871l0.243-0.241c-10.501,0-21.002,0-31.503,0L106.927,246.319z"/>
		<path d="M247.894,168.374c5.067,0,9.577,0,14.652,0c0,10.081,0,19.999,0,30.424c-4.821,0-9.526,0-14.652,0
			C247.894,188.771,247.894,179.067,247.894,168.374z"/>
		<path d="M482.022,511.752c-4.875,0-9.749,0-15.607,0c0-10.641,0-20.945,0-31.25l-0.238,0.255c5.29,0,10.582,0,15.872,0
			l-0.238-0.255c-0.011,10.5-0.021,20.998-0.033,31.498L482.022,511.752z"/>
		<path d="M528.114,511.574c-4.812,0-9.321,0-14.381,0c0-10.13,0-20.048,0-30.456c4.648,0,9.16,0,14.381,0
			C528.114,490.778,528.114,500.688,528.114,511.574z"/>
		<path d="M497.661,355.749c0-4.864,0-9.728,0-15.187c10.19,0,20.095,0,30.582,0c0,4.627,0,9.322,0,14.938
			c-10.315,0-20.571,0-30.829,0L497.661,355.749z"/>
		<path d="M153.595,27.216c-0.097,5.414-0.192,10.829-0.297,16.254c-0.009,0.01,0.242-0.276,0.233-0.266
			c-4.817,0.01-9.626,0.01-14.939,0.01c0-5.477,0-10.162,0-15.75c5.153,0,10.201,0,15.25-0.002L153.595,27.216z"/>
		<path d="M185.606,43.327c4.981,0,9.49,0,14.487,0c0,5.036,0,9.745,0,14.881c-4.818,0-9.327,0-14.487,0
			C185.606,53.581,185.606,48.87,185.606,43.327z"/>
		<path d="M28.81,324.232c-4.85,0-9.702,0-15.165,0c0-4.978,0-9.678,0-14.959c4.577,0,9.272,0,14.917,0
			c0,5.082,0,10.143,0.001,15.205L28.81,324.232z"/>
		<path d="M356.767,74.377c0-4.877,0-9.755,0-15.633c5.691,0,10.788,0,15.886,0l-0.255-0.237c0,5.29,0,10.581,0,15.871l0.237-0.254
			C367.345,74.208,362.057,74.292,356.767,74.377z"/>
		<path d="M388.031,74.123c0,4.859,0,9.718,0,15.169c-5.017,0-9.722,0-15.396,0c0-5.022,0-10.095,0-15.169l-0.237,0.254
			c5.29,0,10.581,0,15.872,0L388.031,74.123z"/>
		<path d="M247.361,105.383c0,4.881,0,9.76,0,15.647c-5.451,0-10.549,0-15.647,0l0.255,0.237c-0.08-5.295-0.159-10.59-0.238-15.884
			c5.289,0.084,10.579,0.169,15.868,0.254L247.361,105.383z"/>
		<path d="M262.956,105.62c4.853,0,9.703,0,15.166,0c0,4.974,0,9.67,0,14.96c-4.581,0-9.276,0-14.918,0c0-5.083,0-10.144,0-15.206
			C263.203,105.374,262.956,105.62,262.956,105.62z"/>
		<path d="M122.557,371.094c-4.879,0-9.758,0-15.632,0c0-5.438,0-10.535,0-15.631l-0.238,0.254c5.291,0,10.582,0,15.873,0
			l-0.242-0.24c0,5.289,0,10.582,0,15.871L122.557,371.094z"/>
		<path d="M357.005,121.281c0-4.861,0-9.72,0-15.169c5.018,0,9.727,0,15.396,0c0,5.022,0,10.094,0,15.169l0.237-0.254
			c-5.29,0-10.582,0-15.872,0L357.005,121.281z"/>
		<path d="M388.25,121.297c0-4.85,0-9.703,0-15.165c4.979,0,9.679,0,14.961,0c0,4.581,0,9.277,0,14.917
			c-5.082,0-10.144,0-15.206,0.002L388.25,121.297z"/>
		<path d="M75.414,371.344c4.857,0,9.714,0,15.166,0c0,5.012,0,9.721,0,15.379c-5.009,0-10.079,0-15.149,0l0.238,0.254
			c0-5.289,0-10.58,0-15.869L75.414,371.344z"/>
		<path d="M138.2,386.736c-5.288-0.01-10.577-0.021-15.865-0.031l0.246,0.246c-0.008-5.286-0.016-10.57-0.024-15.857l-0.24,0.254
			c5.094,0,10.188,0,15.63,0c0,5.877,0,10.754,0,15.629L138.2,386.736z"/>
		<path d="M75.431,386.723c0,4.858,0,9.719,0,15.169c-5.017,0-9.726,0-15.396,0c0-5.021,0-10.095,0-15.169l-0.238,0.254
			c5.291,0,10.582,0,15.873,0L75.431,386.723z"/>
		<path d="M122.335,386.705c0,4.852,0,9.701,0,15.166c-4.979,0-9.678,0-14.961,0c0-4.581,0-9.277,0-14.918
			c5.082,0,10.145,0,15.207-0.002L122.335,386.705z"/>
		<path d="M28.809,152.305c-4.852,0-9.703,0-15.166,0c0-4.979,0-9.679,0-14.962c4.581,0,9.277,0,14.918,0c0,5.083,0,10.146,0,15.208
			C28.563,152.551,28.809,152.305,28.809,152.305z"/>
		<path d="M278.604,433.863c4.857,0,9.715,0,15.166,0c0,5.012,0,9.72,0,15.379c-5.008,0-10.078,0-15.147,0l0.237,0.255
			c0-5.29,0-10.581,0-15.871L278.604,433.863z"/>
		<path d="M28.555,167.886c0,4.851,0,9.701,0,15.165c-4.976,0-9.672,0-14.961,0c0-4.581,0-9.277,0-14.917
			c5.082,0,10.145,0,15.207-0.002L28.555,167.886z"/>
		<path d="M278.621,449.242c0.098,5.184,0.193,10.364,0.283,15.558c-0.01,0.01,0.242-0.275,0.242-0.275c-5.037,0-10.075,0-15.921,0
			c0-5.229,0-10.255,0-15.281l-0.238,0.255c5.291,0,10.582,0,15.873,0L278.621,449.242z"/>
		<path d="M528.257,464.588c-5.248,0-9.756,0-14.662,0c0-4.919,0-9.427,0-14.575c4.66,0,9.373,0,14.662,0
			C528.257,454.6,528.257,459.313,528.257,464.588z"/>
		<path d="M294.52,480.534c-4.826,0-9.653,0-15.392,0c0-5.468,0-10.729,0.011-15.999c0.008-0.012-0.244,0.273-0.234,0.265
			c4.826-0.011,9.644-0.011,15.369-0.011c0,5.866,0,10.928,0,15.991L294.52,480.534z"/>
		<path d="M184.854,480.483c-0.004,5.307-0.009,10.611-0.014,15.917l0.238-0.256c-5.291,0-10.582,0-15.873,0l0.238,0.256
			c0-4.991,0-9.982,0-15.669c5.671,0,10.664,0,15.656,0C185.101,480.731,184.854,480.483,184.854,480.483z"/>
		<path d="M28.506,246.29c4.85,0,9.702,0,15.165,0c0,4.978,0,9.677,0,14.96c-4.58,0-9.276,0-14.917,0c0-5.083,0-10.144-0.001-15.206
			L28.506,246.29z"/>
		<path d="M434.886,511.998c4.854,0,9.704,0,15.166,0c0,4.978,0,9.672,0,14.962c-4.58,0-9.275,0-14.918,0c0-5.083,0-10.146,0-15.208
			C435.133,511.752,434.886,511.998,434.886,511.998z"/>
		<path d="M481.776,512c4.851,0,9.7,0,15.166,0c0,4.979,0,9.677,0,14.96c-4.581,0-9.277,0-14.919,0c0-5.083,0-10.144,0-15.206
			C482.022,511.752,481.776,512,481.776,512z"/>
		<path fill="#FFFFFF" d="M29.052,104.911c0-25.977,0-51.31,0-77.092c25.72,0,51.055,0,77.073,0c0,25.399,0,50.94,0,77.092
			C80.798,104.911,55.26,104.911,29.052,104.911z M44.451,89.34c15.897,0,31.014,0,46.105,0c0-15.672,0-30.792,0-45.645
			c-15.754,0-30.877,0-46.105,0C44.451,59.102,44.451,73.811,44.451,89.34z"/>
		<path fill="#FFFFFF" d="M512.799,27.979c0,25.958,0,51.291,0,77.078c-25.714,0-51.048,0-77.072,0c0-25.38,0-50.921,0-77.078
			C461.036,27.979,486.574,27.979,512.799,27.979z M451.073,89.292c15.756,0,30.875,0,45.813,0c0-15.725,0-30.846,0-45.854
			c-15.588,0-30.502,0-45.813,0C451.073,58.786,451.073,73.7,451.073,89.292z"/>
		<path fill="#FFFFFF" d="M247.599,105.637c-5.29-0.085-10.58-0.17-15.868-0.254l0.238,0.254c0-5.097,0-10.195,0-15.871
			c-6.119,0-10.996,0-15.873,0l0.255,0.238c-0.085-5.29-0.17-10.58-0.255-15.868c4.86,0,9.721,0,15.47,0c0-5.041,0-9.767,0-15.63
			c11.135,0,21.399,0,31.663,0c0,5.29,0,10.581,0,15.871c-4.878,0-9.757,0-15.63,0C247.599,85.026,247.599,95.333,247.599,105.637z"
			/>
		<path fill="#FFFFFF" d="M325.749,74.136c0,5.29,0,10.581,0,15.871c-10.501,0-21.002,0-31.503,0c0-4.881,0-9.762,0-15.871
			C305.145,74.136,315.446,74.136,325.749,74.136z"/>
		<path fill="#FFFFFF" d="M388.27,74.377c-5.291,0-10.582,0-15.872,0c0-5.29,0-10.581,0-15.871c4.877,0,9.754,0,15.872,0
			C388.27,64.183,388.27,69.281,388.27,74.377z"/>
		<path fill="#FFFFFF" d="M247.599,27.246c0,4.855,0,9.711,0,15.157c-5.257,0-9.963,0-15.873,0c0-5.017,0-10.088,0-15.157
			C237.017,27.246,242.309,27.246,247.599,27.246z"/>
		<path fill="#FFFFFF" d="M106.665,167.941c0,4.866,0,9.731,0,15.498c5.351,0,10.081,0,15.287,0c0,5.612,0,10.321,0,15.448
			c-10.062,0-19.771,0-30.129,0c0-9.88,0-19.792,0-30.698c4.942,0,10.015,0,15.09,0L106.665,167.941z"/>
		<path fill="#FFFFFF" d="M137.947,246.307c0-5.29,0-10.582,0-15.871c10.082,0,20.163,0,30.811,0c0,10.59,0,20.521,0,30.919
			c-4.678,0-9.2,0-14.651,0c0-4.566,0-9.301,0-15.048C148.133,246.307,143.04,246.307,137.947,246.307z"/>
		<path fill="#FFFFFF" d="M106.912,168.189c0-4.864,0-9.729,0-15.186c10.191,0,20.094,0,30.581,0c0,4.626,0,9.323,0,14.938
			c-10.314,0-20.57,0-30.827,0C106.665,167.941,106.912,168.189,106.912,168.189z"/>
		<path fill="#FFFFFF" d="M138.189,230.677c-10.501,0-21.002,0-31.503,0c0-4.862,0-9.726,0-15.168c10.458,0,20.368,0,31.503,0
			C138.189,220.54,138.189,225.609,138.189,230.677z"/>
		<path fill="#FFFFFF" d="M106.687,246.066c10.501,0,21.002,0,31.503,0c0,4.862,0,9.727,0,15.169c-10.458,0-20.368,0-31.503,0
			C106.687,256.203,106.687,251.134,106.687,246.066z"/>
		<path fill="#FFFFFF" d="M122.317,308.827c0-5.29,0-10.581,0-15.871c5.291,0,10.582,0,15.873,0c0,4.878,0,9.757,0,15.871
			C132.512,308.827,127.415,308.827,122.317,308.827z"/>
		<path fill="#FFFFFF" d="M466.419,292.956c-0.085,20.918-0.17,41.838-0.255,62.758l0.255-0.237c-5.07,0-10.14,0-15.157,0
			c0,5.908,0,10.614,0,15.871c5.446,0,10.303,0,15.157,0l-0.255-0.238c0,4.884,0,9.765,0,15.57c-31.147,0-61.942,0-93.186,0
			c0,5.424,0,9.942,0,15.396c4.567,0,9.307,0,14.606,0c0,10.853,0,20.798,0,31.211c-4.685,0-9.203,0-14.663,0
			c0-4.567,0-9.303,0-14.962c-5.638,0-10.376,0-15.721,0c0-5.433,0-9.96,0-15.408c-5.321,0-10.063,0-16.065,0
			c0-16.409,0-31.925,0-47.439c20.92,0.086,41.838,0.17,62.758,0.256l-0.237-0.256c0,5.069,0,10.142,0,15.157
			c5.91,0,10.615,0,15.873,0c0-5.444,0-10.301,0-15.157l-0.243,0.241c5.099,0,10.196,0,16.163,0c0-5.993,0-10.729,0-16.054
			c5.454,0,9.979,0,14.649,0c0-5.352,0-10.066,0-15.447c-10.645,0-20.729,0-30.813,0l0.256,0.237c0-4.854,0-9.707,0-15.411
			c10.148,0,20.051,0,30.833,0c0-5.507,0-10.227,0-16.086C456.289,292.956,461.354,292.956,466.419,292.956z"/>
		<path fill="#FFFFFF" d="M404.433,402.832c15.409,0,30.321,0,45.733,0c0,15.457,0,30.575,0,46.119c-15.249,0-30.161,0-45.733,0
			C404.433,433.894,404.433,418.772,404.433,402.832z M419.738,433.099c5.543,0,10.255,0,14.881,0c0-5.161,0-9.669,0-14.486
			c-5.136,0-9.846,0-14.881,0C419.738,423.611,419.738,428.117,419.738,433.099z"/>
		<path fill="#FFFFFF" d="M388.27,465.127c-15.711,0-31.423,0-47.133,0c0.091-10.495,0.183-20.987,0.272-31.482l-0.247,0.246
			c4.849,0,9.697,0,15.411,0c0,4.987,0,9.699,0,15.26c10.739,0,20.635,0,31.695,0C388.27,455.012,388.27,460.069,388.27,465.127z"/>
		<path fill="#FFFFFF" d="M466.164,355.714c5.295-0.08,10.59-0.159,15.885-0.237c0,4.877,0,9.756,0,15.633
			c-5.69,0-10.788,0-15.885,0l0.255,0.238c0-5.289,0-10.582,0-15.871L466.164,355.714z"/>
		<path fill="#FFFFFF" d="M482.079,418.013c-4.851,0-9.701,0-15.166,0c0-4.978,0-9.677,0-14.96c4.581,0,9.277,0,14.919,0
			c0,5.083,0,10.145,0.001,15.206L482.079,418.013z"/>
		<path fill="#FFFFFF" d="M341.409,433.645c-4.852,0-9.701,0-15.166,0c0-4.979,0-9.679,0-14.962c4.581,0,9.278,0,14.918,0
			c0,5.083,0,10.146,0.001,15.208L341.409,433.645z"/>
		<path fill="#FFFFFF" d="M482.049,480.757c-5.29,0-10.582,0-15.872,0c0-4.854,0-9.711,0-15.157c5.257,0,9.963,0,15.872,0
			C482.049,470.616,482.049,475.688,482.049,480.757z"/>
		<path fill="#FFFFFF" d="M137.947,386.977c0-4.875,0-9.752,0-15.629c-5.442,0-10.536,0-15.63,0c0-5.289,0-10.582,0-15.871
			c10.5,0,21.002,0,31.502,0c0,4.86,0,9.724,0,15.459c10.202,0,20.124,0,30.583,0c0,5.555,0,10.252,0,16.041
			C168.836,386.977,153.391,386.977,137.947,386.977z"/>
		<path fill="#FFFFFF" d="M153.577,339.846c10.5,0,21.002,0,31.502,0c0,4.879,0,9.758,0,15.871c-10.896,0-21.199,0-31.502,0
			C153.577,350.427,153.577,345.136,153.577,339.846z"/>
		<path fill="#FFFFFF" d="M216.313,371.084c-4.839,0-9.68,0-15.121,0c0-4.956,0-9.65,0-14.925c4.593,0,9.285,0,14.874,0
			c0,5.067,0,10.118,0,15.171L216.313,371.084z"/>
		<path fill="#FFFFFF" d="M216.066,371.33c5.415,0.095,10.829,0.191,16.255,0.297c0.01,0.008-0.277-0.243-0.267-0.234
			c0.01,4.814,0.01,9.621,0.01,14.941c-5.476,0-10.161,0-15.751,0c0-5.154,0-10.203,0-15.25L216.066,371.33z"/>
		<path fill="#FFFFFF" d="M231.155,417.806c-4.845,0-9.351,0-14.398,0c0-4.96,0-9.67,0-14.855c4.671,0,9.187,0,14.398,0
			C231.155,407.44,231.155,412.151,231.155,417.806z"/>
		<path fill="#FFFFFF" d="M278.859,449.497c-5.291,0-10.583,0-15.874,0c0-4.878,0-9.757,0-15.871c5.677,0,10.774,0,15.874,0
			C278.859,438.916,278.859,444.207,278.859,449.497z"/>
		<path fill="#FFFFFF" d="M466.419,261.937c-4.867,0-9.734,0-15.467,0c0-15.669,0-30.793,0-46.89c-5.896,0-10.966,0-16.036,0
			c0-4.867,0-9.736,0-15.175c10.482,0,20.4,0,31.238,0c0,9.943,0,19.866,0,30.668c10.805,0,20.736,0,31.017,0
			c0,5.409,0,9.918,0,15.33c-9.916,0-19.849,0-30.752,0C466.419,251.797,466.419,256.866,466.419,261.937z"/>
		<path fill="#FFFFFF" d="M325.507,152.286c4.855,0,9.711,0,15.45,0c0-5.019,0-9.735,0-15.63c5.912,0,10.982,0,16.052,0
			c0,4.881,0,9.764,0,15.569c10.313,0,20.273,0,30.835,0c0,5.431,0,9.95,0,15.401c5.327,0,10.063,0,16.057,0
			c0,5.967,0,11.064,0,16.161c-10.501,0-21.002,0-31.503,0c0-4.878,0-9.757,0-15.901c-15.859,0-31.366,0-46.871,0l0.246,0.246
			C325.683,162.85,325.595,157.567,325.507,152.286z"/>
		<path fill="#FFFFFF" d="M481.566,183.889c-4.967,0-9.481,0-14.633,0c0-5.293,0-10.01,0-15.297c9.792,0,19.709,0,30.259,0
			c0.23,4.82,0.459,9.567,0.713,14.853c4.979,0,9.495,0,14.646,0c0,5.29,0,10.003,0,15.298c-9.791,0-19.707,0-30.243,0
			C482.066,193.918,481.831,189.184,481.566,183.889z"/>
		<path fill="#FFFFFF" d="M419.891,184.075c0-10.294,0-20.589,0-31.27c4.889,0,9.397,0,14.824,0c0,4.72,0,9.446,0,14.823
			c5.606,0.27,10.352,0.497,15.508,0.745c0,4.925,0,9.446,0,15.47c-10.079,0-20.339,0-30.607-0.01
			C419.604,183.824,419.891,184.075,419.891,184.075z"/>
		<path fill="#FFFFFF" d="M419.529,215.047c-4.88,0-9.758,0-15.873,0c0-10.896,0-21.199,0-31.501
			c5.403,0.17,10.809,0.341,16.224,0.521c0.011,0.008-0.274-0.243-0.266-0.234C419.593,194.244,419.561,204.646,419.529,215.047z"/>
		<path fill="#FFFFFF" d="M356.767,121.026c5.29,0,10.582,0,15.872,0c0,4.877,0,9.757,0,15.871c-5.677,0-10.773,0-15.872,0
			C356.767,131.607,356.767,126.316,356.767,121.026z"/>
		<path fill="#FFFFFF" d="M435.159,214.806c0,4.857,0,9.714,0,15.157c-5.257,0-9.963,0-15.873,0c0-5.017,0-10.087,0-15.157
			C424.577,214.806,429.868,214.806,435.159,214.806z"/>
		<path fill="#FFFFFF" d="M356.767,215.047c0-10.079,0-20.16,0-31.501c5.695,0,10.784,0,15.872,0c0,4.859,0,9.718,0,15.464
			c5.035,0,9.756,0,15.357,0c0,11.127,0,21.388,0,31.65l0.247-0.246c-4.854,0-9.705,0-15.435,0c0-5.005,0-9.72,0-15.367
			C366.902,215.047,361.835,215.047,356.767,215.047z"/>
		<path fill="#FFFFFF" d="M403.895,355.73c0-10.084,0-20.168,0-31.277c5.471,0,10.56,0,15.647,0l-0.256-0.237
			c0,10.5,0,21.001,0,31.501l0.243-0.24c-5.291,0-10.582,0-15.873,0L403.895,355.73z"/>
		<path fill="#FFFFFF" d="M387.996,230.66c4.852,0,9.701,0,15.166,0c0,4.978,0,9.677,0,14.96c-4.581,0-9.277,0-14.919,0
			c0-5.083,0-10.144,0-15.206L387.996,230.66z"/>
		<path fill="#FFFFFF" d="M29.042,511.279c0-25.945,0-51.276,0-77.07c25.71,0,51.043,0,77.072,0c0,25.368,0,50.908,0,77.07
			C80.819,511.279,55.28,511.279,29.042,511.279z M90.55,495.894c0-15.856,0-30.978,0-45.813c-15.759,0-30.883,0-45.787,0
			c0,15.625,0,30.539,0,45.813C60.146,495.894,75.059,495.894,90.55,495.894z"/>
		<path fill="#FFFFFF" d="M200.467,105.637c0-4.878,0-9.755,0-15.633c5.691,0,10.788,0,15.885,0l-0.255-0.238
			c0,5.29,0,10.581,0,15.871l0.238-0.254C211.045,105.467,205.756,105.552,200.467,105.637z"/>
		<path fill="#FFFFFF" d="M184.836,105.396c5.291,0,10.582,0,15.873,0c0,4.857,0,9.715,0,15.157c-5.256,0-9.963,0-15.873,0
			C184.836,115.536,184.836,110.465,184.836,105.396z"/>
		<path fill="#FFFFFF" d="M231.731,105.383c0.08,5.294,0.159,10.589,0.238,15.884c-4.878,0-9.756,0-15.634,0
			c0-5.692,0-10.788,0-15.884l-0.238,0.254c5.291,0,10.582,0,15.873,0L231.731,105.383z"/>
		<path fill="#FFFFFF" d="M200.997,151.923c-5.066,0-10.133,0-15.613,0c0-4.8,0-9.287,0-14.467c4.533,0,9.226,0,15.38,0
			c0,4.691,0,9.711-0.01,14.743C200.745,152.21,200.997,151.923,200.997,151.923z"/>
		<path fill="#FFFFFF" d="M231.969,136.656c0,5.29,0,10.581,0,15.871c-5.285-0.09-10.569-0.181-15.854-0.271l0.246,0.246
			c0-4.871,0-9.742,0-15.845C221.779,136.656,226.875,136.656,231.969,136.656z"/>
		<path fill="#FFFFFF" d="M216.115,152.256c0,4.823,0,9.646,0,15.125c-4.867,0-9.541,0-15.137,0c0-4.927,0-10.181,0.009-15.447
			c0.009-0.01-0.243,0.276-0.233,0.266c5.209,0.093,10.408,0.198,15.607,0.304C216.361,152.501,216.115,152.256,216.115,152.256z"/>
		<path fill="#FFFFFF" d="M325.525,167.886c0,4.851,0,9.701,0,15.165c-4.978,0-9.673,0-14.961,0c0-4.579,0-9.273,0-14.917
			c5.083,0,10.145,0,15.207-0.002L325.525,167.886z"/>
		<path fill="#FFFFFF" d="M325.525,105.366c0,4.852,0,9.704,0,15.165c-4.979,0-9.68,0-14.961,0c0-4.577,0-9.273,0-14.917
			c5.082,0,10.145,0,15.207-0.002L325.525,105.366z"/>
		<path fill="#FFFFFF" d="M91.057,324.457c0-5.29,0-10.581,0-15.871c10.5,0,21.002,0,31.502,0c0,4.878,0,9.757,0,15.871
			C111.663,324.457,101.36,324.457,91.057,324.457z"/>
		<path fill="#FFFFFF" d="M153.819,324.216c0,5.29,0,10.581,0,15.871c-4.857,0-9.715,0-15.157,0c0-5.256,0-9.962,0-15.871
			C143.679,324.216,148.749,324.216,153.819,324.216z"/>
		<path fill="#FFFFFF" d="M122.559,355.717c-5.291,0-10.582,0-15.873,0c0-4.855,0-9.711,0-15.156c5.257,0,9.963,0,15.873,0
			C122.559,345.577,122.559,350.646,122.559,355.717z"/>
		<path fill="#FFFFFF" d="M28.537,355.477c5.291,0,10.582,0,15.873,0c0,4.856,0,9.715,0,15.156c-5.256,0-9.963,0-15.873,0
			C28.537,365.616,28.537,360.545,28.537,355.477z"/>
		<path fill="#FFFFFF" d="M75.669,386.977c-5.291,0-10.582,0-15.873,0c0-4.875,0-9.752,0-15.869c5.677,0,10.774,0,15.873,0
			C75.669,376.396,75.669,381.688,75.669,386.977z"/>
		<path fill="#FFFFFF" d="M169.207,496.146c5.291,0,10.582,0,15.873,0c0,4.855,0,9.712,0,15.156c-5.256,0-9.963,0-15.873,0
			C169.207,506.286,169.207,501.215,169.207,496.146z"/>
		<path d="M44.451,89.34c0-15.53,0-30.239,0-45.645c15.228,0,30.351,0,46.105,0c0,14.854,0,29.973,0,45.645
			C75.465,89.34,60.348,89.34,44.451,89.34z"/>
		<path d="M451.073,89.292c0-15.591,0-30.505,0-45.854c15.311,0,30.225,0,45.813,0c0,15.008,0,30.129,0,45.854
			C481.948,89.292,466.829,89.292,451.073,89.292z"/>
		<path d="M231.969,105.637c-5.291,0-10.582,0-15.873,0c0-5.29,0-10.582,0-15.871c4.877,0,9.753,0,15.873,0
			C231.969,95.442,231.969,100.541,231.969,105.637z"/>
		<path d="M419.286,355.717c0-10.5,0-21.001,0-31.501c10.085,0,20.169,0,30.813,0c0,5.38,0,10.097,0,15.447
			c-4.67,0-9.195,0-14.649,0c0,5.323,0,10.062,0,16.054C429.482,355.717,424.385,355.717,419.286,355.717z"/>
		<path d="M403.656,355.477c5.291,0,10.582,0,15.873,0c0,4.855,0,9.711,0,15.156c-5.257,0-9.963,0-15.873,0
			C403.656,365.616,403.656,360.545,403.656,355.477z"/>
		<path d="M466.419,355.477c0,5.289,0,10.582,0,15.871c-4.854,0-9.711,0-15.157,0c0-5.257,0-9.963,0-15.871
			C456.279,355.477,461.349,355.477,466.419,355.477z"/>
		<path d="M419.738,433.099c0-4.98,0-9.486,0-14.486c5.035,0,9.745,0,14.881,0c0,4.817,0,9.325,0,14.486
			C429.993,433.099,425.281,433.099,419.738,433.099z"/>
		<path d="M90.55,495.894c-15.491,0-30.404,0-45.787,0c0-15.273,0-30.188,0-45.813c14.904,0,30.028,0,45.787,0
			C90.55,464.916,90.55,480.036,90.55,495.894z"/>
	</g>
</g>
<g>
	<g>
		<path fill="#FEFDFD" d="M269.214,204.177c22.037,0,44.073,0.004,66.109-0.019c0.664,0,0.795,0.13,0.794,0.794
			c-0.021,41.23-0.021,82.459,0,123.688c0.001,0.664-0.13,0.795-0.794,0.795c-44.072-0.021-88.146-0.021-132.219,0
			c-0.664,0-0.794-0.131-0.793-0.795c0.02-41.229,0.02-82.458,0-123.688c0-0.664,0.13-0.794,0.793-0.794
			C225.141,204.181,247.177,204.177,269.214,204.177z M244.105,260.898c0.372-0.117,0.295-0.483,0.364-0.734
			c1.431-5.181,4.028-9.688,7.868-13.444c7.314-7.157,16.119-10.172,26.241-8.936c8.076,0.987,14.77,4.741,20.047,10.977
			c5.436,6.422,7.454,13.943,7.146,22.196c-0.213,5.734-1.879,11.105-4.412,16.212c-3.055,6.159-7.295,11.405-12.6,15.765
			c-4.988,4.099-10.58,7.109-16.766,9.004c-5.704,1.748-11.548,2.476-17.485,2.111c-6.13-0.376-12.01-1.873-17.618-4.438
			c-9.62-4.401-17.008-11.262-22.243-20.381c-3.915-6.82-5.976-14.232-6.155-22.131c-0.008-0.351,0.08-0.754-0.333-1.144
			c-0.113,4.49,0.177,8.833,1.05,13.104c3.012,14.741,10.231,26.992,22.077,36.346c13.015,10.275,27.863,14.65,44.391,13.26
			c8.741-0.734,16.926-3.318,24.578-7.585c8.935-4.979,16.209-11.75,21.759-20.349c4.733-7.332,7.888-15.287,9.1-23.949
			c0.368-2.631,0.261-5.279-0.021-7.959c-0.398-3.824-0.705-7.654-1.815-11.339c-1.684-5.576-4.31-10.679-7.999-15.225
			c-4.075-5.02-9.036-8.931-14.812-11.767c-6.716-3.299-13.831-4.808-21.345-4.454c-5.111,0.241-10.02,1.293-14.765,3.177
			c-4.849,1.925-9.196,4.668-13.047,8.161c-4.7,4.262-8.316,9.329-10.817,15.171c-1.131,2.644-2.078,5.347-2.524,8.203
			c-0.033,0.043-0.066,0.087-0.1,0.13C243.949,260.885,244.027,260.892,244.105,260.898z M332.068,268.352
			c0.241-0.299,0.148-0.6,0.152-0.878c0.073-4.467-0.276-8.899-1.194-13.275c-3.239-15.435-11.157-27.928-23.837-37.289
			c-11.045-8.154-23.539-12.133-37.266-12.096c-4.291,0.012-8.552,0.548-12.758,1.489c-14.36,3.215-26.162,10.57-35.354,22.021
			c-5.999,7.472-9.919,15.951-11.63,25.427c-0.975,5.395-1.373,10.797-0.427,16.223c1.932,11.08,7.103,20.3,15.903,27.401
			c4.082,3.294,8.607,5.798,13.592,7.433c5.639,1.848,11.403,2.67,17.355,2.168c4.34-0.367,8.566-1.209,12.609-2.789
			c6.878-2.688,12.782-6.773,17.61-12.422c3.85-4.506,6.71-9.529,8.503-15.164c0.329-1.033,0.711-2.078,0.825-3.332
			c-0.549,0.395-0.577,0.873-0.713,1.273c-1.989,5.859-5.479,10.689-10.385,14.386c-7.324,5.519-15.622,7.54-24.659,5.949
			c-8.609-1.517-15.403-5.994-20.395-13.19c-4.237-6.107-5.789-13.015-5.375-20.262c0.409-7.166,3.193-13.644,7.185-19.581
			c5.259-7.823,12.146-13.731,20.781-17.572c7.169-3.189,14.654-4.593,22.506-4.25c5.44,0.237,10.664,1.352,15.726,3.308
			c8.359,3.23,15.316,8.411,20.809,15.448c6.614,8.476,10.039,18.149,10.206,28.937
			C331.842,267.917,331.745,268.165,332.068,268.352z"/>
		<path fill="#F07126" d="M332.068,268.352c-0.323-0.187-0.228-0.435-0.23-0.638c-0.167-10.787-3.592-20.46-10.206-28.937
			c-5.491-7.038-12.448-12.218-20.809-15.448c-5.063-1.956-10.284-3.07-15.726-3.308c-7.852-0.343-15.337,1.061-22.506,4.25
			c-8.635,3.841-15.522,9.749-20.781,17.572c-3.991,5.938-6.775,12.415-7.185,19.581c-0.414,7.247,1.138,14.153,5.375,20.262
			c4.992,7.196,11.786,11.674,20.395,13.19c9.037,1.591,17.334-0.433,24.658-5.949c4.906-3.696,8.396-8.524,10.386-14.386
			c0.136-0.4,0.164-0.879,0.713-1.273c-0.114,1.254-0.496,2.299-0.825,3.332c-1.793,5.635-4.653,10.658-8.503,15.164
			c-4.828,5.647-10.732,9.734-17.61,12.422c-4.043,1.58-8.27,2.422-12.609,2.789c-5.952,0.502-11.716-0.32-17.355-2.168
			c-4.985-1.635-9.51-4.139-13.592-7.433c-8.801-7.101-13.972-16.321-15.903-27.401c-0.946-5.426-0.548-10.828,0.427-16.223
			c1.711-9.476,5.631-17.955,11.63-25.427c9.193-11.45,20.994-18.805,35.354-22.02c4.206-0.941,8.467-1.478,12.758-1.489
			c13.727-0.037,26.221,3.942,37.266,12.096c12.68,9.36,20.598,21.854,23.837,37.289c0.918,4.375,1.269,8.808,1.194,13.275
			C332.218,267.751,332.311,268.053,332.068,268.352z"/>
		<path fill="#E7252A" d="M243.971,260.749c0.446-2.856,1.393-5.56,2.524-8.203c2.501-5.843,6.117-10.909,10.817-15.171
			c3.852-3.493,8.199-6.236,13.047-8.161c4.747-1.884,9.653-2.936,14.765-3.177c7.515-0.354,14.629,1.155,21.345,4.454
			c5.774,2.836,10.735,6.747,14.812,11.767c3.689,4.546,6.315,9.649,7.999,15.225c1.11,3.685,1.417,7.515,1.815,11.339
			c0.28,2.68,0.389,5.329,0.021,7.959c-1.212,8.662-4.365,16.617-9.1,23.949c-5.55,8.599-12.824,15.369-21.759,20.349
			c-7.651,4.266-15.837,6.851-24.577,7.585c-16.529,1.393-31.375-2.982-44.392-13.26c-11.845-9.354-19.065-21.604-22.077-36.346
			c-0.873-4.271-1.163-8.614-1.05-13.104c0.413,0.39,0.325,0.793,0.333,1.144c0.179,7.898,2.24,15.311,6.155,22.131
			c5.235,9.119,12.624,15.979,22.243,20.381c5.608,2.564,11.488,4.063,17.618,4.438c5.937,0.363,11.781-0.363,17.485-2.111
			c6.185-1.895,11.776-4.905,16.766-9.004c5.306-4.358,9.546-9.604,12.601-15.765c2.531-5.106,4.197-10.478,4.412-16.212
			c0.307-8.252-1.713-15.773-7.147-22.196c-5.278-6.236-11.97-9.989-20.047-10.977c-10.122-1.237-18.927,1.778-26.241,8.936
			c-3.839,3.757-6.437,8.263-7.868,13.444c-0.069,0.25,0.007,0.617-0.364,0.734C244.061,260.849,244.016,260.799,243.971,260.749z"
			/>
		<path fill="#E7252A" d="M244.105,260.898c-0.078-0.006-0.156-0.013-0.234-0.02c0.033-0.043,0.066-0.086,0.1-0.13
			C244.016,260.799,244.061,260.849,244.105,260.898z"/>
	</g>
</g>
</svg>
