<?xml version="1.0" encoding="utf-8"?>
<!-- Generator: Adobe Illustrator 16.0.2, SVG Export Plug-In . SVG Version: 6.00 Build 0)  -->
<!DOCTYPE svg PUBLIC "-//W3C//DTD SVG 1.1//EN" "http://www.w3.org/Graphics/SVG/1.1/DTD/svg11.dtd">
<svg version="1.1" id="Layer_1" xmlns="http://www.w3.org/2000/svg" xmlns:xlink="http://www.w3.org/1999/xlink" x="0px" y="0px"
	 width="636.063px" height="636.065px" viewBox="0 0 636.063 636.065" enable-background="new 0 0 636.063 636.065"
	 xml:space="preserve">
<circle fill="#FFFFFF" cx="318.031" cy="318.032" r="318.031"/>
<g>
	<g>
		<path fill-rule="evenodd" clip-rule="evenodd" fill="#020202" d="M435.043,183.134c2.098,1.669,4.197,3.338,6.293,5.005
			c0.064,0.443,0.238,0.647,0.662,0.293c0.313,0.271,0.625,0.543,0.938,0.813c2.305,5.044,7.072,7.56,11.223,10.597
			c11.373,8.322,23.877,14.258,37.818,16.909c0.123,0.229,0.283,0.428,0.479,0.594c-0.121,1.814-0.336,3.632-0.34,5.449
			c-0.025,15.156-0.129,30.313,0.068,45.467c0.051,3.766-1.143,4.933-4.828,4.823c-13.346-0.398-26.455-2.268-39.348-5.706
			c-18.527-4.94-35.736-12.81-51.635-23.505c-3.104-2.088-3.676-0.768-3.629,2.107c0.014,0.832-0.021,1.665-0.021,2.497
			c0.053,43.634,0.063,87.267,0.18,130.901c0.061,22.301-2.977,43.992-13.031,64.156c-14.498,29.076-36.25,50.779-66.244,63.891
			c-31.87,13.93-64.191,14.615-97.002,3.646c-8.15-2.725-15.505-7.207-23.516-10.211c-3.908-1.98-6.611-5.467-10.055-8.029
			c0.148-0.672-0.188-0.947-0.813-0.982l-0.029-0.031c-6.226-8.053-12.039-16.447-16.753-25.42
			c-12.138-23.105-17.451-47.65-15.059-73.891c1.633-17.916,6.406-34.801,14.877-50.515c16.656-30.9,42.128-51.696,75.122-63.171
			c12.4-4.313,25.358-6.397,38.568-6.405c0.034,17.642,0.014,35.284,0.151,52.924c0.024,3.107-0.591,4.537-3.873,3.004
			c-3.912-1.826-8.146-1.32-12.254-1.557c-17.756-1.021-33.079,5.045-45.363,17.541c-20.918,21.276-23.15,53.87-5.365,78.054
			c5.138,6.986,11.156,13.402,19.766,16.455c1.381,1.043,2.762,2.086,4.142,3.129c0.411,0.877,0.651,1.904,1.261,2.609
			c10.639,12.338,24.451,18.445,40.404,19.443c15.022,0.938,28.731-3.254,40.645-12.713c8.912-7.078,15.365-15.785,19.471-26.563
			c3.988-10.465,3.695-21.17,3.697-31.945c0.02-88.753,0.006-177.508,0.006-266.263c0-7.336,0.01-7.289,7.158-7.31
			c14.979-0.041,29.959-0.138,44.938-0.211c0.186,0.195,0.355,0.402,0.506,0.618c2.486,17.626,10.035,32.938,21.402,46.466
			C421.249,172.75,427.331,178.88,435.043,183.134z"/>
		<path fill-rule="evenodd" clip-rule="evenodd" fill="#D42C56" d="M193.109,500.861c8.011,3.004,15.365,7.486,23.516,10.211
			c32.812,10.969,65.133,10.283,97.002-3.646c29.994-13.111,51.746-34.814,66.244-63.891c10.055-20.164,13.092-41.855,13.031-64.156
			c-0.117-43.634-0.127-87.267-0.18-130.901c0-0.832,0.035-1.665,0.021-2.497c-0.047-2.875,0.525-4.195,3.629-2.107
			c15.898,10.695,33.107,18.564,51.635,23.505c12.893,3.438,26.002,5.308,39.348,5.706c3.686,0.109,4.879-1.058,4.828-4.823
			c-0.197-15.153-0.094-30.311-0.068-45.467c0.004-1.817,0.219-3.635,0.34-5.449c6.348-0.395,12.439,1.701,18.727,1.911
			c2.121,0.07,1.617,1.757,1.619,2.967c0.027,21.814-0.031,43.63,0.08,65.443c0.014,2.883-1.242,3.165-3.592,3.174
			c-12.709,0.046-25.115-2.218-37.404-5.05c-16.752-3.86-32.287-10.914-47.162-19.361c-2.666-1.514-5.563-2.914-7.896-5.004
			c-2.336-2.093-2.701-0.782-2.758,1.378c-0.111,4.311-0.299,8.621-0.301,12.933c-0.025,43.796,0.205,87.592-0.121,131.387
			c-0.148,20.09-5.104,39.197-14.332,57.176c-10.373,20.207-24.986,36.891-43.68,49.369c-18.371,12.262-38.754,20.225-61.229,21.51
			c-8.424,0.119-16.876-0.953-25.268,0.58c-7.602-1.484-15.262-2.498-22.807-4.494c-12.393-3.277-23.565-8.961-34.639-15.135
			c-6.804-3.793-12.218-9.303-18.403-13.846C193.025,502.087,193.16,501.347,193.109,500.861z"/>
		<path fill-rule="evenodd" clip-rule="evenodd" fill="#63C8CB" d="M393.75,119.015c-14.979,0.073-29.959,0.17-44.938,0.211
			c-7.148,0.021-7.158-0.026-7.158,7.31c0,88.755,0.014,177.51-0.006,266.263c-0.002,10.775,0.291,21.48-3.697,31.945
			c-4.105,10.777-10.559,19.484-19.471,26.563c-11.914,9.459-25.623,13.65-40.645,12.713c-15.953-0.998-29.766-7.105-40.404-19.443
			c-0.609-0.705-0.85-1.732-1.261-2.609c9.754,3.486,19.683,5.313,30.144,4.334c14.658-1.369,26.885-7.367,37.211-17.773
			c12.58-12.676,17.422-28.146,17.416-45.602c-0.027-91.598,0.043-183.197-0.121-274.793c-0.01-5.17,1.404-6.38,6.408-6.309
			c20.314,0.29,40.637,0.219,60.953,0.032c3.809-0.035,5.074,1.113,4.707,4.813C392.481,110.805,392.977,114.933,393.75,119.015z"/>
		<path fill-rule="evenodd" clip-rule="evenodd" fill="#66C9CC" d="M278.968,272.416c-13.21,0.008-26.168,2.092-38.568,6.405
			c-32.994,11.476-58.466,32.271-75.122,63.171c-8.471,15.714-13.244,32.599-14.877,50.515c-2.393,26.24,2.921,50.785,15.059,73.891
			c4.714,8.973,10.527,17.367,16.753,25.42c-3.458-0.711-5.622-3.422-8.035-5.553c-21.783-19.246-36.478-42.92-42.382-71.434
			c-6.949-33.566-2.152-65.584,15.434-95.251c17.883-30.167,44.102-49.665,77.566-59.807c16.318-4.945,33-4.867,49.746-4.563
			c2.902,0.053,4.503,1.243,4.398,4.596c-0.123,3.967-0.531,7.982,0.328,11.938C279.146,271.959,279.047,272.183,278.968,272.416z"
			/>
		<path fill-rule="evenodd" clip-rule="evenodd" fill="#D32B55" d="M278.968,272.416c0.079-0.233,0.179-0.457,0.3-0.672
			c5.394,2.238,11.1,1.026,16.651,1.367c3.207,0.197,4.279,1.035,4.256,4.336c-0.145,21.625-0.125,43.252-0.08,64.877
			c0.006,3.133-0.184,3.953-4.129,3.26c-13.741-2.412-27.184-2.24-40.389,4.271c-13.797,6.805-23.822,16.865-29.457,30.723
			c-5.949,14.633-6.581,29.801-0.718,44.975c1.812,4.691,4.979,8.586,6.628,13.285c-8.609-3.053-14.628-9.469-19.766-16.455
			c-17.785-24.184-15.553-56.777,5.365-78.054c12.284-12.496,27.607-18.563,45.363-17.541c4.107,0.236,8.342-0.27,12.254,1.557
			c3.282,1.533,3.897,0.104,3.873-3.004C278.981,307.7,279.002,290.058,278.968,272.416z"/>
		<path fill-rule="evenodd" clip-rule="evenodd" fill="#D42C56" d="M435.043,183.134c-7.713-4.254-13.795-10.384-19.385-17.035
			c-11.367-13.528-18.916-28.84-21.402-46.466c5.443-0.927,10.926-0.129,16.381-0.416c2.721-0.144,3.51,1.455,3.387,3.744
			c-0.641,11.97,2.359,23.212,6.662,34.22c2.813,7.2,6.482,13.902,11.082,20.118C433.092,179.087,435.172,180.51,435.043,183.134z"
			/>
		<path fill-rule="evenodd" clip-rule="evenodd" fill="#63C8CB" d="M491.977,216.751c-13.941-2.651-26.445-8.587-37.818-16.909
			c-4.15-3.037-8.918-5.553-11.223-10.597c6.195,1.859,11.52,5.755,17.805,7.453c8.789,2.376,17.527,4.963,26.771,4.491
			c3.373-0.173,4.881,1.015,4.611,4.587C491.85,209.418,492.008,213.092,491.977,216.751z"/>
		<path fill-rule="evenodd" clip-rule="evenodd" fill="#D32B55" d="M269.139,535.757c8.392-1.533,16.844-0.461,25.268-0.58
			c-4.877,2.014-9.975,0.65-14.963,0.916C276.023,536.275,272.574,535.888,269.139,535.757z"/>
		<path fill-rule="evenodd" clip-rule="evenodd" fill="#63C8CB" d="M441.999,188.432c-0.424,0.354-0.598,0.15-0.662-0.293
			c0.002,0.001,0.445-0.084,0.445-0.084L441.999,188.432z"/>
		<path fill-rule="evenodd" clip-rule="evenodd" fill="#66C9CC" d="M182.241,491.849c0.626,0.035,0.962,0.311,0.813,0.982
			C182.504,492.736,182.107,492.511,182.241,491.849z"/>
	</g>
</g>
</svg>
