<?xml version="1.0" encoding="UTF-8"?>
<svg width="128px" height="45px" viewBox="0 0 128 45" version="1.1" xmlns="http://www.w3.org/2000/svg" xmlns:xlink="http://www.w3.org/1999/xlink">
    <!-- Generator: Sketch 61.2 (89653) - https://sketch.com -->
    <title>verisign-seeklogo.com</title>
    <desc>Created with Sketch.</desc>
    <defs>
        <linearGradient x1="84.9876894%" y1="4.45847445%" x2="13.8230764%" y2="75.6230802%" id="linearGradient-1">
            <stop stop-color="#FFFFFF" offset="0%"></stop>
            <stop stop-color="#868484" offset="100%"></stop>
        </linearGradient>
        <radialGradient cx="137.15%" cy="121.270321%" fx="137.15%" fy="121.270321%" r="50.3431818%" gradientTransform="translate(1.371500,1.212703),scale(1.000000,0.998110),translate(-1.371500,-1.212703)" id="radialGradient-2">
            <stop stop-color="#1761A8" offset="0%"></stop>
            <stop stop-color="#14477B" offset="100%"></stop>
        </radialGradient>
        <radialGradient cx="1315.0549%" cy="3497.35849%" fx="1315.0549%" fy="3497.35849%" r="3.86068387%" gradientTransform="translate(13.150549,34.973585),scale(1.000000,0.996241),translate(-13.150549,-34.973585)" id="radialGradient-3">
            <stop stop-color="#1761A8" offset="0%"></stop>
            <stop stop-color="#14477B" offset="100%"></stop>
        </radialGradient>
        <radialGradient cx="142.307285%" cy="139.27919%" fx="142.307285%" fy="139.27919%" r="57.7099276%" gradientTransform="translate(1.423073,1.392792),scale(0.999871,1.000000),translate(-1.423073,-1.392792)" id="radialGradient-4">
            <stop stop-color="#165DA1" offset="0%"></stop>
            <stop stop-color="#164375" offset="100%"></stop>
        </radialGradient>
        <linearGradient x1="97.4285851%" y1="-9.52733686%" x2="15.847009%" y2="72.0546737%" id="linearGradient-5">
            <stop stop-color="#EBEBEB" offset="0%"></stop>
            <stop stop-color="#7E7B7C" offset="100%"></stop>
        </linearGradient>
    </defs>
    <g id="Page-1" stroke="none" stroke-width="1" fill="none" fill-rule="evenodd">
        <g id="Footer_Op1" transform="translate(-437.000000, -578.000000)" fill-rule="nonzero">
            <g id="verisign-seeklogo.com" transform="translate(437.000000, 578.000000)">
                <g id="layer1">
                    <g id="g456" fill="url(#linearGradient-1)">
                        <g id="g458">
                            <g id="g464">
                                <g id="g466">
                                    <path d="M1.21115239e-15,21.3136364 C0.225826869,15.3117551 2.88424059,9.66016448 7.36363636,5.65909091 L7.36363636,5.65909091 C3.71084735,9.72036571 1.69441397,14.9922458 1.70454545,20.4545455 L1.70454545,20.4545455 C1.70454545,26.3315018 4.03915726,31.9677532 8.19479292,36.1233889 C12.3504286,40.2790246 17.9866801,42.6136364 23.8636364,42.6136364 L23.8636364,42.6136364 C29.3256975,42.6224699 34.5971276,40.6062086 38.6590909,36.9545455 L38.6590909,36.9545455 C34.600788,41.4959779 28.8475671,44.1604198 22.7590909,44.3181818 L22.7590909,44.3181818 C34.7622808,43.993054 44.3225843,34.1666826 44.3181833,22.1590909 L44.3181833,22.1590909 C44.3181833,9.92096293 34.3972189,-5.99073681e-06 22.1590909,-5.99073681e-06 L22.1590909,-5.99073681e-06 C10.2436721,-0.00867577303 0.454616018,9.40689017 1.21115239e-15,21.3136364 M4.0907759,22.1590909 C4.05313128,12.2338301 12.0566673,4.15099073 21.9818182,4.09090909 L22.1590909,4.09090909 C26.9329877,4.09090909 31.5113582,5.98733222 34.887013,9.36298703 C38.2626678,12.7386418 40.1590909,17.3170123 40.1590909,22.0909091 L40.1590909,22.0909091 L40.1590909,22.0909091 L40.1590909,22.0909091 C39.958655,31.8879579 31.9581896,39.7247774 22.1590909,39.7228803 L22.1590909,39.7228803 C12.3594307,39.7627256 4.32839696,31.9559547 4.0907759,22.1590909" id="path474"></path>
                                </g>
                            </g>
                        </g>
                    </g>
                    <g id="g476" transform="translate(4.090909, 4.090909)" fill="#1761A9">
                        <g id="g478">
                            <g id="g484">
                                <path d="M36.0681818,18.0681818 C36.0305597,28.0003448 27.9551021,36.0250004 18.0228994,36 C8.09069672,35.974885 0.0558319667,27.9095852 0.0683106412,17.9773588 C0.0808184143,8.04513235 8.13594754,0 18.0681818,0 C28.0093073,0 36.0681818,8.0588745 36.0681818,18" id="path486"></path>
                            </g>
                        </g>
                    </g>
                    <g id="g488" transform="translate(4.090909, 4.090909)" fill="url(#radialGradient-2)">
                        <g id="g490">
                            <g id="g496">
                                <g id="g498">
                                    <path d="M16.7045455,1.11022302e-16 L17.5090909,1.11022302e-16 L17.5090909,1.11022302e-16 L16.7045455,1.11022302e-16 M16.4863636,1.11022302e-16 L16.7045455,1.11022302e-16 L16.7045455,1.11022302e-16 L16.4863636,1.11022302e-16 M16.0363636,1.11022302e-16 L16.4863636,1.11022302e-16 L16.4863636,1.11022302e-16 L16.0363636,1.11022302e-16 M0,18.0681818 C0,28.0093073 8.0588745,36.0681818 18,36.0681818 L18,36.0681818 C25.3502655,36.0650777 31.9614112,31.5964829 34.7045455,24.7772727 L34.7045455,24.7772727 C33.673842,27.3386345 32.0690061,29.6292579 30.0136364,31.4727273 L30.0136364,31.4727273 C32.9784044,28.1742677 34.615639,23.8941379 34.6090909,19.4590909 L34.6090909,19.4590909 C34.6090909,9.51796541 26.5502164,1.45909091 16.6090909,1.45909091 L16.6090909,1.45909091 C12.1975524,1.4693594 7.94461027,3.10547982 4.66363636,6.05454545 L4.66363636,6.05454545 C7.33740248,3.06887852 10.9324136,1.06258395 14.8772727,0.354545455 L14.8772727,0.354545455 C6.28126896,1.87440589 0.0120494098,9.33885703 0,18.0681818 M36,18.6681818 C36,18.5863636 36,18.5181818 36,18.4363636 L36,18.4363636 C36,18.5045455 36,18.5863636 36,18.6681818 M35.0045455,24 C35.6049956,22.2835366 35.9406585,20.4856706 36,18.6681818 L36,18.6681818 C35.9406585,20.4856706 35.6049956,22.2835366 35.0045455,24" id="path506"></path>
                                </g>
                            </g>
                        </g>
                    </g>
                    <g id="g1064" transform="translate(21.818182, 4.090909)" fill="url(#radialGradient-3)">
                        <g id="g1066">
                            <g id="g1072">
                                <g id="g1074">
                                    <path d="M18.3410384,18.0681818 C18.3590369,13.2824826 16.4706195,8.68657662 13.0929978,5.29616098 C9.71537623,1.90574534 5.12664268,0 0.340909091,0 L0.340909091,0 C10.2820346,0 18.3410384,8.0588745 18.3410384,18" id="path1082"></path>
                                </g>
                            </g>
                        </g>
                    </g>
                    <g id="g1384" transform="translate(8.181818, 4.090909)" fill="url(#radialGradient-4)">
                        <g id="g1386">
                            <g id="g1392">
                                <g id="g1394">
                                    <path d="M13.9636364,-8.70254952e-06 L13.8136364,-8.70254952e-06 C8.75850856,0.0448345166 3.95638257,2.21816783 0.586363636,5.98636364 L0.586363636,5.98636364 C3.88482322,3.02159564 8.16495299,1.38436098 12.6,1.39090909 L12.6,1.39090909 C22.5411255,1.39090909 30.6,9.44978359 30.6,19.3909091 L30.6,19.3909091 C30.6065481,23.8259561 28.9693135,28.1060859 26.0045455,31.4045455 L26.0045455,31.4045455 C29.722139,28.0835093 31.8908176,23.3657689 31.9909091,18.3818182 L31.9909091,18.3818182 L31.9909091,18.3818182 L31.9909091,18.3818182 C32.0936451,13.5397477 30.2407951,8.86057 26.8509811,5.40147142 C23.4611672,1.94237285 18.8204307,-0.00475883291 13.9772727,-8.70254952e-06 L13.9772727,-8.70254952e-06 L13.9636364,-8.70254952e-06 Z" id="path1402"></path>
                                </g>
                            </g>
                        </g>
                    </g>
                    <g id="g1428" transform="translate(0.000000, 5.454545)" fill="url(#linearGradient-5)">
                        <g id="g1430">
                            <g id="g1436">
                                <g id="g1438">
                                    <path d="M-0.000205887319,16.4727273 L-0.000205887319,16.4727273 L-0.000205887319,16.6090909 C-0.0253875241,22.5025685 2.29801188,28.1633735 6.45640239,32.339677 C10.6147929,36.5159806 16.2655586,38.8636364 22.1590909,38.8636364 L22.3772727,38.8636364 C28.5993964,38.811679 34.5110808,36.1380529 38.6590909,31.5 L38.6590909,31.5 C34.5971276,35.1516631 29.3256975,37.1679244 23.8636364,37.1590909 L23.8636364,37.1590909 C11.6255084,37.1590909 1.70454545,27.238128 1.70454545,15 L1.70454545,15 C1.69441397,9.53770031 3.71084735,4.26582026 7.36363636,0.204545455 L7.36363636,0.204545455 C2.7304755,4.35039371 0.057477291,10.2557398 -0.000205887319,16.4727273" id="path1446"></path>
                                </g>
                            </g>
                        </g>
                    </g>
                    <g id="g1450" transform="translate(9.545455, 13.636364)" fill="#FFFFFF">
                        <g id="g1456" transform="translate(12.272727, 0.000000)">
                            <polygon id="path1458" points="8.82272727 7.60909091 0.559090909 7.60909091 4.55454545 0.681818182 12.8318182 0.681818182"></polygon>
                        </g>
                        <g id="g1460">
                            <polygon id="path1462" points="8.65909091 0.681818182 0.477272727 0.681818182 12.6409091 21.75 16.7318182 14.6318182"></polygon>
                        </g>
                    </g>
                </g>
                <g id="Group" transform="translate(49.090909, 16.000000)" fill="#FFFFFF">
                    <polygon id="path1466" points="7.96363636 0.595454545 10.9090909 0.595454545 6.99545455 11.8590909 4.18636364 11.8590909 0.327272727 0.595454545 3.32727273 0.595454545 5.64545455 8.54545455"></polygon>
                    <polygon id="path1470" points="11.9045455 0.595454545 20.2363636 0.595454545 20.2363636 2.77727273 14.7818182 2.77727273 14.7818182 4.82272727 19.9363636 4.82272727 19.9363636 6.96363636 14.7136364 6.96363636 14.7136364 9.69090909 20.7272727 9.69090909 20.7272727 11.9136364 11.9045455 11.9136364"></polygon>
                    <path d="M25.5272727,2.69545455 L25.5272727,5.75 L27.8590909,5.75 C28.2984871,5.80683031 28.7405296,5.6665023 29.0666931,5.36664228 C29.3928567,5.06678227 29.569771,4.63806925 29.55,4.19545455 C29.55,2.76363636 28.5136364,2.70909091 27.9272727,2.69545455 L25.5272727,2.69545455 Z M22.7045455,0.595454545 L27.7772727,0.595454545 C29.1113484,0.438988582 30.4492407,0.855221755 31.4590909,1.74090909 C32.0518571,2.44137022 32.3714902,3.33246862 32.3590909,4.25 C32.4348706,5.72259676 31.4386182,7.03557673 30,7.35909091 L32.6045455,11.8590909 L29.5363636,11.8590909 L27.2727273,7.83636364 L25.5,7.83636364 L25.5,11.8590909 L22.7045455,11.8590909 L22.7045455,0.595454545 Z" id="path1474"></path>
                    <polygon id="path1476" points="37.3090909 11.8590909 34.5 11.8590909 34.5 0.595454545 37.3090909 0.595454545"></polygon>
                    <path d="M41.2227273,8.47727273 C41.525137,8.83739479 41.8959151,9.13401732 42.3136364,9.35 C42.9814467,9.70492841 43.7255552,9.89212551 44.4818182,9.89545455 C45.6,9.89545455 46.5545455,9.36363636 46.5545455,8.53181818 C46.5545455,7.7 45.4227273,7.49545455 44.5909091,7.38636364 C43.7590909,7.27727273 43.35,7.22272727 42.7363636,7.1 C42.1227273,6.97727273 39.7090909,6.45909091 39.7090909,4.03181818 C39.7090909,1.18181818 42.2727273,0.363616764 44.2363636,0.363616764 C46.1199544,0.359123729 47.9214948,1.13403292 49.2136364,2.50454545 L47.1409091,3.99090909 C46.8139145,3.63432696 46.4373315,3.32663114 46.0227273,3.07727273 C45.4562789,2.77103249 44.8255383,2.60283501 44.1818182,2.58636364 C43.0636364,2.58636364 42.5045455,3.22727273 42.5045455,3.75909091 C42.5045455,4.61818182 43.4590909,4.75454545 43.9363636,4.80909091 C45.1025125,4.93834076 46.256282,5.1617981 47.3863636,5.47727273 C48.5843745,5.83232286 49.3878689,6.95609124 49.3363636,8.20454545 C49.3255405,9.08093812 49.0069693,9.9256344 48.4363636,10.5909091 C47.3099099,11.6789223 45.7701376,12.2302601 44.2090909,12.1045455 C42.223821,12.2450714 40.2980662,11.3920182 39.0681818,9.82727273 L41.2227273,8.47727273 Z" id="path1480"></path>
                    <polygon id="path1482" points="54.3 11.8590909 51.4909091 11.8590909 51.4909091 0.595454545 54.3 0.595454545"></polygon>
                    <path d="M64.6227273,10.7954545 C63.7555276,11.6905157 62.5550937,12.1845214 61.3090909,12.1590909 C58.1727273,12.1590909 56.2363636,9.60909091 56.2363636,6.29545455 C56.2363636,2.66818182 58.5818182,0.268133619 61.7863636,0.268133619 C63.7702745,0.260233834 65.6292555,1.23568813 66.75,2.87272727 L64.6090909,4.16818182 C64.1061366,3.18604324 63.094335,2.56947661 61.9909091,2.57272727 C59.85,2.57272727 59.0454545,4.34545455 59.0454545,6.22727273 C59.0113097,7.24857952 59.3506814,8.24730171 60,9.03636364 C60.9793415,9.95491705 62.4497691,10.1108715 63.6,9.41818182 C64.1647231,9.04599991 64.5072316,8.41721564 64.5136364,7.74090909 L61.9227273,7.74090909 L61.9227273,5.6 L66.8181818,5.6 L66.8181818,11.8590909 L64.6227273,11.8590909 L64.6227273,10.7954545 Z" id="path1486"></path>
                    <path d="M69.1363636,0.595454545 L71.8636364,0.595454545 L74.3045455,4.68636364 C75.1909091,6.26818182 75.4636364,6.77272727 75.9954545,7.76818182 L75.8727273,0.540909091 L78.6,0.540909091 L78.6,11.8045455 L75.8727273,11.8045455 L73.7727273,8.24545455 C73.0539842,7.10258464 72.394035,5.9237788 71.7954545,4.71363636 L71.8772727,11.7909091 L69.15,11.7909091 L69.1363636,0.595454545 Z" id="path1490"></path>
                </g>
            </g>
        </g>
    </g>
</svg>