<svg xmlns="http://www.w3.org/2000/svg" xmlns:xlink="http://www.w3.org/1999/xlink" viewBox="0 0 545.91 227.88"><defs><style>.cls-1{fill:#fff;}.cls-1,.cls-3,.cls-4{fill-rule:evenodd;}.cls-2,.cls-3{fill:#133c8b;}.cls-4{fill:url(#linear-gradient);}</style><linearGradient id="linear-gradient" x1="-746.88" y1="-236.63" x2="-597.67" y2="-236.63" gradientTransform="translate(756.61 350.05) rotate(-0.06)" gradientUnits="userSpaceOnUse"><stop offset="0" stop-color="#da2128"/><stop offset="1" stop-color="#ed6c30"/></linearGradient></defs><title>VNNIC_Slogan_Color</title><g id="Layer_2" data-name="Layer 2"><g id="Layer_1-2" data-name="Layer 1"><path class="cls-1" d="M331.18,156.91h2.35a9.49,9.49,0,0,0,9.25,7.34h0l19.85,0a9.5,9.5,0,0,0,9.25-7.4l11.52,0h5l2.89,3.72a9.5,9.5,0,0,0,7.5,3.68h0l16.17,0a9.49,9.49,0,0,0,6.57-2.66,9.48,9.48,0,0,0,6.56,2.65h0l20.07,0a9.51,9.51,0,0,0,9.27-7.49l14.79,0a51.12,51.12,0,0,0,28.91,8.74h.05c16.27,0,29-5.58,39.92-17.5l2.23-2.42a9.5,9.5,0,0,0-.24-13.11L530,119.07a9.5,9.5,0,0,0-13.24-.25l-2.45,2.28c-5.14,4.81-8.1,6.28-12.69,6.28h0c-6.83,0-11.79-5.76-11.8-13.7v-.23c0-7.83,4.95-13.52,11.78-13.52h0c3.52,0,6.94,1,12.18,5.84l2.61,2.42a9.51,9.51,0,0,0,13.64-.74L543,92.52a9.5,9.5,0,0,0-.62-13.1L540,77.15c-6.86-6.53-18.28-15.22-38.24-15.22h-.07a51.57,51.57,0,0,0-33.32,11.83l-10.73,0v-1a9.5,9.5,0,0,0-9.5-9.49h0l-20.06,0A9.45,9.45,0,0,0,421.49,66a9.49,9.49,0,0,0-6.56-2.64h0l-19.85,0a9.49,9.49,0,0,0-9.49,9.51v.76l-13-.08-5-6.48a9.5,9.5,0,0,0-7.5-3.68h0l-17.35,0A9.49,9.49,0,0,0,336,66.17a10.08,10.08,0,0,0-.9,1.06l-6.24,0A113.8,113.8,0,0,0,224.89,0h-.12a113,113,0,0,0-86.23,39.62,10.75,10.75,0,0,0-5.06-1.23,32.73,32.73,0,0,0-5.08-4.46,10,10,0,0,0-.31-2.16c-.49-1.93-1.41-5.51-11.47-11.44a50.64,50.64,0,0,0-7.12-3.56,14.11,14.11,0,0,0-8.4-1C96.33,11.91,89,10.17,86.51,9.68l-.44-.08c-7.71-1.18-13.26.24-16.48,4.23A10.64,10.64,0,0,0,67.81,24a12.05,12.05,0,0,0,.94,2.18,24.2,24.2,0,0,0-11.86-2.56h-.24C45.11,24.34,36.23,32.27,36,42.17a17.17,17.17,0,0,0,5.42,12.7,20.25,20.25,0,0,0,3.89,2.91,23,23,0,0,0-6.17,6.68,19.79,19.79,0,0,0-2.74-3,20.31,20.31,0,0,0-15.93-4.95l-.22,0A23.75,23.75,0,0,0,.06,78.36a1,1,0,0,0,0,.17A20.31,20.31,0,0,0,6.23,94.06a19.09,19.09,0,0,0,4.4,3.14A23,23,0,0,0,0,117.39s0,.09,0,.14a23,23,0,0,0,12.22,19.33,19.67,19.67,0,0,0-4.14,3.48,20.32,20.32,0,0,0-4.91,16,1.11,1.11,0,0,1,0,.17,23.78,23.78,0,0,0,21.88,20.18h.23a20.24,20.24,0,0,0,15.48-6.22,19.35,19.35,0,0,0,2.47-3.25A23,23,0,0,0,50,173.37a20.21,20.21,0,0,0-3.63,3.21A17.18,17.18,0,0,0,42,189.75c1,9.77,10.48,17,22.07,16.72h.25A24.37,24.37,0,0,0,75.9,203a11.81,11.81,0,0,0-.77,2.26,10.65,10.65,0,0,0,2.61,10c2.38,2.5,5.72,3.76,10,3.76a29.29,29.29,0,0,0,6.78-.88l.42-.11c2.44-.69,9.82-3.08,14.25-7.43a14.2,14.2,0,0,0,8.14-1.63,51.27,51.27,0,0,0,6.84-4.07c9.59-6.67,10.24-10.3,10.59-12.26a9.76,9.76,0,0,0,.15-2.28,32.29,32.29,0,0,0,3-2.88,113,113,0,0,0,87,40.43H225A113.84,113.84,0,0,0,329.78,158.5a8.91,8.91,0,0,0,.49-1.57ZM260.77,96l-.09.89a9.9,9.9,0,0,0-2.42.91v-.34Z"/><path class="cls-1" d="M544.36,191.22a10,10,0,0,0-2.07-6.41v-3.08h0v-7.21a9.88,9.88,0,0,0-9.9-10.06h-4.86a9.31,9.31,0,0,1-2.11,0h-4.85a9.91,9.91,0,0,0-7.08,2.95,10.06,10.06,0,0,0-1.59,2.15,18.2,18.2,0,0,0-7.77,1.79,10,10,0,0,0-5.37-1.6,14.31,14.31,0,0,0-3.81.47,13,13,0,0,0-2.37-.27h-3.33a10.44,10.44,0,0,0-4.14.82,17.59,17.59,0,0,0-5.79-1.14c-.45,0-.89,0-1.33,0a9.92,9.92,0,0,0-8-5.26,17.19,17.19,0,0,0-7.11.77,13.93,13.93,0,0,0-6.11,4,.52.52,0,0,1-.1-.11,10.06,10.06,0,0,0-7.44-2.87c-.64,0-1.21,0-1.73,0a10,10,0,0,0-7.47,2.87c-.26.26-.49.53-.72.81a16.62,16.62,0,0,0-10.72,1.72,13.43,13.43,0,0,0-2.4-1.11,15.48,15.48,0,0,0-9.41-.24,12.37,12.37,0,0,0-2.3-.24h-3.25c-.29,0-.58,0-.86,0a11.47,11.47,0,0,0-1.56-.2,14.23,14.23,0,0,0-4.13.45,11.51,11.51,0,0,0-1.87-.22c-1,0-2,0-3,0h-1.11a9.93,9.93,0,0,0-3.4.6,16.54,16.54,0,0,0-10.15-.27,11.56,11.56,0,0,0-1-1.2,10,10,0,0,0-7.22-2.88c-.71,0-1.43,0-2.14,0a9.9,9.9,0,0,0-7.31,2.9,10.1,10.1,0,0,0-.68.77,14.68,14.68,0,0,0-2.59-.23h-.06a16.15,16.15,0,0,0-4.32.6l-.17,0a9.8,9.8,0,0,0-9.13-5.67h-4.56c-.83,0-1.67,0-2.5,0a9.84,9.84,0,0,0-7.37,3,10,10,0,0,0-2.77,7.46c0,.41,0,.82,0,1.24a9.89,9.89,0,0,0,2.29,6.6v1.85a9.91,9.91,0,0,0-2.27,6.86c0,.32,0,.57,0,.72A9.94,9.94,0,0,0,343.36,203h.22c.77,0,1.55,0,2.32,0h4.66a9.94,9.94,0,0,0,1.82-.17,9.85,9.85,0,0,0,1.73.16h6.69a10.44,10.44,0,0,0,2.44-.29,10.09,10.09,0,0,0,2.42.29h3.42c.43,0,.87,0,1.28,0a10.21,10.21,0,0,0,3.86-.75,17.08,17.08,0,0,0,5.46.85c.51,0,1,0,1.57-.06a9.91,9.91,0,0,0,3.1-.74,17.18,17.18,0,0,0,5.84,1,21.21,21.21,0,0,0,2.37-.14,18.24,18.24,0,0,0,3.22-.68,10.66,10.66,0,0,0,3.2.5h.3c.53,0,1.07,0,1.6,0h4.57a10.27,10.27,0,0,0,2.94-.4,10.75,10.75,0,0,0,2.9.41h6.4a9.4,9.4,0,0,0,2.56-.3,10.21,10.21,0,0,0,2.42.29h4.76a10,10,0,0,0,3.61-.68,17.47,17.47,0,0,0,5.84,1,21.56,21.56,0,0,0,2.26-.13,18.36,18.36,0,0,0,5.8-1.68,16.32,16.32,0,0,0,7.25,1.59q.78,0,1.59-.06a9.8,9.8,0,0,0,3.4-.88,10.07,10.07,0,0,0,4,.82h6.73a10.4,10.4,0,0,0,4.42-.94,18.33,18.33,0,0,0,6.33,1.23h.37a17.3,17.3,0,0,0,6.13-1.16,10.18,10.18,0,0,0,4,.84h6.65a9.9,9.9,0,0,0,6.23-2.16,14.59,14.59,0,0,0,8.12,2.43,14.8,14.8,0,0,0,3.85-.5,12.88,12.88,0,0,0,1.68.19c.82,0,1.64,0,2.46,0h1a10,10,0,0,0,3.1-.49,14.88,14.88,0,0,0,4.16.58,18.73,18.73,0,0,0,1.95-.1,10.23,10.23,0,0,0,1.56-.3,15,15,0,0,0,3.46.4,18.84,18.84,0,0,0,2-.11,10,10,0,0,0,9-10v-.19C544.35,192.15,544.35,191.68,544.36,191.22ZM512.43,187l.35,0v1c-.22.19-.44.38-.68.55a1.36,1.36,0,0,1-.55-.05l-.17-.07A9.31,9.31,0,0,1,512.43,187Zm-34.85.9a5.76,5.76,0,0,0-.27-.73,9.85,9.85,0,0,0,1.28-2.91,2.35,2.35,0,0,1,.39-.05,2,2,0,0,1,.52.2,10.38,10.38,0,0,0,.85,2.14,9.77,9.77,0,0,0-.68,1.78,1.52,1.52,0,0,1-.85.3A1.84,1.84,0,0,1,477.58,187.89Zm-40.62,0v.56a9.16,9.16,0,0,0-.33-1C436.74,187.62,436.84,187.78,437,187.92Zm-47.15-.86c0,.11-.09.22-.14.33,0-.11-.1-.22-.14-.33Z"/><polygon class="cls-2" points="398.85 154.7 362.58 108.01 362.63 154.73 342.78 154.75 342.69 72.88 360.04 72.86 395.12 118.05 395.07 72.83 414.93 72.81 415.01 154.68 398.85 154.7"/><rect class="cls-2" x="428.11" y="72.78" width="20.07" height="81.87" transform="translate(-0.12 0.46) rotate(-0.06)"/><path class="cls-2" d="M501.24,155.88a41.14,41.14,0,0,1-29.73-12.22,42.13,42.13,0,0,1-11.89-29.75v-.21a42.44,42.44,0,0,1,11.76-29.8,41.78,41.78,0,0,1,30.31-12.47c16.41,0,25.58,6.73,31.74,12.6l2.38,2.26-12.93,14.94-2.62-2.42c-6.34-5.89-11.92-8.39-18.66-8.38-12.14,0-21.29,9.91-21.27,23v.22c0,13.24,9.18,23.22,21.32,23.2,8.1,0,13.34-3.39,19.17-8.84l2.45-2.29L536.41,139l-2.23,2.42C525,151.41,514.86,155.86,501.24,155.88Z"/><path class="cls-3" d="M304.88,154.79l-36.26-46.68.05,46.72-19.85,0L248.73,73l17.35,0,35.08,45.19-.05-45.22,19.84,0A104.46,104.46,0,0,0,141.54,51a104.39,104.39,0,0,1,.13,126A104.46,104.46,0,0,0,321,154.78Zm-94.32.64-16.18,0-34.1-82.38,22.07,0,20.3,51.6L222.74,73l21.75,0Z"/><path class="cls-4" d="M95.54,200.58c-5.55,1-10.65,4.29-11.18,6.88-.6,2.08,3,2.57,7.94,1.41,4.67-1.34,9.52-3.82,10.79-5.77C104.26,200.64,101,199.36,95.54,200.58Zm33.46-31c-5,1.41-10,6.67-10.92,11.51-1,4.44,1.93,6.46,6.38,4.78a21.6,21.6,0,0,0,10.14-10.62C135.94,170.85,133.56,168.15,129,169.59Zm-30.14,6.18c-6.46.83-12,5.94-12.23,11.1-.34,4.78,4.37,7.65,10.32,6.66,5.71-1.13,11-5.59,11.79-10.18C109.46,178.37,105.09,174.84,98.86,175.77Zm-35.88,3c-6.88.18-12.08,4.76-11.57,9.93.5,4.77,6.09,8.36,12.43,8.23,6.4-.3,11.57-4.26,11.58-9C75.47,182.72,69.82,178.51,63,178.82Zm36.5-14.38a14.21,14.21,0,0,0,12.11-13,10.61,10.61,0,0,0-11.73-11.15,13.82,13.82,0,0,0-12.58,13.52C87.28,160.46,92.83,165.17,99.48,164.44ZM98.91,62.23A10.61,10.61,0,0,0,87.2,73.41a14.2,14.2,0,0,0,12.14,13c6.65.71,12.18-4,12.18-10.63A13.83,13.83,0,0,0,98.91,62.23Zm-36.48,105c7.07-.31,12.79-5.92,12.61-12.6-.16-6.91-6.32-12.41-13.68-12.09s-13,6.21-12.59,13.08C49.21,162.29,55.35,167.45,62.43,167.24ZM23.11,143.3a10.32,10.32,0,0,0-10.48,11.9,14.36,14.36,0,0,0,13,12,10.33,10.33,0,0,0,11-11.45A13.83,13.83,0,0,0,23.11,143.3Zm125.37-31.79c.16,6.12,3,10.77,6.08,10.28,2.53-.48,4.25-5.29,4.14-10.69-.32-5.38-2.43-10-5-10.31C150.63,100.54,148.14,105.4,148.48,111.51Zm-16.77-11.46c-5.48,0-9.87,5.63-9.54,12.52s5.06,12.19,10.52,11.72c5.07-.47,8.86-6.08,8.68-12.49C141,105.4,136.8,100.11,131.71,100.05Zm-32,26.59c6.79-.4,12-6.52,11.79-13.64s-6-12.78-12.86-12.64c-7,.15-12.58,6.31-12.27,13.65S92.67,127.06,99.68,126.64Zm-38.93,1.93a13.51,13.51,0,1,0-14.06-13A13.58,13.58,0,0,0,60.75,128.57Zm-38.62,1.17c6.91-.15,12.39-6.28,12.06-13.64s-6.22-13-13.12-12.59c-6.65.38-11.79,6.53-11.56,13.57S15.47,129.89,22.13,129.74Zm96.8-54.47c.82,6.39,6.12,11.93,11.54,12.19,5,.32,8.12-4.35,7.12-10.22-1.18-5.75-5.86-10.95-10.72-11.82C121.68,64.71,118,69.06,118.93,75.27Zm10.81,61.52c-4.86.88-9.53,6.09-10.7,11.84-1,5.87,2.11,10.54,7.15,10.2,5.42-.26,10.71-5.82,11.51-12.21C138.63,140.41,134.94,136.06,129.74,136.79Zm-70.6-49.2c7.36-.28,13.06-6.26,12.66-13.16-.36-6.67-6.52-11.8-13.59-11.54s-12.78,6-12.67,12.66C45.68,82.44,51.76,87.92,59.14,87.59ZM21,89.91A13.84,13.84,0,0,0,33.41,76.42,10.33,10.33,0,0,0,21.55,65.9a14.35,14.35,0,0,0-12,13A10.33,10.33,0,0,0,21,89.91ZM112.56,44.6c1.33,4.74,6.74,9.59,11.82,10.59,4.66,1.07,6.81-1.81,5.12-6.1-1.85-4-6.64-8.21-11-9.77C114,38,111.16,40.25,112.56,44.6Zm-9.49-1.49c-1.2-4.51-6.79-8.54-12.57-9.2-6-.51-10.48,2.73-9.76,7.46.63,5.13,6.59,9.77,13.1,10.09C100.12,51.88,104.19,48,103.07,43.11ZM57.82,51.3c6.85-.25,12.14-4.89,11.67-10.08-.4-4.78-5.87-8.31-12.27-8.09-6.33.38-11.61,4.41-11.73,9.2C45.4,47.53,51,51.67,57.82,51.3Zm38-27.42C94.43,22,89.39,20,84.63,19c-5-.76-8.57,0-7.8,2,.73,2.55,6.08,5.37,11.7,6C94,27.78,97.22,26.23,95.85,23.88Zm49.61,58c2.1,5.25,5.54,8.82,7.7,8s2.19-5.81.1-11.06-5.54-8.82-7.69-8S143.37,76.66,145.46,81.92ZM155,132.73c-2.21-.68-5.36,3.15-7,8.56s-1.23,10.34,1,11,5.36-3.15,7-8.55S157.23,133.41,155,132.73ZM142.31,167c-2.8,4.3-4.42,8.21-3.62,8.72s3.71-2.54,6.51-6.84,4.42-8.21,3.62-8.72S145.11,162.71,142.31,167Zm2.44-104.24c.76-.58-1.14-4.35-4.25-8.43s-6.25-6.92-7-6.35,1.15,4.35,4.26,8.43S144,63.34,144.75,62.77ZM110.29,31c4.33,2.55,8.16,4.05,8.58,3.35s-2.76-3.33-7.08-5.88-8.16-4.05-8.58-3.35S106,28.49,110.29,31ZM117,194.65c-4.12,2.87-7.09,5.72-6.62,6.39s4.18-1.11,8.3-4,7.09-5.72,6.62-6.38S121.16,191.79,117,194.65Z"/><path class="cls-2" d="M359.06,182.11a5.79,5.79,0,0,1,5.09-2.88,4.25,4.25,0,0,1,4.57,4.28c.15,2.18,0,4.35.08,6.53,0,.72,0,.71.75.72,1.39,0,1.24-.17,1.25,1.23v1c0,.3-.11.47-.44.47h-4.7a.4.4,0,0,1-.44-.44c0-.15,0-.31,0-.47v-6.95c0-.28,0-.57,0-.85-.06-1.81-1.1-2.62-2.87-2.18a4,4,0,0,0-3,3.51,24.56,24.56,0,0,0-.12,4.29c0,.27.16.35.4.35s.72,0,1.09,0,.5.12.49.47c0,.6,0,1.2,0,1.79,0,.31-.11.48-.43.48h-6.69c-.31,0-.42-.16-.41-.45,0-.61,0-1.23,0-1.84,0-.33.14-.46.46-.46s.73,0,1.09,0,.45-.11.45-.44c0-2.48,0-5,0-7.43a.54.54,0,0,0-.6-.62H354c-.29,0-.46-.1-.46-.4,0-.63,0-1.26,0-1.89,0-.27.13-.4.41-.4,1.2,0,2.41,0,3.61,0a1.43,1.43,0,0,1,1.51,1.62Z"/><path class="cls-2" d="M416.21,181.79c.23-.27.43-.54.67-.79a5.68,5.68,0,0,1,6.27-1.47,3.71,3.71,0,0,1,2.39,2.8,7,7,0,0,1,.22,1.77c0,2,0,4,0,6,0,.45.13.64.59.59s.66,0,1,0,.48.11.48.44c0,.63,0,1.26,0,1.89a.36.36,0,0,1-.41.41h-4.74c-.41,0-.38-.28-.38-.56q0-3.81,0-7.61a5.39,5.39,0,0,0-.19-1.45,1.69,1.69,0,0,0-1.64-1.34,3.5,3.5,0,0,0-3.45,1.9,5.29,5.29,0,0,0-.73,2.66c0,1,0,2.08,0,3.12,0,.41.11.59.54.55s.66,0,1,0,.46.15.46.46q0,.9,0,1.8c0,.34-.14.49-.48.48h-2c-1.49,0-3,0-4.46,0-.46,0-.63-.16-.61-.61s0-1.11,0-1.66c0-.34.15-.49.48-.48s.67,0,1,0,.53-.14.52-.52c0-1.77,0-3.54,0-5.3,0-.66,0-1.33,0-2s-.17-.67-.69-.68c-.33,0-.66,0-1,0s-.47-.14-.46-.45c0-.59,0-1.17,0-1.75,0-.36.16-.5.52-.5,1.08,0,2.15,0,3.23,0s1.71.47,1.83,1.69C416.14,181.4,416.08,181.6,416.21,181.79Z"/><path class="cls-2" d="M478.87,193.7a7.69,7.69,0,0,1-5.61-2.25,7.24,7.24,0,0,1-.68-9.28,8,8,0,0,1,12.78.3,7.24,7.24,0,0,1-3.3,10.61A7.92,7.92,0,0,1,478.87,193.7Zm4-7.27c0-.13,0-.26,0-.38a4,4,0,0,0-6.61-2.89,4.47,4.47,0,0,0-1.13,4.82,4,4,0,0,0,7.75-1.55Z"/><path class="cls-2" d="M514.43,191.48a13.84,13.84,0,0,1-1,1.05,5.09,5.09,0,0,1-6.75-.28,4.09,4.09,0,0,1,.78-6.18,10.29,10.29,0,0,1,4.75-1.34c.51,0,1-.07,1.56-.07.36,0,.45-.16.45-.5a2,2,0,0,0-2-2.15,6.61,6.61,0,0,0-3.75,1c-.6.32-.6.32-.91-.27s-.53-1-.81-1.5c-.12-.22-.15-.41.11-.56a8.86,8.86,0,0,1,8.19-1,4.37,4.37,0,0,1,2.68,3.64,28.72,28.72,0,0,1,.15,4.25c0,.83,0,1.67,0,2.5,0,.4.18.59.58.56h0c1.3,0,1.19-.19,1.2,1.24,0,.35,0,.7,0,1s-.13.47-.45.47c-1,0-2.06,0-3.09,0a1.51,1.51,0,0,1-1.6-1.57C514.52,191.68,514.55,191.57,514.43,191.48Zm-1.23-4.55a7.06,7.06,0,0,0-2.78.57,1.8,1.8,0,0,0-1.17,1.48,1.85,1.85,0,0,0,2.37,1.94,3.62,3.62,0,0,0,2.61-3C514.33,187,514.3,186.91,513.2,186.93Z"/><path class="cls-2" d="M391.25,187.06h-4.13c-.63,0-.69.1-.52.73.59,2.23,2.54,3.29,5,2.85a6.67,6.67,0,0,0,2.55-1.1c.32-.23.48-.17.64.17.28.56.58,1.12.91,1.66a.47.47,0,0,1-.15.74,8.72,8.72,0,0,1-4.11,1.6,8,8,0,0,1-5-.84,6.89,6.89,0,0,1-3.55-5.1,7.54,7.54,0,0,1,1.25-5.77,7,7,0,0,1,9.35-1.71,6,6,0,0,1,2.48,4.55,9.53,9.53,0,0,1,0,1.69c0,.39-.18.52-.56.52Zm-1.77-2.19h2.42c.23,0,.48,0,.45-.33a2.66,2.66,0,0,0-2-2.46,3.17,3.17,0,0,0-3.72,2.32c-.09.37,0,.49.38.48Z"/><path class="cls-2" d="M437.83,187c-1.39,0-2.79,0-4.18,0-.41,0-.56.09-.46.55a3.82,3.82,0,0,0,3.75,3.13,6.3,6.3,0,0,0,3.83-1.18c.34-.23.5-.18.68.18.25.52.55,1,.82,1.54s.28.61-.26,1a8.77,8.77,0,0,1-4,1.48,7.92,7.92,0,0,1-5.45-1.16,6.83,6.83,0,0,1-3.08-5.1,7.35,7.35,0,0,1,2.32-6.6c2.5-2.28,6.88-2.23,9.11.13a7,7,0,0,1,1.72,5.61c0,.37-.24.45-.57.45Zm-1.75-2.18h2.47c.28,0,.43-.08.43-.41a2.56,2.56,0,0,0-2.31-2.42,3.15,3.15,0,0,0-3.35,2.35c-.12.36,0,.5.34.49C434.47,184.82,435.27,184.83,436.08,184.83Z"/><path class="cls-2" d="M466.29,186.4c0,1.24,0,2.49,0,3.73,0,.39.13.55.53.53s.82,0,1.23,0,.58.12.56.55,0,1.07,0,1.6-.14.61-.59.61c-1.74,0-3.48,0-5.22,0-.52,0-1.05,0-1.57,0s-.54-.15-.53-.53c0-.55,0-1.1,0-1.66,0-.39.14-.58.56-.56s.72,0,1.09,0,.4-.1.4-.39q0-3.86,0-7.71c0-.28-.1-.4-.39-.39s-.85,0-1.28,0-.5-.1-.5-.46c0-.59,0-1.19,0-1.79,0-.33.14-.46.46-.45s.76,0,1.14,0,.61-.11.57-.56a5.11,5.11,0,0,1,.21-1.82,4.25,4.25,0,0,1,2.9-2.94,8.08,8.08,0,0,1,3.28-.32.49.49,0,0,1,.51.58c0,.65,0,1.29,0,1.94,0,.3-.12.42-.43.41a8.42,8.42,0,0,0-1.23,0,2,2,0,0,0-1.67,2.45c.07.26.27.23.45.23.7,0,1.39,0,2.09,0,.44,0,.59.17.57.59s0,1,0,1.56-.14.57-.56.56c-.68,0-1.36,0-2,0-.42,0-.54.15-.54.55C466.3,183.94,466.29,185.17,466.29,186.4Z"/><path class="cls-2" d="M347,193.53c-1.19,0-2.38,0-3.56,0-.46,0-.62-.16-.59-.61s0-1.1,0-1.65c0-.38.12-.55.51-.53s.89,0,1.33,0,.46-.12.45-.44c0-.71,0-1.42,0-2.13,0-3.53,0-7.06,0-10.59,0-.48-.14-.65-.62-.61s-.82,0-1.23,0-.45-.14-.44-.45c0-.62,0-1.23,0-1.85,0-.41.14-.56.55-.55,1.25,0,2.49,0,3.74,0h3.37c.57,0,.63.06.64.62s0,1.16,0,1.75c0,.34-.15.49-.49.48s-.76,0-1.14,0c-.72,0-.72,0-.72.74,0,3.92,0,7.85,0,11.77,0,.27,0,.53,0,.8s.12.46.45.45c.49,0,1,0,1.47,0,.3,0,.43.13.43.43,0,.61,0,1.23,0,1.84,0,.4-.18.52-.55.52Z"/><path class="cls-2" d="M450.06,185.52c0,.8,0,1.61,0,2.41a2.35,2.35,0,0,0,2.57,2.61c.78,0,.78,0,.78.8v1.71c0,.22-.06.42-.32.44a6.5,6.5,0,0,1-5.15-1.38,4.88,4.88,0,0,1-1.48-3.76c0-1.84,0-3.69,0-5.53,0-.63,0-.63-.64-.63h-1c-.32,0-.47-.12-.47-.44q0-.9,0-1.8c0-.35.16-.47.49-.46s.82,0,1.23,0,.48-.12.48-.47c0-.9,0-1.8,0-2.69,0-.44.13-.63.6-.62.77,0,1.55,0,2.32,0,.43,0,.6.14.59.57,0,.86,0,1.71,0,2.56,0,.64,0,.64.67.64s1.3,0,1.94,0c.37,0,.53.13.52.49q0,.85,0,1.71c0,.35-.14.51-.51.5-.69,0-1.39,0-2.08,0-.43,0-.55.15-.54.56,0,.93,0,1.86,0,2.79Z"/><path class="cls-2" d="M377.52,185.56c0,.78,0,1.57,0,2.36a2.38,2.38,0,0,0,2.59,2.69c.79,0,.76,0,.76.81v1.7c0,.23-.05.43-.31.45a6.56,6.56,0,0,1-5.19-1.42,4.67,4.67,0,0,1-1.4-3.31c-.13-2,0-3.91-.06-5.86,0-.72,0-.72-.75-.72h-.52c-.82,0-.82,0-.83-.84,0-.46,0-.92,0-1.38s.14-.49.49-.48.85,0,1.28,0,.49-.14.48-.5c0-.91,0-1.83,0-2.74,0-.38.12-.55.51-.54.83,0,1.65,0,2.47,0,.35,0,.48.14.48.48,0,.85,0,1.7,0,2.55s0,.74.76.74,1.24,0,1.85,0c.4,0,.54.15.53.53,0,.57,0,1.14,0,1.7,0,.35-.14.48-.49.48-.72,0-1.45,0-2.18,0-.34,0-.48.12-.47.47C377.52,183.67,377.52,184.61,377.52,185.56Z"/><path class="cls-2" d="M494.25,182.06a6.93,6.93,0,0,1,1.84-2.07,4.23,4.23,0,0,1,2.55-.74c.38,0,.54.16.53.55,0,.83,0,1.67,0,2.5,0,.33-.11.51-.47.48-2.8-.23-4.16,1.84-4.35,4.24-.08,1,0,2.11,0,3.17,0,.33.15.45.46.44h1c.34,0,.48.15.48.48q0,.9,0,1.8c0,.31-.13.46-.45.46h-6.65c-.28,0-.44-.11-.43-.42q0-.94,0-1.89c0-.31.13-.44.42-.43s.7,0,1,0,.49-.13.48-.47c0-1.06,0-2.12,0-3.17,0-1.31,0-2.62,0-3.93,0-.87-.05-.92-1-.92h-.62c-.38,0-.55-.11-.54-.51,0-.56,0-1.13,0-1.7,0-.37.15-.5.51-.49,1.09,0,2.19,0,3.28,0s1.63.45,1.77,1.59C494.22,181.38,494.22,181.72,494.25,182.06Z"/><path class="cls-2" d="M403.84,182.3a6.77,6.77,0,0,1,1.94-2.21,4.12,4.12,0,0,1,2.59-.74c.33,0,.49.16.48.49,0,.85,0,1.71,0,2.56,0,.37-.16.5-.53.47a3.8,3.8,0,0,0-2.24.45,4.45,4.45,0,0,0-2,3.8c-.07,1,0,2.07,0,3.12,0,.37.15.5.51.48s.7,0,1,0a.33.33,0,0,1,.38.38v2c0,.38-.26.37-.52.37h-3.7c-.91,0-1.81,0-2.71,0-.46,0-.62-.17-.6-.61s0-1.11,0-1.66c0-.33.14-.49.48-.48s.67,0,1,0,.53-.14.52-.53c0-1.32,0-2.64,0-4V183c0-.58-.15-.72-.74-.73h-.95c-.26,0-.42-.09-.42-.38v-1.94a.33.33,0,0,1,.38-.37c1.24,0,2.47,0,3.7,0a1.44,1.44,0,0,1,1.45,1.46C403.86,181.45,403.84,181.88,403.84,182.3Z"/><path class="cls-2" d="M525.82,181.75q0,3.33,0,6.66c0,.22,0,.45,0,.66.07,1.07.42,1.41,1.48,1.4.41,0,.58.12.57.53q0,.94,0,1.89a.43.43,0,0,1-.44.5,5.93,5.93,0,0,1-3.2-.4,3.11,3.11,0,0,1-1.68-2.06,6.72,6.72,0,0,1-.29-2c0-3.86,0-7.73,0-11.59,0-.68,0-.68-.67-.68-.35,0-.7,0-1,0s-.4-.13-.4-.41q0-.95,0-1.89c0-.3.12-.45.41-.45h4.84c.38,0,.4.26.4.55,0,1.9,0,3.79,0,5.68Z"/><path class="cls-2" d="M532.79,181.74v6.67c0,.22,0,.44,0,.66.07,1.06.42,1.4,1.48,1.39.41,0,.58.13.57.54q0,.94,0,1.89a.42.42,0,0,1-.44.49,5.93,5.93,0,0,1-3.2-.39,3.1,3.1,0,0,1-1.68-2.06,6.84,6.84,0,0,1-.29-2c0-3.86,0-7.72,0-11.58,0-.69,0-.69-.67-.69h-1c-.28,0-.4-.13-.4-.41,0-.63,0-1.26,0-1.89,0-.29.12-.44.42-.44h4.84c.38,0,.4.27.4.56v5.67C532.79,180.7,532.79,181.22,532.79,181.74Z"/></g></g></svg>