<?xml version="1.0" encoding="utf-8"?>
<!-- Generator: Adobe Illustrator 16.0.2, SVG Export Plug-In . SVG Version: 6.00 Build 0)  -->
<!DOCTYPE svg PUBLIC "-//W3C//DTD SVG 1.1//EN" "http://www.w3.org/Graphics/SVG/1.1/DTD/svg11.dtd">
<svg version="1.1" id="Layer_1" xmlns="http://www.w3.org/2000/svg" xmlns:xlink="http://www.w3.org/1999/xlink" x="0px" y="0px"
	 viewBox="0 0 735 735" enable-background="new 0 0 735 735" xml:space="preserve">
<g>
	<g>
		<path fill-rule="evenodd" clip-rule="evenodd" fill="#D3101D" d="M1,391c0-2.667,0-5.333,0-8c1.771-6.6,0.125-13.302,0.521-19.955
			C1.697,360.087,2.832,356.904,1,354c0-3.333,0-6.667,0-10c1.688-3.451,1.726-7.285,2.134-10.94
			c2.762-24.695,7.124-49.074,14.746-72.748c31.083-96.549,91.293-169.091,180.639-217.003
			C241.962,20.012,288.487,6.34,337.85,2.969C339.727,2.84,341.776,2.938,343,1c15.667,0,31.333,0,47,0
			c0.428,1.302,1.572,0.956,2.494,1.054c10.264,1.083,20.59,1.745,30.782,3.291c45.712,6.933,88.743,21.762,128.704,45.068
			c65.674,38.303,115.147,91.762,148.154,160.24c17.475,36.254,28.492,74.475,33.135,114.525c0.728,6.276,0.205,12.79,2.73,18.821
			c0,17,0,34,0,51c-1.993,0.752-1.14,2.552-1.281,3.861c-1.437,13.235-2.982,26.44-5.542,39.528
			c-13.354,68.289-43.665,128.026-90.679,179.209c-35.135,38.249-76.646,67.666-124.369,88.31
			c-32.11,13.89-65.48,22.946-100.186,27.312c-7.313,0.92-14.783,0.666-21.943,2.78c-15.667,0-31.333,0-47,0
			c-0.663-1.426-2.008-0.902-3.064-0.979c-32.703-2.381-64.544-8.913-95.415-19.986C171.017,687.95,110.482,641.231,65.203,575.15
			C27.466,520.076,6.832,458.854,2.23,392.24C2.179,391.495,1.779,391.048,1,391z M368.771,224.797
			c-45.824,0-91.649-0.023-137.474,0.009c-23.651,0.018-42.717,9.871-57.582,27.85c-11.229,13.579-16.413,29.555-16.433,47.136
			c-0.056,48.491-0.037,96.981-0.028,145.473c0.008,44.19,32.326,76.645,76.603,76.682c89.982,0.074,179.965,0.086,269.948-0.005
			c44.121-0.044,76.195-32.313,76.232-76.453c0.041-48.324,0.038-96.648,0.002-144.973c-0.033-43.328-32.384-75.663-75.795-75.719
			C459.087,224.738,413.93,224.783,368.771,224.797z"/>
		<path fill-rule="evenodd" clip-rule="evenodd" fill="#FEFDFD" d="M368.771,224.79c45.158-0.007,90.315-0.052,135.474,0.006
			c43.411,0.056,75.762,32.391,75.795,75.719c0.036,48.324,0.039,96.648-0.002,144.973c-0.037,44.14-32.111,76.409-76.232,76.453
			c-89.982,0.091-179.966,0.079-269.948,0.005c-44.277-0.037-76.595-32.491-76.603-76.682c-0.009-48.491-0.028-96.981,0.028-145.473
			c0.02-17.581,5.205-33.557,16.433-47.136c14.865-17.979,33.931-27.832,57.582-27.85
			C277.123,224.773,322.947,224.797,368.771,224.79z M435.986,372.215c-1.806-1.099-2.859-1.827-3.988-2.413
			c-26.111-13.568-52.233-27.118-78.35-40.679c-8.73-4.533-17.478-9.033-26.163-13.649c-4.364-2.319-3.308,1.095-3.318,3.087
			c-0.201,36.633-0.358,73.265-0.508,109.896c-0.005,1.068-0.426,2.328,1.016,3.065C361.57,411.863,398.49,392.192,435.986,372.215z
			"/>
		<path fill-rule="evenodd" clip-rule="evenodd" fill="#D3101D" d="M435.986,372.215c-37.496,19.978-74.416,39.648-111.312,59.308
			c-1.441-0.737-1.021-1.997-1.016-3.065c0.149-36.632,0.307-73.264,0.508-109.896c0.011-1.992-1.046-5.406,3.318-3.087
			c8.686,4.616,17.433,9.116,26.163,13.649c26.116,13.561,52.238,27.11,78.35,40.679
			C433.127,370.388,434.181,371.116,435.986,372.215z"/>
	</g>
</g>
</svg>
