<?xml version="1.0" encoding="utf-8"?>
<!-- Generator: Adobe Illustrator 16.0.2, SVG Export Plug-In . SVG Version: 6.00 Build 0)  -->
<!DOCTYPE svg PUBLIC "-//W3C//DTD SVG 1.1//EN" "http://www.w3.org/Graphics/SVG/1.1/DTD/svg11.dtd">
<svg version="1.1" id="Layer_1" xmlns="http://www.w3.org/2000/svg" xmlns:xlink="http://www.w3.org/1999/xlink" x="0px" y="0px"
	 viewBox="0 105.067 612 611.5" enable-background="new 0 105.067 612 611.5" xml:space="preserve">
<title>logo-zalo-vector</title>
<g>
	<circle fill="#0779E0" cx="305.75" cy="410.817" r="305.75"/>
	<path fill="#FFFFFF" d="M111.086,466.43c24.283,0,47.118-0.162,69.792,0c12.705,0.161,19.62,5.467,20.906,15.599
		c1.448,12.705-5.95,21.227-19.78,21.388c-26.052,0.322-51.942,0.163-77.995,0.163c-7.559,0-14.956,0.321-22.514-0.163
		c-9.327-0.482-18.493-2.411-22.997-12.061c-4.502-9.649-1.286-18.333,4.826-26.212c24.765-31.521,49.691-63.2,74.618-94.721
		c1.447-1.929,2.894-3.859,4.341-5.628c-1.608-2.733-3.859-1.447-5.789-1.608c-17.368-0.161-34.897,0-52.265-0.161
		c-4.021,0-8.041-0.483-11.9-1.286c-9.167-2.091-14.795-11.257-12.705-20.263c1.448-6.111,6.273-11.096,12.383-12.543
		c3.86-0.966,7.88-1.447,11.9-1.447c28.625-0.161,57.411-0.161,86.036,0c5.146-0.161,10.131,0.481,15.116,1.768
		c10.935,3.699,15.599,13.83,11.257,24.444c-3.859,9.166-9.971,17.046-16.081,24.927c-21.067,26.855-42.134,53.549-63.201,80.086
		C115.267,460.801,113.658,462.89,111.086,466.43L111.086,466.43z"/>
	<path fill="#FFFFFF" d="M297.631,381.841c3.859-4.986,7.88-9.649,14.475-10.936c12.702-2.573,24.603,5.628,24.763,18.494
		c0.484,32.164,0.323,64.325,0,96.488c0,8.363-5.467,15.76-13.347,18.174c-8.04,3.057-17.207,0.643-22.515-6.271
		c-2.732-3.377-3.859-4.021-7.719-0.967c-14.634,11.901-31.198,13.991-49.048,8.201c-28.625-9.327-40.364-31.68-43.581-58.855
		c-3.377-29.43,6.433-54.518,32.806-69.956C255.336,363.187,277.529,364.312,297.631,381.841L297.631,381.841z M240.703,440.537
		c0.321,7.076,2.573,13.831,6.753,19.459c8.685,11.579,25.248,13.991,36.988,5.308c1.928-1.447,3.699-3.216,5.307-5.308
		c9.005-12.221,9.005-32.322,0-44.545c-4.503-6.271-11.578-9.971-19.138-10.133C252.924,404.194,240.542,417.862,240.703,440.537z
		 M409.075,441.502c-1.286-41.328,25.892-72.205,64.486-73.33c41.008-1.287,70.92,26.212,72.206,66.416
		c1.287,40.686-23.64,69.473-62.074,73.331C441.72,512.101,408.433,481.706,409.075,441.502L409.075,441.502z M449.439,437.643
		c-0.321,8.042,2.091,15.921,6.915,22.514c8.845,11.58,25.41,13.831,36.987,4.826c1.769-1.286,3.217-2.895,4.664-4.503
		c9.328-12.222,9.328-32.806,0.16-45.028c-4.503-6.111-11.578-9.971-19.138-10.133C461.662,404.354,449.439,417.541,449.439,437.643
		z M394.923,409.501c0,24.926,0.16,49.853,0,74.778c0.16,11.417-8.844,20.907-20.262,21.229c-1.931,0-4.021-0.16-5.951-0.645
		c-8.041-2.089-14.15-10.613-14.15-20.743V356.271c0-7.558-0.161-14.956,0-22.514c0.159-12.383,8.04-20.423,19.94-20.423
		c12.223-0.161,20.423,7.879,20.423,20.745C395.083,359.167,394.923,384.415,394.923,409.501z"/>
</g>
</svg>
