<?xml version="1.0" encoding="utf-8"?>
<!-- Generator: Adobe Illustrator 16.0.2, SVG Export Plug-In . SVG Version: 6.00 Build 0)  -->
<!DOCTYPE svg PUBLIC "-//W3C//DTD SVG 1.1//EN" "http://www.w3.org/Graphics/SVG/1.1/DTD/svg11.dtd">
<svg version="1.1" id="Layer_1" xmlns="http://www.w3.org/2000/svg" xmlns:xlink="http://www.w3.org/1999/xlink" x="0px" y="0px"
	 width="380px" height="119px" viewBox="0 0 380 119" enable-background="new 0 0 380 119" xml:space="preserve">
<g xmlns="http://www.w3.org/2000/svg">
		<path fill-rule="evenodd" clip-rule="evenodd" fill="#03C977" d="M212.06,113.864c-6.151-2.192-8.021-4.641-8.027-11.015    c-0.032-28.817-0.037-57.636,0.005-86.453c0.009-6.105,2.441-9.113,8.04-10.434c0.98,0.286,1.986,0.173,2.981,0.173    c49.741,0.005,99.481,0.005,149.223,0c0.995,0,2.001,0.111,2.981-0.172c5.281,1.083,7.994,4.02,8.003,9.211    c0.051,29.733,0.026,59.467,0.023,89.2c-0.001,4.965-2.769,7.798-7.227,9.312c-0.357,0.329-0.76,0.397-1.205,0.204    c-7.229-0.188-14.458-0.241-21.685,0.029c-0.998,0.177-2.043,0.613-2.823-0.485c0.17-2.965,1.904-5.368,2.984-7.989    c7.042-17.081,14.132-34.144,21.275-51.182c1.818-4.336,1.062-7.211-2.104-8.692c-3.57-1.67-7.3-0.151-9.09,4.043    c-2.843,6.659-5.215,13.51-7.887,20.239c-0.415,1.044-0.799,2.104-1.303,3.107c-0.502,0.999-0.987,2.197-2.361,2.044    c-1.146-0.127-1.467-1.252-1.82-2.179c-2.896-7.58-5.491-15.272-8.417-22.842c-0.686-1.773-1.347-3.566-3.26-4.356    c-2.197-0.908-4.425-0.91-6.435,0.486c-1.991,1.384-2.277,3.461-1.934,5.687c0.23,1.494,0.819,2.877,1.382,4.267    c4.314,10.645,8.352,21.403,12.836,31.977c1.378,3.252,1.233,6.222-0.183,9.372c-2.131,4.738-5.062,9.258-4.456,14.843    c0.096,0.881-0.619,1.281-1.436,1.434c-34.125,0.171-68.243,0.024-102.359,0.075c-4.999,0.008-9.997-0.042-14.996,0.032    C212.545,113.821,212.303,113.843,212.06,113.864z"/>
		<path fill-rule="evenodd" clip-rule="evenodd" fill="#0068FE" d="M28.703,82.324c10.241,0,20.23-0.048,30.218,0.019    c5.901,0.039,8.837,3.254,8.442,8.941c-0.26,3.741-2.167,6.079-5.879,6.669c-2.207,0.352-4.467,0.501-6.704,0.51    c-12.12,0.047-24.24,0.028-36.36,0.014c-1.37-0.002-2.75-0.037-4.107-0.205c-8.705-1.081-11.847-7.39-7.078-14.946    c3.052-4.837,6.791-9.245,10.282-13.799c8.19-10.681,16.417-21.334,24.575-31.927c-0.798-1.466-1.925-0.871-2.792-0.876    c-7.747-0.055-15.493-0.017-23.24-0.045c-1.494-0.006-3.022-0.009-4.473-0.309c-3.793-0.785-5.929-3.373-6.044-7.051    c-0.121-3.856,1.972-6.762,5.818-7.645c1.803-0.415,3.719-0.457,5.584-0.463c12.12-0.038,24.24-0.054,36.36-0.002    c4.383,0.02,9.06-0.142,11.537,4.463c2.549,4.739-0.013,8.771-2.725,12.4C51.151,52.747,40.051,67.32,28.703,82.324z"/>
		<path fill-rule="evenodd" clip-rule="evenodd" fill="#0068FE" d="M121.144,70.608c0,6.116,0.006,12.233-0.001,18.351    c-0.005,3.68-1.321,6.764-4.93,8.029c-3.578,1.254-6.917,0.544-9.313-2.756c-0.67-0.923-1.06-1.742-2.582-0.76    c-11.544,7.455-22.713,5.576-31.202-5.106c-10.497-13.208-6.632-35.134,7.913-43.141c7.643-4.208,15.547-4.328,22.802,1.289    c1.385,1.073,1.96,1.259,3.149-0.219c2.364-2.941,5.573-3.698,9.092-2.368c3.599,1.358,5.041,4.272,5.062,7.956    C121.169,58.125,121.143,64.366,121.144,70.608z"/>
		<path fill-rule="evenodd" clip-rule="evenodd" fill="#0068FE" d="M199.332,70.214c0.014,16.27-11.064,27.758-26.834,27.826    c-15.573,0.067-26.827-11.572-26.897-27.82c-0.069-15.979,11.146-27.704,26.52-27.724    C188.305,42.476,199.318,53.693,199.332,70.214z"/>
		<path fill-rule="evenodd" clip-rule="evenodd" fill="#0068FE" d="M125.532,55.645c0-11.244,0.171-22.492-0.064-33.73    c-0.14-6.656,4.35-9.197,8.081-9.204c4.757-0.009,7.864,3.533,7.875,9.045c0.042,22.487,0.043,44.975,0,67.461    c-0.011,5.827-3.049,8.961-8.28,8.854c-4.911-0.102-7.589-3.249-7.604-9.07C125.513,77.882,125.532,66.764,125.532,55.645z"/>
		<path fill-rule="evenodd" clip-rule="evenodd" fill="#E0E0E0" d="M342.601,113.063c0.541,0.971,1.416,0.656,2.229,0.578    c7.469-0.46,14.941-0.248,22.413-0.113c0.273,0.052,0.546,0.104,0.819,0.157c-1.049,1.33-2.532,0.817-3.836,0.817    c-49.539,0.025-99.079,0.024-148.618,0.005c-1.198-0.001-2.521,0.415-3.548-0.644c-0.088-0.119-0.099-0.243-0.035-0.376    c36.822-0.195,73.645-0.02,110.466-0.1c2.983-0.007,5.98,0.288,8.95-0.215C335.149,112.159,338.873,112.508,342.601,113.063z"/>
		<path fill-rule="evenodd" clip-rule="evenodd" fill="#06C073" d="M367.263,5.963c-1.228,0.931-2.653,0.521-3.987,0.522    c-49.07,0.022-98.142,0.022-147.212,0c-1.333-0.001-2.761,0.413-3.986-0.523c1.113-0.086,2.227-0.249,3.34-0.249    c49.502-0.012,99.005-0.012,148.507,0C365.037,5.714,366.15,5.876,367.263,5.963z"/>
		<path fill-rule="evenodd" clip-rule="evenodd" fill="#FEFEFE" d="M211.91,59.333c-0.001-9.623-0.011-19.245,0.003-28.867    c0.01-6.995,2.124-9.066,9.229-9.078c5.998-0.01,11.998-0.06,17.995,0.01c14.438,0.166,25.105,10.411,25.259,24.187    c0.156,14.132-10.184,24.45-24.901,24.801c-3.247,0.077-6.503,0.137-9.744-0.023c-2.208-0.109-2.751,0.757-2.707,2.821    c0.119,5.496,0.081,10.997,0.027,16.494c-0.052,5.307-2.82,8.294-7.554,8.296c-4.682,0.001-7.568-3.066-7.593-8.275    C211.877,79.576,211.911,69.454,211.91,59.333z"/>
		<path fill-rule="evenodd" clip-rule="evenodd" fill="#FEFEFE" d="M316.561,70.633c0.001,5.988-0.045,11.979,0.017,17.969    c0.041,3.825-1.087,7.05-4.896,8.402c-3.63,1.289-6.929,0.479-9.169-2.961c-0.874-1.341-1.504-1.411-2.884-0.364    c-8.745,6.646-20.59,5.549-28.463-2.486c-11.398-11.634-10.898-31.751,1.064-42.769c7.849-7.23,18.927-7.932,27.334-1.589    c1.297,0.979,1.891,1.103,2.932-0.231c2.442-3.128,5.722-4.006,9.348-2.486c3.511,1.472,4.775,4.456,4.735,8.17    C316.512,58.403,316.561,64.518,316.561,70.633z"/>
		<path fill-rule="evenodd" clip-rule="evenodd" fill="#FEFEFE" d="M342.601,113.063c-3.546,1.087-7.089,1.146-10.628-0.033    c-0.251,0.296-0.442,0.277-0.563-0.108c-1.712-2.944-0.899-5.776,0.398-8.576c5.47-11.807,5.376-11.765,0.41-23.589    c-3.767-8.97-7.287-18.044-10.837-27.103c-1.774-4.528-0.319-8.098,3.688-9.536c3.866-1.388,7.604,0.458,9.212,4.763    c3.183,8.521,6.256,17.083,9.375,25.63c1.566-0.062,1.431-1.369,1.739-2.143c3.047-7.648,6.066-15.311,8.974-23.014    c0.949-2.516,2.476-4.395,4.98-5.215c2.812-0.921,5.431-0.346,7.606,1.79c2.192,2.153,2.153,4.686,1.096,7.278    c-3.251,7.969-6.555,15.919-9.867,23.865c-4.416,10.593-8.856,21.177-13.295,31.76    C344.268,110.315,343.836,111.908,342.601,113.063z"/>
		<path fill-rule="evenodd" clip-rule="evenodd" fill="#06BF73" d="M331.41,112.922c0.196-0.007,0.384,0.03,0.563,0.108    c-0.611,1.214-1.749,0.731-2.655,0.731c-38.486,0.025-76.974,0.021-115.46,0.007c-0.611,0-1.222-0.183-1.832-0.28    c1.395-0.835,2.931-0.451,4.398-0.452c36.707-0.022,73.414-0.017,110.12-0.022C328.166,113.014,329.788,112.954,331.41,112.922z"/>
		<path fill-rule="evenodd" clip-rule="evenodd" fill="#06BF73" d="M367.243,113.528c-7.469,0.488-14.941,0.282-22.413,0.113    c3.602-1.331,7.336-0.528,10.995-0.556C359.625,113.057,363.479,112.434,367.243,113.528z"/>
		<path fill-rule="evenodd" clip-rule="evenodd" fill="#363636" d="M83.21,70.236c0.006-9.104,5.933-14.624,13.77-12.821    c5.349,1.23,8.891,7.417,8.18,14.288c-0.739,7.144-4.843,11.644-10.739,11.773C87.92,83.619,83.205,78.052,83.21,70.236z"/>
		<path fill-rule="evenodd" clip-rule="evenodd" fill="#363636" d="M161.525,70.698c0.015-9.507,5.737-14.927,13.429-13.343    c2.764,0.568,4.816,2.06,6.216,4.396c2.812,4.693,3.132,9.681,1.129,14.72c-1.927,4.85-6.2,7.487-10.808,6.962    c-4.909-0.56-8.714-4.272-9.682-9.537C161.586,72.675,161.585,71.413,161.525,70.698z"/>
		<path fill-rule="evenodd" clip-rule="evenodd" fill="#03C977" d="M227.085,47.768c0-2.745,0.061-5.49-0.022-8.232    c-0.05-1.626,0.271-2.594,2.209-2.514c3.362,0.141,6.75-0.095,10.093,0.207c5.476,0.493,9.194,5.101,9.133,10.915    c-0.059,5.638-3.708,10.236-8.946,10.752c-3.462,0.341-6.979,0.061-10.469,0.169c-1.765,0.055-2.042-0.858-2.014-2.316    C227.127,53.755,227.086,50.761,227.085,47.768z"/>
		<path fill-rule="evenodd" clip-rule="evenodd" fill="#03C977" d="M300.667,70.46c-0.023,7.863-4.344,13.144-10.837,13.077    c-4.4-0.045-7.637-2.161-9.508-6.131c-1.828-3.877-2.031-7.933-0.819-12.05c1.585-5.38,5.021-8.096,10.256-8.113    c5.263-0.018,8.67,2.674,10.332,8.033C300.621,66.987,300.642,68.714,300.667,70.46z"/>
	</g>
</svg>
